<?xml version="1.0" encoding="iso-8859-1"?>
<!-- Generator: Adobe Illustrator 16.0.4, SVG Export Plug-In . SVG Version: 6.00 Build 0)  -->
<!DOCTYPE svg PUBLIC "-//W3C//DTD SVG 1.1//EN" "http://www.w3.org/Graphics/SVG/1.1/DTD/svg11.dtd">
<svg version="1.1" id="Layer_1" xmlns="http://www.w3.org/2000/svg" xmlns:xlink="http://www.w3.org/1999/xlink" x="0px" y="0px"
	 width="137.918px" height="21.479px" viewBox="0 0 137.918 21.479" style="enable-background:new 0 0 137.918 21.479;"
	 xml:space="preserve">
<g>
	<g>
		<path style="fill:#5E5E5E;" d="M11.208,7.824c0.768-0.368,1.348-0.84,1.74-1.416s0.588-1.296,0.588-2.16
			c0-0.799-0.132-1.472-0.396-2.016c-0.264-0.543-0.636-0.979-1.116-1.308c-0.48-0.328-1.056-0.564-1.728-0.708
			C9.624,0.072,8.88,0,8.064,0H0v17.136h8.304c0.768,0,1.516-0.096,2.244-0.288c0.728-0.192,1.376-0.487,1.944-0.888
			s1.02-0.916,1.356-1.548s0.504-1.38,0.504-2.244c0-1.072-0.26-1.988-0.78-2.748C13.052,8.66,12.264,8.128,11.208,7.824z
			 M3.768,2.928h3.528c0.336,0,0.66,0.028,0.972,0.084c0.312,0.056,0.588,0.156,0.828,0.3s0.432,0.345,0.576,0.601
			s0.216,0.584,0.216,0.984c0,0.72-0.216,1.24-0.648,1.56c-0.432,0.32-0.984,0.48-1.656,0.48H3.768V2.928z M10.356,13.056
			c-0.152,0.288-0.356,0.516-0.612,0.684s-0.552,0.288-0.888,0.36C8.52,14.172,8.168,14.208,7.8,14.208H3.768V9.504h4.104
			c0.816,0,1.472,0.188,1.968,0.564c0.496,0.376,0.744,1.004,0.744,1.884C10.584,12.399,10.508,12.768,10.356,13.056z M27.24,6.18
			c-0.561-0.567-1.236-1.008-2.028-1.32c-0.792-0.312-1.676-0.468-2.652-0.468c-0.976,0-1.856,0.156-2.64,0.468
			c-0.784,0.312-1.456,0.753-2.016,1.32c-0.561,0.568-0.993,1.256-1.296,2.064c-0.304,0.808-0.456,1.708-0.456,2.7
			c0,0.993,0.152,1.888,0.456,2.688c0.304,0.801,0.736,1.484,1.296,2.052c0.56,0.568,1.232,1.005,2.016,1.308
			c0.784,0.305,1.664,0.457,2.64,0.457c0.976,0,1.86-0.152,2.652-0.457c0.792-0.303,1.468-0.739,2.028-1.308
			c0.56-0.567,0.992-1.251,1.296-2.052c0.304-0.8,0.456-1.695,0.456-2.688c0-0.992-0.152-1.892-0.456-2.7
			C28.232,7.436,27.8,6.748,27.24,6.18z M25.44,12.396c-0.096,0.473-0.26,0.896-0.492,1.272c-0.232,0.376-0.544,0.676-0.936,0.899
			c-0.393,0.225-0.876,0.336-1.452,0.336s-1.056-0.111-1.44-0.336c-0.384-0.224-0.692-0.523-0.924-0.899
			c-0.232-0.376-0.396-0.8-0.492-1.272c-0.096-0.472-0.144-0.956-0.144-1.452c0-0.496,0.048-0.984,0.144-1.464
			C19.8,9,19.964,8.576,20.196,8.208c0.231-0.368,0.54-0.667,0.924-0.9c0.384-0.231,0.864-0.348,1.44-0.348s1.06,0.116,1.452,0.348
			c0.392,0.232,0.704,0.532,0.936,0.9C25.18,8.576,25.344,9,25.44,9.479c0.096,0.48,0.144,0.969,0.144,1.464
			C25.584,11.44,25.536,11.924,25.44,12.396z M41.904,6.18c-0.56-0.567-1.236-1.008-2.028-1.32
			c-0.792-0.312-1.676-0.468-2.652-0.468c-0.977,0-1.856,0.156-2.64,0.468c-0.784,0.312-1.456,0.753-2.016,1.32
			c-0.56,0.568-0.992,1.256-1.296,2.064c-0.304,0.808-0.456,1.708-0.456,2.7c0,0.993,0.152,1.888,0.456,2.688
			c0.304,0.801,0.736,1.484,1.296,2.052c0.56,0.568,1.232,1.005,2.016,1.308c0.784,0.305,1.664,0.457,2.64,0.457
			c0.976,0,1.86-0.152,2.652-0.457c0.792-0.303,1.468-0.739,2.028-1.308c0.56-0.567,0.992-1.251,1.296-2.052
			c0.304-0.8,0.456-1.695,0.456-2.688c0-0.992-0.152-1.892-0.456-2.7C42.896,7.436,42.464,6.748,41.904,6.18z M40.104,12.396
			c-0.096,0.473-0.26,0.896-0.492,1.272s-0.544,0.676-0.936,0.899c-0.392,0.225-0.876,0.336-1.452,0.336
			c-0.576,0-1.056-0.111-1.44-0.336c-0.384-0.224-0.692-0.523-0.924-0.899s-0.396-0.8-0.492-1.272
			c-0.096-0.472-0.144-0.956-0.144-1.452c0-0.496,0.048-0.984,0.144-1.464C34.464,9,34.628,8.576,34.86,8.208
			c0.232-0.368,0.54-0.667,0.924-0.9c0.384-0.231,0.864-0.348,1.44-0.348c0.576,0,1.06,0.116,1.452,0.348
			c0.392,0.232,0.704,0.532,0.936,0.9C39.844,8.576,40.008,9,40.104,9.479c0.096,0.48,0.144,0.969,0.144,1.464
			C40.248,11.44,40.2,11.924,40.104,12.396z M50.184,1.008h-3.408v3.72h-2.064v2.28h2.064v7.319c0,0.625,0.104,1.129,0.312,1.513
			c0.208,0.384,0.492,0.681,0.852,0.888c0.36,0.209,0.776,0.348,1.248,0.42c0.472,0.072,0.972,0.108,1.5,0.108
			c0.336,0,0.68-0.009,1.032-0.024c0.352-0.016,0.672-0.048,0.96-0.096v-2.641c-0.16,0.033-0.328,0.057-0.504,0.072
			c-0.176,0.017-0.36,0.024-0.552,0.024c-0.576,0-0.96-0.097-1.152-0.288s-0.288-0.576-0.288-1.152V7.008h2.496v-2.28h-2.496V1.008z
			 M63.983,10.716c-0.368-0.264-0.788-0.476-1.26-0.636c-0.472-0.16-0.957-0.295-1.452-0.408c-0.48-0.112-0.952-0.216-1.416-0.312
			c-0.464-0.096-0.876-0.204-1.236-0.324c-0.36-0.12-0.652-0.276-0.876-0.468c-0.225-0.192-0.336-0.44-0.336-0.744
			c0-0.256,0.063-0.459,0.192-0.612c0.128-0.152,0.284-0.268,0.468-0.348c0.184-0.08,0.388-0.132,0.612-0.156
			c0.224-0.024,0.432-0.036,0.624-0.036c0.608,0,1.136,0.116,1.584,0.348c0.448,0.232,0.696,0.677,0.744,1.332h3.24
			c-0.064-0.768-0.26-1.404-0.588-1.908c-0.328-0.504-0.74-0.907-1.236-1.212c-0.496-0.304-1.06-0.52-1.692-0.648
			c-0.632-0.127-1.284-0.192-1.956-0.192s-1.328,0.06-1.968,0.18c-0.64,0.12-1.216,0.328-1.728,0.624
			c-0.512,0.296-0.924,0.7-1.236,1.212C54.156,6.92,54,7.576,54,8.375c0,0.544,0.112,1.004,0.336,1.38s0.52,0.688,0.888,0.936
			c0.368,0.249,0.788,0.449,1.26,0.601c0.472,0.152,0.956,0.284,1.452,0.396c1.216,0.256,2.164,0.512,2.844,0.768
			s1.02,0.641,1.02,1.151c0,0.305-0.072,0.557-0.216,0.757c-0.144,0.199-0.324,0.359-0.54,0.479s-0.456,0.208-0.72,0.264
			c-0.264,0.057-0.516,0.084-0.756,0.084c-0.336,0-0.66-0.04-0.972-0.12c-0.312-0.079-0.588-0.203-0.828-0.371
			c-0.24-0.168-0.436-0.385-0.588-0.648c-0.152-0.264-0.228-0.58-0.228-0.948h-3.24c0.032,0.833,0.22,1.524,0.564,2.076
			s0.784,0.996,1.32,1.332c0.536,0.336,1.148,0.576,1.836,0.72c0.688,0.145,1.392,0.217,2.112,0.217
			c0.704,0,1.396-0.068,2.076-0.204c0.68-0.136,1.284-0.372,1.812-0.708c0.528-0.336,0.956-0.78,1.284-1.332
			c0.328-0.553,0.492-1.236,0.492-2.053c0-0.576-0.112-1.06-0.336-1.451C64.647,11.308,64.352,10.979,63.983,10.716z M71.519,1.008
			h-3.408v3.72h-2.063v2.28h2.063v7.319c0,0.625,0.104,1.129,0.312,1.513s0.492,0.681,0.852,0.888
			c0.36,0.209,0.776,0.348,1.248,0.42s0.973,0.108,1.5,0.108c0.336,0,0.68-0.009,1.032-0.024c0.352-0.016,0.672-0.048,0.96-0.096
			v-2.641c-0.16,0.033-0.328,0.057-0.504,0.072c-0.177,0.017-0.36,0.024-0.552,0.024c-0.576,0-0.96-0.097-1.152-0.288
			s-0.288-0.576-0.288-1.152V7.008h2.496v-2.28h-2.496V1.008z M81.647,4.583c-0.4,0.128-0.776,0.309-1.128,0.54
			c-0.353,0.232-0.664,0.512-0.937,0.84c-0.271,0.328-0.488,0.684-0.647,1.068h-0.048V4.728h-3.24v12.408h3.408v-5.592
			c0-0.56,0.056-1.08,0.168-1.56c0.111-0.48,0.3-0.9,0.563-1.26c0.265-0.36,0.612-0.644,1.044-0.852
			c0.433-0.208,0.96-0.312,1.584-0.312c0.208,0,0.424,0.012,0.648,0.036c0.224,0.024,0.416,0.052,0.576,0.084V4.512
			c-0.272-0.08-0.521-0.12-0.744-0.12C82.463,4.392,82.046,4.456,81.647,4.583z M96.119,14.376V7.92
			c0-0.752-0.168-1.356-0.504-1.812c-0.336-0.457-0.768-0.812-1.296-1.068s-1.112-0.428-1.752-0.517
			c-0.641-0.087-1.272-0.132-1.896-0.132c-0.688,0-1.372,0.068-2.052,0.204c-0.681,0.136-1.292,0.364-1.836,0.684
			c-0.544,0.32-0.992,0.744-1.344,1.272c-0.353,0.528-0.552,1.192-0.601,1.992h3.408c0.063-0.671,0.288-1.152,0.672-1.44
			c0.385-0.288,0.912-0.432,1.584-0.432c0.304,0,0.588,0.02,0.853,0.06c0.264,0.041,0.495,0.12,0.695,0.24s0.36,0.288,0.48,0.504
			s0.18,0.508,0.18,0.876c0.016,0.353-0.088,0.621-0.312,0.804c-0.225,0.184-0.528,0.324-0.912,0.42s-0.824,0.168-1.32,0.216
			c-0.496,0.048-1,0.112-1.512,0.192c-0.513,0.08-1.021,0.188-1.524,0.324c-0.504,0.137-0.952,0.34-1.344,0.612
			c-0.393,0.272-0.712,0.636-0.96,1.092s-0.372,1.036-0.372,1.739c0,0.641,0.108,1.193,0.324,1.656
			c0.216,0.465,0.516,0.849,0.899,1.152c0.385,0.305,0.832,0.528,1.345,0.672c0.512,0.145,1.063,0.217,1.655,0.217
			c0.769,0,1.521-0.112,2.257-0.336c0.735-0.225,1.376-0.616,1.92-1.177c0.016,0.208,0.044,0.413,0.084,0.612
			c0.04,0.2,0.092,0.396,0.155,0.588h3.456c-0.159-0.256-0.271-0.64-0.336-1.152C96.151,15.472,96.119,14.937,96.119,14.376z
			 M92.71,12.336c0,0.192-0.02,0.448-0.06,0.768c-0.04,0.32-0.148,0.636-0.324,0.948s-0.448,0.58-0.816,0.805
			c-0.368,0.224-0.888,0.335-1.56,0.335c-0.272,0-0.536-0.024-0.792-0.071c-0.256-0.049-0.48-0.133-0.672-0.252
			c-0.192-0.121-0.345-0.284-0.456-0.492c-0.112-0.208-0.168-0.464-0.168-0.769c0-0.319,0.056-0.583,0.168-0.792
			c0.111-0.207,0.26-0.379,0.444-0.516c0.184-0.136,0.399-0.244,0.647-0.324s0.5-0.144,0.756-0.191
			c0.272-0.049,0.544-0.088,0.816-0.121c0.271-0.031,0.531-0.071,0.78-0.119c0.247-0.048,0.479-0.108,0.695-0.18
			c0.217-0.072,0.396-0.172,0.54-0.3V12.336z M110.014,6.408c-0.464-0.608-1.048-1.096-1.752-1.464
			c-0.704-0.367-1.544-0.552-2.52-0.552c-0.769,0-1.473,0.152-2.112,0.456c-0.64,0.304-1.168,0.792-1.584,1.464h-0.048V4.728h-3.24
			v16.752h3.408V15.6h0.048c0.416,0.608,0.948,1.068,1.596,1.38c0.648,0.312,1.356,0.469,2.124,0.469
			c0.912,0,1.708-0.177,2.389-0.528c0.68-0.353,1.248-0.823,1.704-1.416c0.456-0.592,0.796-1.272,1.02-2.04s0.336-1.568,0.336-2.4
			c0-0.879-0.112-1.724-0.336-2.532C110.823,7.724,110.478,7.016,110.014,6.408z M107.831,12.432c-0.096,0.48-0.26,0.899-0.492,1.26
			s-0.536,0.652-0.912,0.876c-0.376,0.225-0.844,0.336-1.403,0.336c-0.545,0-1.009-0.111-1.393-0.336
			c-0.384-0.224-0.692-0.516-0.924-0.876c-0.232-0.36-0.4-0.779-0.504-1.26c-0.104-0.479-0.156-0.968-0.156-1.464
			c0-0.512,0.048-1.008,0.145-1.488c0.096-0.479,0.26-0.903,0.491-1.272c0.232-0.368,0.536-0.667,0.912-0.9
			c0.376-0.231,0.844-0.348,1.404-0.348c0.544,0,1.004,0.116,1.38,0.348c0.376,0.232,0.685,0.536,0.924,0.912
			c0.24,0.376,0.412,0.804,0.517,1.284c0.104,0.48,0.155,0.968,0.155,1.464C107.974,11.464,107.926,11.952,107.831,12.432z
			 M119.163,13.907h1.896c-0.056,0.601-0.254,1.059-0.594,1.375s-0.822,0.474-1.446,0.474c-0.424,0-0.784-0.082-1.08-0.246
			c-0.296-0.163-0.536-0.382-0.72-0.653c-0.185-0.272-0.318-0.578-0.402-0.918c-0.084-0.341-0.126-0.691-0.126-1.051
			c0-0.376,0.042-0.74,0.126-1.092c0.084-0.352,0.218-0.666,0.402-0.942c0.184-0.276,0.424-0.496,0.72-0.66
			c0.296-0.164,0.656-0.246,1.08-0.246c0.456,0,0.844,0.12,1.164,0.36c0.32,0.24,0.536,0.6,0.648,1.08h1.8
			c-0.048-0.488-0.18-0.92-0.396-1.296c-0.216-0.376-0.489-0.692-0.821-0.948c-0.332-0.256-0.704-0.45-1.116-0.582
			s-0.838-0.198-1.278-0.198c-0.656,0-1.246,0.116-1.77,0.348c-0.524,0.232-0.966,0.552-1.326,0.96
			c-0.36,0.408-0.636,0.886-0.828,1.434c-0.192,0.548-0.288,1.143-0.288,1.782c0,0.624,0.096,1.206,0.288,1.746
			s0.468,1.01,0.828,1.41s0.802,0.714,1.326,0.941c0.523,0.229,1.113,0.343,1.77,0.343c0.416,0,0.828-0.087,1.236-0.259
			s0.78-0.474,1.116-0.906l0.191,0.973h1.2v-4.632h-3.6V13.907z M127.106,10.859c-0.2,0.064-0.388,0.155-0.563,0.271
			c-0.177,0.116-0.332,0.256-0.468,0.42c-0.137,0.164-0.245,0.342-0.324,0.533h-0.024v-1.151h-1.62v6.204h1.704V14.34
			c0-0.28,0.028-0.54,0.084-0.78s0.15-0.45,0.282-0.63c0.132-0.181,0.306-0.321,0.521-0.426c0.217-0.104,0.48-0.156,0.793-0.156
			c0.104,0,0.211,0.006,0.323,0.019c0.112,0.012,0.208,0.025,0.288,0.041v-1.583c-0.136-0.04-0.26-0.06-0.372-0.06
			C127.514,10.764,127.306,10.796,127.106,10.859z M128.822,17.136h1.704v-6.204h-1.704V17.136z M128.822,9.972h1.704V8.568h-1.704
			V9.972z M136.214,8.568v3.121h-0.024c-0.192-0.305-0.454-0.535-0.786-0.691c-0.332-0.156-0.682-0.234-1.05-0.234
			c-0.456,0-0.856,0.09-1.2,0.27s-0.63,0.418-0.857,0.713c-0.229,0.297-0.4,0.639-0.517,1.027c-0.116,0.388-0.174,0.789-0.174,1.205
			c0,0.433,0.058,0.849,0.174,1.248c0.116,0.4,0.288,0.754,0.517,1.062c0.228,0.308,0.518,0.552,0.87,0.731
			c0.352,0.181,0.76,0.271,1.224,0.271c0.408,0,0.773-0.074,1.098-0.223c0.324-0.147,0.586-0.39,0.786-0.726h0.024v0.792h1.62V8.568
			H136.214z M136.202,14.76c-0.048,0.24-0.128,0.454-0.239,0.642c-0.112,0.188-0.263,0.338-0.45,0.45
			c-0.188,0.112-0.422,0.168-0.702,0.168c-0.264,0-0.49-0.058-0.678-0.174c-0.188-0.116-0.345-0.268-0.469-0.456
			c-0.124-0.188-0.214-0.402-0.27-0.643c-0.056-0.239-0.084-0.479-0.084-0.72c0-0.255,0.025-0.501,0.078-0.737
			c0.052-0.236,0.136-0.446,0.252-0.631c0.116-0.184,0.27-0.331,0.462-0.443c0.192-0.111,0.428-0.168,0.708-0.168
			s0.512,0.057,0.696,0.168c0.184,0.112,0.334,0.258,0.449,0.438c0.116,0.18,0.198,0.389,0.246,0.624
			c0.049,0.236,0.072,0.482,0.072,0.738C136.274,14.272,136.25,14.52,136.202,14.76z"/>
	</g>
</g>
</svg>
