<?xml version="1.0" encoding="iso-8859-1"?>
<!-- Generator: Adobe Illustrator 16.0.4, SVG Export Plug-In . SVG Version: 6.00 Build 0)  -->
<!DOCTYPE svg PUBLIC "-//W3C//DTD SVG 1.1//EN" "http://www.w3.org/Graphics/SVG/1.1/DTD/svg11.dtd">
<svg version="1.1" id="Layer_1" xmlns="http://www.w3.org/2000/svg" xmlns:xlink="http://www.w3.org/1999/xlink" x="0px" y="0px"
	 width="25.015px" height="25.001px" viewBox="0 0 25.015 25.001" style="enable-background:new 0 0 25.015 25.001;"
	 xml:space="preserve">
<path style="fill-rule:evenodd;clip-rule:evenodd;fill:#CFCECE;" d="M24.889,20.663l-2.785-2.79c-0.93-0.932-2.438-0.932-3.368,0
	l-0.789,0.791c-0.93,0.932-0.93,2.443,0,3.375l2.809,2.815c-0.394,0.09-0.799,0.147-1.22,0.147c-3.026,0-6.54-1.956-6.54-4.988
	c0-0.924,0.597-2.236,1-3l-6-6c-0.775,0.419-1.057,1-2,1C2.963,12.013,0,8.542,0,5.502c0-0.413,0.053-0.812,0.14-1.2l2.796,2.802
	c0.93,0.932,2.438,0.932,3.368,0l0.79-0.791c0.93-0.932,0.93-2.443,0-3.375l-2.794-2.8C4.684,0.053,5.081,0,5.492,0
	c3.033,0,6.504,2.974,6.504,6.013c0,0.954-0.574,1.218-1,2l6,6c0.787-0.439,2.035-1,3-1c3.026,0,5.019,3.466,5.019,6.498
	C25.015,19.907,24.969,20.291,24.889,20.663z"/>
</svg>
