<svg xmlns="http://www.w3.org/2000/svg" width="67.135px" height="120px" viewBox="0 0 67.135 120">
<g>
	<g>
		<polygon fill="#999999" points="0,47.009 0,47.021 17.863,59.529 67.135,25.03 67.135,0 		"/>
		<polygon fill="#333333" points="0,47.021 67.135,94.028 67.135,119.058 0,72.05 		"/>
		<g>
			<polygon fill="#666666" points="0.061,46.967 0,47.009 0,72.038 17.932,59.481 			"/>
		</g>
	</g>
	<g>
		<path fill="#FFFFFF" d="M14.051,55.027l-5.367-7.688l1.511-1.055l6.729,2.938l-3.583-5.134l1.443-1.007l5.366,7.688l-1.557,1.087
			l-6.599-2.851l3.5,5.014L14.051,55.027z"/>
		<path fill="#FFFFFF" d="M18.827,46.047c-0.547-0.783-0.888-1.522-1.025-2.217c-0.099-0.514-0.105-1.032-0.02-1.553
			c0.085-0.523,0.255-0.985,0.51-1.386c0.338-0.537,0.82-1.025,1.445-1.461c1.133-0.791,2.285-1.071,3.455-0.844
			c1.17,0.228,2.192,0.968,3.066,2.22c0.866,1.241,1.207,2.447,1.021,3.619c-0.186,1.172-0.843,2.152-1.972,2.94
			c-1.143,0.798-2.296,1.084-3.458,0.857C20.688,47.996,19.681,47.271,18.827,46.047z M20.389,44.879
			c0.607,0.87,1.269,1.39,1.985,1.558c0.715,0.169,1.383,0.037,2.001-0.395c0.619-0.432,0.971-1.009,1.057-1.732
			c0.085-0.723-0.183-1.529-0.805-2.421c-0.615-0.882-1.268-1.404-1.957-1.568c-0.688-0.163-1.352-0.022-1.992,0.425
			s-1.003,1.025-1.088,1.737C19.506,43.196,19.772,43.994,20.389,44.879z"/>
		<path fill="#FFFFFF" d="M30.124,43.808l-5.366-7.688l2.323-1.621l5.055,4.271l-2.281-6.207l2.329-1.626l5.367,7.689l-1.443,1.006
			l-4.224-6.052l2.697,7.117l-1.494,1.043l-5.745-4.99l4.224,6.052L30.124,43.808z"/>
		<path fill="#FFFFFF" d="M39.045,37.582l-5.366-7.688l1.552-1.083l5.366,7.688L39.045,37.582z"/>
		<path fill="#FFFFFF" d="M42.091,35.455l-5.366-7.688l1.511-1.053l6.73,2.937l-3.583-5.135l1.44-1.005l5.367,7.688l-1.558,1.085
			l-6.599-2.849l3.499,5.012L42.091,35.455z"/>
		<path fill="#FFFFFF" d="M49.832,30.053l-5.366-7.688l5.7-3.98l0.908,1.301l-4.148,2.894l1.189,1.707l3.859-2.695l0.904,1.295
			l-3.859,2.693l1.46,2.092l4.295-2.996l0.904,1.293L49.832,30.053z"/>
		<path fill="#FFFFFF" d="M56.995,25.052l-5.365-7.688l5.699-3.979l0.907,1.302l-4.147,2.895l1.189,1.704l3.86-2.693l0.904,1.295
			l-3.86,2.693l1.461,2.094l4.295-3l0.904,1.295L56.995,25.052z"/>
	</g>
	<g>
		<g>
			<g>
				<rect x="37.02" y="87.855" fill="#FFFFFF" width="0" height="0.004"/>
				<polygon fill="#FFFFFF" points="37.02,87.855 37.02,87.855 37.02,87.855 				"/>
				<polygon fill="#FFFFFF" points="37.02,87.855 37.02,87.855 37.02,87.855 				"/>
				<polygon fill="#FFFFFF" points="35.517,82.184 35.516,82.183 33.35,85.294 33.35,85.294 33.35,85.294 36.463,87.462 				"/>
				<polygon fill="#FFFFFF" points="35.516,82.183 35.517,82.184 35.525,82.183 35.525,82.183 35.516,82.183 				"/>
				<polygon fill="#FFFFFF" points="35.516,82.183 35.057,79.518 35.057,79.512 32.401,79.987 32.879,82.642 				"/>
				<polygon fill="#FFFFFF" points="36.44,87.453 38.607,84.335 35.477,82.155 36.437,87.453 36.44,87.453 				"/>
				<polygon fill="#FFFFFF" points="36.44,87.453 36.441,87.455 36.917,90.105 39.571,89.633 39.094,86.977 38.551,87.073 				"/>
				<polygon fill="#FFFFFF" points="35.525,82.183 40.83,81.227 37.698,79.046 35.057,79.512 35.057,79.518 35.516,82.183 				"/>
				<g>
					<polygon fill="#FFFFFF" points="36.44,87.453 38.551,87.073 39.094,86.977 38.607,84.335 36.44,87.453 36.44,87.453 
						36.44,87.453 36.44,87.453 36.437,87.453 31.141,88.396 34.274,90.575 36.916,90.105 36.441,87.455 36.44,87.453 					"/>
					<polygon fill="#FFFFFF" points="35.516,82.183 32.879,82.642 32.879,82.642 33.35,85.294 35.516,82.183 					"/>
				</g>
			</g>
			<g>
				<rect x="29.434" y="82.575" fill="#FFFFFF" width="0" height="0.004"/>
				<polygon fill="#FFFFFF" points="29.434,82.575 29.434,82.575 29.434,82.575 				"/>
				<polygon fill="#FFFFFF" points="29.434,82.575 29.434,82.575 29.434,82.575 				"/>
				<polygon fill="#FFFFFF" points="27.929,76.901 27.928,76.901 25.762,80.013 25.762,80.013 25.762,80.013 28.876,82.18 				"/>
				<polygon fill="#FFFFFF" points="27.928,76.901 27.929,76.901 27.939,76.901 27.938,76.9 27.928,76.901 				"/>
				<polygon fill="#FFFFFF" points="27.928,76.901 27.47,74.238 27.47,74.231 24.814,74.706 25.293,77.36 				"/>
				<polygon fill="#FFFFFF" points="27.938,76.9 33.244,75.944 30.111,73.766 27.47,74.231 27.47,74.238 27.928,76.901 				"/>
				<polygon fill="#FFFFFF" points="28.854,82.172 31.02,79.054 27.891,76.876 28.851,82.172 28.854,82.172 				"/>
				<polygon fill="#FFFFFF" points="28.854,82.172 28.854,82.176 29.329,84.824 31.984,84.351 31.507,81.694 30.965,81.793 				"/>
				<g>
					<polygon fill="#FFFFFF" points="28.854,82.172 30.965,81.793 31.507,81.694 31.02,79.054 28.854,82.172 28.854,82.172 
						28.854,82.172 28.854,82.172 28.851,82.172 23.555,83.115 26.688,85.296 29.329,84.825 28.854,82.176 28.854,82.172 					"/>
					<polygon fill="#FFFFFF" points="27.928,76.901 25.293,77.36 25.293,77.36 25.762,80.013 27.928,76.901 					"/>
				</g>
			</g>
			<g>
				<g>
					<rect x="18.113" y="74.699" fill="#FFFFFF" width="0" height="0.004"/>
					<polygon fill="#FFFFFF" points="18.115,74.7 18.115,74.7 18.115,74.7 					"/>
					<polygon fill="#FFFFFF" points="18.115,74.7 18.115,74.7 18.115,74.7 					"/>
					<g>
						<polygon fill="#FFFFFF" points="18.115,74.7 20.286,71.587 23.416,73.767 18.116,74.704 18.115,74.7 						"/>
					</g>
					<polygon fill="#FFFFFF" points="23.957,74.143 23.957,74.142 23.956,74.133 23.956,74.133 23.957,74.143 					"/>
					<g>
						<polygon fill="#FFFFFF" points="18.115,74.7 18.111,74.702 15.461,75.176 14.983,72.522 17.641,72.047 17.737,72.591 						
							"/>
					</g>
					<g>
						<polygon fill="#FFFFFF" points="20.782,74.232 20.286,71.587 22.958,71.095 23.055,71.633 23.438,73.761 						"/>
					</g>
					<g>
						<polygon fill="#FFFFFF" points="18.115,74.7 17.737,72.591 17.641,72.047 20.286,71.587 18.115,74.7 18.115,74.7 18.115,74.7 
							18.115,74.7 18.116,74.704 19.07,79.997 15.938,77.817 15.461,75.176 18.111,74.702 18.115,74.7 						"/>
					</g>
				</g>
				<polygon fill="#FFFFFF" points="23.425,73.764 28.73,72.809 25.598,70.627 22.956,71.095 22.956,71.1 23.415,73.765 				"/>
			</g>
		</g>
		<path fill="#FFFFFF" d="M37.904,93.107l6.525-9.375l3.166,2.202c1.276,0.89,2.154,1.785,2.632,2.686
			c0.477,0.901,0.677,1.875,0.599,2.925c-0.081,1.05-0.424,2.014-1.036,2.892c-0.436,0.627-0.976,1.144-1.617,1.55
			c-0.64,0.403-1.337,0.668-2.087,0.79c-0.768,0.13-1.535,0.1-2.299-0.094c-0.451-0.107-0.841-0.24-1.17-0.398
			c-0.328-0.159-0.909-0.529-1.742-1.108L37.904,93.107z M46.623,87.032l-1.681-1.169l-4.861,6.983l1.721,1.198
			c0.673,0.468,1.226,0.784,1.662,0.952c0.437,0.167,0.827,0.265,1.174,0.298c0.348,0.032,0.695,0.017,1.044-0.046
			c1.132-0.211,2.056-0.828,2.769-1.854c0.702-1.009,0.934-2.068,0.695-3.179c-0.085-0.411-0.237-0.806-0.456-1.185
			c-0.219-0.38-0.456-0.694-0.714-0.945C47.718,87.833,47.268,87.481,46.623,87.032z"/>
		<path fill="#FFFFFF" d="M56.68,92.258l0.938,0.653l-2.346,12.285l-1.366-0.95l0.68-3.628l-3.977-2.769l-3.089,1.952l-1.37-0.955
			L56.68,92.258z M54.865,99.049l0.847-4.425l-3.746,2.406L54.865,99.049z"/>
	</g>
</g>
</svg>
