<?xml version="1.0" encoding="utf-8"?>
<!-- Generator: Adobe Illustrator 17.1.0, SVG Export Plug-In . SVG Version: 6.00 Build 0)  -->
<!DOCTYPE svg PUBLIC "-//W3C//DTD SVG 1.1//EN" "http://www.w3.org/Graphics/SVG/1.1/DTD/svg11.dtd">
<svg version="1.1" id="Layer_1" xmlns="http://www.w3.org/2000/svg" xmlns:xlink="http://www.w3.org/1999/xlink" x="0px" y="0px"
	 viewBox="0 183.4 800 233.1" enable-background="new 0 183.4 800 233.1" xml:space="preserve">
<path fill="#FFFFFF" d="M201.6,183.4H67.2L0,300l67.2,116.5l134.4,0.1L268.8,300L201.6,183.4z M192.8,348.8h-34.5v-41.5l7.2-9.3
	l0-0.4l-31,20.2l-31.1-20.1l0,0.4l6.7,9.3v41.5H75.7v-96.4h20.9l38.2,27.5l38.2-27.5h19.9V348.8z"/>
<path fill="#FFFFFF" d="M312.2,270.7h20.9l1.6,5c3.2-4.4,9.3-6.8,16.3-6.8c8.4,0,13.9,2.7,16.7,7.6c3.6-4.5,9.9-7.6,17.6-7.6
	c15.1,0,20.1,8.2,20.1,25v36.8h-24.8V294c0-3.2-1.5-4.9-4.5-4.9c-2.3,0-4.9,1.6-4.9,4.9v36.8h-24.8V294c0-2.7-1.5-4.9-4.5-4.9
	c-3.3,0-4.9,1.7-4.9,4.9v36.8h-24.8L312.2,270.7L312.2,270.7z"/>
<path fill="#FFFFFF" d="M409,300.8c0-23,14.9-31.9,33.7-31.9c18.8,0,32.2,8.8,32.2,31.9c0,23.1-15.1,31.8-33.8,31.8
	C422.2,332.6,409,323.9,409,300.8z M450.2,300.8c0-8.1-2.3-12.4-8.2-12.4c-5.9,0-8.1,4.3-8.1,12.4c0,8.2,2.2,12.4,8.1,12.4
	C447.9,313.2,450.2,309,450.2,300.8z"/>
<path fill="#FFFFFF" d="M507.4,300.4c0-23,14.9-31.9,33.7-31.9c18.8,0,32.2,8.9,32.2,31.9c0,23.1-15.1,31.9-33.8,31.9
	C520.6,332.3,507.4,323.5,507.4,300.4z M548.5,300.4c0-8.1-2.3-12.4-8.2-12.4s-8.1,4.3-8.1,12.4c0,8.2,2.2,12.5,8.1,12.5
	C546.3,312.9,548.5,308.6,548.5,300.4z"/>
<path fill="#FFFFFF" d="M468.5,349.5v-17.6c1.7,1.2,3.8,1.8,6,1.8c2.8,0,4.4-1.2,4.4-4.3v-58.8h24.8v58.7c0,15.2-8.3,22.8-23.4,22.8
	C474.8,352.2,470,350.6,468.5,349.5z M478.7,256.2c0-6.4,5.3-10.5,12.3-10.5c7.2,0,12.6,4.1,12.6,10.5c0,6.5-5.4,10.4-12.6,10.4
	C483.9,266.6,478.7,262.7,478.7,256.2z"/>
<path fill="#FFFFFF" d="M581.2,310.9v-21.3h-6.6v-11.3l20.1-21.2H606v13.6h12.6v18.9H606v18.1c0,3.4,1.4,5.1,4.4,5.1
	c3.6,0,5.9-1.4,7.6-3.4V328c-2.6,2.3-6.9,4.6-16.1,4.6C586.8,332.6,581.2,323.7,581.2,310.9z"/>
<path fill="#FFFFFF" d="M620.1,300.8c0-22.7,15-31.9,31.5-31.9c16.2,0,29.8,6.2,29.8,30c0,1.9-0.6,7-0.8,7.7c-8.1,0-35,0-35,0
	c0.5,3.4,3.2,5.9,14.3,5.9c8.9,0,12.5-0.9,16.3-2.7v18.4c-3.4,2.3-9.2,4.4-21.7,4.4C631.2,332.6,620.1,322.3,620.1,300.8z
	 M660.9,293.4V293c0-3.6-2.8-7.6-8.3-7.6c-5.6,0-8,4.4-8.1,8H660.9z"/>
<path fill="#FFFFFF" d="M683.8,300.8c0-22.2,13.6-31.9,31.2-31.9c10,0,16.4,2.6,19.3,4.7v20.2c-4.3-2.8-8.2-3.9-13.7-3.9
	c-7.9,0-11.3,3.5-11.3,11c0,7.4,3.5,10.8,11.3,10.8c5.5,0,9.6-1.4,13.8-4v19.9c-2.9,2.3-9.7,5.1-19.1,5.1
	C696.5,332.6,683.8,323.1,683.8,300.8z"/>
<path fill="#FFFFFF" d="M739.1,249.2h24.8v24.7c3.2-3.1,8.2-5,15.1-5c15.2,0,21,8.2,21,25v36.8h-24.8v-36.6c0-2.2-1.9-5.1-5.6-5.1
	c-2.7,0-5.6,1.9-5.6,5.1v36.6h-24.8V249.2z"/>
</svg>
