<svg xmlns="http://www.w3.org/2000/svg" width="137.918" height="21.479" viewBox="0 0 137.918 21.479"><path d="M11.208 7.824c.768-.368 1.348-.84 1.74-1.416s.588-1.296.588-2.16c0-.799-.132-1.472-.396-2.016A3.306 3.306 0 0 0 12.024.924c-.48-.328-1.056-.564-1.728-.708A10.672 10.672 0 0 0 8.064 0H0v17.136h8.304c.768 0 1.516-.096 2.244-.288.728-.192 1.376-.487 1.944-.888s1.02-.916 1.356-1.548.504-1.38.504-2.244c0-1.072-.26-1.988-.78-2.748-.52-.76-1.308-1.292-2.364-1.596zm-7.44-4.896h3.528c.336 0 .66.028.972.084.312.056.588.156.828.3s.432.345.576.601.216.584.216.984c0 .72-.216 1.24-.648 1.56-.432.32-.984.48-1.656.48H3.768V2.928zm6.588 10.128c-.152.288-.356.516-.612.684s-.552.288-.888.36a5.028 5.028 0 0 1-1.056.108H3.768V9.504h4.104c.816 0 1.472.188 1.968.564.496.376.744 1.004.744 1.884 0 .447-.076.816-.228 1.104zM27.24 6.18a5.807 5.807 0 0 0-2.028-1.32c-.792-.312-1.676-.468-2.652-.468-.976 0-1.856.156-2.64.468a5.822 5.822 0 0 0-2.016 1.32 5.783 5.783 0 0 0-1.296 2.064c-.304.808-.456 1.708-.456 2.7 0 .993.152 1.888.456 2.688a5.822 5.822 0 0 0 1.296 2.052 5.656 5.656 0 0 0 2.016 1.308c.784.305 1.664.457 2.64.457.976 0 1.86-.152 2.652-.457a5.622 5.622 0 0 0 2.028-1.308 5.813 5.813 0 0 0 1.296-2.052c.304-.8.456-1.695.456-2.688 0-.992-.152-1.892-.456-2.7A5.81 5.81 0 0 0 27.24 6.18zm-1.8 6.216a3.86 3.86 0 0 1-.492 1.272 2.58 2.58 0 0 1-.936.899c-.393.225-.876.336-1.452.336s-1.056-.111-1.44-.336a2.618 2.618 0 0 1-.924-.899 3.868 3.868 0 0 1-.492-1.272 7.447 7.447 0 0 1 0-2.916c.096-.48.26-.904.492-1.272.231-.368.54-.667.924-.9.384-.231.864-.348 1.44-.348s1.06.116 1.452.348c.392.232.704.532.936.9.232.368.396.792.492 1.271a7.454 7.454 0 0 1 0 2.917zM41.904 6.18a5.798 5.798 0 0 0-2.028-1.32c-.792-.312-1.676-.468-2.652-.468-.977 0-1.856.156-2.64.468a5.822 5.822 0 0 0-2.016 1.32 5.81 5.81 0 0 0-1.296 2.064c-.304.808-.456 1.708-.456 2.7 0 .993.152 1.888.456 2.688a5.822 5.822 0 0 0 1.296 2.052 5.656 5.656 0 0 0 2.016 1.308c.784.305 1.664.457 2.64.457.976 0 1.86-.152 2.652-.457a5.622 5.622 0 0 0 2.028-1.308 5.813 5.813 0 0 0 1.296-2.052c.304-.8.456-1.695.456-2.688 0-.992-.152-1.892-.456-2.7a5.81 5.81 0 0 0-1.296-2.064zm-1.8 6.216c-.096.473-.26.896-.492 1.272s-.544.676-.936.899c-.392.225-.876.336-1.452.336s-1.056-.111-1.44-.336c-.384-.224-.692-.523-.924-.899s-.396-.8-.492-1.272a7.447 7.447 0 0 1 0-2.916c.096-.48.26-.904.492-1.272.232-.368.54-.667.924-.9.384-.231.864-.348 1.44-.348s1.06.116 1.452.348c.392.232.704.532.936.9.232.368.396.792.492 1.271a7.454 7.454 0 0 1 0 2.917zm10.08-11.388h-3.408v3.72h-2.064v2.28h2.064v7.319c0 .625.104 1.129.312 1.513.208.384.492.681.852.888.36.209.776.348 1.248.42.472.072.972.108 1.5.108.336 0 .68-.009 1.032-.024a8.11 8.11 0 0 0 .96-.096v-2.641c-.16.033-.328.057-.504.072-.176.017-.36.024-.552.024-.576 0-.96-.097-1.152-.288s-.288-.576-.288-1.152V7.008h2.496v-2.28h-2.496v-3.72zm13.799 9.708a4.776 4.776 0 0 0-1.26-.636c-.472-.16-.957-.295-1.452-.408-.48-.112-.952-.216-1.416-.312a10.95 10.95 0 0 1-1.236-.324 2.59 2.59 0 0 1-.876-.468.932.932 0 0 1-.336-.744c0-.256.063-.459.192-.612a1.26 1.26 0 0 1 .468-.348c.184-.08.388-.132.612-.156.224-.024.432-.036.624-.036.608 0 1.136.116 1.584.348.448.232.696.677.744 1.332h3.24c-.064-.768-.26-1.404-.588-1.908a3.895 3.895 0 0 0-1.236-1.212 5.174 5.174 0 0 0-1.692-.648c-.632-.127-1.284-.192-1.956-.192s-1.328.06-1.968.18c-.64.12-1.216.328-1.728.624a3.45 3.45 0 0 0-1.236 1.212C54.156 6.92 54 7.576 54 8.375c0 .544.112 1.004.336 1.38s.52.688.888.936a4.93 4.93 0 0 0 1.26.601c.472.152.956.284 1.452.396 1.216.256 2.164.512 2.844.768s1.02.641 1.02 1.151c0 .305-.072.557-.216.757-.144.199-.324.359-.54.479s-.456.208-.72.264a3.578 3.578 0 0 1-.756.084c-.336 0-.66-.04-.972-.12a2.5 2.5 0 0 1-.828-.371 2.002 2.002 0 0 1-.588-.648c-.152-.264-.228-.58-.228-.948h-3.24c.032.833.22 1.524.564 2.076s.784.996 1.32 1.332a5.575 5.575 0 0 0 1.836.72 10.56 10.56 0 0 0 4.188.013 5.263 5.263 0 0 0 1.812-.708c.528-.336.956-.78 1.284-1.332.328-.553.492-1.236.492-2.053 0-.576-.112-1.06-.336-1.451a3.061 3.061 0 0 0-.889-.985zm7.536-9.708h-3.408v3.72h-2.063v2.28h2.063v7.319c0 .625.104 1.129.312 1.513s.492.681.852.888c.36.209.776.348 1.248.42s.973.108 1.5.108c.336 0 .68-.009 1.032-.024a8.11 8.11 0 0 0 .96-.096v-2.641c-.16.033-.328.057-.504.072-.177.017-.36.024-.552.024-.576 0-.96-.097-1.152-.288s-.288-.576-.288-1.152V7.008h2.496v-2.28h-2.496v-3.72zm10.128 3.575a4.61 4.61 0 0 0-1.128.54 4.25 4.25 0 0 0-1.584 1.908h-.048V4.728h-3.24v12.408h3.408v-5.592c0-.56.056-1.08.168-1.56.111-.48.3-.9.563-1.26.265-.36.612-.644 1.044-.852.433-.208.96-.312 1.584-.312.208 0 .424.012.648.036.224.024.416.052.576.084V4.512a2.663 2.663 0 0 0-.744-.12c-.431 0-.848.064-1.247.191zm14.472 9.793V7.92c0-.752-.168-1.356-.504-1.812-.336-.457-.768-.812-1.296-1.068s-1.112-.428-1.752-.517a14.08 14.08 0 0 0-1.896-.132c-.688 0-1.372.068-2.052.204a5.848 5.848 0 0 0-1.836.684c-.544.32-.992.744-1.344 1.272-.353.528-.552 1.192-.601 1.992h3.408c.063-.671.288-1.152.672-1.44.385-.288.912-.432 1.584-.432.304 0 .588.02.853.06.264.041.495.12.695.24s.36.288.48.504.18.508.18.876c.016.353-.088.621-.312.804-.225.184-.528.324-.912.42s-.824.168-1.32.216c-.496.048-1 .112-1.512.192-.513.08-1.021.188-1.524.324-.504.137-.952.34-1.344.612-.393.272-.712.636-.96 1.092s-.372 1.036-.372 1.739c0 .641.108 1.193.324 1.656.216.465.516.849.899 1.152a3.78 3.78 0 0 0 1.345.672 6.048 6.048 0 0 0 1.655.217c.769 0 1.521-.112 2.257-.336a4.449 4.449 0 0 0 1.92-1.177 5.092 5.092 0 0 0 .239 1.2h3.456c-.159-.256-.271-.64-.336-1.152a13.304 13.304 0 0 1-.094-1.606zm-3.409-2.04c0 .192-.02.448-.06.768-.04.32-.148.636-.324.948s-.448.58-.816.805c-.368.224-.888.335-1.56.335-.272 0-.536-.024-.792-.071a1.965 1.965 0 0 1-.672-.252 1.287 1.287 0 0 1-.456-.492c-.112-.208-.168-.464-.168-.769 0-.319.056-.583.168-.792.111-.207.26-.379.444-.516.184-.136.399-.244.647-.324s.5-.144.756-.191c.272-.049.544-.088.816-.121.271-.031.531-.071.78-.119.247-.048.479-.108.695-.18a1.52 1.52 0 0 0 .54-.3v1.271zm17.304-5.928a5.203 5.203 0 0 0-1.752-1.464c-.704-.367-1.544-.552-2.52-.552-.769 0-1.473.152-2.112.456-.64.304-1.168.792-1.584 1.464h-.048V4.728h-3.24V21.48h3.408V15.6h.048a4.02 4.02 0 0 0 1.596 1.38 4.832 4.832 0 0 0 2.124.469c.912 0 1.708-.177 2.389-.528a5.054 5.054 0 0 0 1.704-1.416c.456-.592.796-1.272 1.02-2.04s.336-1.568.336-2.4a9.44 9.44 0 0 0-.336-2.532 6.18 6.18 0 0 0-1.033-2.125zm-2.183 6.024c-.096.48-.26.899-.492 1.26s-.536.652-.912.876c-.376.225-.844.336-1.403.336-.545 0-1.009-.111-1.393-.336a2.696 2.696 0 0 1-.924-.876c-.232-.36-.4-.779-.504-1.26a6.887 6.887 0 0 1-.156-1.464c0-.512.048-1.008.145-1.488a3.77 3.77 0 0 1 .491-1.272c.232-.368.536-.667.912-.9.376-.231.844-.348 1.404-.348.544 0 1.004.116 1.38.348.376.232.685.536.924.912.24.376.412.804.517 1.284.104.48.155.968.155 1.464a7.602 7.602 0 0 1-.144 1.464zm11.332 1.475h1.896c-.056.601-.254 1.059-.594 1.375s-.822.474-1.446.474c-.424 0-.784-.082-1.08-.246a2.058 2.058 0 0 1-.72-.653 2.816 2.816 0 0 1-.402-.918 4.376 4.376 0 0 1-.126-1.051c0-.376.042-.74.126-1.092.084-.352.218-.666.402-.942a2.04 2.04 0 0 1 .72-.66c.296-.164.656-.246 1.08-.246.456 0 .844.12 1.164.36.32.24.536.6.648 1.08h1.8a3.198 3.198 0 0 0-.396-1.296 3.184 3.184 0 0 0-.821-.948c-.332-.256-.704-.45-1.116-.582s-.838-.198-1.278-.198c-.656 0-1.246.116-1.77.348a3.786 3.786 0 0 0-1.326.96 4.28 4.28 0 0 0-.828 1.434 5.358 5.358 0 0 0-.288 1.782c0 .624.096 1.206.288 1.746s.468 1.01.828 1.41.802.714 1.326.941c.523.229 1.113.343 1.77.343.416 0 .828-.087 1.236-.259s.78-.474 1.116-.906l.191.973h1.2v-4.632h-3.6v1.403zm7.943-3.048c-.2.064-.388.155-.563.271a2.1 2.1 0 0 0-.468.42 2.051 2.051 0 0 0-.324.533h-.024v-1.151h-1.62v6.204h1.704V14.34c0-.28.028-.54.084-.78s.15-.45.282-.63c.132-.181.306-.321.521-.426a1.82 1.82 0 0 1 .793-.156c.104 0 .211.006.323.019.112.012.208.025.288.041v-1.583c-.136-.04-.26-.06-.372-.06a2.034 2.034 0 0 0-.624.094zm1.716 6.277h1.704v-6.204h-1.704v6.204zm0-7.164h1.704V8.568h-1.704v1.404zm7.392-1.404v3.121h-.024a1.825 1.825 0 0 0-.786-.691 2.44 2.44 0 0 0-1.05-.234c-.456 0-.856.09-1.2.27s-.63.418-.857.713c-.229.297-.4.639-.517 1.027a4.18 4.18 0 0 0-.174 1.205c0 .433.058.849.174 1.248.116.4.288.754.517 1.062.228.308.518.552.87.731.352.181.76.271 1.224.271.408 0 .773-.074 1.098-.223.324-.147.586-.39.786-.726h.024v.792h1.62V8.568h-1.705zm-.012 6.192a2.04 2.04 0 0 1-.239.642 1.284 1.284 0 0 1-.45.45c-.188.112-.422.168-.702.168-.264 0-.49-.058-.678-.174a1.5 1.5 0 0 1-.469-.456 1.963 1.963 0 0 1-.27-.643 3.356 3.356 0 0 1-.006-1.457c.052-.236.136-.446.252-.631.116-.184.27-.331.462-.443.192-.111.428-.168.708-.168s.512.057.696.168c.184.112.334.258.449.438.116.18.198.389.246.624.049.236.072.482.072.738a3.71 3.71 0 0 1-.071.744z" fill="#5e5e5e"/></svg>