<svg xmlns="http://www.w3.org/2000/svg" width="612.817" height="112.747" viewBox="0 0 612.817 112.747"><path d="M27.99 56.923c8.884 0 14.781-2.83 19.97-7.391.865-.787 1.572-1.966 1.572-3.459 0-2.438-2.123-4.481-4.56-4.481a4.404 4.404 0 0 0-2.909 1.1c-4.01 3.381-7.941 5.269-13.759 5.269-10.535 0-18.162-8.727-18.162-19.499v-.157c0-10.771 7.706-19.42 18.162-19.42 5.268 0 9.356 1.887 13.13 4.954.629.472 1.573.943 2.909.943 2.673 0 4.796-2.044 4.796-4.717 0-1.73-.865-3.066-1.887-3.853C42.457 2.516 36.875 0 28.383 0 11.715 0 0 12.815 0 28.461v.157c0 15.804 11.951 28.305 27.99 28.305zm47.803-.157c11.558 0 19.656-6.133 19.656-16.432v-.158c0-9.12-5.976-13.287-17.611-16.117-10.614-2.517-13.13-4.403-13.13-8.649v-.157c0-3.617 3.302-6.526 8.963-6.526 4.324 0 8.412 1.415 12.658 4.167.786.471 1.573.708 2.516.708 2.516 0 4.56-1.966 4.56-4.482 0-1.887-1.021-3.224-2.123-3.853C86.329 1.965 80.746.157 73.828.157c-10.929 0-18.791 6.526-18.791 15.96v.157c0 10.142 6.604 13.602 18.319 16.433 10.221 2.358 12.422 4.481 12.422 8.412v.157c0 4.089-3.773 6.919-9.749 6.919s-10.85-2.045-15.41-5.662c-.629-.471-1.494-.864-2.83-.864-2.516 0-4.56 1.965-4.56 4.481 0 1.572.786 2.91 1.886 3.695 6.133 4.562 13.209 6.921 20.678 6.921zm45.603 0c11.557 0 19.655-6.133 19.655-16.432v-.158c0-9.12-5.976-13.287-17.611-16.117-10.614-2.517-13.13-4.403-13.13-8.649v-.157c0-3.617 3.302-6.526 8.963-6.526 4.324 0 8.413 1.415 12.658 4.167.787.471 1.572.708 2.516.708 2.516 0 4.56-1.966 4.56-4.482 0-1.887-1.021-3.224-2.123-3.853-4.953-3.302-10.536-5.11-17.455-5.11-10.928 0-18.791 6.526-18.791 15.96v.157c0 10.142 6.604 13.602 18.319 16.433 10.221 2.358 12.422 4.481 12.422 8.412v.157c0 4.089-3.773 6.919-9.749 6.919s-10.85-2.045-15.41-5.662c-.629-.471-1.494-.864-2.83-.864-2.516 0-4.56 1.965-4.56 4.481 0 1.572.786 2.91 1.887 3.695 6.133 4.562 13.21 6.921 20.679 6.921zm28.698-20.206h14.781c2.516 0 4.639-2.123 4.639-4.639 0-2.594-2.123-4.717-4.639-4.717h-14.781c-2.516 0-4.639 2.123-4.639 4.717 0 2.516 2.123 4.639 4.639 4.639zm33.022 15.016c0 2.674 2.201 4.796 4.875 4.796 2.673 0 4.874-2.122 4.874-4.796V9.907h13.444c2.438 0 4.403-2.044 4.403-4.481 0-2.438-1.966-4.481-4.403-4.481h-36.56a4.479 4.479 0 0 0-4.481 4.481 4.479 4.479 0 0 0 4.481 4.481h13.366v41.669zm33.493 0c0 2.674 2.123 4.796 4.874 4.796a4.765 4.765 0 0 0 4.797-4.796v-14.78h12.187l13.365 17.061c1.102 1.495 2.517 2.516 4.718 2.516 2.359 0 4.639-1.808 4.639-4.481 0-1.494-.629-2.516-1.572-3.695l-10.535-13.288c7.391-2.28 12.501-7.626 12.501-16.432v-.157c0-4.796-1.651-8.885-4.56-11.873C253.485 2.988 248.06.944 241.14.944h-19.656c-2.751 0-4.874 2.123-4.874 4.874v45.758zm9.671-23.35V9.749h14.073c7.155 0 11.4 3.224 11.4 9.121v.157c0 5.582-4.402 9.199-11.322 9.199H226.28zm43.793 23.35c0 2.674 2.123 4.796 4.875 4.796a4.765 4.765 0 0 0 4.796-4.796V5.347a4.765 4.765 0 0 0-4.796-4.796c-2.752 0-4.875 2.123-4.875 4.796v46.229zm45.994 5.347c8.885 0 14.781-2.83 19.971-7.391.865-.787 1.572-1.966 1.572-3.459 0-2.438-2.123-4.481-4.56-4.481-1.18 0-2.202.472-2.91 1.1-4.01 3.381-7.94 5.269-13.759 5.269-10.535 0-18.162-8.727-18.162-19.499v-.157c0-10.771 7.705-19.42 18.162-19.42 5.269 0 9.356 1.887 13.13 4.954.629.472 1.572.943 2.909.943 2.673 0 4.796-2.044 4.796-4.717 0-1.73-.865-3.066-1.887-3.853C330.534 2.516 324.952 0 316.459 0c-16.668 0-28.382 12.815-28.382 28.461v.157c.001 15.804 11.951 28.305 27.99 28.305zm28.54-5.347c0 2.674 2.123 4.796 4.875 4.796a4.765 4.765 0 0 0 4.796-4.796v-11.4l8.963-8.647 17.69 22.565c1.022 1.336 2.202 2.279 4.088 2.279 2.752 0 4.875-2.044 4.875-4.717 0-1.495-.55-2.438-1.337-3.459L370.002 25.16l17.14-16.511c1.102-1.022 1.729-2.123 1.729-3.617 0-2.359-1.808-4.481-4.48-4.481-1.73 0-2.91.629-4.011 1.809l-26.103 26.26V5.347a4.765 4.765 0 0 0-4.796-4.796c-2.752 0-4.875 2.123-4.875 4.796v46.229zm70.84 5.19c11.559 0 19.656-6.133 19.656-16.432v-.158c0-9.12-5.975-13.287-17.611-16.117-10.613-2.517-13.131-4.403-13.131-8.649v-.157c0-3.617 3.303-6.526 8.963-6.526 4.326 0 8.414 1.415 12.658 4.167.787.471 1.574.708 2.518.708 2.516 0 4.561-1.966 4.561-4.482 0-1.887-1.023-3.224-2.123-3.853-4.955-3.302-10.535-5.11-17.455-5.11-10.928 0-18.791 6.526-18.791 15.96v.157c0 10.142 6.605 13.602 18.32 16.433 10.221 2.358 12.422 4.481 12.422 8.412v.157c0 4.089-3.773 6.919-9.75 6.919-5.975 0-10.85-2.045-15.41-5.662-.629-.471-1.493-.864-2.83-.864-2.516 0-4.561 1.965-4.561 4.481 0 1.572.786 2.91 1.888 3.695 6.133 4.562 13.208 6.921 20.676 6.921zM0 103.165c0 1.426 1.077 2.541 2.455 2.541 1.12 0 2.024-.624 2.455-1.738l2.541-6.018h14.642l2.455 5.839c.473 1.158 1.334 1.917 2.583 1.917 1.421 0 2.498-1.159 2.498-2.629 0-.357-.086-.758-.301-1.159L18.13 76.066c-.603-1.381-1.636-2.229-3.144-2.229h-.259c-1.507 0-2.583.848-3.187 2.229L.345 101.917c-.216.445-.345.846-.345 1.248zm9.474-10.074l5.297-12.613 5.297 12.613H9.474zm50.141 10.563c.517 1.427 1.464 2.273 2.756 2.273h.518c1.292 0 2.282-.847 2.756-2.273l6.718-20.368 6.718 20.368c.473 1.427 1.421 2.273 2.713 2.273h.517c1.292 0 2.282-.891 2.756-2.273l8.914-25.85c.13-.312.259-.759.259-1.115a2.636 2.636 0 0 0-2.627-2.629c-1.292 0-2.196.847-2.584 1.961l-6.933 21.483-6.804-21.349c-.388-1.292-1.334-2.184-2.67-2.184h-.388c-1.334 0-2.239.891-2.67 2.184L62.76 97.504l-6.933-21.438c-.344-1.159-1.334-2.005-2.626-2.005-1.464 0-2.713 1.159-2.713 2.674 0 .357.086.758.215 1.07l8.912 25.849zm43.513-11.587c.473-3.655 2.713-6.195 5.899-6.195 3.445 0 5.426 2.718 5.771 6.195h-11.67zm14.684 10.829c.388-.4.689-.979.689-1.648 0-1.248-.904-2.185-2.067-2.185-.603 0-.947.178-1.334.49-1.464 1.248-3.187 2.05-5.383 2.05-3.359 0-5.986-2.139-6.546-5.972h14.254c1.335 0 2.455-1.07 2.455-2.586 0-5.437-3.574-11.587-10.809-11.587-6.502 0-11.11 5.526-11.11 12.256v.09c0 7.264 5.082 12.211 11.67 12.211 3.53.002 6.114-1.202 8.181-3.119zm9.545.134c0 1.471 1.163 2.675 2.583 2.675 1.464 0 2.627-1.204 2.627-2.675v-1.204c1.593 2.185 3.962 4.146 7.751 4.146 5.383 0 10.551-4.413 10.551-12.212v-.089c0-7.844-5.211-12.211-10.551-12.211-3.704 0-6.072 1.961-7.751 4.412V75.397c0-1.516-1.163-2.675-2.627-2.675-1.464 0-2.583 1.159-2.583 2.675v27.633zm11.713-1.737c-3.531 0-6.632-3.031-6.632-7.533v-.089c0-4.501 3.101-7.532 6.632-7.532 3.532 0 6.503 2.986 6.503 7.532v.089c0 4.636-2.929 7.533-6.503 7.533zm34.985 1.426c0 1.561 1.163 2.763 2.67 2.763h8.57c9.474 0 16.02-6.819 16.02-15.599v-.089c0-8.78-6.545-15.51-16.02-15.51h-8.57c-1.507 0-2.67 1.204-2.67 2.763v25.672zm5.297-2.229V79.275h5.943c6.33 0 10.464 4.501 10.464 10.607v.089c0 6.106-4.134 10.519-10.464 10.519h-5.943zm33.829-8.423c.474-3.655 2.713-6.195 5.899-6.195 3.445 0 5.427 2.718 5.771 6.195h-11.67zm14.684 10.829c.387-.4.689-.979.689-1.648 0-1.248-.905-2.185-2.067-2.185-.603 0-.947.178-1.335.49-1.464 1.248-3.187 2.05-5.383 2.05-3.359 0-5.986-2.139-6.546-5.972h14.255c1.334 0 2.453-1.07 2.453-2.586 0-5.437-3.573-11.587-10.809-11.587-6.502 0-11.11 5.526-11.11 12.256v.09c0 7.264 5.082 12.211 11.671 12.211 3.532.002 6.115-1.202 8.182-3.119zm17.339 3.032c4.737 0 8.44-2.452 8.44-7.399v-.089c0-4.234-3.746-5.793-7.062-6.864-2.669-.891-5.124-1.605-5.124-3.342v-.09c0-1.337 1.162-2.317 3.187-2.317 1.593 0 3.488.624 5.34 1.604.344.179.604.268 1.033.268 1.206 0 2.153-.937 2.153-2.185 0-.936-.516-1.649-1.249-2.05-2.196-1.204-4.736-1.917-7.148-1.917-4.522 0-8.096 2.718-8.096 7.175v.09c0 4.501 3.747 5.927 7.106 6.908 2.669.846 5.08 1.47 5.08 3.298v.089c0 1.561-1.292 2.541-3.53 2.541-2.067 0-4.35-.758-6.547-2.273a2.212 2.212 0 0 0-1.118-.312c-1.206 0-2.111.981-2.111 2.185 0 .891.432 1.559.991 1.872 2.626 1.872 5.77 2.808 8.655 2.808zm15.835-30.04c0 1.604 1.291 2.674 2.971 2.674s2.971-1.07 2.971-2.674v-.268c0-1.604-1.291-2.629-2.971-2.629s-2.971 1.025-2.971 2.629v.268zm.387 27.142c0 1.516 1.164 2.675 2.584 2.675 1.465 0 2.627-1.159 2.627-2.675V84.4c0-1.515-1.162-2.718-2.627-2.718s-2.584 1.204-2.584 2.718v18.63zm24.281 9.672c4.09 0 7.277-1.025 9.345-3.164 1.894-1.961 2.885-4.903 2.885-8.869V84.4c0-1.515-1.163-2.718-2.627-2.718-1.421 0-2.584 1.204-2.584 2.674v1.115c-1.766-2.184-4.134-4.011-7.967-4.011-5.297 0-10.335 4.1-10.335 11.052v.09c0 6.908 4.995 11.008 10.335 11.008 3.746 0 6.115-1.783 8.011-4.324v1.828c0 4.725-2.542 7.221-7.192 7.221-2.627 0-4.909-.668-6.977-1.872a2.002 2.002 0 0 0-.946-.222c-1.207 0-2.197 1.024-2.197 2.228 0 1.026.56 1.783 1.464 2.14 2.755 1.38 5.598 2.093 8.785 2.093zm.43-13.682c-3.574 0-6.46-2.629-6.46-6.462v-.09c0-3.877 2.843-6.462 6.46-6.462s6.675 2.629 6.675 6.462v.09c0 3.832-3.058 6.462-6.675 6.462zm20.481 4.01c0 1.516 1.163 2.675 2.583 2.675 1.465 0 2.628-1.159 2.628-2.675V92.2c0-3.655 2.109-5.838 5.125-5.838 3.1 0 4.866 2.094 4.866 5.749v10.919c0 1.516 1.162 2.675 2.626 2.675 1.465 0 2.583-1.159 2.583-2.675V90.462c0-5.438-2.971-9.002-8.096-9.002-3.53 0-5.642 1.917-7.104 4.1V84.4c0-1.515-1.163-2.718-2.628-2.718-1.463 0-2.583 1.204-2.583 2.718v18.63zm58.499 2.987c4.866 0 8.096-1.604 10.938-4.19a2.665 2.665 0 0 0 .862-1.961c0-1.381-1.163-2.54-2.498-2.54a2.37 2.37 0 0 0-1.594.624c-2.195 1.917-4.349 2.987-7.535 2.987-5.771 0-9.948-4.947-9.948-11.054v-.089c0-6.106 4.22-11.009 9.948-11.009 2.885 0 5.124 1.07 7.191 2.809.344.267.861.535 1.593.535 1.465 0 2.627-1.159 2.627-2.675 0-.979-.474-1.737-1.033-2.183-2.627-2.096-5.685-3.521-10.336-3.521-9.129 0-15.546 7.265-15.546 16.134v.089c0 8.958 6.546 16.044 15.331 16.044zm29.696 0c7.019 0 12.187-5.571 12.187-12.257v-.089c0-6.73-5.124-12.211-12.102-12.211-6.976 0-12.143 5.571-12.143 12.3v.09c.001 6.684 5.125 12.167 12.058 12.167zm.085-4.724c-4.047 0-6.933-3.433-6.933-7.533v-.089c0-4.1 2.67-7.488 6.848-7.488 4.091 0 6.976 3.432 6.976 7.577v.09c0 4.055-2.669 7.443-6.891 7.443zm19.536 1.737c0 1.516 1.163 2.675 2.583 2.675 1.465 0 2.628-1.159 2.628-2.675V92.2c0-3.61 1.98-5.838 4.865-5.838 2.886 0 4.608 2.05 4.608 5.705v10.963c0 1.516 1.163 2.675 2.627 2.675 1.422 0 2.584-1.159 2.584-2.675V92.2c0-3.788 2.024-5.838 4.866-5.838 2.929 0 4.607 2.005 4.607 5.749v10.919c0 1.516 1.162 2.675 2.627 2.675 1.464 0 2.584-1.159 2.584-2.675V90.462c0-5.749-3.014-9.002-7.967-9.002-3.444 0-5.857 1.648-7.666 4.144-1.205-2.496-3.531-4.144-6.803-4.144-3.488 0-5.47 1.961-6.934 4.055V84.4c0-1.515-1.163-2.718-2.628-2.718-1.464 0-2.583 1.204-2.583 2.718v18.63zm43.04 0c0 1.516 1.163 2.675 2.584 2.675 1.465 0 2.627-1.159 2.627-2.675V92.2c0-3.61 1.98-5.838 4.866-5.838 2.885 0 4.607 2.05 4.607 5.705v10.963c0 1.516 1.163 2.675 2.628 2.675 1.421 0 2.583-1.159 2.583-2.675V92.2c0-3.788 2.024-5.838 4.866-5.838 2.929 0 4.608 2.005 4.608 5.749v10.919c0 1.516 1.162 2.675 2.627 2.675 1.464 0 2.584-1.159 2.584-2.675V90.462c0-5.749-3.016-9.002-7.967-9.002-3.445 0-5.857 1.648-7.666 4.144-1.206-2.496-3.531-4.144-6.804-4.144-3.488 0-5.47 1.961-6.934 4.055V84.4c0-1.515-1.162-2.718-2.627-2.718-1.464 0-2.584 1.204-2.584 2.718v18.63zm63.237-18.63c0-1.515-1.205-2.718-2.627-2.718-1.464 0-2.627 1.204-2.627 2.718v10.831c0 3.655-2.109 5.794-5.124 5.794-3.101 0-4.866-2.05-4.866-5.705V84.4c0-1.515-1.163-2.718-2.627-2.718-1.422 0-2.584 1.204-2.584 2.718v12.525c0 5.481 2.971 9.047 8.097 9.047 3.531 0 5.641-1.917 7.104-4.146v1.204c0 1.516 1.206 2.675 2.627 2.675 1.464 0 2.627-1.204 2.627-2.675V84.4zm8.641 18.63c0 1.516 1.162 2.675 2.584 2.675 1.463 0 2.627-1.159 2.627-2.675V92.2c0-3.655 2.109-5.838 5.124-5.838 3.101 0 4.866 2.094 4.866 5.749v10.919c0 1.516 1.163 2.675 2.627 2.675 1.465 0 2.584-1.159 2.584-2.675V90.462c0-5.438-2.972-9.002-8.097-9.002-3.531 0-5.642 1.917-7.104 4.1V84.4c0-1.515-1.164-2.718-2.627-2.718-1.464 0-2.584 1.204-2.584 2.718v18.63zm28.75-27.142c0 1.604 1.293 2.674 2.972 2.674 1.68 0 2.971-1.07 2.971-2.674v-.268c0-1.604-1.291-2.629-2.971-2.629-1.679 0-2.972 1.025-2.972 2.629v.268zm.388 27.142c0 1.516 1.162 2.675 2.583 2.675 1.464 0 2.628-1.159 2.628-2.675V84.4c0-1.515-1.164-2.718-2.628-2.718-1.465 0-2.583 1.204-2.583 2.718v18.63zm21.782 2.853c1.378 0 2.454-.223 3.573-.624.732-.312 1.378-1.115 1.378-2.095 0-1.248-1.033-2.229-2.195-2.229-.173 0-.689.133-1.293.133-1.765 0-2.798-.847-2.798-2.941V86.584h4.091c1.249 0 2.282-1.025 2.282-2.318s-1.033-2.318-2.282-2.318h-4.091v-4.011c0-1.47-1.164-2.674-2.584-2.674-1.465 0-2.627 1.204-2.627 2.674v4.011h-.862c-1.248 0-2.238 1.025-2.238 2.318s.99 2.318 2.238 2.318h.862v12.391c.001 5.17 2.713 6.908 6.546 6.908zm16.353 6.864c3.661 0 5.728-1.783 7.666-6.597l8.311-20.635c.087-.267.216-.847.216-1.292 0-1.426-1.12-2.541-2.498-2.541-1.335 0-2.066.936-2.498 2.05l-5.684 15.644-6.115-15.644c-.474-1.248-1.206-2.05-2.541-2.05-1.464 0-2.584 1.115-2.584 2.629 0 .357.129.892.302 1.292l8.44 19.522-.173.491c-.86 1.827-1.679 2.496-3.229 2.496-.732 0-1.206-.134-1.809-.312a2.582 2.582 0 0 0-.947-.178c-1.119 0-2.11.891-2.11 2.229 0 1.292.862 1.961 1.638 2.228 1.075.445 2.152.668 3.615.668z" fill="#6ad1dd"/></svg>