<svg xmlns="http://www.w3.org/2000/svg" width="25.01" height="25.002" viewBox="0 0 25.01 25.002"><path d="M24.75 9.464a1.356 1.356 0 0 0-.705-.443 2.324 2.324 0 0 0-.611-.073l-7.028-.004a.612.612 0 0 1-.341-.138.619.619 0 0 1-.224-.29l-2.036-7.298a2.209 2.209 0 0 0-.294-.663A1.232 1.232 0 0 0 12.504 0a1.225 1.225 0 0 0-1.006.556 2.192 2.192 0 0 0-.293.666L9.17 8.516a.618.618 0 0 1-.224.291.62.62 0 0 1-.34.138l-7.029.004c-.271.004-.524.021-.83.15a1.295 1.295 0 0 0-.485.363 1.172 1.172 0 0 0-.262.736c.008.415.184.669.328.844.152.178.312.303.491.422l5.664 3.723c.101.043.279.357.263.565a.43.43 0 0 1-.016.126l-2.202 7.197a2.25 2.25 0 0 0-.11.654c.003.206.028.474.236.775.202.309.649.503.955.484.579-.032.82-.26 1.107-.476l5.538-4.704a.467.467 0 0 1 .291-.09.457.457 0 0 1 .28.084l5.838 4.742c.288.21.526.426 1.092.456a.547.547 0 0 0 .041.001c.291 0 .699-.176.899-.469.214-.298.24-.571.242-.773a2.165 2.165 0 0 0-.129-.699l-2.475-7.243a.395.395 0 0 1-.019-.129c-.014-.196.146-.475.239-.514l5.636-3.709c.179-.119.34-.245.492-.423.143-.177.319-.429.327-.844a1.163 1.163 0 0 0-.258-.734z" fill-rule="evenodd" clip-rule="evenodd" fill="#5bc2a7"/></svg>