<svg xmlns="http://www.w3.org/2000/svg" width="143.783" height="18.469" viewBox="0 0 143.783 18.469"><path d="M0 18.234h1.992V10.91h7.102V9.14H1.992V2.87h7.559V1.1H0v17.134zM16.708 5.156c-1.859 0-3.312.584-4.359 1.752s-1.57 2.799-1.57 4.893c0 1.352.242 2.531.727 3.539s1.172 1.781 2.062 2.32 1.91.809 3.059.809c1.859 0 3.316-.588 4.371-1.764s1.582-2.811 1.582-4.904c0-2.039-.529-3.656-1.588-4.852s-2.487-1.793-4.284-1.793zm2.866 10.401c-.66.855-1.627 1.283-2.9 1.283s-2.238-.43-2.895-1.289-.984-2.109-.984-3.75c0-1.656.324-2.902.973-3.738s1.609-1.254 2.883-1.254c1.289 0 2.264.424 2.924 1.271s.99 2.088.99 3.721c-.001 1.648-.331 2.9-.991 3.756zm14.476-3.416c0 1.664-.311 2.863-.932 3.598s-1.604 1.102-2.947 1.102c-1.016 0-1.762-.258-2.238-.773s-.715-1.297-.715-2.344V5.391h-1.969v8.402c0 1.633.389 2.82 1.166 3.562s1.947 1.113 3.51 1.113c.906 0 1.713-.168 2.42-.504s1.26-.82 1.658-1.453h.105l.281 1.723h1.605V5.391H34.05v6.75zm11.541-6.985c-.883 0-1.684.174-2.402.521-.719.348-1.277.838-1.676 1.471h-.094l-.316-1.758h-1.582v12.844h1.945v-6.738c0-1.672.312-2.871.938-3.598.625-.727 1.609-1.09 2.953-1.09 1.015 0 1.761.258 2.238.773.476.516.715 1.297.715 2.344v8.309h1.945V9.855c0-1.641-.391-2.834-1.172-3.58-.782-.746-1.945-1.119-3.492-1.119zm16.697.071l.047.902.082.926h-.152c-.93-1.266-2.266-1.898-4.008-1.898-1.672 0-2.977.586-3.914 1.758s-1.406 2.816-1.406 4.934.467 3.75 1.4 4.898 2.24 1.723 3.92 1.723c1.789 0 3.133-.652 4.031-1.957h.105l.258 1.723h1.582V0h-1.945v5.227zm0 7.031c0 1.609-.299 2.775-.896 3.498s-1.561 1.084-2.889 1.084c-1.164 0-2.047-.418-2.648-1.254s-.902-2.074-.902-3.715c0-1.617.303-2.869.908-3.756s1.479-1.33 2.619-1.33c1.328 0 2.295.389 2.9 1.166.605.777.908 2.076.908 3.896v.411zM72.586 5.18c-.758 0-1.514.098-2.268.293s-1.447.465-2.08.809l.598 1.488c1.352-.656 2.562-.984 3.633-.984.953 0 1.646.24 2.08.721s.65 1.225.65 2.232v.797l-2.18.07c-4.148.125-6.223 1.484-6.223 4.078 0 1.211.361 2.145 1.084 2.801s1.721.984 2.994.984c.953 0 1.748-.143 2.385-.428s1.275-.83 1.916-1.635h.094l.387 1.828h1.441V9.469c0-1.5-.369-2.59-1.107-3.27S74.117 5.18 72.586 5.18zm2.566 7.898c0 1.195-.346 2.125-1.037 2.789s-1.643.996-2.854.996c-.766 0-1.361-.184-1.787-.551s-.639-.902-.639-1.605c0-.898.342-1.561 1.025-1.986s1.8-.666 3.347-.721l1.945-.082v1.16zm9.502 3.785c-.641 0-1.145-.207-1.512-.621s-.551-1.008-.551-1.781V6.902h3.727V5.391h-3.727V2.414h-1.125l-.82 2.742-1.84.809v.938h1.84v7.641c0 2.617 1.242 3.926 3.727 3.926.328 0 .697-.033 1.107-.1s.721-.15.932-.252V16.63c-.188.055-.441.107-.762.158s-.652.075-.996.075zm3.724 1.371h1.945V5.391h-1.945v12.843zM89.362.621c-.328 0-.602.104-.82.311s-.328.533-.328.979c0 .438.109.764.328.979s.492.322.82.322c.312 0 .582-.107.809-.322s.34-.541.34-.979-.113-.762-.34-.973-.496-.317-.809-.317zm9.701 4.535c-1.86 0-3.313.584-4.359 1.752-1.048 1.168-1.57 2.799-1.57 4.893 0 1.352.241 2.531.727 3.539.484 1.008 1.172 1.781 2.062 2.32s1.91.809 3.059.809c1.858 0 3.316-.588 4.371-1.764s1.582-2.811 1.582-4.904c0-2.039-.53-3.656-1.588-4.852-1.06-1.195-2.487-1.793-4.284-1.793zm2.866 10.401c-.661.855-1.628 1.283-2.9 1.283-1.274 0-2.238-.43-2.895-1.289s-.984-2.109-.984-3.75c0-1.656.323-2.902.973-3.738.647-.836 1.609-1.254 2.883-1.254 1.289 0 2.263.424 2.924 1.271.659.848.99 2.088.99 3.721-.001 1.648-.332 2.9-.991 3.756zm11.885-10.401c-.883 0-1.684.174-2.402.521s-1.277.838-1.676 1.471h-.094l-.316-1.758h-1.582v12.844h1.945v-6.738c0-1.672.312-2.871.938-3.598s1.609-1.09 2.953-1.09c1.016 0 1.762.258 2.238.773s.715 1.297.715 2.344v8.309h1.945V9.855c0-1.641-.391-2.834-1.172-3.58s-1.945-1.119-3.492-1.119zm12.822 9.481h1.916v2.637a7.37 7.37 0 0 1-1.74.205c-1.094 0-1.923-.299-2.487-.896s-.847-1.475-.847-2.631c0-1.102.293-1.963.879-2.584s1.4-.932 2.443-.932c.715 0 1.459.164 2.232.492l.387-.879a6.454 6.454 0 0 0-2.555-.504c-.902 0-1.689.177-2.361.53s-1.187.865-1.544 1.535-.536 1.45-.536 2.341c0 1.391.361 2.472 1.084 3.243s1.732 1.157 3.029 1.157c.617 0 1.16-.037 1.629-.111s.93-.184 1.383-.328v-4.166h-2.912v.891zm6.344-2.602c-.336.227-.623.549-.861.967h-.047l-.111-1.189h-.803v6.422h.973V14.79c0-.629.185-1.154.554-1.576s.813-.633 1.333-.633c.203 0 .438.029.703.088l.135-.902a3.8 3.8 0 0 0-.768-.07 1.93 1.93 0 0 0-1.108.338zm2.777 6.199h.973v-6.422h-.973v6.422zm.492-8.806c-.164 0-.301.052-.41.155s-.164.267-.164.489c0 .219.055.382.164.489s.246.161.41.161c.155 0 .291-.054.404-.161s.17-.271.17-.489-.057-.381-.17-.486-.249-.158-.404-.158zm6.562-.311v2.613l.023.451.041.463h-.076c-.465-.633-1.133-.949-2.004-.949-.836 0-1.488.293-1.957.879s-.703 1.408-.703 2.467.232 1.875.699 2.449 1.121.861 1.961.861c.895 0 1.566-.326 2.016-.979h.053l.129.861h.791V9.117h-.973zm0 6.129c0 .805-.15 1.388-.449 1.749s-.779.542-1.443.542c-.582 0-1.023-.209-1.324-.627s-.451-1.037-.451-1.857c0-.809.15-1.435.453-1.878s.74-.665 1.311-.665c.664 0 1.146.194 1.449.583s.455 1.038.455 1.948v.205z" fill="#5e5e5e"/></svg>