<svg xmlns="http://www.w3.org/2000/svg" width="326.74" height="326.74" viewBox="255.567 130.749 326.74 326.74"><path fill="#FFF" d="M433.713 322.8c-6.95-2.987-13.851-4.638-20.726-4.938-4.787-.149-12.888-.6-24.312-1.337-11.438-.75-20.425-1.2-27-1.338a597.083 597.083 0 0 1-17.812-.688c-5.75-.287-10.8-1.037-15.125-2.237-4.487-1.05-8.3-3.025-11.438-5.95-3.137-2.9-4.7-7.125-4.7-12.663 0-5.375 1.862-9.637 5.6-12.762 3.737-3.125 7.312-5.3 10.75-6.5h27.112c20.913 0 39.25-6.725 55.013-20.163 15.763-13.45 23.638-29.875 23.638-49.3 0-7.462-1.338-15.087-4.025-22.862-2.688-7.763-6.8-14.862-12.325-21.288v-1.337h51.987v-21.513h-77.087c-6.875-2.087-13.638-3.812-20.288-5.15s-13.337-2.025-20.05-2.025c-24.35 0-44.338 6.725-59.938 20.175-15.613 13.45-23.425 30.625-23.425 51.538 0 13.9 3.95 26.113 11.875 36.638 7.913 10.538 19.038 19.163 33.388 25.887v3.363c-11.35 4.775-19.825 10.5-25.438 17.137-5.6 6.65-8.4 13.925-8.4 21.851 0 6.274 1.2 11.537 3.587 15.8 2.387 4.263 5.525 7.962 9.413 11.1 3.438 2.688 7.537 5.038 12.325 7.05 4.775 2.013 9.413 3.7 13.888 5.038v3.138c-18.525.762-33.763 5.524-45.712 14.337-11.95 8.812-17.925 20.838-17.925 36.088 0 18.824 8.3 33.112 24.875 42.912 16.575 9.8 41.6 14.688 75.062 14.688 20.462 0 37.65-1.95 51.55-5.838 13.9-3.887 25.838-9.337 35.851-16.362 9.412-6.875 16.425-14.975 21.075-24.312 4.625-9.337 6.949-19.3 6.949-29.912s-1.725-19.5-5.149-26.675c-3.438-7.163-8.15-13.588-14.125-19.275-5.676-5.215-11.989-9.328-18.938-12.315zm-51.988-79.438c-6.95 10.388-16.85 15.575-29.688 15.575-11.5 0-20.875-5.225-28.125-15.688-7.25-10.45-10.863-23.975-10.863-40.562 0-7.312.638-14.45 1.9-21.4 1.262-6.95 3.387-12.888 6.387-17.812 3.138-5.375 7.212-9.525 12.212-12.438s11.013-4.375 18.038-4.375c12.837 0 22.812 5.2 29.913 15.575 7.087 10.388 10.65 24.312 10.65 41.788.001 15.837-3.474 28.95-10.424 39.337zm34.512 184.425c-12.625 8.45-29.925 12.663-51.875 12.663-12.7 0-23.45-1.237-32.275-3.688-8.812-2.463-15.837-5.638-21.062-9.538-5.525-4.024-9.413-8.438-11.65-13.225-2.237-4.775-3.362-9.775-3.362-15.013 0-11.649 3.4-21.162 10.2-28.562 6.788-7.399 18.263-12.675 34.4-15.812 17.175 0 32.275.375 45.263 1.125 13 .763 21.588 1.425 25.775 2.013 7.912 1.938 13.812 5.6 17.712 10.987 3.888 5.388 5.825 12.237 5.825 20.612-.026 17.176-6.326 30.001-18.951 38.438zM520.6 203.85v43.812h17.1V203.85h43.612v-16.812H537.7v-43.913h-17.1v43.913h-43.612v16.812H520.6z"/></svg>