<svg xmlns="http://www.w3.org/2000/svg" width="25.015" height="25.001" viewBox="0 0 25.015 25.001"><path d="M24.889 20.663l-2.785-2.79a2.378 2.378 0 0 0-3.368 0l-.789.791a2.39 2.39 0 0 0 0 3.375l2.809 2.815c-.394.09-.799.147-1.22.147-3.026 0-6.54-1.956-6.54-4.988 0-.924.597-2.236 1-3l-6-6c-.775.419-1.057 1-2 1C2.963 12.013 0 8.542 0 5.502c0-.413.053-.812.14-1.2l2.796 2.802c.93.932 2.438.932 3.368 0l.79-.791a2.39 2.39 0 0 0 0-3.375L4.3.138A5.499 5.499 0 0 1 5.492 0c3.033 0 6.504 2.974 6.504 6.013 0 .954-.574 1.218-1 2l6 6c.787-.439 2.035-1 3-1 3.026 0 5.019 3.466 5.019 6.498 0 .396-.046.78-.126 1.152z" fill-rule="evenodd" clip-rule="evenodd" fill="#cfcece"/></svg>