<svg xmlns="http://www.w3.org/2000/svg" xmlns:xlink="http://www.w3.org/1999/xlink" width="457.266" height="189.09" viewBox="0 0 457.266 189.09"><g opacity=".5"><defs><path id="a" opacity=".5" d="M120.382 89.031a35.024 35.024 0 0 1-1.112 5.604c-.223 12.664-10.186 22.949-22.719 23.681a34.915 34.915 0 0 1-6.993 1.54l-13.856 13.856 40.718 40.718 12.91-12.91c.997-17.778 15.233-32.015 33.011-33.011l10.834-10.834-40.717-40.719-12.076 12.075z"/></defs><use xlink:href="#a" overflow="visible" fill="#FFF"/></g><path opacity=".5" fill="#FFF" d="M17.717 116.447l12.074 12.074c16.162 1.84 28.983 14.662 30.824 30.823l13.856 13.858 40.718-40.718-12.91-12.912a34.888 34.888 0 0 1-7.368-1.217c-12.757-.109-23.151-10.103-23.9-22.696a34.936 34.936 0 0 1-1.743-9.098L58.434 75.729l-40.717 40.718z"/><path opacity=".5" fill="#FFF" d="M60.933 27.619c-.997 17.775-15.234 32.014-33.011 33.01L17.087 71.463l40.718 40.718 12.075-12.075a34.965 34.965 0 0 1 1.092-5.529c-.002-.125-.009-.248-.009-.373 0-13.343 10.816-24.158 24.159-24.158.392 0 .782.01 1.169.028a35.219 35.219 0 0 1 4.413-.792l13.856-13.857-40.717-40.718-12.91 12.912z"/><g opacity=".5"><defs><path id="b" opacity=".5" d="M74.373 56.662l12.912 12.91c1.7.096 3.366.314 4.996.645a24.432 24.432 0 0 1 2.841-.172c13.342 0 24.159 10.815 24.159 24.158 0 .521-.023 1.039-.056 1.553a35.04 35.04 0 0 1 1.07 6.828l10.833 10.834 40.718-40.717-12.075-12.076c-16.162-1.838-28.982-14.662-30.823-30.823l-13.857-13.857-40.718 40.717z"/></defs><use xlink:href="#b" overflow="visible" fill="#FFF"/></g><path fill="#FFF" d="M311.068 63.133c19.604 0 27.747 10.627 27.057 23.742-.414 15.737-15.887 25.255-30.382 25.262-8.962.004-12.5-3.625-13.405-6.387-.518-1.578-2.281-1.051-2.32.314-.225 8.087 4.28 17.944 18.222 17.944 10.63 0 19.189-6.073 19.189-6.073 2.898 2.899 4.003 6.073 3.864 9.664-.552 7.592-10.629 14.219-26.918 14.219-25.815 0-35.479-17.81-34.373-36.721 1.381-24.572 16.702-41.964 39.066-41.964m-8.283 35.062c8.008 0 15.323-3.037 15.461-10.354.14-4.556-3.175-7.73-8.835-7.73-9.249 0-14.355 7.453-15.599 13.805-.138 1.104-.414 2.622-.414 2.622.691.276 3.867 1.657 9.387 1.657m77.306-35.062c19.604 0 27.747 10.627 27.058 23.742-.414 15.737-15.888 25.255-30.383 25.262-8.962.004-12.5-3.625-13.406-6.387-.517-1.578-2.28-1.051-2.319.314-.226 8.087 4.28 17.944 18.222 17.944 10.63 0 19.189-6.073 19.189-6.073 2.898 2.899 4.003 6.073 3.865 9.664-.553 7.592-10.63 14.219-26.92 14.219-25.814 0-35.478-17.81-34.373-36.721 1.381-24.572 16.703-41.964 39.067-41.964m-8.283 35.062c8.007 0 15.323-3.037 15.461-10.354.14-4.556-3.175-7.73-8.835-7.73-9.249 0-14.355 7.453-15.599 13.805-.138 1.104-.414 2.622-.414 2.622.69.276 3.866 1.657 9.387 1.657m46.782-16.151c-9.763 0-8.841-5.31-8.912-8.364-.074-3.168 3.156-7.232 6.247-7.826 8.943-1.717 9.236-8.935 10.479-12.938.828-2.485 2.069-3.451 4.417-3.451h6.902c2.899 0 4.97 1.934 4.418 5.66-.414 3.589-.968 7.04-1.382 9.387 2.9.137 2.173 0 6.867 0 6.963 0 9.659 3.667 9.64 9.333-.01 3.2-3.149 8.06-9.938 8.06h-8.776c-1.656 11.183-3.727 25.953-4.693 34.375-.553 5.798 2.014 7.135 6.017 7.135 2.9.137 7.271-2.154 8.823-3.402 6.105 7.167 4.523 21.806-15.227 21.806-14.355 0-21.275-11.008-19.619-25.227.965-7.732 4.737-34.548 4.737-34.548M266.282 46.565h-22.678c-2.762 0-10.936.801-11.496 9.217-.5 7.5 3.3 10.979 11.8 10.979 4.369 0 8.962-3.189 10.986-4.346 2.333-1.334 3.647.451 2.002 1.869-3.069 2.643-5.903 5.643-7.644 15.131l-4.604 28.166c-1.38 9.525-5.521 14.081-12.423 14.081-6.212 0-10.581-3.484-14.248-8.317-7.333 2.333-11.166 12.5-5.807 19.252 2.439 3.072 7.491 9.221 20.33 9.221 13.311 0 28.477-6.473 32.227-32.165 1.833-12.558 6.938-45.418 7.766-51.216.692-5.245 1.519-11.872-6.211-11.872M35.064 129.269C15.698 129.269 0 113.569 0 94.203c0-19.367 15.698-35.065 35.064-35.065S70.13 74.836 70.13 94.203c0 19.366-15.699 35.066-35.066 35.066m59.138-59.138c-19.366 0-35.065-15.699-35.065-35.064C59.137 15.699 74.836 0 94.202 0s35.064 15.699 35.064 35.066c.001 19.366-15.698 35.065-35.064 35.065m.919 118.959c-19.365 0-35.064-15.699-35.064-35.065 0-19.367 15.699-35.065 35.064-35.065 19.366 0 35.065 15.698 35.065 35.065.001 19.366-15.699 35.065-35.065 35.065m59.631-58.645c-19.366 0-35.065-15.699-35.065-35.065s15.699-35.065 35.065-35.065c19.365 0 35.064 15.699 35.064 35.065s-15.699 35.065-35.064 35.065"/></svg>