<svg xmlns="http://www.w3.org/2000/svg" xmlns:xlink="http://www.w3.org/1999/xlink" width="457.301" height="189.09" viewBox="0 0 457.301 189.09"><path fill="#FF664A" d="M311.103 63.132c19.603 0 27.747 10.628 27.057 23.743-.414 15.737-15.887 25.255-30.382 25.262-8.962.004-12.5-3.625-13.406-6.387-.517-1.578-2.281-1.051-2.32.314-.225 8.087 4.28 17.945 18.222 17.945 10.63 0 19.189-6.074 19.189-6.074 2.899 2.9 4.003 6.074 3.865 9.664-.552 7.592-10.629 14.22-26.919 14.22-25.815 0-35.478-17.81-34.373-36.722 1.381-24.572 16.703-41.965 39.067-41.965m-8.283 35.063c8.007 0 15.323-3.037 15.461-10.354.139-4.555-3.175-7.73-8.835-7.73-9.249 0-14.356 7.454-15.599 13.805-.138 1.104-.414 2.622-.414 2.622.69.276 3.866 1.657 9.387 1.657m77.305-35.063c19.603 0 27.747 10.628 27.057 23.743-.414 15.737-15.887 25.255-30.382 25.262-8.962.004-12.5-3.625-13.406-6.387-.517-1.578-2.281-1.051-2.32.314-.225 8.087 4.28 17.945 18.222 17.945 10.63 0 19.189-6.074 19.189-6.074 2.899 2.9 4.003 6.074 3.865 9.664-.552 7.592-10.629 14.22-26.919 14.22-25.815 0-35.478-17.81-34.373-36.722 1.381-24.572 16.703-41.965 39.067-41.965m-8.283 35.063c8.007 0 15.323-3.037 15.461-10.354.139-4.555-3.175-7.73-8.835-7.73-9.249 0-14.356 7.454-15.599 13.805-.138 1.104-.414 2.622-.414 2.622.691.276 3.866 1.657 9.387 1.657m46.783-16.152c-9.763 0-8.841-5.309-8.912-8.364-.075-3.168 3.156-7.233 6.247-7.826 8.943-1.717 9.236-8.935 10.478-12.938.828-2.485 2.07-3.451 4.417-3.451h6.902c2.9 0 4.97 1.933 4.418 5.66-.414 3.589-.967 7.04-1.381 9.387 2.9.137 2.172 0 6.867 0 6.963 0 9.659 3.667 9.64 9.333-.011 3.2-3.15 8.06-9.939 8.06h-8.776c-1.657 11.182-3.727 25.953-4.694 34.374-.552 5.798 2.014 7.135 6.017 7.135 2.9.138 7.271-2.153 8.823-3.401 6.106 7.167 4.524 21.806-15.226 21.806-14.356 0-21.276-11.008-19.62-25.227.967-7.731 4.739-34.548 4.739-34.548M266.317 46.565h-22.678c-2.761 0-10.935.801-11.496 9.217-.5 7.5 3.3 10.979 11.8 10.98 4.369 0 8.962-3.19 10.986-4.347 2.333-1.333 3.648.452 2.002 1.87-3.069 2.643-5.903 5.643-7.643 15.131l-4.604 28.166c-1.38 9.525-5.521 14.081-12.423 14.081-6.212 0-10.581-3.485-14.248-8.318-7.333 2.333-11.166 12.5-5.806 19.251 2.439 3.073 7.491 9.222 20.33 9.222 13.31 0 28.476-6.474 32.226-32.165 1.833-12.557 6.938-45.418 7.766-51.216.69-5.245 1.517-11.872-6.212-11.872"/><defs><path id="a" d="M120.381 89.031a34.857 34.857 0 0 1-1.111 5.603c-.223 12.665-10.185 22.95-22.72 23.682a34.766 34.766 0 0 1-6.992 1.539l-13.857 13.856 40.717 40.718 12.911-12.909c.996-17.778 15.234-32.016 33.011-33.012l10.833-10.834-40.717-40.717-12.075 12.074z"/></defs><clipPath id="b"><use xlink:href="#a" overflow="visible"/></clipPath><linearGradient id="c" gradientUnits="userSpaceOnUse" x1="-86.372" y1="514.994" x2="-85.372" y2="514.994" gradientTransform="scale(-44.3 44.3) rotate(49.1 516.04 349.8)"><stop offset="0" stop-color="#09e09c"/><stop offset="1" stop-color="#00bfff"/></linearGradient><path clip-path="url(#b)" fill="url(#c)" d="M221.407 118.713l-89.988 103.95-103.951-89.987 89.988-103.951z"/><defs><path id="d" d="M17.717 116.447l12.074 12.074c16.162 1.84 28.983 14.662 30.824 30.822l13.857 13.859 40.718-40.718-12.911-12.912a34.952 34.952 0 0 1-7.368-1.217c-12.756-.108-23.151-10.102-23.901-22.695a34.935 34.935 0 0 1-1.742-9.098L58.435 75.729l-40.718 40.718z"/></defs><clipPath id="e"><use xlink:href="#d" overflow="visible"/></clipPath><linearGradient id="f" gradientUnits="userSpaceOnUse" x1="-86.373" y1="514.993" x2="-85.373" y2="514.993" gradientTransform="matrix(29.5 31 31 -29.5 -13364.828 17979.055)"><stop offset="0" stop-color="#ffc800"/><stop offset="1" stop-color="#00bfff"/></linearGradient><path clip-path="url(#e)" fill="url(#f)" d="M68.869 27.053l94.999 99.829-99.829 94.998-94.998-99.829z"/><defs><path id="g" d="M60.933 27.618c-.996 17.776-15.234 32.014-33.011 33.011L17.087 71.462l40.718 40.718 12.075-12.075c.215-1.893.587-3.74 1.092-5.529-.002-.125-.01-.248-.01-.374 0-13.342 10.816-24.158 24.159-24.158.392 0 .782.011 1.17.029a35.038 35.038 0 0 1 4.413-.792l13.857-13.857-40.718-40.718-12.91 12.912z"/></defs><clipPath id="h"><use xlink:href="#g" overflow="visible"/></clipPath><linearGradient id="i" gradientUnits="userSpaceOnUse" x1="-86.372" y1="514.994" x2="-85.372" y2="514.994" gradientTransform="scale(41.4 -41.4) rotate(45.5 573.913 361.02)"><stop offset="0" stop-color="#ffc800"/><stop offset="1" stop-color="#ff664a"/></linearGradient><path clip-path="url(#h)" fill="url(#i)" d="M-31.643 64.276l96.634-98.299 98.301 96.633-96.634 98.3z"/><defs><path id="j" d="M74.374 56.662l12.912 12.91c1.7.096 3.367.314 4.996.644a24.428 24.428 0 0 1 2.84-.172c13.343 0 24.16 10.816 24.16 24.158 0 .522-.023 1.039-.055 1.553.569 2.2.938 4.483 1.07 6.829l10.833 10.833L171.848 72.7l-12.075-12.075c-16.162-1.839-28.984-14.662-30.824-30.824l-13.857-13.857-40.718 40.718z"/></defs><clipPath id="k"><use xlink:href="#j" overflow="visible"/></clipPath><linearGradient id="l" gradientUnits="userSpaceOnUse" x1="-86.374" y1="514.992" x2="-85.374" y2="514.992" gradientTransform="scale(-48 48) rotate(-44.2 -677.352 155.517)"><stop offset="0" stop-color="#09e09c"/><stop offset="1" stop-color="#ff664a"/></linearGradient><path clip-path="url(#k)" fill="url(#l)" d="M124.543 162.133L25.658 66.114l96.019-98.885 98.886 96.019z"/><path fill="#FFC800" d="M35.065 129.269C15.699 129.269 0 113.569 0 94.203c0-19.367 15.699-35.066 35.065-35.066S70.13 74.836 70.13 94.203c0 19.366-15.699 35.066-35.065 35.066"/><path fill="#FF664A" d="M94.203 70.131c-19.366 0-35.065-15.699-35.065-35.065C59.137 15.699 74.836 0 94.203 0c19.366 0 35.065 15.699 35.065 35.066 0 19.366-15.7 35.065-35.065 35.065"/><path fill="#00BFFF" d="M95.122 189.09c-19.366 0-35.065-15.699-35.065-35.065 0-19.367 15.699-35.066 35.065-35.066s35.065 15.699 35.065 35.066c0 19.366-15.699 35.065-35.065 35.065"/><path fill="#09E09C" d="M154.752 130.445c-19.366 0-35.065-15.699-35.065-35.065 0-19.367 15.699-35.066 35.065-35.066s35.065 15.699 35.065 35.066c0 19.366-15.699 35.065-35.065 35.065"/></svg>