<svg xmlns="http://www.w3.org/2000/svg" width="67.135" height="120" viewBox="0 0 67.135 120"><path fill="#999" d="M0 47.009v.012l17.863 12.508L67.135 25.03V0z"/><path fill="#333" d="M0 47.021l67.135 47.007v25.03L0 72.05z"/><path fill="#666" d="M.061 46.967L0 47.009v25.029l17.932-12.557z"/><path d="M14.051 55.027l-5.367-7.688 1.511-1.055 6.729 2.938-3.583-5.134 1.443-1.007 5.366 7.688-1.557 1.087-6.599-2.851 3.5 5.014-1.443 1.008zm4.776-8.98c-.547-.783-.888-1.522-1.025-2.217a4.403 4.403 0 0 1-.02-1.553 3.64 3.64 0 0 1 .51-1.386c.338-.537.82-1.025 1.445-1.461 1.133-.791 2.285-1.071 3.455-.844 1.17.228 2.192.968 3.066 2.22.866 1.241 1.207 2.447 1.021 3.619-.186 1.172-.843 2.152-1.972 2.94-1.143.798-2.296 1.084-3.458.857-1.161-.226-2.168-.951-3.022-2.175zm1.562-1.168c.607.87 1.269 1.39 1.985 1.558.715.169 1.383.037 2.001-.395.619-.432.971-1.009 1.057-1.732.085-.723-.183-1.529-.805-2.421-.615-.882-1.268-1.404-1.957-1.568-.688-.163-1.352-.022-1.992.425s-1.003 1.025-1.088 1.737c-.084.713.182 1.511.799 2.396zm9.735-1.071l-5.366-7.688 2.323-1.621 5.055 4.271-2.281-6.207 2.329-1.626 5.367 7.689-1.443 1.006-4.224-6.052 2.697 7.117-1.494 1.043-5.745-4.99 4.224 6.052-1.442 1.006zm8.921-6.226l-5.366-7.688 1.552-1.083 5.366 7.688-1.552 1.083zm3.046-2.127l-5.366-7.688 1.511-1.053 6.73 2.937-3.583-5.135 1.44-1.005 5.367 7.688-1.558 1.085-6.599-2.849 3.499 5.012-1.441 1.008zm7.741-5.402l-5.366-7.688 5.7-3.98.908 1.301-4.148 2.894 1.189 1.707 3.859-2.695.904 1.295-3.859 2.693 1.46 2.092 4.295-2.996.904 1.293-5.846 4.084zm7.163-5.001l-5.365-7.688 5.699-3.979.907 1.302-4.147 2.895 1.189 1.704 3.86-2.693.904 1.295-3.86 2.693 1.461 2.094 4.295-3 .904 1.295-5.847 4.082z" fill="#FFF"/><g fill="#FFF"><path d="M37.02 87.855zm0 0zm-1.503-5.671l-.001-.001-2.166 3.111 3.113 2.168z"/><path d="M35.516 82.183l.001.001.008-.001h-.009zm0 0l-.459-2.665v-.006l-2.656.475.478 2.655z"/><path d="M36.44 87.453l2.167-3.118-3.13-2.18.96 5.298h.003zm0 0l.001.002.476 2.65 2.654-.472-.477-2.656-.543.096z"/><path d="M35.525 82.183l5.305-.956-3.132-2.181-2.641.466v.006l.459 2.665zm.915 5.27l2.111-.38.543-.096-.487-2.642-2.167 3.118h-.003l-5.296.943 3.133 2.179 2.642-.47-.475-2.65-.001-.002zm-.924-5.27l-2.637.459.471 2.652 2.166-3.111zm-6.082.392zm0 0zm-1.505-5.674h-.001l-2.166 3.112 3.114 2.167zm-.001 0h.011l-.001-.001-.01.001z"/><path d="M27.928 76.901l-.458-2.663v-.007l-2.656.475.479 2.654z"/><path d="M27.938 76.9l5.306-.956-3.133-2.178-2.641.465v.007l.458 2.663zm.916 5.272l2.166-3.118-3.129-2.178.96 5.296h.003z"/><path d="M28.854 82.172v.004l.475 2.648 2.655-.473-.477-2.657-.542.099z"/><path d="M28.854 82.172l2.111-.379.542-.099-.487-2.64-2.166 3.118h-.003l-5.296.943 3.133 2.181 2.641-.471-.475-2.649v-.004zm-.926-5.271l-2.635.459.469 2.653 2.166-3.112zM18.115 74.7zm0 0zm0 0l2.171-3.113 3.13 2.18-5.3.937-.001-.004zm5.842-.557v-.001l-.001-.009.001.01z"/><path d="M18.115 74.7l-.004.002-2.65.474-.478-2.654 2.658-.475.096.544zm2.667-.468l-.496-2.645 2.672-.492.097.538.383 2.128z"/><path d="M18.115 74.7l-.378-2.109-.096-.544 2.645-.46-2.171 3.113.001.004.954 5.293-3.132-2.18-.477-2.641 2.65-.474.004-.002zm5.31-.936l5.305-.955-3.132-2.182-2.642.468v.005l.459 2.665zm14.479 19.343l6.525-9.375 3.166 2.202c1.276.89 2.154 1.785 2.632 2.686.477.901.677 1.875.599 2.925a5.743 5.743 0 0 1-1.036 2.892 5.605 5.605 0 0 1-3.704 2.34 5.51 5.51 0 0 1-2.299-.094 5.809 5.809 0 0 1-1.17-.398c-.328-.159-.909-.529-1.742-1.108l-2.971-2.07zm8.719-6.075l-1.681-1.169-4.861 6.983 1.721 1.198c.673.468 1.226.784 1.662.952.437.167.827.265 1.174.298.348.032.695.017 1.044-.046 1.132-.211 2.056-.828 2.769-1.854.702-1.009.934-2.068.695-3.179a3.96 3.96 0 0 0-.456-1.185 4.304 4.304 0 0 0-.714-.945c-.258-.252-.708-.604-1.353-1.053zm10.057 5.226l.938.653-2.346 12.285-1.366-.95.68-3.628-3.977-2.769-3.089 1.952-1.37-.955 10.53-6.588zm-1.815 6.791l.847-4.425-3.746 2.406 2.899 2.019z"/></g></svg>