<svg xmlns="http://www.w3.org/2000/svg" width="25" height="25" viewBox="0 0 25 25"><path d="M23 25h-3c-.986 0-2-.138-2-1l-.143-19.682C17.857 3.456 19.014 3 20 3h3c.986 0 2 .456 2 1.318V24c0 .862-1.014 1-2 1zm-3-5h3v-1h-3v1zm3-14h-3v11h3V6zm-9 19h-3c-.986 0-2-.138-2-1L8.929 6.245C8.929 5.383 10.014 5 11 5h3c.986 0 2 .138 2 1v18c0 .862-1.014 1-2 1zm-3-5h3v-1h-3v1zm3-12h-3v6h3V8zM5 25H2c-1.009 0-2-.135-2-1V1c0-.865.991-1 2-1h3c1.009 0 2 .135 2 1v23c0 .865-.991 1-2 1zm-3-5h3v-1H2v1zM5 3H2v8h3V3z" fill-rule="evenodd" clip-rule="evenodd" fill="#db5237"/></svg>