<svg xmlns="http://www.w3.org/2000/svg" width="561.664" height="148.633" viewBox="0 0 561.664 148.633"><path d="M206.038 59.375c-2.67-1.407-6.792-2.768-12.366-4.083s-9.083-2.58-10.528-3.793c-1.136-.954-1.703-2.103-1.703-3.445 0-1.471.606-2.645 1.819-3.522 1.883-1.368 4.49-2.051 7.818-2.051 3.225 0 5.644.639 7.257 1.916 1.612 1.277 2.664 3.374 3.154 6.29l11.457-.503c-.181-5.212-2.071-9.379-5.67-12.502-3.6-3.122-8.96-4.683-16.082-4.683-4.361 0-8.083.658-11.167 1.974-3.084 1.316-5.445 3.232-7.083 5.748-1.639 2.516-2.458 5.219-2.458 8.109 0 4.49 1.742 8.296 5.225 11.418 2.478 2.22 6.786 4.09 12.928 5.612 4.773 1.187 7.831 2.013 9.173 2.477 1.96.697 3.334 1.516 4.122 2.458.787.942 1.181 2.084 1.181 3.425 0 2.09-.936 3.916-2.806 5.477-1.871 1.563-4.652 2.342-8.341 2.342-3.483 0-6.251-.875-8.302-2.632-2.051-1.755-3.413-4.503-4.083-8.244l-11.147 1.083c.748 6.348 3.044 11.181 6.89 14.496 3.844 3.315 9.353 4.974 16.527 4.974 4.928 0 9.044-.69 12.347-2.071 3.303-1.379 5.857-3.488 7.664-6.328 1.806-2.838 2.709-5.883 2.709-9.134 0-3.586-.755-6.6-2.264-9.038-1.511-2.441-3.601-4.363-6.271-5.77zm160.038 0c-2.67-1.407-6.792-2.768-12.366-4.083-5.573-1.316-9.083-2.58-10.527-3.793-1.137-.954-1.703-2.103-1.703-3.445 0-1.471.605-2.645 1.819-3.522 1.883-1.368 4.489-2.051 7.818-2.051 3.225 0 5.644.639 7.257 1.916 1.612 1.277 2.664 3.374 3.154 6.29l11.457-.503c-.182-5.212-2.07-9.379-5.67-12.502-3.6-3.122-8.961-4.683-16.082-4.683-4.362 0-8.084.658-11.167 1.974-3.084 1.316-5.445 3.232-7.083 5.748-1.64 2.516-2.458 5.219-2.458 8.109 0 4.49 1.742 8.296 5.226 11.418 2.478 2.22 6.785 4.09 12.928 5.612 4.772 1.187 7.83 2.013 9.173 2.477 1.961.697 3.335 1.516 4.122 2.458.786.942 1.181 2.084 1.181 3.425 0 2.09-.937 3.916-2.806 5.477-1.872 1.563-4.652 2.342-8.342 2.342-3.483 0-6.251-.875-8.302-2.632-2.052-1.755-3.413-4.503-4.084-8.244l-11.146 1.083c.747 6.348 3.044 11.181 6.89 14.496 3.844 3.315 9.353 4.974 16.526 4.974 4.928 0 9.044-.69 12.348-2.071 3.302-1.379 5.856-3.488 7.663-6.328 1.806-2.838 2.71-5.883 2.71-9.134 0-3.586-.755-6.6-2.265-9.038-1.509-2.441-3.6-4.363-6.271-5.77zm64.612 31.192h11.992V33.823h-11.992v56.744zm53.637-18.851l-24.109-37.893h-11.572v56.742h11.05V53.563l23.748 37.002h11.934V33.823h-11.05v37.893zm-71.451-15.56h-22.908V33.823h-11.691v56.744h11.691V65.755h22.908v24.812h11.691V33.823h-11.691v22.333zM298.866 33.823l-20.884 56.742h11.485l4.425-12.889h21.434l4.682 12.889h11.776l-21.469-56.742h-11.449zm-1.646 34.293l7.242-21.056 7.389 21.056H297.22zm-49.897 4.883l-12.274-39.175h-18.215v57.431h11.826V51.871l12.471 39.383h12.256L265.9 51.871v39.383h11.826V33.823h-18.257l-12.146 39.176zm280.807-5.818l.241.199 7.435 7.435 6.146-.689c-3.222 3.502-7.829 5.708-12.953 5.708-9.723 0-17.636-7.914-17.636-17.639s7.913-17.638 17.636-17.638c6.245 0 11.729 3.272 14.865 8.182l10.35-3.546c-4.716-9.126-14.232-15.369-25.214-15.369-15.668 0-28.371 12.702-28.371 28.371S513.332 90.568 529 90.568c7.791 0 14.846-3.142 19.972-8.227l-.202 5.438 7.107 7.107 5.788-33.054-33.535 5.349zm-229.811 58.902h9.713v6.118c-1.063.927-2.5 1.726-4.306 2.398-1.807.672-3.573 1.009-5.297 1.009-3.613 0-6.549-1.096-8.805-3.287-2.257-2.19-3.385-5.484-3.385-9.881 0-2.886.526-5.331 1.582-7.336 1.055-2.004 2.449-3.48 4.183-4.43 1.733-.95 3.802-1.425 6.205-1.425 1.65 0 3.136.262 4.457.784 1.32.523 2.384 1.244 3.192 2.163.806.919 1.477 2.305 2.009 4.157l3.935-1.075c-.588-2.346-1.468-4.191-2.642-5.536-1.175-1.345-2.67-2.384-4.485-3.116-1.815-.73-3.935-1.098-6.356-1.098-3.283 0-6.127.632-8.529 1.896-2.404 1.264-4.348 3.226-5.834 5.888-1.485 2.661-2.229 5.786-2.229 9.374 0 3.544.739 6.579 2.217 9.105 1.476 2.527 3.479 4.449 6.012 5.765 2.531 1.315 5.411 1.974 8.64 1.974a20 20 0 0 0 7.071-1.289 22.123 22.123 0 0 0 2.366-1.07v2.008h4.277v-4.77l.016-.012v-12.215l-14.006.022v3.879zm-104.925 2.891a272.499 272.499 0 0 0-1.763 5.267l-1.57-4.863-7.851-23.265h-6.578v32.857h4.21v-27.953l9.589 27.953h3.932l9.646-27.479v27.479h4.209v-32.857h-5.89l-7.934 22.861zm49.774-22.862l-11.923 32.857h4.314l3.36-9.951h13.007l3.596 9.951h4.681l-12.661-32.857h-4.374zm-3.052 19.365l3.439-9.638a43.293 43.293 0 0 0 1.694-6.275c.462 1.749 1.191 4.02 2.185 6.813l3.213 9.1h-10.531zm106.841-19.365l-11.924 32.857h4.314l3.359-9.951h13.007l3.597 9.951h4.681l-12.66-32.857h-4.374zm-3.054 19.365l3.439-9.638a42.908 42.908 0 0 0 1.693-6.275c.463 1.749 1.191 4.02 2.186 6.813l3.214 9.1h-10.532zm144.176 6.484l-16.254-25.849h-4.191v32.857h3.935v-25.854l16.228 25.854h4.192v-32.857h-3.909v25.849zm36.088 3.131v-11.184h17.102v-3.877h-17.102V109.99h18.259v-3.878h-22.349v32.857h23.068v-3.878h-18.978zm-88.711 3.878h4.089v-32.857h-4.089v32.857zm-42.531-6.187l17.333-22.793v-3.878h-22.143v3.878h17.256a50.03 50.03 0 0 0-3.211 3.899l-15.819 21.046v4.034h24.432v-3.878h-19.726l1.878-2.308zM65.966 84.7C46.22 77.24 29.634 63.919 28.533 46.579c-.702-11.061 2.083-20.725 9.28-28.86L8.436 24.744C2.533 26.155-1.108 32.085.304 37.988l24.44 102.209c1.412 5.902 7.341 9.544 13.244 8.132l12.579-3.008c-4.883-1.618-13.323-4.699-21.413-9.014l11.727-26.603s13.802 12.29 33.619 12.29 28.624-23.257-8.534-37.294zm82.363 25.944L123.889 8.436c-1.411-5.903-7.341-9.544-13.244-8.132L89.593 5.337c5.366.846 15.997 3.171 27.706 9.314l-9.167 25.405s-7.629-8.521-28.086-9.558c-19.446-.985-30.264 20.053 7.665 32.457 29.038 9.496 38.327 27.799 37.845 44.727-.251 8.802-3.33 15.96-6.898 21.356l21.54-5.149c5.902-1.41 9.543-7.341 8.131-13.245z" fill="#fc6e51"/></svg>