<svg xmlns="http://www.w3.org/2000/svg" width="380.65" height="380.65" viewBox="222.237 95.394 380.65 380.65"><path fill="#FFF" d="M602.888 167.663c-14 6.212-29.038 10.413-44.851 12.3 16.138-9.675 28.5-24.975 34.338-43.212a155.99 155.99 0 0 1-49.6 18.95c-14.238-15.175-34.538-24.65-57-24.65-43.113 0-78.075 34.95-78.075 78.088 0 6.125.688 12.075 2.013 17.8-64.9-3.263-122.438-34.362-160.95-81.6-6.725 11.538-10.575 24.95-10.575 39.263 0 27.087 13.788 51 34.737 64.987a77.758 77.758 0 0 1-35.375-9.762v.987c0 37.825 26.913 69.388 62.638 76.562a78.145 78.145 0 0 1-20.575 2.737c-5.037 0-9.925-.475-14.7-1.375 9.938 31 38.775 53.588 72.938 54.226-26.725 20.938-60.4 33.438-96.975 33.438-6.3 0-12.525-.375-18.638-1.113 34.562 22.163 75.6 35.101 119.7 35.101 143.625 0 222.175-118.987 222.175-222.175 0-3.387-.075-6.75-.237-10.112a158.389 158.389 0 0 0 39.012-40.44z"/></svg>