<svg xmlns="http://www.w3.org/2000/svg" width="11.478" height="11.421" viewBox="0 0 11.478 11.421"><path d="M11.185 2.546L7.979 5.735 11.12 8.86a.999.999 0 0 1 0 1.417l-.854.851a1.011 1.011 0 0 1-1.424 0L5.701 8.003 2.69 10.999a1.005 1.005 0 0 1-1.416 0l-.85-.846a.993.993 0 0 1 0-1.409l3.011-2.996-3.14-3.124a.999.999 0 0 1 0-1.417l.855-.85a1.01 1.01 0 0 1 1.424 0l3.14 3.125L8.919.293a1.005 1.005 0 0 1 1.416 0l.85.845a.993.993 0 0 1 0 1.408z" fill-rule="evenodd" clip-rule="evenodd" fill="#5e5f5f"/></svg>