<?xml version="1.0" encoding="utf-8"?>
<!-- Generator: Adobe Illustrator 16.0.4, SVG Export Plug-In . SVG Version: 6.00 Build 0)  -->
<!DOCTYPE svg PUBLIC "-//W3C//DTD SVG 1.1//EN" "http://www.w3.org/Graphics/SVG/1.1/DTD/svg11.dtd">
<svg version="1.1" id="Layer_1" xmlns="http://www.w3.org/2000/svg" xmlns:xlink="http://www.w3.org/1999/xlink" x="0px" y="0px"
	 width="457.266px" height="189.09px" viewBox="0 0 457.266 189.09" enable-background="new 0 0 457.266 189.09"
	 xml:space="preserve">
<g opacity="0.5">
	<defs>
		<path id="SVGID_1_" opacity="0.5" d="M120.382,89.031c-0.219,1.92-0.597,3.791-1.112,5.604
			c-0.223,12.664-10.186,22.949-22.719,23.681c-2.24,0.74-4.578,1.264-6.993,1.54l-13.856,13.856l40.718,40.718l12.91-12.91
			c0.997-17.778,15.233-32.015,33.011-33.011l10.834-10.834l-40.717-40.719L120.382,89.031z"/>
	</defs>
	<use xlink:href="#SVGID_1_"  overflow="visible" fill="#FFFFFF"/>
	<clipPath id="SVGID_2_">
		<use xlink:href="#SVGID_1_"  overflow="visible"/>
	</clipPath>
</g>
<path opacity="0.5" fill="#FFFFFF" d="M17.717,116.447l12.074,12.074c16.162,1.84,28.983,14.662,30.824,30.823l13.856,13.858
	l40.718-40.718l-12.91-12.912c-2.538-0.142-5.003-0.562-7.368-1.217c-12.757-0.109-23.151-10.103-23.9-22.696
	c-0.962-2.886-1.565-5.934-1.743-9.098L58.434,75.729L17.717,116.447z"/>
<path opacity="0.5" fill="#FFFFFF" d="M60.933,27.619c-0.997,17.775-15.234,32.014-33.011,33.01L17.087,71.463l40.718,40.718
	l12.075-12.075c0.216-1.893,0.587-3.738,1.092-5.529c-0.002-0.125-0.009-0.248-0.009-0.373c0-13.343,10.816-24.158,24.159-24.158
	c0.392,0,0.782,0.01,1.169,0.028c1.438-0.354,2.911-0.62,4.413-0.792l13.856-13.857L73.843,14.707L60.933,27.619z"/>
<g opacity="0.5">
	<defs>
		<path id="SVGID_3_" opacity="0.5" d="M74.373,56.662l12.912,12.91c1.7,0.096,3.366,0.314,4.996,0.645
			c0.932-0.109,1.879-0.172,2.841-0.172c13.342,0,24.159,10.815,24.159,24.158c0,0.521-0.023,1.039-0.056,1.553
			c0.57,2.199,0.938,4.482,1.07,6.828l10.833,10.834l40.718-40.717l-12.075-12.076c-16.162-1.838-28.982-14.662-30.823-30.823
			l-13.857-13.857L74.373,56.662z"/>
	</defs>
	<use xlink:href="#SVGID_3_"  overflow="visible" fill="#FFFFFF"/>
	<clipPath id="SVGID_4_">
		<use xlink:href="#SVGID_3_"  overflow="visible"/>
	</clipPath>
</g>
<path fill="#FFFFFF" d="M311.068,63.133c19.604,0,27.747,10.627,27.057,23.742c-0.414,15.737-15.887,25.255-30.382,25.262
	c-8.962,0.004-12.5-3.625-13.405-6.387c-0.518-1.578-2.281-1.051-2.32,0.314c-0.225,8.087,4.28,17.944,18.222,17.944
	c10.63,0,19.189-6.073,19.189-6.073c2.898,2.899,4.003,6.073,3.864,9.664c-0.552,7.592-10.629,14.219-26.918,14.219
	c-25.815,0-35.479-17.81-34.373-36.721C273.383,80.525,288.704,63.133,311.068,63.133 M302.785,98.195
	c8.008,0,15.323-3.037,15.461-10.354c0.14-4.556-3.175-7.73-8.835-7.73c-9.249,0-14.355,7.453-15.599,13.805
	c-0.138,1.104-0.414,2.622-0.414,2.622C294.089,96.814,297.265,98.195,302.785,98.195"/>
<path fill="#FFFFFF" d="M380.091,63.133c19.604,0,27.747,10.627,27.058,23.742c-0.414,15.737-15.888,25.255-30.383,25.262
	c-8.962,0.004-12.5-3.625-13.406-6.387c-0.517-1.578-2.28-1.051-2.319,0.314c-0.226,8.087,4.28,17.944,18.222,17.944
	c10.63,0,19.189-6.073,19.189-6.073c2.898,2.899,4.003,6.073,3.865,9.664c-0.553,7.592-10.63,14.219-26.92,14.219
	c-25.814,0-35.478-17.81-34.373-36.721C342.405,80.525,357.727,63.133,380.091,63.133 M371.808,98.195
	c8.007,0,15.323-3.037,15.461-10.354c0.14-4.556-3.175-7.73-8.835-7.73c-9.249,0-14.355,7.453-15.599,13.805
	c-0.138,1.104-0.414,2.622-0.414,2.622C363.111,96.814,366.287,98.195,371.808,98.195"/>
<path fill="#FFFFFF" d="M418.59,82.044c-9.763,0-8.841-5.31-8.912-8.364c-0.074-3.168,3.156-7.232,6.247-7.826
	c8.943-1.717,9.236-8.935,10.479-12.938c0.828-2.485,2.069-3.451,4.417-3.451h6.902c2.899,0,4.97,1.934,4.418,5.66
	c-0.414,3.589-0.968,7.04-1.382,9.387c2.9,0.137,2.173,0,6.867,0c6.963,0,9.659,3.667,9.64,9.333c-0.01,3.2-3.149,8.06-9.938,8.06
	h-8.776c-1.656,11.183-3.727,25.953-4.693,34.375c-0.553,5.798,2.014,7.135,6.017,7.135c2.9,0.137,7.271-2.154,8.823-3.402
	c6.105,7.167,4.523,21.806-15.227,21.806c-14.355,0-21.275-11.008-19.619-25.227C414.818,108.86,418.59,82.044,418.59,82.044"/>
<path fill="#FFFFFF" d="M266.282,46.565h-0.337h-5.662h-16.679c-2.762,0-10.936,0.801-11.496,9.217c-0.5,7.5,3.3,10.979,11.8,10.979
	c4.369,0,8.962-3.189,10.986-4.346c2.333-1.334,3.647,0.451,2.002,1.869c-3.069,2.643-5.903,5.643-7.644,15.131l-4.604,28.166
	c-1.38,9.525-5.521,14.081-12.423,14.081c-6.212,0-10.581-3.484-14.248-8.317c-7.333,2.333-11.166,12.5-5.807,19.252
	c2.439,3.072,7.491,9.221,20.33,9.221c13.311,0,28.477-6.473,32.227-32.165c1.833-12.558,6.938-45.418,7.766-51.216
	C273.185,53.192,274.012,46.565,266.282,46.565"/>
<path fill="#FFFFFF" d="M35.064,129.269C15.698,129.269,0,113.569,0,94.203c0-19.367,15.698-35.065,35.064-35.065
	S70.13,74.836,70.13,94.203C70.13,113.569,54.431,129.269,35.064,129.269"/>
<path fill="#FFFFFF" d="M94.202,70.131c-19.366,0-35.065-15.699-35.065-35.064C59.137,15.699,74.836,0,94.202,0
	s35.064,15.699,35.064,35.066C129.267,54.432,113.568,70.131,94.202,70.131"/>
<path fill="#FFFFFF" d="M95.121,189.09c-19.365,0-35.064-15.699-35.064-35.065c0-19.367,15.699-35.065,35.064-35.065
	c19.366,0,35.065,15.698,35.065,35.065C130.187,173.391,114.487,189.09,95.121,189.09"/>
<path fill="#FFFFFF" d="M154.752,130.445c-19.366,0-35.065-15.699-35.065-35.065s15.699-35.065,35.065-35.065
	c19.365,0,35.064,15.699,35.064,35.065S174.117,130.445,154.752,130.445"/>
</svg>
