<?xml version="1.0" encoding="iso-8859-1"?>
<!-- Generator: Adobe Illustrator 16.0.4, SVG Export Plug-In . SVG Version: 6.00 Build 0)  -->
<!DOCTYPE svg PUBLIC "-//W3C//DTD SVG 1.1//EN" "http://www.w3.org/Graphics/SVG/1.1/DTD/svg11.dtd">
<svg version="1.1" id="Layer_1" xmlns="http://www.w3.org/2000/svg" xmlns:xlink="http://www.w3.org/1999/xlink" x="0px" y="0px"
	 width="31.713px" height="26.446px" viewBox="0 0 31.713 26.446" style="enable-background:new 0 0 31.713 26.446;"
	 xml:space="preserve">
<path style="fill-rule:evenodd;clip-rule:evenodd;fill:#FDFEFE;" d="M28.466,6.587c0.012,0.286,0.019,0.574,0.019,0.863
	c0,8.823-6.544,18.997-18.512,18.997c-3.674,0-7.094-1.106-9.973-3c0.509,0.062,1.027,0.093,1.552,0.093
	c3.048,0,5.854-1.067,8.08-2.857c-2.847-0.055-5.25-1.985-6.078-4.637c0.396,0.078,0.805,0.119,1.224,0.119
	c0.593,0,1.027-0.082,1.573-0.233c-2.976-0.614-5.361-3.312-5.361-6.547c0-0.028,0-0.056,0-0.083c0.991,0.5,2.023,0.8,3.089,0.834
	C2.334,8.938,1.256,6.895,1.256,4.579c0-1.224,0.356-2.371,0.915-3.357c3.209,4.04,8.022,6.697,13.43,6.976
	c-0.111-0.489-0.16-0.998-0.16-1.521c0-3.687,2.917-6.676,6.51-6.676c1.871,0,3.564,0.811,4.752,2.108
	c1.482-0.299,2.875-0.854,4.133-1.619c-0.486,1.559-1.518,2.867-2.861,3.694c1.316-0.162,2.57-0.521,3.738-1.052
	C30.841,4.47,29.738,5.645,28.466,6.587z"/>
</svg>
