<?xml version="1.0" encoding="iso-8859-1"?>
<!-- Generator: Adobe Illustrator 16.0.4, SVG Export Plug-In . SVG Version: 6.00 Build 0)  -->
<!DOCTYPE svg PUBLIC "-//W3C//DTD SVG 1.1//EN" "http://www.w3.org/Graphics/SVG/1.1/DTD/svg11.dtd">
<svg version="1.1" id="Layer_1" xmlns="http://www.w3.org/2000/svg" xmlns:xlink="http://www.w3.org/1999/xlink" x="0px" y="0px"
	 width="11.478px" height="11.421px" viewBox="0 0 11.478 11.421" style="enable-background:new 0 0 11.478 11.421;"
	 xml:space="preserve">
<path style="fill-rule:evenodd;clip-rule:evenodd;fill:#5E5F5F;" d="M11.185,2.546L7.979,5.735L11.12,8.86
	c0.393,0.391,0.393,1.025,0,1.417l-0.854,0.851c-0.394,0.391-1.031,0.391-1.424,0L5.701,8.003L2.69,10.999
	c-0.391,0.389-1.025,0.389-1.416,0l-0.85-0.846c-0.391-0.389-0.391-1.02,0-1.409l3.011-2.996L0.295,2.624
	c-0.393-0.391-0.393-1.026,0-1.417l0.855-0.85c0.393-0.392,1.031-0.392,1.424,0l3.14,3.125l3.205-3.189
	c0.391-0.389,1.025-0.389,1.416,0l0.85,0.845C11.575,1.526,11.575,2.157,11.185,2.546z"/>
</svg>
