<?xml version="1.0" standalone="no"?>
<!DOCTYPE svg PUBLIC "-//W3C//DTD SVG 1.1//EN" "http://www.w3.org/Graphics/SVG/1.1/DTD/svg11.dtd" >
<svg>
<metadata>
Created by FontForge 20090914 at Mon Nov  5 16:02:55 2012
 By www-data
2007 Erik Spiekermann, Christian Schwartz, Kris Sowersby published by FSI FontShop International GmbH
</metadata>
<defs>
<font id="MetaSerifOT-Book" horiz-adv-x="1" >
  <font-face 
    font-family="MetaSerifOT-Book"
    font-weight="450"
    font-stretch="normal"
    units-per-em="1000"
    panose-1="2 1 6 4 5 1 1 2 1 2"
    ascent="763"
    descent="-237"
    x-height="490.999"
    cap-height="688.999"
    bbox="-759 -276.001 1422 976"
    underline-thickness="50"
    underline-position="-50"
    unicode-range="U+000D-U+FEFF"
  />
<missing-glyph horiz-adv-x="553" 
d="M71 0v689h411v-689h-411zM121 50h311v589h-311v-589z" />
    <glyph glyph-name="f_b" unicode="fb" horiz-adv-x="849" 
d="M715 256c0 66.667 -8.99902 113.667 -26.999 141s-47 41 -87 41c-26 0 -50.833 -6.33301 -74.5 -19s-41.834 -27 -54.501 -43v-268c20 -19.333 39 -33.833 57 -43.5s40.667 -14.5 68 -14.5c41.333 0 71.333 15.167 90 45.5s28 83.833 28 160.5zM472.001 730
l0.00195312 -302.004c47.333 50 98.666 75 153.999 75c58 0 103.667 -21.167 137 -63.5s50 -104.166 50 -185.499c0 -83.333 -17.167 -148.166 -51.5 -194.499s-82.833 -69.5 -145.5 -69.5c-58.667 0 -111 25.667 -157 77c-10.667 -31.333 -21.667 -53.666 -33 -66.999h-58
c8.66699 23.333 13 62.333 13 117v467c0 64.667 -31 97 -93 97c-34.667 0 -59.834 -10.167 -75.501 -30.5s-23.5 -52.166 -23.5 -95.499v-64h121l-14 -55h-106v-332c0 -27.333 4.16699 -45.5 12.5 -54.5s25.833 -14.167 52.5 -15.5v-34h-226v34
c29.333 2 48.333 7.16699 57 15.5s13 26.5 13 54.5v332h-63v32l63 23v63c0 55.333 17.5 98.5 52.5 129.5s83.5 46.5 145.5 46.5c48 0 87.667 -8.66699 119 -26l27 26h29z" />
    <glyph glyph-name="f_f" unicode="ff" horiz-adv-x="589" 
d="M190 436l-0.000976562 -332c0 -27.333 4.16699 -45.5 12.5 -54.5s25.833 -14.167 52.5 -15.5v-34h-226v34c29.333 2 48.333 7.16699 57 15.5s13 26.5 13 54.5v332h-63v32l63 23v46c0 53.333 17.167 95.5 51.5 126.5s81.5 46.5 141.5 46.5c50.667 0 92 -13.667 124 -41
c30.667 40.667 72 61 124 61c36.667 0 69.334 -6 98.001 -18v-83h-61c-5.33301 34.667 -20.666 52 -45.999 52c-40 0 -60 -31.667 -60 -95v-95h121l-14 -55h-106v-332c0 -27.333 5.33301 -45.5 16 -54.5s35 -14.167 73 -15.5v-34h-246v34
c27.333 2 45.166 7.16699 53.499 15.5s12.5 26.5 12.5 54.5v332h-191zM188.999 538v-47h192v71c0 66 -31.667 99 -95 99c-64.667 0 -97 -41 -97 -123z" />
    <glyph glyph-name="f_f_b" unicode="ffb" horiz-adv-x="1131" 
d="M754 730l0.00292969 -302.004c47.333 50 98.666 75 153.999 75c58 0 103.667 -21.167 137 -63.5s50 -104.166 50 -185.499c0 -83.333 -17.167 -148.166 -51.5 -194.499s-82.833 -69.5 -145.5 -69.5c-58.667 0 -111 25.667 -157 77
c-10.667 -31.333 -21.667 -53.666 -33 -66.999h-58c8.66699 23.333 13 62.333 13 117v467c0 64.667 -31 97 -93 97c-34.667 0 -59.834 -10.167 -75.501 -30.5s-23.5 -52.166 -23.5 -95.499v-64h121l-14 -55h-106v-332c0 -27.333 4.16699 -45.5 12.5 -54.5
s25.833 -14.167 52.5 -15.5v-34h-222v34c27.333 2 45.166 7.16699 53.499 15.5s12.5 26.5 12.5 54.5v332h-191v-332c0 -27.333 4.16699 -45.5 12.5 -54.5s25.833 -14.167 52.5 -15.5v-34h-226v34c29.333 2 48.333 7.16699 57 15.5s13 26.5 13 54.5v332h-63v32l63 23v46
c0 53.333 17.167 95.5 51.5 126.5s81.5 46.5 141.5 46.5c52 0 94 -14.333 126 -43c36 42 89.667 63 161 63c48 0 87.667 -8.66699 119 -26l27 26h29zM189.003 537.996v-47h192v69c0 38.667 -8.66699 65.167 -26 79.5s-40.333 21.5 -69 21.5c-64.667 0 -97 -41 -97 -123z
M997.003 255.996c0 66.667 -8.99902 113.667 -26.999 141s-47 41 -87 41c-26 0 -50.833 -6.33301 -74.5 -19s-41.834 -27 -54.501 -43v-268c20 -19.333 39 -33.833 57 -43.5s40.667 -14.5 68 -14.5c41.333 0 71.333 15.167 90 45.5s28 83.833 28 160.5z" />
    <glyph glyph-name="f_f_h" unicode="ffh" horiz-adv-x="1147" 
d="M754 730l0.000976562 -309.001c26.667 26.667 52.5 47 77.5 61s54.833 21 89.5 21c40.667 0 73.334 -11.667 98.001 -35s37 -56.333 37 -99v-265c0 -28 4 -46.167 12 -54.5s25.667 -13.5 53 -15.5v-34h-226v34c30.667 1.33301 50 5.83301 58 13.5s12 24.167 12 49.5v254
c0 54.667 -24.333 82 -73 82s-94.667 -21 -138 -63v-273c0 -25.333 4 -41.833 12 -49.5s27.333 -12.167 58 -13.5v-34h-231v34c29.333 2 48.333 7.16699 57 15.5s13 26.5 13 54.5v480c0 64.667 -31 97 -93 97c-34.667 0 -59.834 -10.167 -75.501 -30.5
s-23.5 -52.166 -23.5 -95.499v-64h121l-14 -55h-106v-332c0 -27.333 4.16699 -45.5 12.5 -54.5s25.833 -14.167 52.5 -15.5v-34h-222v34c27.333 2 45.166 7.16699 53.499 15.5s12.5 26.5 12.5 54.5v332h-191v-332c0 -27.333 4.16699 -45.5 12.5 -54.5
s25.833 -14.167 52.5 -15.5v-34h-226v34c29.333 2 48.333 7.16699 57 15.5s13 26.5 13 54.5v332h-63v32l63 23v46c0 53.333 17.167 95.5 51.5 126.5s81.5 46.5 141.5 46.5c52 0 94 -14.333 126 -43c36 42 89.667 63 161 63c48 0 87.667 -8.66699 119 -26l27 26h29z
M189.001 537.999v-47h192v69c0 38.667 -8.66699 65.167 -26 79.5s-40.333 21.5 -69 21.5c-64.667 0 -97 -41 -97 -123z" />
    <glyph glyph-name="f_f_i" unicode="ffi" horiz-adv-x="850" 
d="M421 664c32.667 44 80.6689 65.999 144.002 65.999c49.333 0 90 -6 122 -18v-90h-73c-2.66699 17.333 -9 31.5 -19 42.5s-23 16.5 -39 16.5c-56.667 0 -85 -41 -85 -123v-67h219l49 13h15v-400c0 -28.667 3.83301 -47.167 11.5 -55.5s27.167 -13.166 58.5 -14.499v-34
h-227v34c27.333 2 45.166 7.16699 53.499 15.5s12.5 26.5 12.5 54.5v247c0 36 -4.66699 59.167 -14 69.5s-29 15.5 -59 15.5h-118v-332c0 -27.333 4.16699 -45.5 12.5 -54.5s25.833 -14.167 52.5 -15.5v-34h-222v34c27.333 2 45.166 7.16699 53.499 15.5
s12.5 26.5 12.5 54.5v332h-191v-332c0 -27.333 4.16699 -45.5 12.5 -54.5s25.833 -14.167 52.5 -15.5v-34h-226v34c29.333 2 48.333 7.16699 57 15.5s13 26.5 13 54.5v332h-63v32l63 23v46c0 53.333 17.167 95.5 51.5 126.5s81.5 46.5 141.5 46.5
c55.333 0 98.333 -15.333 129 -46zM381.002 490.999v69c0 38.667 -8.66699 65.167 -26 79.5s-40.333 21.5 -69 21.5c-64.667 0 -97 -41 -97 -123v-47h192z" />
    <glyph glyph-name="f_f_j" unicode="ffj" horiz-adv-x="823" 
d="M381 491v69c0 38.667 -8.66699 65.167 -26 79.5s-40.333 21.5 -69 21.5c-64.667 0 -97 -41 -97 -123v-47h192zM592 436h-119.999v-332c0 -27.333 4.16699 -45.5 12.5 -54.5s25.833 -14.167 52.5 -15.5v-34h-222v34c27.333 2 45.166 7.16699 53.499 15.5
s12.5 26.5 12.5 54.5v332h-191v-332c0 -27.333 4.16699 -45.5 12.5 -54.5s25.833 -14.167 52.5 -15.5v-34h-226v34c29.333 2 48.333 7.16699 57 15.5s13 26.5 13 54.5v332h-63v32l63 23v46c0 53.333 17.167 95.5 51.5 126.5s81.5 46.5 141.5 46.5
c55.333 0 98.333 -15.333 129 -46c32.667 44 80.667 66 144 66c49.333 0 90 -6 122 -18v-90h-73c-2.66699 17.333 -9 31.5 -19 42.5s-23 16.5 -39 16.5c-56.667 0 -85 -41 -85 -123v-67h209l49 13h15v-493c0 -36 -3 -66 -9 -90s-16.5 -44 -31.5 -60s-29 -28 -42 -36
s-32.833 -18.333 -59.5 -31l-29 40c30 14 50.833 34.167 62.5 60.5s17.5 65.5 17.5 117.5v339c0 34 -4 56.667 -12 68s-24.333 17 -49 17z" />
    <glyph glyph-name="f_f_k" unicode="ffk" horiz-adv-x="1097" 
d="M948 375l-92 -90.999l151 -190c28.667 -36.667 58 -56.667 88 -60v-34h-121l-209 262l137 140c12 12 18 22.333 18 31c0 14.667 -15 22.667 -45 24v34h188v-34c-4.66699 -0.666992 -9.5 -1.66699 -14.5 -3s-9.5 -2.83301 -13.5 -4.5s-8.66699 -4.5 -14 -8.5
s-9.5 -7 -12.5 -9s-7.66699 -6 -14 -12l-14 -13c-3 -2.66699 -8.33301 -7.83398 -16 -15.501zM418 667.001c36 42 89.6689 62.999 161.002 62.999c48 0 87.667 -8.66699 119 -26l27 26h29v-623c0 -30 4.33301 -49.333 13 -58s29 -13.667 61 -15v-34h-239v34
c31.333 2 51.5 7.16699 60.5 15.5s13.5 26.5 13.5 54.5v480c0 64.667 -31 97 -93 97c-34.667 0 -59.834 -10.167 -75.501 -30.5s-23.5 -52.166 -23.5 -95.499v-64h121l-14 -55h-106v-332c0 -27.333 4.16699 -45.5 12.5 -54.5s25.833 -14.167 52.5 -15.5v-34h-222v34
c27.333 2 45.166 7.16699 53.499 15.5s12.5 26.5 12.5 54.5v332h-191v-332c0 -27.333 4.16699 -45.5 12.5 -54.5s25.833 -14.167 52.5 -15.5v-34h-226v34c29.333 2 48.333 7.16699 57 15.5s13 26.5 13 54.5v332h-63v32l63 23v46c0 53.333 17.167 95.5 51.5 126.5
s81.5 46.5 141.5 46.5c52 0 94 -14.333 126 -43zM189.002 538v-47h192v69c0 38.667 -8.66699 65.167 -26 79.5s-40.333 21.5 -69 21.5c-64.667 0 -97 -41 -97 -123z" />
    <glyph glyph-name="f_f_l" unicode="ffl" horiz-adv-x="854" 
d="M418 667c36 42 89.6689 62.999 161.002 62.999c48 0 87.667 -8.66699 119 -26l27 26h29v-623c0 -30 4.33301 -49.333 13 -58s29 -13.667 61 -15v-34h-239v34c31.333 2 51.5 7.16699 60.5 15.5s13.5 26.5 13.5 54.5v480c0 64.667 -31 97 -93 97
c-34.667 0 -59.834 -10.167 -75.501 -30.5s-23.5 -52.166 -23.5 -95.499v-64h121l-14 -55h-106v-332c0 -27.333 4.16699 -45.5 12.5 -54.5s25.833 -14.167 52.5 -15.5v-34h-222v34c27.333 2 45.166 7.16699 53.499 15.5s12.5 26.5 12.5 54.5v332h-191v-332
c0 -27.333 4.16699 -45.5 12.5 -54.5s25.833 -14.167 52.5 -15.5v-34h-226v34c29.333 2 48.333 7.16699 57 15.5s13 26.5 13 54.5v332h-63v32l63 23v46c0 53.333 17.167 95.5 51.5 126.5s81.5 46.5 141.5 46.5c52 0 94 -14.333 126 -43zM189.002 537.999v-47h192v69
c0 38.667 -8.66699 65.167 -26 79.5s-40.333 21.5 -69 21.5c-64.667 0 -97 -41 -97 -123z" />
    <glyph glyph-name="f_f_t" unicode="fft" horiz-adv-x="896" 
d="M540 730c36.667 0 69.333 -5.99902 98 -17.999v-83h-61c-5.33301 34.667 -20.666 52 -45.999 52c-40 0 -60 -31.667 -60 -95v-95h198c11.333 60 27 106 47 138l47 12c-6 -43.333 -9 -93.333 -9 -150h119l-14 -55h-106v-302c0 -38.667 4.33301 -64.334 13 -77.001
s25.667 -19 51 -19c18 0 37 3.33301 57 10l8 -36c-33.333 -17.333 -66.333 -26 -99 -26c-39.333 0 -69.333 10.5 -90 31.5s-31 55.5 -31 103.5v315h-190v-332c0 -27.333 5.33301 -45.5 16 -54.5s35 -14.167 73 -15.5v-34h-246v34c27.333 2 45.166 7.16699 53.499 15.5
s12.5 26.5 12.5 54.5v332h-191v-332c0 -27.333 4.16699 -45.5 12.5 -54.5s25.833 -14.167 52.5 -15.5v-34h-226v34c29.333 2 48.333 7.16699 57 15.5s13 26.5 13 54.5v332h-63v32l63 23v46c0 53.333 17.167 95.5 51.5 126.5s81.5 46.5 141.5 46.5
c50.667 0 92 -13.667 124 -41c30.667 40.667 72 61 124 61zM188.999 538.001v-47h192v71c0 66 -31.667 99 -95 99c-64.667 0 -97 -41 -97 -123z" />
    <glyph glyph-name="f_h" unicode="fh" horiz-adv-x="865" 
d="M472 730v-309.001c26.667 26.667 52.5 47 77.5 61s54.833 21 89.5 21c40.667 0 73.334 -11.667 98.001 -35s37 -56.333 37 -99v-265c0 -28 4 -46.167 12 -54.5s25.667 -13.5 53 -15.5v-34h-226v34c30.667 1.33301 50 5.83301 58 13.5s12 24.167 12 49.5v254
c0 54.667 -24.333 82 -73 82s-94.667 -21 -138 -63v-273c0 -25.333 4 -41.833 12 -49.5s27.333 -12.167 58 -13.5v-34h-231v34c29.333 2 48.333 7.16699 57 15.5s13 26.5 13 54.5v480c0 64.667 -31 97 -93 97c-34.667 0 -59.834 -10.167 -75.501 -30.5
s-23.5 -52.166 -23.5 -95.499v-64h121l-14 -55h-106v-332c0 -27.333 4.16699 -45.5 12.5 -54.5s25.833 -14.167 52.5 -15.5v-34h-226v34c29.333 2 48.333 7.16699 57 15.5s13 26.5 13 54.5v332h-63v32l63 23v63c0 55.333 17.5 98.5 52.5 129.5s83.5 46.5 145.5 46.5
c48 0 87.667 -8.66699 119 -26l27 26h29z" />
    <glyph glyph-name="f_i" unicode="fi" horiz-adv-x="568" 
d="M190 436l0.00195312 -332.001c0 -27.333 4.16699 -45.5 12.5 -54.5s25.833 -14.167 52.5 -15.5v-34h-226v34c29.333 2 48.333 7.16699 57 15.5s13 26.5 13 54.5v332h-63v32l63 23v66c0 53.333 16.5 95.5 49.5 126.5s77.833 46.5 134.5 46.5c49.333 0 90 -6 122 -18v-90
h-73c-2.66699 17.333 -9 31.5 -19 42.5s-23 16.5 -39 16.5c-56.667 0 -85 -41 -85 -123v-67h219l49 13h15v-400c0 -28.667 3.83301 -47.167 11.5 -55.5s27.167 -13.166 58.5 -14.499v-34h-227v34c27.333 2 45.166 7.16699 53.499 15.5s12.5 26.5 12.5 54.5v247
c0 34 -4.33301 56.667 -13 68s-26.334 17 -53.001 17h-125z" />
    <glyph glyph-name="f_j" unicode="fj" horiz-adv-x="541" 
d="M371 12v339c0 34 -4 56.667 -12 68s-24.333 17 -49 17h-120v-332c0 -27.333 4.16699 -45.5 12.5 -54.5s25.833 -14.167 52.5 -15.5v-34h-226v34c29.333 2 48.333 7.16699 57 15.5s13 26.5 13 54.5v332h-63v32l63 23v66c0 53.333 16.5 95.5 49.5 126.5
s77.833 46.5 134.5 46.5c49.333 0 90 -6 122 -18v-90h-73c-2.66699 17.333 -9 31.5 -19 42.5s-23 16.5 -39 16.5c-56.667 0 -85 -41 -85 -123v-67h209l49 13h15v-493c0 -36 -3 -66 -9 -90s-16.5 -44 -31.5 -60s-29 -28 -42 -36s-32.833 -18.333 -59.5 -31l-29 40
c30 14 50.833 34.167 62.5 60.5s17.5 65.5 17.5 117.5z" />
    <glyph glyph-name="f_k" unicode="fk" horiz-adv-x="814" 
d="M665 375l-92 -90.999l151 -190c28.667 -36.667 58 -56.667 88 -60v-34h-121l-209 262l137 140c12 12 18 22.333 18 31c0 14.667 -15 22.667 -45 24v34h188v-34c-4.66699 -0.666992 -9.5 -1.66699 -14.5 -3s-9.5 -2.83301 -13.5 -4.5s-8.66699 -4.5 -14 -8.5
s-9.5 -7 -12.5 -9s-7.66699 -6 -14 -12l-14 -13c-3 -2.66699 -8.33301 -7.83398 -16 -15.501zM381 104.001l0.000976562 479.999c0 64.667 -31 97 -93 97c-34.667 0 -59.834 -10.167 -75.501 -30.5s-23.5 -52.166 -23.5 -95.499v-64h121l-14 -55h-106v-332
c0 -27.333 4.16699 -45.5 12.5 -54.5s25.833 -14.167 52.5 -15.5v-34h-226v34c29.333 2 48.333 7.16699 57 15.5s13 26.5 13 54.5v332h-63v32l63 23v63c0 55.333 17.5 98.5 52.5 129.5s83.5 46.5 145.5 46.5c48 0 87.667 -8.66699 119 -26l27 26h29v-623
c0 -30 4.33301 -49.333 13 -58s29 -13.667 61 -15v-34h-239v34c31.333 2 51.5 7.16699 60.5 15.5s13.5 26.5 13.5 54.5z" />
    <glyph glyph-name="f_l" unicode="fl" horiz-adv-x="572" 
d="M381 104l0.000976562 479.999c0 64.667 -31 97 -93 97c-34.667 0 -59.834 -10.167 -75.501 -30.5s-23.5 -52.166 -23.5 -95.499v-64h121l-14 -55h-106v-332c0 -27.333 4.16699 -45.5 12.5 -54.5s25.833 -14.167 52.5 -15.5v-34h-226v34c29.333 2 48.333 7.16699 57 15.5
s13 26.5 13 54.5v332h-63v32l63 23v63c0 55.333 17.5 98.5 52.5 129.5s83.5 46.5 145.5 46.5c48 0 87.667 -8.66699 119 -26l27 26h29v-623c0 -30 4.33301 -49.333 13 -58s29 -13.667 61 -15v-34h-239v34c31.333 2 51.5 7.16699 60.5 15.5s13.5 26.5 13.5 54.5z" />
    <glyph glyph-name="f_t" unicode="ft" horiz-adv-x="614" 
d="M189 491l197.998 0.000976562c11.333 60 27 106 47 138l47 12c-6 -43.333 -9 -93.333 -9 -150h119l-14 -55h-106v-302c0 -38.667 4.33301 -64.334 13 -77.001s25.667 -19 51 -19c18 0 37 3.33301 57 10l8 -36c-33.333 -17.333 -66.333 -26 -99 -26
c-39.333 0 -69.333 10.5 -90 31.5s-31 55.5 -31 103.5v315h-190v-332c0 -27.333 5.33301 -45.5 16 -54.5s35 -14.167 73 -15.5v-34h-250v34c29.333 2 48.333 7.16699 57 15.5s13 26.5 13 54.5v332h-63v32l63 23v94c0 45.333 14.5 80.833 43.5 106.5s67.5 38.5 115.5 38.5
c36.667 0 69.334 -6 98.001 -18v-83h-61c-5.33301 34.667 -20.666 52 -45.999 52c-40 0 -60 -31.667 -60 -95v-95z" />
    <glyph glyph-name=".notdef" horiz-adv-x="553" 
d="M71 0v689h411v-689h-411zM121 50h311v589h-311v-589z" />
    <glyph glyph-name=".null" horiz-adv-x="0" 
 />
    <glyph glyph-name=".null" horiz-adv-x="0" 
 />
    <glyph glyph-name="CR" unicode="&#xd;" horiz-adv-x="225" 
 />
    <glyph glyph-name="space" unicode=" " horiz-adv-x="225" 
 />
    <glyph glyph-name="exclam" unicode="!" horiz-adv-x="291" 
d="M117 210l-31 477l115 17l-31 -494h-53zM144 -8c-18 0 -33.167 6.5 -45.5 19.5s-18.5 29.167 -18.5 48.5c0 18 6.16699 33.333 18.5 46s27.833 19 46.5 19c18 0 33.5 -6.33301 46.5 -19s19.5 -28 19.5 -46c0 -18.667 -6.66699 -34.667 -20 -48s-29 -20 -47 -20z" />
    <glyph glyph-name="quotedbl" unicode="&#x22;" horiz-adv-x="434" 
d="M349 453h-85v256h85v-256zM170 453h-85v256h85v-256z" />
    <glyph glyph-name="numbersign" unicode="#" horiz-adv-x="551" 
d="M64 430v69h102l29 209h62l-29 -209h132l29 209h62l-29 -209h94v-69h-103l-21 -151h94v-68h-103l-30 -211h-62l29 211h-132l-29 -211h-62l29 211h-91v68h101l20 151h-92zM219 430l-21 -151h132l21 151h-132z" />
    <glyph glyph-name="dollar" unicode="$" horiz-adv-x="538" 
d="M290 -100l-45.001 0.000976562v89c-79.333 0 -147.666 18.333 -204.999 55v124h69c6.66699 -44.667 19.5 -77.334 38.5 -98.001s51.5 -32 97.5 -34v277l-37 12c-52 16 -90.833 38.333 -116.5 67s-38.5 66.667 -38.5 114c0 53.333 17 97.5 51 132.5s81 55.167 141 60.5v86
h45v-84c70.667 -1.33301 129 -18.333 175 -51v-107h-65c-6 32.667 -17.167 58 -33.5 76s-41.833 29 -76.5 33v-249l36 -11c111.333 -33.333 167 -97 167 -191c0 -60 -17.5 -108.167 -52.5 -144.5s-85.167 -57.833 -150.5 -64.5v-92zM405.999 166.001
c0 38.667 -8.5 67.167 -25.5 85.5s-47.167 34.5 -90.5 48.5v-263c77.333 9.33301 116 52.333 116 129zM134.999 537.001c0 -34 8.16699 -59.335 24.5 -76.002s44.833 -31.667 85.5 -45v237c-34.667 -3.33301 -61.667 -15.166 -81 -35.499s-29 -47.166 -29 -80.499z" />
    <glyph glyph-name="percent" unicode="%" horiz-adv-x="891" 
d="M342 442c0 -61.333 -14.833 -110.167 -44.5 -146.5s-67.167 -54.5 -112.5 -54.5c-44 0 -80.833 18.5 -110.5 55.5s-44.5 86.5 -44.5 148.5c0 61.333 14.833 111 44.5 149s66.167 57 109.5 57c47.333 0 85.5 -19.833 114.5 -59.5s43.5 -89.5 43.5 -149.5zM262 436.999
c0 118 -25.333 177.001 -76 177.001c-26.667 0 -45.667 -13 -57 -39s-17 -66.333 -17 -121c0 -62.667 5.83301 -107.834 17.5 -135.501s30.5 -41.5 56.5 -41.5c50.667 0 76 53.333 76 160zM710 730l-488 -853h-53l487 853h54zM861 192
c0 -61.333 -14.833 -110.167 -44.5 -146.5s-67.167 -54.5 -112.5 -54.5c-44 0 -80.833 18.5 -110.5 55.5s-44.5 86.5 -44.5 148.5c0 61.333 14.833 111 44.5 149s66.167 57 109.5 57c47.333 0 85.5 -19.833 114.5 -59.5s43.5 -89.5 43.5 -149.5zM781 186.999
c0 118 -25.333 177.001 -76 177.001c-26.667 0 -45.667 -13 -57 -39s-17 -66.333 -17 -121c0 -62.667 5.83301 -107.834 17.5 -135.501s30.5 -41.5 56.5 -41.5c50.667 0 76 53.333 76 160z" />
    <glyph glyph-name="ampersand" unicode="&#x26;" horiz-adv-x="693" 
d="M472 548c0 -40.667 -13.333 -75.501 -40 -104.501s-65 -56.167 -115 -81.5l195 -196c13.333 30.667 20 66 20 106c0 30 -4.5 50 -13.5 60s-29.833 15.333 -62.5 16v35h214v-35c-31.333 -0.666992 -51 -5.66699 -59 -15s-13.667 -29.666 -17 -60.999
c-6 -52 -21 -99.667 -45 -143l68 -68c19.333 -18.667 44.666 -28 75.999 -28v-33h-140l-60 60c-53.333 -47.333 -122.666 -71 -207.999 -71c-79.333 0 -140 15.667 -182 47s-63 72.333 -63 123c0 47.333 12.667 83.5 38 108.5s68 52.167 128 81.5l-30 30
c-24 24 -40.667 41.5 -50 52.5s-18.333 26.833 -27 47.5s-13 43.667 -13 69c0 41.333 17.167 77.166 51.5 107.499s80.5 45.5 138.5 45.5c62.667 0 111 -13.167 145 -39.5s51 -64.166 51 -113.499zM305 34.999c64.667 0 117.332 18.333 157.999 55l-229 231
c-33.333 -21.333 -56.666 -41.333 -69.999 -60s-20 -45 -20 -79c0 -40 14.167 -74.5 42.5 -103.5s67.833 -43.5 118.5 -43.5zM178.998 554.999c0 -17.333 4.16699 -34.5 12.5 -51.5s17 -30.667 26 -41s22.833 -24.5 41.5 -42.5l31 -30c35.333 28 58.5 51.833 69.5 71.5
s16.5 48.5 16.5 86.5c0 72 -33.333 108 -100 108c-30 0 -53.667 -8.83301 -71 -26.5s-26 -42.5 -26 -74.5z" />
    <glyph glyph-name="quotesingle" unicode="'" horiz-adv-x="255" 
d="M170 453h-85v256h85v-256z" />
    <glyph glyph-name="parenleft" unicode="(" horiz-adv-x="333" 
d="M148 324c0 -40 0.999023 -75.501 2.99902 -106.501s6.33301 -65.167 13 -102.5s15.667 -69.833 27 -97.5s27.333 -54.334 48 -80.001s45.334 -46.167 74.001 -61.5l-17 -35c-46.667 20 -86.167 47 -118.5 81s-56.666 73.333 -72.999 118s-27.833 89.334 -34.5 134.001
s-10 94 -10 148c0 107.333 17.333 197.833 52 271.5s96 134.167 184 181.5l17 -35c-28.667 -18 -53.167 -38.667 -73.5 -62s-36.333 -47.166 -48 -71.499s-20.834 -52.833 -27.501 -85.5s-11 -63.667 -13 -93s-3 -64 -3 -104z" />
    <glyph glyph-name="parenright" unicode=")" horiz-adv-x="333" 
d="M185 324c0 102 -10.834 186.335 -32.501 253.002s-65.834 121 -132.501 163l17 35c88 -47.333 149.333 -107.833 184 -181.5s52 -164.167 52 -271.5c0 -54 -3.33301 -103.333 -10 -148s-18.167 -89.334 -34.5 -134.001s-40.666 -84 -72.999 -118s-71.833 -61 -118.5 -81
l-17 35c35.333 19.333 64.5 44.333 87.5 75s39.833 67 50.5 109s17.834 82.667 21.501 122s5.5 86.666 5.5 141.999z" />
    <glyph glyph-name="asterisk" unicode="*" horiz-adv-x="461" 
d="M421 553l-126 -62l69 -127l-37 -29l-98 108l-95 -105l-36 27l68 126l-126 64l13 41l139 -30l18 142h42l17 -142l138 29z" />
    <glyph glyph-name="plus" unicode="+" horiz-adv-x="575" 
d="M257 507h59v-209h204v-53h-204v-211h-59v211h-202v53h202v209z" />
    <glyph glyph-name="comma" unicode="," horiz-adv-x="297" 
d="M218 31c0 -39.333 -13.167 -75.166 -39.5 -107.499s-60.833 -54.5 -103.5 -66.5l-20 31c28 10.667 49.667 23.5 65 38.5s23 29.833 23 44.5c0 8 -2.66699 14.167 -8 18.5s-14.666 9.16602 -27.999 14.499c-28 12.667 -42 32 -42 58c0 19.333 7 35.833 21 49.5
s31 20.5 51 20.5c23.333 0 42.666 -9.5 57.999 -28.5s23 -43.167 23 -72.5z" />
    <glyph glyph-name="hyphen" unicode="-" horiz-adv-x="313" 
d="M258 235h-203v71h203v-71z" />
    <glyph glyph-name="period" unicode="." horiz-adv-x="272" 
d="M207 59c0 -20.667 -6.66699 -38 -20 -52s-30.333 -21 -51 -21s-37.667 7 -51 21s-20 31.333 -20 52s6.66699 38 20 52s30.333 21 51 21s37.667 -7 51 -21s20 -31.333 20 -52z" />
    <glyph glyph-name="slash" unicode="/" horiz-adv-x="398" 
d="M29 -149l260 910h68l-260 -910h-68z" />
    <glyph glyph-name="zero" unicode="0" horiz-adv-x="552" 
d="M511 246c0 -78 -22.167 -140.832 -66.5 -188.499s-100.5 -71.5 -168.5 -71.5s-124.167 24.167 -168.5 72.5s-66.5 112.5 -66.5 192.5c0 79.333 22 143.166 66 191.499s99.667 72.5 167 72.5c72 0 129.5 -25.5 172.5 -76.5s64.5 -115.167 64.5 -192.5zM413 242.001
c0 149.333 -46.334 223.999 -139.001 223.999c-90 0 -135 -68.333 -135 -205c0 -76.667 11 -133.5 33 -170.5s57.333 -55.5 106 -55.5c42.667 0 75.834 18.333 99.501 55s35.5 87.334 35.5 152.001z" />
    <glyph glyph-name="one" unicode="1" horiz-adv-x="407" 
d="M268 513v-405c0 -30.667 5.33301 -50.334 16 -59.001s37.667 -13.667 81 -15v-34h-294v34c45.333 2 74.333 7.33301 87 16s19 28.334 19 59.001v312c-32.667 -17.333 -71.667 -33.333 -117 -48l-13 33l163 107h58z" />
    <glyph glyph-name="two" unicode="2" horiz-adv-x="447" 
d="M220 517c60.667 0 106.499 -13.833 137.499 -41.5s46.5 -64.834 46.5 -111.501c0 -32 -9.16699 -62.333 -27.5 -91s-41.5 -54.5 -69.5 -77.5s-70.333 -54.167 -127 -93.5l-42 -29h280l-16 -73h-378v46l97 73c62 46.667 108.667 87.834 140 123.501s47 74.834 47 117.501
c0 30 -9.16699 53.5 -27.5 70.5s-43.5 25.5 -75.5 25.5c-22 0 -42.167 -2.16699 -60.5 -6.5s-32.333 -8.83301 -42 -13.5s-22.167 -11.334 -37.5 -20.001l-27 42c54.667 39.333 115.334 59 182.001 59z" />
    <glyph glyph-name="three" unicode="3" horiz-adv-x="469" 
d="M209 455c-58 0 -108.998 -16.667 -152.998 -50l-31 39c61.333 48.667 126.333 73 195 73c58.667 0 105 -13.833 139 -41.5s51 -65.834 51 -114.501c0 -37.333 -11.167 -69.833 -33.5 -97.5s-54.166 -47.5 -95.499 -59.5c45.333 -8.66699 81.166 -26.667 107.499 -54
s39.5 -59.666 39.5 -96.999c0 -68.667 -29.333 -122 -88 -160s-128.667 -57 -210 -57c-39.333 0 -76 4.33301 -110 13l-11 43c37.333 -5.33301 70.666 -8 99.999 -8c68 0 121.833 13.5 161.5 40.5s59.5 68.5 59.5 124.5c0 47.333 -12.667 79.833 -38 97.5
s-65 26.5 -119 26.5c-7.33301 0 -22.333 -0.666992 -45 -2v51c24 -1.33301 42.333 -2 55 -2c45.333 0 79.166 10.5 101.499 31.5s33.5 56.5 33.5 106.5c0 29.333 -9.83301 52.833 -29.5 70.5s-46.167 26.5 -79.5 26.5z" />
    <glyph glyph-name="four" unicode="4" horiz-adv-x="539" 
d="M329 -179v197h-305v42l225 461h98l-251 -454h233c0.666992 104.667 13.667 196.667 39 276l52 17v-293h84v-49h-84v-178z" />
    <glyph glyph-name="five" unicode="5" horiz-adv-x="462" 
d="M421 60c0 -46.667 -13.668 -87.499 -41.001 -122.499s-61.333 -60.667 -102 -77s-83.667 -24.5 -129 -24.5c-44 0 -83 6 -117 18l-11 46c36 -10 73.667 -15 113 -15c56.667 0 102.334 13.5 137.001 40.5s52 69.167 52 126.5c0 90.667 -42.667 136 -128 136
c-44 0 -86.333 -8 -127 -24l31 337h309l-14 -75h-240l-18 -196c30.667 8.66699 59 13 85 13c62 0 110.833 -16.333 146.5 -49s53.5 -77.334 53.5 -134.001z" />
    <glyph glyph-name="six" unicode="6" horiz-adv-x="525" 
d="M435 662c-56.667 -22 -103.497 -45.499 -140.497 -70.499s-68.833 -58 -95.5 -99s-44.334 -89.833 -53.001 -146.5c44 35.333 91.667 53 143 53c58 0 105.833 -17.167 143.5 -51.5s56.5 -81.5 56.5 -141.5c0 -62.667 -20.333 -115.167 -61 -157.5
s-92.334 -63.5 -155.001 -63.5c-69.333 0 -125 24.333 -167 73s-63 115.667 -63 201c0 62 10.167 118.5 30.5 169.5s48.666 94.167 84.999 129.5s76 64.666 119 87.999s90.5 42.333 142.5 57zM270.003 342.001c-46 0 -89 -15.001 -129 -45.001
c-0.666992 -9.33301 -1 -24.333 -1 -45c0 -145.333 44.333 -218 133 -218c79.333 0 119 56.667 119 170c0 52.667 -10.833 88.834 -32.5 108.501s-51.5 29.5 -89.5 29.5z" />
    <glyph glyph-name="seven" unicode="7" horiz-adv-x="471" 
d="M444 501l-13 -63.999c-55.333 -74 -104.5 -163.333 -147.5 -268s-74.833 -211.334 -95.5 -320.001l-101 -26c23.333 98.667 61 203.167 113 313.5s107 206.833 165 289.5h-337l17 75h399z" />
    <glyph glyph-name="eight" unicode="8" horiz-adv-x="539" 
d="M40 165c0 72 48.667 130.666 146 175.999c-76 40 -114 92 -114 156c0 50 19.667 91 59 123s86.333 48 141 48c59.333 0 107.333 -14.333 144 -43s55 -66 55 -112c0 -62 -43 -113.333 -129 -154c46 -19.333 83.667 -43.166 113 -71.499s44 -65.833 44 -112.5
c0 -56.667 -21.667 -102.167 -65 -136.5s-98.666 -51.5 -165.999 -51.5c-70.667 0 -126.334 16.833 -167.001 50.5s-61 76.167 -61 127.5zM409 155.999c0 21.333 -3.49902 39.834 -10.499 55.501s-19.833 30 -38.5 43s-36.834 23.833 -54.501 32.5s-44.5 20.667 -80.5 36
c-60.667 -42.667 -91 -93.334 -91 -152.001c0 -44 11.667 -77.667 35 -101s57 -35 101 -35c42 0 75.667 10.833 101 32.5s38 51.167 38 88.5zM159.001 511c0 -30.667 10.166 -55.834 30.499 -75.501s56.833 -39.834 109.5 -60.501c53.333 36.667 80 81.334 80 134.001
c0 34.667 -9.16699 61.834 -27.5 81.501s-45.166 29.5 -80.499 29.5c-34.667 0 -62 -10.167 -82 -30.5s-30 -46.5 -30 -78.5z" />
    <glyph glyph-name="nine" unicode="9" horiz-adv-x="525" 
d="M43 -155c108 33.333 191.333 79.333 250 138c46.667 48 75 106.333 85 175c-42 -34.667 -89.333 -52 -142 -52c-58 0 -105.833 17.167 -143.5 51.5s-56.5 81.5 -56.5 141.5c0 62.667 21 115.167 63 157.5s94.333 63.5 157 63.5c70 0 125.167 -23.333 165.5 -70
s60.5 -113 60.5 -199c0 -64 -10.5 -121.5 -31.5 -172.5s-50.5 -94 -88.5 -129s-80.667 -64 -128 -87s-100.333 -41.167 -159 -54.5zM255 163c46 0 88.667 14.668 128 44.001c1.33301 24 2 43.333 2 58c0 74 -11 126.833 -33 158.5s-54 47.5 -96 47.5
c-82 0 -123 -56.667 -123 -170c0 -52.667 10.833 -88.834 32.5 -108.501s51.5 -29.5 89.5 -29.5z" />
    <glyph glyph-name="colon" unicode=":" horiz-adv-x="312" 
d="M227 373c0 -20.667 -6.66699 -38 -20 -52s-30.333 -21 -51 -21s-37.667 7 -51 21s-20 31.333 -20 52s6.66699 38 20 52s30.333 21 51 21s37.667 -7 51 -21s20 -31.333 20 -52zM227 59c0 -20.667 -6.66699 -38 -20 -52s-30.333 -21 -51 -21s-37.667 7 -51 21
s-20 31.333 -20 52s6.66699 38 20 52s30.333 21 51 21s37.667 -7 51 -21s20 -31.333 20 -52z" />
    <glyph glyph-name="semicolon" unicode=";" horiz-adv-x="327" 
d="M238 31c0 -39.333 -13.165 -75.167 -39.498 -107.5s-60.833 -54.5 -103.5 -66.5l-20 31c28 10.667 49.667 23.5 65 38.5s23 29.833 23 44.5c0 10.667 -7.33301 19.334 -22 26.001c15.333 -6.66699 10.666 -4.33398 -14.001 6.99902c-28 12.667 -42 32 -42 58
c0 19.333 7 35.833 21 49.5s31 20.5 51 20.5c23.333 0 42.666 -9.5 57.999 -28.5s23 -43.167 23 -72.5zM227.002 372.999c0 -20.667 -6.66699 -38 -20 -52s-30.333 -21 -51 -21s-37.667 7 -51 21s-20 31.333 -20 52s6.66699 38 20 52s30.333 21 51 21s37.667 -7 51 -21
s20 -31.333 20 -52z" />
    <glyph glyph-name="less" unicode="&#x3c;" horiz-adv-x="477" 
d="M422 56l-367 198v72l367 232v-68l-316 -196l316 -173v-65z" />
    <glyph glyph-name="equal" unicode="=" horiz-adv-x="575" 
d="M55 173v53h465v-53h-465zM55 321v53h465v-53h-465z" />
    <glyph glyph-name="greater" unicode="&#x3e;" horiz-adv-x="477" 
d="M422 254l-367 -198v65l316 173l-316 196v68l367 -232v-72z" />
    <glyph glyph-name="question" unicode="?" horiz-adv-x="447" 
d="M277 60c0 -20 -7 -37.167 -21 -51.5s-30.667 -21.5 -50 -21.5c-18.667 0 -34.667 7.16699 -48 21.5s-20 31.5 -20 51.5c0 18.667 6.66699 34.667 20 48s29.333 20 48 20c19.333 0 36 -6.66699 50 -20s21 -29.333 21 -48zM211 654c-52.667 0 -82.333 -30.334 -89 -91.001
h-64v90c42.667 31.333 97 47 163 47c52 0 93.5 -12.333 124.5 -37s46.5 -63.334 46.5 -116.001c0 -62.667 -33 -114.667 -99 -156c-29.333 -18.667 -49.5 -36.167 -60.5 -52.5s-16.5 -38.833 -16.5 -67.5c0 -18 2.66699 -36.667 8 -56h-41c-16 27.333 -24 54 -24 80
c0 45.333 19 85.333 57 120c2 2 8 7.33301 18 16s16.833 14.834 20.5 18.501s9.16699 10 16.5 19s12.5 17.167 15.5 24.5s6 16.833 9 28.5s4.5 23.834 4.5 36.501c0 30 -8.33301 53.5 -25 70.5s-38 25.5 -64 25.5z" />
    <glyph glyph-name="at" unicode="@" horiz-adv-x="906" 
d="M614 -1c-41.333 0 -71.4971 8.16602 -90.4971 24.499s-28.5 42.833 -28.5 79.5c-32 -69.333 -80.333 -104 -145 -104c-36 0 -64.167 12 -84.5 36s-30.5 58 -30.5 102c0 94 27.667 170 83 228s120.333 87 195 87c55.333 0 101.666 -16.667 138.999 -50
c-7.33301 -24 -15.666 -56 -24.999 -96l-43 -175c-4.66699 -19.333 -7 -35.666 -7 -48.999c0 -16.667 3.83301 -28.167 11.5 -34.5s20.167 -9.5 37.5 -9.5c38.667 0 74 20 106 60s48 95.667 48 167c0 105.333 -28.167 184.333 -84.5 237s-130.833 79 -223.5 79
c-102.667 0 -186 -35 -250 -105s-96 -164.333 -96 -283c0 -96.667 27.333 -175.5 82 -236.5s128.667 -91.5 222 -91.5c59.333 0 113 8 161 24l15 -30c-58.667 -23.333 -121.334 -35 -188.001 -35c-111.333 0 -201.333 32.833 -270 98.5s-103 156.167 -103 271.5
c0 126.667 40.167 230.167 120.5 310.5s183.166 120.5 308.499 120.5c117.333 0 211.166 -31.667 281.499 -95s105.5 -148 105.5 -254c0 -92 -24 -161.167 -72 -207.5s-106.333 -69.5 -175 -69.5zM511.003 188.999l43 187c-10 20 -28 30 -54 30
c-54 0 -96.5 -25.5 -127.5 -76.5s-46.5 -112.833 -46.5 -185.5c0 -55.333 18 -83 54 -83c24 0 45.667 10.833 65 32.5s41.333 53.5 66 95.5z" />
    <glyph glyph-name="A" unicode="A" horiz-adv-x="657" 
d="M459 107l-33 108.001h-230l-33 -108c-4 -14 -6 -25.667 -6 -35c0 -14 5.33301 -23.333 16 -28s29.667 -7.66699 57 -9v-35h-214v35c24 2 41.667 8.5 53 19.5s22.333 33.167 33 66.5l184 568h89l182 -566c10 -31.333 20.5 -53.333 31.5 -66s28.5 -20 52.5 -22v-35h-245v35
c24 1.33301 41.333 5.16602 52 11.499s16 16.5 16 30.5c0 8.66699 -1.66699 18.667 -5 30zM257 411.001l-46 -148h201l-45 148c-20.667 67.333 -38 131 -52 191h-4c-26.667 -97.333 -44.667 -161 -54 -191z" />
    <glyph glyph-name="B" unicode="B" horiz-adv-x="607" 
d="M37 0v35.0029c32.667 0.666992 54.167 6.16699 64.5 16.5s15.5 30.166 15.5 59.499v467c0 29.333 -5.16699 49.166 -15.5 59.499s-31.833 15.833 -64.5 16.5v35h252c86.667 0 150 -14.167 190 -42.5s60 -70.833 60 -127.5c0 -78 -42 -127.667 -126 -149v-4
c53.333 -8 93.5 -28 120.5 -60s40.5 -71 40.5 -117c0 -62.667 -22.667 -109.834 -68 -141.501s-103 -47.5 -173 -47.5h-296zM212 49.0029h127c52 0 87.5 11.167 106.5 33.5s28.5 59.833 28.5 112.5c0 52 -10.667 88.333 -32 109s-61.333 31 -120 31h-110v-286zM212 383.003
l103.001 -0.000976562c47.333 0 80.5 10 99.5 30s28.5 51.667 28.5 95c0 48.667 -9.83301 82.834 -29.5 102.501s-53.834 29.5 -102.501 29.5h-99v-257z" />
    <glyph glyph-name="C" unicode="C" horiz-adv-x="577" 
d="M348 -11c-102 0 -178.167 30.668 -228.5 92.001s-75.5 147.333 -75.5 258c0 113.333 26.833 202 80.5 266s125.5 96 215.5 96c87.333 0 153.333 -15.667 198 -47v-112h-70c-10 40 -24.333 68.667 -43 86s-48 26 -88 26c-60.667 0 -107.167 -24.333 -139.5 -73
s-48.5 -128.667 -48.5 -240c0 -114 16.667 -193.333 50 -238s83 -67 149 -67c39.333 0 69 8.16699 89 24.5s33.667 44.166 41 83.499h65v-105c-46.667 -33.333 -111.667 -50 -195 -50z" />
    <glyph glyph-name="D" unicode="D" horiz-adv-x="670" 
d="M37 0v35.0029c32.667 0.666992 54.167 6.16699 64.5 16.5s15.5 30.166 15.5 59.499v467c0 29.333 -5.16699 49.166 -15.5 59.499s-31.833 15.833 -64.5 16.5v35h253c106 0 188.5 -28.333 247.5 -85s88.5 -143.334 88.5 -260.001c0 -106.667 -26.5 -190.667 -79.5 -252
s-138.5 -92 -256.5 -92h-253zM215 51.0029h84.999c78.667 0 135.334 20 170.001 60s52 113.667 52 221c0 111.333 -18 190.833 -54 238.5s-91.333 71.5 -166 71.5h-87v-591z" />
    <glyph glyph-name="E" unicode="E" horiz-adv-x="565" 
d="M37 0l-0.000976562 35.002c32.667 0.666992 54.167 6.16699 64.5 16.5s15.5 30.166 15.5 59.499v467c0 29.333 -5.16699 49.166 -15.5 59.499s-31.833 15.833 -64.5 16.5v35h470l10 -150h-42c-11.333 40 -23.166 66.833 -35.499 80.5s-32.5 20.5 -60.5 20.5h-167v-256h93
c31.333 0 53 4.83301 65 14.5s19 28.5 21 56.5h41v-190h-41c-2 27.333 -9 46 -21 56s-33.333 15 -64 15h-94v-287h168c38 0 63.833 7.66699 77.5 23s22.5 46.333 26.5 93h45v-165h-492z" />
    <glyph glyph-name="F" unicode="F" horiz-adv-x="552" 
d="M37 0v35.002c32.667 0.666992 54.167 6.16699 64.5 16.5s15.5 30.166 15.5 59.499v467c0 29.333 -5.16699 49.166 -15.5 59.499s-31.833 15.833 -64.5 16.5v35h472l12 -155h-42c-14.667 44.667 -28.167 73.5 -40.5 86.5s-33.833 19.5 -64.5 19.5h-162v-272h93
c31.333 0 53 4.83301 65 14.5s19 28.5 21 56.5h41v-193h-41c-2 28 -9 47.333 -21 58s-33.333 16 -64 16h-94v-206c0 -30 5.83301 -50.5 17.5 -61.5s35.167 -16.833 70.5 -17.5v-35h-263z" />
    <glyph glyph-name="G" unicode="G" horiz-adv-x="644" 
d="M461 66v163.002c0 29.333 -5.66699 49.166 -17 59.499s-35.666 15.833 -72.999 16.5v35h250v-35c-26 -0.666992 -43.333 -6.33398 -52 -17.001s-13 -30.334 -13 -59.001v-189c-56 -34 -128 -51 -216 -51c-92 0 -164.333 31 -217 93s-79 148.333 -79 259
s27.333 198.334 82 263.001s126 97 214 97c92.667 0 163.334 -17 212.001 -51v-111h-70c-8 40.667 -22.333 70 -43 88s-56.334 27 -107.001 27c-124 0 -186 -106 -186 -318c0 -98 15.167 -172.667 45.5 -224s82.166 -77 155.499 -77c49.333 0 87.333 10.333 114 31z" />
    <glyph glyph-name="H" unicode="H" horiz-adv-x="708" 
d="M496 111v229h-284v-229c0 -29.333 5.16699 -49.166 15.5 -59.499s31.833 -15.833 64.5 -16.5v-35h-255v35c32.667 0.666992 54.167 6.16699 64.5 16.5s15.5 30.166 15.5 59.499v467c0 29.333 -5.16699 49.166 -15.5 59.499s-31.833 15.833 -64.5 16.5v35h255v-35
c-32.667 -0.666992 -54.167 -6.16699 -64.5 -16.5s-15.5 -30.166 -15.5 -59.499v-188h284v188c0 29.333 -5.16699 49.166 -15.5 59.499s-31.833 15.833 -64.5 16.5v35h255v-35c-32.667 -0.666992 -54.167 -6.16699 -64.5 -16.5s-15.5 -30.166 -15.5 -59.499v-467
c0 -29.333 5.16699 -49.166 15.5 -59.499s31.833 -15.833 64.5 -16.5v-35h-255v35c32.667 0.666992 54.167 6.16699 64.5 16.5s15.5 30.166 15.5 59.499z" />
    <glyph glyph-name="I" unicode="I" horiz-adv-x="329" 
d="M117 111v467c0 29.333 -5.16699 49.166 -15.5 59.499s-31.833 15.833 -64.5 16.5v35h255v-35c-32.667 -0.666992 -54.167 -6.16699 -64.5 -16.5s-15.5 -30.166 -15.5 -59.499v-467c0 -29.333 5.16699 -49.166 15.5 -59.499s31.833 -15.833 64.5 -16.5v-35h-255v35
c32.667 0.666992 54.167 6.16699 64.5 16.5s15.5 30.166 15.5 59.499z" />
    <glyph glyph-name="J" unicode="J" horiz-adv-x="339" 
d="M122 100l-0.000976562 478.002c0 29.333 -5.5 49.166 -16.5 59.499s-33.833 15.833 -68.5 16.5v35h265v-35c-34.667 -0.666992 -57.5 -6.16699 -68.5 -16.5s-16.5 -30.166 -16.5 -59.499v-471c0 -77.333 -13.167 -133.333 -39.5 -168s-76.166 -63.334 -149.499 -86.001
l-24 37c51.333 26 83.833 52.667 97.5 80s20.5 70.666 20.5 129.999z" />
    <glyph glyph-name="K" unicode="K" horiz-adv-x="622" 
d="M117 111v467c0 29.333 -5.16699 49.166 -15.5 59.499s-31.833 15.833 -64.5 16.5v35h255v-35c-32.667 -0.666992 -54.167 -6.16699 -64.5 -16.5s-15.5 -30.166 -15.5 -59.499v-467c0 -29.333 5.16699 -49.166 15.5 -59.499s31.833 -15.833 64.5 -16.5v-35h-255v35
c32.667 0.666992 54.167 6.16699 64.5 16.5s15.5 30.166 15.5 59.499zM458 552l-143.997 -162l211 -306c12.667 -18.667 24.667 -31 36 -37s29.666 -10 54.999 -12v-35h-149l-239 361l184 215c16 19.333 24 35.333 24 48c0 18.667 -18 28.667 -54 30v35h212v-35
c-22.667 -3.33301 -42.334 -11.333 -59.001 -24s-42.334 -38.667 -77.001 -78z" />
    <glyph glyph-name="L" unicode="L" horiz-adv-x="544" 
d="M212 576v-526.998h144c36 0 61.833 8.5 77.5 25.5s28.5 48.5 38.5 94.5h44l-15 -169h-464v35c32.667 0.666992 54.167 6.16699 64.5 16.5s15.5 30.166 15.5 59.499v467c0 29.333 -5.16699 49.166 -15.5 59.499s-31.833 15.833 -64.5 16.5v35h260v-35
c-34.667 -0.666992 -57.5 -6.5 -68.5 -17.5s-16.5 -31.167 -16.5 -60.5z" />
    <glyph glyph-name="M" unicode="M" horiz-adv-x="801" 
d="M758 689l-0.00390625 -35c-34.667 -2 -57.167 -8.5 -67.5 -19.5s-14.5 -29.833 -12.5 -56.5l40 -464c2.66699 -30.667 8.33398 -51.334 17.001 -62.001s26.667 -16.334 54 -17.001v-35h-237v35c32.667 0.666992 53.667 6.16699 63 16.5s13 28.833 11 55.5l-29 366
c-2 20.667 -3 53.334 -3 98.001v20h-6c-6 -42 -13.667 -78.333 -23 -109l-150 -482h-60l-147 460c-10 31.333 -19.667 75.333 -29 132h-6c0 -22 -2 -66 -6 -132l-20 -352c-1.33301 -12 -1.66602 -22.667 -0.999023 -32s3.16699 -16.833 7.5 -22.5s11.833 -10.167 22.5 -13.5
s25.334 -5 44.001 -5v-35h-208v35c28 0.666992 46.333 6.33398 55 17.001s14.334 31.334 17.001 62.001l34 464c2 27.333 -2 46.5 -12 57.5s-32.667 17.167 -68 18.5v35h193l145 -453c11.333 -35.333 19 -74 23 -116h6c4 41.333 11.667 79.666 23 114.999l136 454h194z" />
    <glyph glyph-name="N" unicode="N" horiz-adv-x="685" 
d="M516 333l-0.000976562 245.001c0 29.333 -5.16699 49.166 -15.5 59.499s-31.833 15.833 -64.5 16.5v35h219v-35c-30 -0.666992 -49.5 -6.16699 -58.5 -16.5s-13.5 -30.166 -13.5 -59.499v-578h-71l-250 408c-38 62 -66 118.667 -84 170h-6c8 -54 12 -115.333 12 -184
v-283c0 -29.333 5.16699 -49.166 15.5 -59.499s31.833 -15.833 64.5 -16.5v-35h-227v35c32.667 0.666992 54.167 6.16699 64.5 16.5s15.5 30.166 15.5 59.499v467c0 29.333 -5.16699 49.166 -15.5 59.499s-31.833 15.833 -64.5 16.5v35h162l255 -418
c30.667 -50.667 53.334 -99 68.001 -145h6c-8 48 -12 117 -12 207z" />
    <glyph glyph-name="O" unicode="O" horiz-adv-x="674" 
d="M340 -11c-95.333 0 -168.5 32.833 -219.5 98.5s-76.5 152.167 -76.5 259.5c0 112 26.167 199 78.5 261s123.166 93 212.499 93c51.333 0 96.333 -9.66699 135 -29s69.334 -46 92.001 -80s39.667 -72.167 51 -114.5s17 -88.166 17 -137.499
c0 -106.667 -25.833 -191.834 -77.5 -255.501s-122.5 -95.5 -212.5 -95.5zM335 654c-65.333 0 -113.167 -24.5 -143.5 -73.5s-45.5 -123.167 -45.5 -222.5c0 -216 64.667 -324 194 -324c124 0 186 99 186 297c0 107.333 -14.833 188 -44.5 242s-78.5 81 -146.5 81z" />
    <glyph glyph-name="P" unicode="P" horiz-adv-x="577" 
d="M212 287v-172.997c0 -30 5.83301 -50.5 17.5 -61.5s35.167 -16.833 70.5 -17.5v-35h-263v35c32.667 0.666992 54.167 6.16699 64.5 16.5s15.5 30.166 15.5 59.499v467c0 29.333 -5.16699 49.166 -15.5 59.499s-31.833 15.833 -64.5 16.5v35h252c172 0 258 -66 258 -198
c0 -64.667 -20 -114.834 -60 -150.501s-97.333 -53.5 -172 -53.5h-103zM446 480.003c0 60 -10.667 101.667 -32 125s-62.333 35 -123 35h-79v-305h97c49.333 0 84.5 11.167 105.5 33.5s31.5 59.5 31.5 111.5z" />
    <glyph glyph-name="Q" unicode="Q" horiz-adv-x="676" 
d="M588 -125c-20 0 -40.999 5.83398 -62.999 17.501s-41.667 24.667 -59 39s-39.333 27.666 -66 39.999s-54 18.833 -82 19.5c-86.667 2.66699 -154 36.667 -202 102s-72 150 -72 254c0 112 26.167 199 78.5 261s123.166 93 212.499 93c51.333 0 96.333 -9.66699 135 -29
s69.334 -46 92.001 -80s39.667 -72.167 51 -114.5s17 -88.166 17 -137.499c0 -90 -18.333 -164.333 -55 -223s-88.334 -94.334 -155.001 -107.001c19.333 -4.66699 50 -16 92 -34s76.333 -27 103 -27s46 1.33301 58 4l-27 -68c-12 -6.66699 -31.333 -10 -58 -10z
M335.001 654.001c-65.333 0 -113.167 -24.5 -143.5 -73.5s-45.5 -123.167 -45.5 -222.5c0 -216 64.667 -324 194 -324c124 0 186 99 186 297c0 107.333 -14.833 188 -44.5 242s-78.5 81 -146.5 81z" />
    <glyph glyph-name="R" unicode="R" horiz-adv-x="611" 
d="M324 328l0.000976562 -3.99512c41.333 -10 75 -32 101 -66c11.333 -14 45.666 -69 102.999 -165c12 -20.667 23.5 -35.334 34.5 -44.001s28.5 -13.334 52.5 -14.001v-35h-148c-65.333 127.333 -108 207 -128 239c-20 31.333 -38.833 53.5 -56.5 66.5
s-41.167 19.833 -70.5 20.5v-217c0 -27.333 5.33301 -46.333 16 -57s31.334 -16.334 62.001 -17.001v-35h-253v35c32.667 0.666992 54.167 6.16699 64.5 16.5s15.5 30.166 15.5 59.499v467c0 29.333 -5.16699 49.166 -15.5 59.499s-31.833 15.833 -64.5 16.5v35h248
c166 0 249 -62 249 -186c0 -55.333 -19.333 -98 -58 -128s-89.334 -45.667 -152.001 -47zM433.001 502.005c0 52.667 -10.832 88.833 -32.499 108.5s-58.167 29.5 -109.5 29.5h-79v-278h74c47.333 0 83.666 10.667 108.999 32s38 57.333 38 108z" />
    <glyph glyph-name="S" unicode="S" horiz-adv-x="538" 
d="M245 -11c-79.333 0 -147.666 18.334 -204.999 55.001v124h69c6.66699 -46.667 20.5 -80.334 41.5 -101.001s57.167 -31 108.5 -31c98 0 147 43.333 147 130c0 40.667 -9.33301 70.167 -28 88.5s-52.334 34.833 -101.001 49.5l-69 21c-52 16 -90.833 38.333 -116.5 67
s-38.5 66.667 -38.5 114c0 58 20 105 60 141s94.333 54 163 54c80 0 143 -17 189 -51v-107h-65c-6.66699 36.667 -20 64.334 -40 83.001s-52.333 28 -97 28c-39.333 0 -70.5 -10.333 -93.5 -31s-34.5 -49.334 -34.5 -86.001c0 -35.333 8.83301 -61.333 26.5 -78
s49.167 -32 94.5 -46l70 -21c111.333 -33.333 167 -97 167 -191c0 -66.667 -21.5 -118.667 -64.5 -156s-104.167 -56 -183.5 -56z" />
    <glyph glyph-name="T" unicode="T" horiz-adv-x="551" 
d="M28 689h495.002l8 -157h-47c-8.66699 45.333 -17.667 74.666 -27 87.999s-28.333 20 -57 20h-77v-529c0 -30.667 6.16699 -50.667 18.5 -60s36.166 -14.666 71.499 -15.999v-35h-275v35c35.333 1.33301 59.166 6.66602 71.499 15.999s18.5 29.333 18.5 60v529h-77
c-28.667 0 -47.667 -6.66699 -57 -20s-18.333 -42.666 -27 -87.999h-47z" />
    <glyph glyph-name="U" unicode="U" horiz-adv-x="684" 
d="M517 224l0.000976562 354c0 29.333 -5.33301 49.166 -16 59.499s-33.667 15.833 -69 16.5v35h224v-35c-30 -0.666992 -49.5 -6.16699 -58.5 -16.5s-13.5 -30.166 -13.5 -59.499v-354c0 -80.667 -19.667 -140 -59 -178s-97.666 -57 -174.999 -57
c-164.667 0 -247 76 -247 228v361c0 29.333 -4.83301 49.166 -14.5 59.499s-29.834 15.833 -60.501 16.5v35h255v-35c-35.333 -0.666992 -58.333 -6.16699 -69 -16.5s-16 -30.166 -16 -59.499v-339c0 -68.667 12 -117.5 36 -146.5s67.333 -43.5 130 -43.5
c55.333 0 94.666 13.5 117.999 40.5s35 71.833 35 134.5z" />
    <glyph glyph-name="V" unicode="V" horiz-adv-x="653" 
d="M370 0h-91.001l-179 566c-10 32 -20.333 54 -31 66s-28.334 19.333 -53.001 22v35h245v-35c-24.667 -1.33301 -42.167 -5 -52.5 -11s-15.5 -16.333 -15.5 -31c0 -6.66699 1.66699 -16.667 5 -30l89 -303c18.667 -65.333 35.334 -130.666 50.001 -195.999h6
c16 64 34 129.333 54 196l91 303c4 14 6 26 6 36c0 12.667 -5.16699 21.5 -15.5 26.5s-28.166 8.16699 -53.499 9.5v35h212v-35c-24.667 -3.33301 -42.5 -10.333 -53.5 -21s-21.833 -32.334 -32.5 -65.001z" />
    <glyph glyph-name="W" unicode="W" horiz-adv-x="897" 
d="M580 0l-109.003 437.995c-7.33301 28 -14.333 68.333 -21 121h-4c-7.33301 -46.667 -15 -87 -23 -121l-103 -438h-96l-128 566c-7.33301 32.667 -16.166 54.834 -26.499 66.501s-28.166 18.834 -53.499 21.501v35h241v-35c-25.333 -2 -43.333 -6.16699 -54 -12.5
s-16 -16.833 -16 -31.5c0 -8.66699 1 -18 3 -28l66 -298c10.667 -47.333 19.667 -106 27 -176h6c14.667 72 27.334 130.667 38.001 176l97 405h75l101 -406c10 -40 23.333 -98.333 40 -175h6c10 64 20.667 122.333 32 175l61 277c3.33301 16.667 5 30.334 5 41.001
c0 18.667 -5.5 31.834 -16.5 39.501s-29.833 12.167 -56.5 13.5v35h209v-35c-23.333 -3.33301 -40.5 -12.166 -51.5 -26.499s-20.5 -37.833 -28.5 -70.5l-128 -557h-92z" />
    <glyph glyph-name="X" unicode="X" horiz-adv-x="632" 
d="M474 574l-114.996 -200.001l149 -257c17.333 -29.333 33.166 -49.666 47.499 -60.999s31.833 -18.333 52.5 -21v-35h-244v35c36.667 0.666992 55 11 55 31c0 10.667 -5.33301 26 -16 46l-110 198h-4l-105 -200c-9.33301 -16.667 -14 -31 -14 -43
c0 -19.333 19.667 -30 59 -32v-35h-205v35c20.667 2.66699 38.167 10.167 52.5 22.5s31.166 35.833 50.499 70.5l133 235l-128 217c-16.667 28 -31.334 46.667 -44.001 56s-29.334 15.333 -50.001 18v35h239v-35c-37.333 -2 -56 -12 -56 -30c0 -10 5.66699 -25.333 17 -46
l88 -157h4l83 156c10 18 15 33 15 45c0 19.333 -17.667 30 -53 32v35h194v-35c-20 -2.66699 -36.833 -9.5 -50.5 -20.5s-28.5 -30.833 -44.5 -59.5z" />
    <glyph glyph-name="Y" unicode="Y" horiz-adv-x="594" 
d="M319 345h3.99902l108 234c8 18 12 32.333 12 43c0 19.333 -19.667 30 -59 32v35h199v-35c-20.667 -2.66699 -37.5 -9.83398 -50.5 -21.501s-28.5 -35.5 -46.5 -71.5l-137 -279v-171c0 -29.333 5.5 -49.166 16.5 -59.499s33.833 -15.833 68.5 -16.5v-35h-265v35
c34.667 0.666992 57.5 6.16699 68.5 16.5s16.5 30.166 16.5 59.499v165l-149 296c-15.333 30.667 -29.666 51.334 -42.999 62.001s-30.333 17.334 -51 20.001v35h238v-35c-35.333 -0.666992 -53 -10.667 -53 -30c0 -10.667 4.66699 -26.334 14 -47.001z" />
    <glyph glyph-name="Z" unicode="Z" horiz-adv-x="519" 
d="M497 633l-373.999 -584h197c38 0 66 9 84 27s32 50 42 96h44l-15 -172h-451v56l374 584h-186c-32.667 0 -57.834 -8.83301 -75.501 -26.5s-31.5 -46.5 -41.5 -86.5h-44l14 162h432v-56z" />
    <glyph glyph-name="bracketleft" unicode="[" horiz-adv-x="300" 
d="M275 -155h-185v928h185v-42h-106v-844h106v-42z" />
    <glyph glyph-name="backslash" unicode="\" horiz-adv-x="398" 
d="M115 761l260 -910h-68l-260 910h68z" />
    <glyph glyph-name="bracketright" unicode="]" horiz-adv-x="300" 
d="M210 -155h-185v42h106v844h-106v42h185v-928z" />
    <glyph glyph-name="asciicircum" unicode="^" horiz-adv-x="604" 
d="M539 310h-75l-165 326l-160 -326h-74l203 398h68z" />
    <glyph glyph-name="underscore" unicode="_" horiz-adv-x="496" 
d="M498 -125h-500v50h500v-50z" />
    <glyph glyph-name="grave" unicode="`" horiz-adv-x="392" 
d="M312 600l-20 -34l-212 96l53 91z" />
    <glyph glyph-name="a" unicode="a" horiz-adv-x="512" 
d="M420 131c0 -38 4.33301 -62.332 13 -72.999s29 -17.334 61 -20.001v-33c-18.667 -7.33301 -41.667 -11 -69 -11c-32.667 0 -55.334 5.83301 -68.001 17.5s-20.334 29.5 -23.001 53.5c-11.333 -20 -28.666 -38.333 -51.999 -55s-51.666 -25 -84.999 -25
c-48.667 0 -87.667 12.5 -117 37.5s-44 60.167 -44 105.5c0 107.333 87.333 161 262 161c14.667 0 26.334 -0.333008 35.001 -1v44c0 44.667 -6.5 76.5 -19.5 95.5s-36.833 28.5 -71.5 28.5c-66.667 0 -105.334 -30 -116.001 -90h-63v89c62 34 124.333 51 187 51
c116 0 174 -56 174 -168c0 -4.66699 -0.666992 -31.5 -2 -80.5s-2 -91.167 -2 -126.5zM331 240.001c-18.667 1.33301 -30.333 2.00098 -35 2.00098c-57.333 0 -98.833 -8.33301 -124.5 -25s-38.5 -44 -38.5 -82c0 -34.667 6.83301 -58.834 20.5 -72.501
s35.5 -20.5 65.5 -20.5c44.667 0 81 24.333 109 73z" />
    <glyph glyph-name="b" unicode="b" horiz-adv-x="555" 
d="M421 256c0 66.667 -8.99902 113.667 -26.999 141s-47 41 -87 41c-26 0 -50.833 -6.33301 -74.5 -19s-41.834 -27 -54.501 -43v-268c20 -19.333 39 -33.833 57 -43.5s40.667 -14.5 68 -14.5c41.333 0 71.333 15.167 90 45.5s28 83.833 28 160.5zM165.001 67
c-10.667 -31.333 -21.666 -53.6689 -32.999 -67.002h-58c8.66699 23.333 13 62.333 13 117v467c0 35.333 -5 58 -15 68s-30.333 15.667 -61 17v32l140 29h15c8 -25.333 12 -58.333 12 -99v-203c47.333 50 98.666 75 153.999 75c58 0 103.667 -21.167 137 -63.5
s50 -104.166 50 -185.499c0 -83.333 -17.167 -148.166 -51.5 -194.499s-82.833 -69.5 -145.5 -69.5c-58.667 0 -111 25.667 -157 77z" />
    <glyph glyph-name="c" unicode="c" horiz-adv-x="463" 
d="M415 464v-92.001h-68c-5.33301 30.667 -14 52.5 -26 65.5s-31.333 19.5 -58 19.5c-85.333 0 -128 -66.333 -128 -199c0 -78 11.167 -133.167 33.5 -165.5s57.5 -48.5 105.5 -48.5c28 0 51 4.16699 69 12.5s39.333 22.5 64 42.5l26 -28c-48 -54.667 -105.667 -82 -173 -82
c-65.333 0 -119 21.333 -161 64s-63 104.334 -63 185.001c0 84 21.333 149.167 64 195.5s97.667 69.5 165 69.5c62 0 112 -13 150 -39z" />
    <glyph glyph-name="d" unicode="d" horiz-adv-x="567" 
d="M383 74c-19.333 -24.667 -42.666 -44.833 -69.999 -60.5s-54 -23.5 -80 -23.5c-56.667 0 -103.667 20.5 -141 61.5s-56 104.167 -56 189.5c0 78.667 18.333 142 55 190s86.667 72 150 72c53.333 0 98.666 -20 135.999 -60v141c0 35.333 -5 58 -15 68
s-30.333 15.667 -61 17v32l146 29h21v-592c0 -35.333 5 -58 15 -68s31.333 -15.667 64 -17v-30l-127 -36h-15c-12 24 -19.333 53 -22 87zM134 253.001c0 -76 8.99902 -129.5 26.999 -160.5s47.333 -46.5 88 -46.5c42 0 84.667 24 128 72v271
c-31.333 38 -71.666 57 -120.999 57c-41.333 0 -72 -13.667 -92 -41s-30 -78 -30 -152z" />
    <glyph glyph-name="e" unicode="e" horiz-adv-x="483" 
d="M289 49c46 0 90.333 14.001 133 42.001l21 -34c-58.667 -45.333 -118 -68 -178 -68c-72 0 -128.167 22.833 -168.5 68.5s-60.5 109.5 -60.5 191.5c0 80 20 143 60 189s91.667 69 155 69s112.5 -20.833 147.5 -62.5s52.5 -100.5 52.5 -176.5v-27h-319
c0.666992 -70.667 13.5 -120.334 38.5 -149.001s64.5 -43 118.5 -43zM249 459.001c-36 0 -63.5 -12.833 -82.5 -38.5s-30.167 -69.167 -33.5 -130.5h223c0 60.667 -8.33301 104 -25 130s-44 39 -82 39z" />
    <glyph glyph-name="f" unicode="f" horiz-adv-x="316" 
d="M190 436l-0.00195312 -332c0 -27.333 5.33301 -45.5 16 -54.5s35 -14.167 73 -15.5v-34h-250v34c29.333 2 48.333 7.16699 57 15.5s13 26.5 13 54.5v332h-63v32l63 23v94c0 45.333 14.5 80.833 43.5 106.5s67.5 38.5 115.5 38.5c42.667 0 78.334 -6 107.001 -18l-9 -83
h-61c-5.33301 34.667 -20.666 52 -45.999 52c-40 0 -60 -31.667 -60 -95v-95h121l-14 -55h-106z" />
    <glyph glyph-name="g" unicode="g" horiz-adv-x="523" 
d="M254 -189c-66 0 -117.502 11.1641 -154.502 33.4971s-55.5 49.5 -55.5 81.5c0 26.667 17 50 51 70l42 2c-7.33301 -13.333 -11 -30.666 -11 -51.999c0 -29.333 9.5 -51.166 28.5 -65.499s51.5 -21.5 97.5 -21.5c93.333 0 140 31 140 93
c0 30.667 -9.66699 50.834 -29 60.501s-61.666 15.167 -126.999 16.5c-29.333 0.666992 -59 2.66699 -89 6c-20.667 2.66699 -36.667 11.334 -48 26.001s-17 32 -17 52c0 36.667 31 65.334 93 86.001c-36 8.66699 -64.833 26.167 -86.5 52.5s-32.5 56.166 -32.5 89.499
c0 48.667 17 88.167 51 118.5s79.667 45.5 137 45.5c27.333 0 53.333 -3.66699 78 -11c34.667 -10.667 59.667 -16 75 -16c24.667 0 51.667 10.333 81 31l34 -65c-24 -12 -47.333 -18 -70 -18c-19.333 0 -42.666 6.33301 -69.999 19c40 -30 60 -65.333 60 -106
c0 -38.667 -14.667 -72.834 -44 -102.501s-77 -46.167 -143 -49.5c-4.66699 -0.666992 -12 -1 -22 -1c-18 -5.33301 -32.667 -12.666 -44 -21.999s-17 -19.333 -17 -30c0 -16.667 12 -25 36 -25h92c62 0 108.167 -10.333 138.5 -31s45.5 -56.334 45.5 -107.001
c0 -48 -20.833 -86.667 -62.5 -116s-94.167 -44 -157.5 -44zM242.998 231.997c60.667 0 91 36.667 91 110c0 40 -7.5 69.333 -22.5 88s-38.167 28 -69.5 28c-60.667 0 -91 -37.667 -91 -113s30.667 -113 92 -113z" />
    <glyph glyph-name="h" unicode="h" horiz-adv-x="583" 
d="M190 631l-0.000976562 -210c26.667 26.667 52.5 47 77.5 61s54.833 21 89.5 21c40.667 0 73.334 -11.667 98.001 -35s37 -56.333 37 -99v-265c0 -28 4 -46.167 12 -54.5s25.667 -13.5 53 -15.5v-34h-226v34c30.667 1.33301 50 5.83301 58 13.5s12 24.167 12 49.5v254
c0 54.667 -24.333 82 -73 82s-94.667 -21 -138 -63v-273c0 -25.333 4 -41.833 12 -49.5s27.333 -12.167 58 -13.5v-34h-231v34c29.333 2 48.333 7.16699 57 15.5s13 26.5 13 54.5v480c0 35.333 -5 58 -15 68s-30.333 15.667 -61 17v32l140 29h15
c8 -25.333 12 -58.333 12 -99z" />
    <glyph glyph-name="i" unicode="i" horiz-adv-x="286" 
d="M260 0l-231 -0.000976562v34c29.333 2 48.333 7.16699 57 15.5s13 26.5 13 54.5v245c0 35.333 -4.66699 58 -14 68s-29 15.667 -59 17v30l149 40h15v-400c0 -28.667 3.83301 -47.167 11.5 -55.5s27.167 -13.166 58.5 -14.499v-34zM200 643.999
c0 -17.333 -6 -32.166 -18 -44.499s-26.667 -18.5 -44 -18.5s-32 6.16699 -44 18.5s-18 27.166 -18 44.499s6 32.166 18 44.499s26.667 18.5 44 18.5s32 -6.16699 44 -18.5s18 -27.166 18 -44.499z" />
    <glyph glyph-name="j" unicode="j" horiz-adv-x="269" 
d="M99 12v337c0 35.333 -4.66699 58 -14 68s-29 15.667 -59 17v30l149 40h15v-493c0 -36 -3 -66 -9 -90s-16.5 -44 -31.5 -60s-29 -28 -42 -36s-32.833 -18.333 -59.5 -31l-29 40c30 14 50.833 34.167 62.5 60.5s17.5 65.5 17.5 117.5zM200 644
c0 -17.333 -6 -32.166 -18 -44.499s-26.667 -18.5 -44 -18.5s-32 6.16699 -44 18.5s-18 27.166 -18 44.499s6 32.166 18 44.499s26.667 18.5 44 18.5s32 -6.16699 44 -18.5s18 -27.166 18 -44.499z" />
    <glyph glyph-name="k" unicode="k" horiz-adv-x="531" 
d="M29 0v34c29.333 2 48.333 7.16699 57 15.5s13 26.5 13 54.5v480c0 35.333 -5 58 -15 68s-30.333 15.667 -61 17v32l140 29h15c8 -24 12 -57 12 -99v-534c0 -25.333 4 -41.833 12 -49.5s27.333 -12.167 58 -13.5v-34h-231zM408 0l-209.001 262.002l137 140
c16 16.667 21.333 29.667 16 39s-19.666 14.666 -42.999 15.999v34h188v-34c-4.66699 -0.666992 -9.5 -1.66699 -14.5 -3s-9.5 -2.83301 -13.5 -4.5s-8.66699 -4.5 -14 -8.5s-9.5 -7 -12.5 -9s-7.66699 -6 -14 -12l-14 -13c-3 -2.66699 -8.33301 -7.83398 -16 -15.501
l-16.5 -16.5l-92 -91l151 -190c28.667 -36.667 58 -56.667 88 -60v-34h-121z" />
    <glyph glyph-name="l" unicode="l" horiz-adv-x="294" 
d="M194 631v-524c0 -30 4.33301 -49.333 13 -58s29 -13.667 61 -15v-34h-239v34c31.333 2 51.5 7.16699 60.5 15.5s13.5 26.5 13.5 54.5v480c0 35.333 -5.16699 58 -15.5 68s-31.833 15.667 -64.5 17v32l144 29h15c8 -24 12 -57 12 -99z" />
    <glyph glyph-name="m" unicode="m" horiz-adv-x="831" 
d="M458 425c26.667 25.333 52 44.665 76 57.998s50.667 20 80 20c37.333 0 67.666 -11.833 90.999 -35.5s35 -56.5 35 -98.5v-265c0 -28 4 -46.167 12 -54.5s25.667 -13.5 53 -15.5v-34h-221v34c28.667 1.33301 46.667 5.83301 54 13.5s11 24.167 11 49.5v254
c0 29.333 -4.66699 50.333 -14 63s-25 19 -47 19c-40.667 0 -80 -16.333 -118 -49v-287c0 -24 3.83301 -40 11.5 -48s23.834 -13 48.501 -15v-34h-216v34c28.667 1.33301 46.667 5.83301 54 13.5s11 24.167 11 49.5v254c0 29.333 -4.66699 50.333 -14 63s-25 19 -47 19
c-24.667 0 -46.334 -4.66699 -65.001 -14s-39.667 -24 -63 -44v-278c0 -25.333 3.66699 -41.833 11 -49.5s25.333 -12.167 54 -13.5v-34h-226v34c29.333 2 48.333 7.16699 57 15.5s13 26.5 13 54.5v245c0 35.333 -4.66699 58 -14 68s-29 15.667 -59 17v30l128 40h15
c10.667 -26 16.334 -53.333 17.001 -82c18.667 17.333 34.334 30.833 47.001 40.5s29 18.834 49 27.501s40.667 13 62 13c27.333 0 51.166 -6.66699 71.499 -20s34.5 -32.666 42.5 -57.999z" />
    <glyph glyph-name="n" unicode="n" horiz-adv-x="583" 
d="M492 369l-0.00195312 -265c0 -28 4 -46.167 12 -54.5s25.667 -13.5 53 -15.5v-34h-226v34c30.667 1.33301 50 5.83301 58 13.5s12 24.167 12 49.5v254c0 54.667 -24.333 82 -73 82s-94.667 -21 -138 -63v-273c0 -25.333 4 -41.833 12 -49.5s27.333 -12.167 58 -13.5v-34
h-231v34c29.333 2 48.333 7.16699 57 15.5s13 26.5 13 54.5v245c0 35.333 -4.66699 58 -14 68s-29 15.667 -59 17v30l128 40h15c10.667 -23.333 16.334 -52.333 17.001 -87c54.667 57.333 111.667 86 171 86c40.667 0 73.334 -11.667 98.001 -35s37 -56.333 37 -99z" />
    <glyph glyph-name="o" unicode="o" horiz-adv-x="532" 
d="M496 242c0 -78 -21.332 -139.834 -63.999 -185.501s-98 -68.5 -166 -68.5s-123.333 23.167 -166 69.5s-64 109.5 -64 189.5c0 79.333 21.167 142.333 63.5 189s97.166 70 164.499 70c72 0 128.667 -24.667 170 -74s62 -112.666 62 -189.999zM398.001 237.999
c0 146 -44.667 218.999 -134 218.999c-47.333 0 -80.833 -16.833 -100.5 -50.5s-29.5 -83.5 -29.5 -149.5c0 -76.667 10.333 -132.5 31 -167.5s55 -52.5 103 -52.5c42.667 0 75 17.333 97 52s33 84.334 33 149.001z" />
    <glyph glyph-name="p" unicode="p" horiz-adv-x="568" 
d="M434 236c0 76 -8.66797 128.833 -26.001 158.5s-46.666 44.5 -87.999 44.5c-48 0 -91.333 -21.333 -130 -64v-271c15.333 -18.667 33.833 -33.334 55.5 -44.001s42.167 -16 61.5 -16c44 0 76.167 13.833 96.5 41.5s30.5 77.834 30.5 150.501zM184.999 421
c18.667 24 42.1689 43.667 70.502 59s55.833 23 82.5 23c58 0 104.833 -20.667 140.5 -62s53.5 -103.333 53.5 -186c0 -79.333 -17.833 -142.5 -53.5 -189.5s-85.834 -70.5 -150.501 -70.5c-56 0 -102 19 -138 57v-145c0 -27.333 4.66699 -45.333 14 -54
s30.666 -13.667 63.999 -15v-34h-239v34c29.333 2 48.333 7.16699 57 15.5s13 26.5 13 54.5v441c0 35.333 -4.66699 58 -14 68s-29 15.667 -59 17v30l128 40h15c8.66699 -21.333 14 -49 16 -83z" />
    <glyph glyph-name="q" unicode="q" horiz-adv-x="544" 
d="M134 253c0 -76 8.99902 -129.5 26.999 -160.5s47.333 -46.5 88 -46.5c42 0 84.667 24 128 72v271c-31.333 38 -71.666 57 -120.999 57c-41.333 0 -72 -13.667 -92 -41s-30 -78 -30 -152zM392.999 426c8 28.667 20.668 51.667 38.001 69h50c-8 -30 -12 -76.667 -12 -140
v-447c0 -28 4.33301 -46.167 13 -54.5s27.667 -13.5 57 -15.5v-34h-239v34c33.333 1.33301 54.666 6.33301 63.999 15s14 26.667 14 54v161c-44 -52 -92.333 -78 -145 -78c-56.667 0 -103.667 20.5 -141 61.5s-56 104.167 -56 189.5c0 78.667 18.333 142 55 190
s86.667 72 150 72c60 0 110.667 -25.667 152 -77z" />
    <glyph glyph-name="r" unicode="r" horiz-adv-x="364" 
d="M186 390c44 78 89.333 117 136 117c11.333 0 21.333 -1.66699 30 -5l-22 -99c-8 3.33301 -18.333 5 -31 5c-40.667 0 -69 -9.33301 -85 -28s-24 -52.334 -24 -101.001v-175c0 -28.667 4.83301 -47.167 14.5 -55.5s33.167 -13.166 70.5 -14.499v-34h-246v34
c29.333 2 48.333 7.16699 57 15.5s13 26.5 13 54.5v245c0 35.333 -4.66699 58 -14 68s-29 15.667 -59 17v30l128 40h15c11.333 -27.333 17 -65.333 17 -114z" />
    <glyph glyph-name="s" unicode="s" horiz-adv-x="431" 
d="M202 -12c-65.333 0 -120.331 14.001 -164.998 42.001v97h67c3.33301 -34 13.166 -58 29.499 -72s42.166 -21 77.499 -21c68.667 0 103 29 103 87c0 26 -6.66699 45.167 -20 57.5s-35.333 22.166 -66 29.499l-59 14c-84.667 20 -127 66.333 -127 139
c0 45.333 16.667 80.666 50 105.999s75 38 125 38c53.333 0 103.333 -11.667 150 -35v-90h-64c-10 52.667 -41.333 79 -94 79c-29.333 0 -52 -6.83301 -68 -20.5s-24 -32.5 -24 -56.5c0 -21.333 5.83301 -38.166 17.5 -50.499s32.5 -21.833 62.5 -28.5l59 -14
c47.333 -11.333 82 -27.833 104 -49.5s33 -50.5 33 -86.5c0 -50 -17.167 -90 -51.5 -120s-80.833 -45 -139.5 -45z" />
    <glyph glyph-name="t" unicode="t" horiz-adv-x="321" 
d="M298 491l-14 -54.999h-106v-302c0 -38.667 4.33301 -64.334 13 -77.001s25.667 -19 51 -19c18 0 37 3.33301 57 10l8 -36c-33.333 -17.333 -66.333 -26 -99 -26c-39.333 0 -69.333 10.5 -90 31.5s-31 55.5 -31 103.5v315h-60v32l67 23c11.333 60 27 106 47 138l47 12
c-6 -43.333 -9 -93.333 -9 -150h119z" />
    <glyph glyph-name="u" unicode="u" horiz-adv-x="580" 
d="M481 504l0.000976562 -366c0 -35.333 4.66699 -58 14 -68s29 -15.667 59 -17v-30l-121 -36h-15c-12 29.333 -19.333 59 -22 89c-26.667 -28.667 -52.5 -50.5 -77.5 -65.5s-54.833 -22.5 -89.5 -22.5c-42 0 -75.5 11.167 -100.5 33.5s-37.5 55.5 -37.5 99.5v228
c0 35.333 -4.5 58 -13.5 68s-27.833 15.667 -56.5 17v30l139 40h22v-366c0 -30 6.16699 -51 18.5 -63s31.166 -18 56.499 -18c28 0 51.5 5.16699 70.5 15.5s39.833 26.5 62.5 48.5v228c0 35.333 -4.5 58 -13.5 68s-27.833 15.667 -56.5 17v30l139 40h22z" />
    <glyph glyph-name="v" unicode="v" horiz-adv-x="505" 
d="M289 -5l-69 0.00195312l-148 392c-10 26 -19.667 43.5 -29 52.5s-24 14.833 -44 17.5v34h222v-34c-24 -0.666992 -40.667 -3.33398 -50 -8.00098s-14 -11.667 -14 -21c0 -6.66699 2.33301 -16.667 7 -30l81 -223c10 -28.667 17.667 -57.667 23 -87h4
c7.33301 30 15.333 58.667 24 86l79 224c4.66699 14 7 23.667 7 29c0 10 -4.66699 17.333 -14 22s-26 7.33398 -50 8.00098v34h188v-34c-20 -2.66699 -34.667 -8.33398 -44 -17.001s-19 -26.334 -29 -53.001z" />
    <glyph glyph-name="w" unicode="w" horiz-adv-x="747" 
d="M345 253l-73.998 -258.004h-73l-126 392c-8 26.667 -16.667 44.334 -26 53.001s-24 14.334 -44 17.001v34h214v-34c-12.667 -0.666992 -22.5 -1.83398 -29.5 -3.50098s-13.333 -4.66699 -19 -9s-8.5 -10.5 -8.5 -18.5c0 -6.66699 1.66699 -16 5 -28l60 -199
c8.66699 -28 16.667 -61 24 -99h4c7.33301 34.667 15.333 67.334 24 98.001l80 293h63l95 -292c9.33301 -28 17.333 -61 24 -99h4l13 53l11 45l51 200c2.66699 8.66699 4 17.334 4 26.001c0 10.667 -4.16699 18.667 -12.5 24s-22.833 8.33301 -43.5 9v34h180v-34
c-21.333 -2.66699 -36.5 -8.5 -45.5 -17.5s-17.167 -26.5 -24.5 -52.5l-114 -392h-71l-80 258c-6.66699 22 -17.334 62.333 -32.001 121h-4c-6.66699 -35.333 -16.334 -75.666 -29.001 -120.999z" />
    <glyph glyph-name="x" unicode="x" horiz-adv-x="521" 
d="M238 215l-80.999 -128.999c-6.66699 -10.667 -10 -19.667 -10 -27c0 -14.667 16.333 -23 49 -25v-34h-182v34c20.667 2 35.667 6.83301 45 14.5s22.666 23.834 39.999 48.501l108 160l-94 137c-17.333 25.333 -31.166 41.5 -41.499 48.5s-27.5 11.833 -51.5 14.5v34h223
v-34c-30 -2 -45 -8.33301 -45 -19c0 -7.33301 4.66699 -18.333 14 -33l65 -103h4l62 103c8 13.333 12 23.666 12 30.999c0 12.667 -15.333 19.667 -46 21v34h176v-34c-21.333 -2.66699 -37.333 -7.83398 -48 -15.501s-23.667 -23.5 -39 -47.5l-85 -132l110 -165
c17.333 -26 30.666 -42.5 39.999 -49.5s25 -11.5 47 -13.5v-34h-222v34c33.333 2 50 8.66699 50 20c0 6 -4.66699 16.667 -14 32l-82 129h-4z" />
    <glyph glyph-name="y" unicode="y" horiz-adv-x="505" 
d="M105 -213l-24 69.002c44 11.333 78 26.333 102 45s43 52.334 57 101.001l-36 -5c-14.667 59.333 -32 116.666 -52 171.999l-80 218c-9.33301 25.333 -19 42.666 -29 51.999s-24.667 15.333 -44 18v34h222v-34c-24 -0.666992 -40.667 -3.5 -50 -8.5s-14 -12.5 -14 -22.5
c0 -4.66699 2.33301 -14 7 -28l72 -202c15.333 -43.333 27 -87.333 35 -132h3c6.66699 34.667 16.334 71.667 29.001 111l72 223c2.66699 8.66699 4.66699 16.334 6 23.001c1.33301 12.667 -2.33398 21.667 -11.001 27s-26 8.33301 -52 9v34h188v-34
c-20.667 -2.66699 -35.667 -8.33398 -45 -17.001s-18.666 -26.334 -27.999 -53.001l-140 -403c-21.333 -62 -45.833 -107.833 -73.5 -137.5s-65.834 -49.5 -114.501 -59.5z" />
    <glyph glyph-name="z" unicode="z" horiz-adv-x="455" 
d="M432 153l-24.001 -153h-368v49l281 393h-122c-33.333 0 -56 -6 -68 -18s-20.667 -37 -26 -75h-43v142h358v-53l-278 -389h111c44.667 0 74.334 6.16699 89.001 18.5s29.667 40.833 45 85.5h45z" />
    <glyph glyph-name="braceleft" unicode="{" horiz-adv-x="351" 
d="M206 659v-230c0 -39.333 -7.83301 -68 -23.5 -86s-33.5 -28.667 -53.5 -32v-4c20 -3.33301 37.833 -14 53.5 -32s23.5 -46.667 23.5 -86v-230c0 -49.333 21 -74 63 -74h57v-40h-80c-39.333 0 -68.333 9.33301 -87 28s-28 49 -28 91v237c0 32.667 -8.66699 56 -26 70
s-44 21 -80 21v34c36 0 62.667 7 80 21s26 37.333 26 70v237c0 40.667 10.667 70.667 32 90s49 29 83 29h80v-40h-57c-42 0 -63 -24.667 -63 -74z" />
    <glyph glyph-name="bar" unicode="|" horiz-adv-x="244" 
d="M154 -149h-64v910h64v-910z" />
    <glyph glyph-name="braceright" unicode="}" horiz-adv-x="351" 
d="M145 429v230c0 49.333 -21 74 -63 74h-57v40h80c39.333 0 68.333 -9.33301 87 -28s28 -49 28 -91v-237c0 -32.667 8.66699 -56 26 -70s44 -21 80 -21v-34c-36 0 -62.667 -7 -80 -21s-26 -37.333 -26 -70v-237c0 -40.667 -10.667 -70.667 -32 -90s-49 -29 -83 -29h-80v39
h57c42 0 63 24.667 63 74v231c0 39.333 7.83301 68 23.5 86s33.5 28.667 53.5 32v4c-20 3.33301 -37.833 14 -53.5 32s-23.5 46.667 -23.5 86z" />
    <glyph glyph-name="asciitilde" unicode="~" horiz-adv-x="554" 
d="M361 320c48.667 0 83.666 21 104.999 63l38 -21c-11.333 -41.333 -27.833 -72.5 -49.5 -93.5s-50.834 -31.5 -87.501 -31.5c-28 0 -62.167 8.16699 -102.5 24.5s-68.166 24.5 -83.499 24.5c-41.333 0 -73.666 -22.333 -96.999 -67l-34 19
c8.66699 44 22.834 76.667 42.501 98s48.167 32 85.5 32c27.333 0 60.166 -8 98.499 -24s66.5 -24 84.5 -24z" />
    <glyph glyph-name="uni00A0" unicode="&#xa0;" horiz-adv-x="225" 
 />
    <glyph glyph-name="exclamdown" unicode="&#xa1;" horiz-adv-x="291" 
d="M90 -189l31 494h53l31 -477zM80 455c0 18.667 6.66699 34.667 20 48s29 20 47 20s33.167 -6.5 45.5 -19.5s18.5 -29.167 18.5 -48.5c0 -18 -6.16699 -33.333 -18.5 -46s-27.833 -19 -46.5 -19c-18 0 -33.5 6.33301 -46.5 19s-19.5 28 -19.5 46z" />
    <glyph glyph-name="cent" unicode="&#xa2;" horiz-adv-x="463" 
d="M280 -100l-45 0.000976562v90c-58.667 5.33301 -106.5 29.166 -143.5 71.499s-55.5 101.166 -55.5 176.499c0 77.333 18.333 138.833 55 184.5s84.667 71.834 144 78.501v96h45v-94c54.667 -2.66699 99.667 -15.667 135 -39v-92h-68c-4.66699 27.333 -12 47.5 -22 60.5
s-25 20.833 -45 23.5v-412c26 0.666992 47.667 5 65 13s38 22 62 42l26 -28c-42 -48 -93 -75 -153 -81v-90zM135 258.001c0 -66.667 8.16699 -116.501 24.5 -149.501s41.5 -53.167 75.5 -60.5v406c-66.667 -13.333 -100 -78.666 -100 -195.999z" />
    <glyph glyph-name="sterling" unicode="&#xa3;" horiz-adv-x="579" 
d="M225 49l154 0.000976562c36 0 61.833 8.5 77.5 25.5s28.5 48.5 38.5 94.5h44l-15 -169h-474v35c32.667 0.666992 54.167 6.16699 64.5 16.5s15.5 30.166 15.5 59.499v190h-80v44h80v87c0 82 20.833 142.5 62.5 181.5s97.167 58.5 166.5 58.5
c62.667 0 112.667 -15.333 150 -46v-94h-74c-4.66699 33.333 -13.5 57.333 -26.5 72s-33.833 22 -62.5 22c-38.667 0 -68.5 -12.5 -89.5 -37.5s-31.5 -68.167 -31.5 -129.5v-114h191v-44h-191v-252z" />
    <glyph glyph-name="currency" unicode="&#xa4;" horiz-adv-x="470" 
d="M235 99c-26.667 0 -50 3.33398 -70 10.001l-50 -78l-57 38l48 74c-37.333 33.333 -56 78.666 -56 135.999c0 56.667 18.333 101.667 55 135l-47 73l57 38l48 -76c22 8 46 12 72 12c23.333 0 46 -3.66699 68 -11l48 75l57 -38l-45 -70c38 -34.667 57 -80.667 57 -138
c0 -59.333 -19.667 -105.333 -59 -138l47 -72l-57 -38l-50 77c-20 -6 -42 -9 -66 -9zM235 416.001c-34 0 -57.833 -11.001 -71.5 -33.001s-20.5 -54 -20.5 -96c0 -49.333 7 -85.333 21 -108s37.667 -34 71 -34c34 0 58 11.333 72 34s21 58.667 21 108
c0 42.667 -7 74.834 -21 96.501s-38 32.5 -72 32.5z" />
    <glyph glyph-name="yen" unicode="&#xa5;" horiz-adv-x="594" 
d="M536 219h-187.001v-112c0 -29.333 5.5 -49.166 16.5 -59.499s33.833 -15.833 68.5 -16.5v-31h-265v31c34.667 0.666992 57.5 6.16699 68.5 16.5s16.5 30.166 16.5 59.499v112h-182v44h182v13l-31 60h-151v44h129l-96 192c-15.333 30.667 -29.666 51.334 -42.999 62.001
s-30.333 17.334 -51 20.001v35h238v-35c-35.333 -0.666992 -53 -10.667 -53 -30c0 -10.667 4.66699 -26.334 14 -47.001l109 -232h4l108 234c8 18 12 32.333 12 43c0 19.333 -19.667 30 -59 32v35h199v-35c-20.667 -2.66699 -37.5 -9.83398 -50.5 -21.501
s-28.5 -35.5 -46.5 -71.5l-89 -181h139v-44h-161l-26 -54v-19h187v-44z" />
    <glyph glyph-name="brokenbar" unicode="&#xa6;" horiz-adv-x="261" 
d="M154 -150h-64v401h64v-401zM154 356h-64v401h64v-401z" />
    <glyph glyph-name="section" unicode="&#xa7;" horiz-adv-x="436" 
d="M411 311c0 -39.333 -11.1699 -72.498 -33.5029 -99.498s-53.166 -45.167 -92.499 -54.5c30.667 -17.333 53.334 -36.666 68.001 -57.999s22 -48.333 22 -81c0 -46.667 -15.667 -83.5 -47 -110.5s-75 -40.5 -131 -40.5c-68.667 0 -121.667 11.667 -159 35v97h67
c3.33301 -34 12.5 -58 27.5 -72s39.5 -21 73.5 -21c28 0 51 7 69 21s27 36 27 66c0 25.333 -7 46 -21 62s-34.667 30 -62 42l-64 28c-44 19.333 -77.5 40.666 -100.5 63.999s-34.5 57 -34.5 101c0 34.667 11 64.167 33 88.5s52 41.5 90 51.5
c-28.667 14.667 -50.834 33.167 -66.501 55.5s-23.5 52.166 -23.5 89.499c0 45.333 16.333 82 49 110s71.334 42 116.001 42c52.667 0 100.334 -10.667 143.001 -32v-90h-64c-9.33301 50.667 -38 76 -86 76c-26 0 -47 -8.33301 -63 -25s-24 -38.334 -24 -65.001
c0 -22.667 6.83301 -41 20.5 -55s35.167 -27.667 64.5 -41l58 -26c50 -22.667 86.5 -45.167 109.5 -67.5s34.5 -52.5 34.5 -90.5zM234.997 390.002l-54 22.999c-25.333 -7.33301 -46.333 -20.333 -63 -39s-25 -41 -25 -67c0 -24 7.16699 -43.167 21.5 -57.5
s37.166 -28.833 68.499 -43.5l53 -25c28.667 3.33301 52.334 14 71.001 32s28 41.333 28 70c0 24.667 -8.83301 45.334 -26.5 62.001s-42.167 31.667 -73.5 45z" />
    <glyph glyph-name="dieresis" unicode="&#xa8;" horiz-adv-x="489" 
d="M200 638c0 -17.333 -5.66699 -31.666 -17 -42.999s-25.666 -17 -42.999 -17s-31.666 5.66699 -42.999 17s-17 25.666 -17 42.999s5.66699 31.666 17 42.999s25.666 17 42.999 17s31.666 -5.66699 42.999 -17s17 -25.666 17 -42.999zM409 638
c0 -17.333 -5.83301 -31.666 -17.5 -42.999s-25.834 -17 -42.501 -17s-30.834 5.66699 -42.501 17s-17.5 25.666 -17.5 42.999s5.83301 31.666 17.5 42.999s25.834 17 42.501 17s30.834 -5.66699 42.501 -17s17.5 -25.666 17.5 -42.999z" />
    <glyph glyph-name="copyright" unicode="&#xa9;" horiz-adv-x="800" 
d="M279 348c0 -55.333 10.3311 -99.333 30.998 -132s51.667 -49 93 -49c30.667 0 52.167 6.16699 64.5 18.5s20.833 32.833 25.5 61.5h58v-87c-37.333 -23.333 -85.333 -35 -144 -35c-72 0 -126.167 18.5 -162.5 55.5s-54.5 90.167 -54.5 159.5s18 123.5 54 162.5
s89.333 58.5 160 58.5c60 0 108 -11.667 144 -35v-88h-64c-5.33301 30.667 -13.166 52.167 -23.499 64.5s-30.166 18.5 -59.499 18.5c-81.333 0 -122 -57.667 -122 -173zM399.998 31c86 0 157.667 28.667 215 86s86 132.666 86 225.999c0 94.667 -28.667 170.667 -86 228
s-129 86 -215 86s-157.667 -28.667 -215 -86s-86 -133.333 -86 -228c0 -93.333 28.667 -168.666 86 -225.999s129 -86 215 -86zM399.998 -12c-102.667 0 -187.667 32.667 -255 98s-101 151.333 -101 258c0 104.667 34.333 190.334 103 257.001s153 100 253 100
s184.333 -33.333 253 -100s103 -152.334 103 -257.001c0 -106.667 -33.667 -192.667 -101 -258s-152.333 -98 -255 -98z" />
    <glyph glyph-name="ordfeminine" unicode="&#xaa;" horiz-adv-x="395" 
d="M318 451c0 -28.667 2.50098 -46.167 7.50098 -52.5s19.833 -10.5 44.5 -12.5v-31c-14.667 -6 -32.334 -9 -53.001 -9c-24.667 0 -41.834 4.66699 -51.501 14s-15.5 23 -17.5 41c-22.667 -41.333 -57.667 -62 -105 -62c-37.333 0 -67.166 9.66699 -89.499 29
s-33.5 46.333 -33.5 81c0 84 66.667 126 200 126c11.333 0 20.333 -0.333008 27 -1v26c0 34 -5 58.167 -15 72.5s-28.333 21.5 -55 21.5c-27.333 0 -46.5 -5.33301 -57.5 -16s-18.5 -26.334 -22.5 -47.001h-57v68c44 26 91.667 39 143 39c92 0 138 -42.667 138 -128
c0 -4 -0.5 -24.667 -1.5 -62s-1.5 -69.666 -1.5 -96.999zM246.001 536c-16 1.33301 -25.001 1.99902 -27.001 1.99902c-40 0 -69.167 -6.33301 -87.5 -19s-27.5 -32.667 -27.5 -60c0 -25.333 5 -43.166 15 -53.499s25.667 -15.5 47 -15.5c32.667 0 58.334 18 77.001 54z" />
    <glyph glyph-name="guillemotleft" unicode="&#xab;" horiz-adv-x="505" 
d="M151 244l113 -177l-39 -36l-170 213l170 213l39 -36zM347 244l113 -177l-39 -36l-170 213l170 213l39 -36z" />
    <glyph glyph-name="logicalnot" unicode="&#xac;" horiz-adv-x="501" 
d="M55 237v56h391v-221h-59v165h-332z" />
    <glyph glyph-name="uni00AD" unicode="&#xad;" horiz-adv-x="313" 
d="M258 235h-203v71h203v-71z" />
    <glyph glyph-name="registered" unicode="&#xae;" horiz-adv-x="800" 
d="M403 165l0.000976562 -28.998h-190v29c24 0.666992 39 4.66699 45 12s9 23 9 47v241c0 24 -3 39.667 -9 47s-21 11.333 -45 12v31h172c52.667 0 92.834 -8.33301 120.501 -25s41.5 -46.334 41.5 -89.001c0 -40.667 -10.5 -68.834 -31.5 -84.501
s-52.833 -24.167 -95.5 -25.5v-3c33.333 -8.66699 60.666 -29.667 81.999 -63c6.66699 -11.333 18 -32.333 34 -63c8.66699 -15.333 16.5 -25 23.5 -29s19.833 -6.33301 38.5 -7v-30h-115c-12.667 28.667 -30.334 64 -53.001 106c-18.667 35.333 -33 58 -43 68
s-25.333 15.333 -46 16v-102c0 -24 4 -39.667 12 -47s24.667 -11.333 50 -12zM468.001 441.002c0 27.333 -7.16699 46.833 -21.5 58.5s-40.833 17.5 -79.5 17.5h-26v-156h39c33.333 0 56.333 5.66699 69 17s19 32.333 19 63zM400.001 31.002c86 0 157.667 28.667 215 86
s86 132.666 86 225.999c0 94.667 -28.667 170.667 -86 228s-129 86 -215 86s-157.667 -28.667 -215 -86s-86 -133.333 -86 -228c0 -93.333 28.667 -168.666 86 -225.999s129 -86 215 -86zM400.001 -11.998c-102.667 0 -187.667 32.667 -255 98s-101 151.333 -101 258
c0 104.667 34.333 190.334 103 257.001s153 100 253 100s184.333 -33.333 253 -100s103 -152.334 103 -257.001c0 -106.667 -33.667 -192.667 -101 -258s-152.333 -98 -255 -98z" />
    <glyph glyph-name="macron" unicode="&#xaf;" horiz-adv-x="441" 
d="M361 590h-281v57h281v-57z" />
    <glyph glyph-name="degree" unicode="&#xb0;" horiz-adv-x="418" 
d="M373 525c0 -51.333 -15.168 -92.168 -45.501 -122.501s-69.833 -45.5 -118.5 -45.5c-51.333 0 -91.5 15.167 -120.5 45.5s-43.5 71.833 -43.5 124.5c0 51.333 14.833 92.333 44.5 123s68.834 46 117.501 46c52 0 92.667 -15.167 122 -45.5s44 -72.166 44 -125.499z
M295.999 520.998c0 42.667 -7.16699 73.001 -21.5 91.001s-36.5 27 -66.5 27c-57.333 0 -86 -36 -86 -108c0 -42.667 7 -72.834 21 -90.501s36.333 -26.5 67 -26.5c57.333 0 86 35.667 86 107z" />
    <glyph glyph-name="plusminus" unicode="&#xb1;" horiz-adv-x="501" 
d="M223 507h59v-155h164v-56h-164v-164h-59v164h-168v56h168v155zM55 25v56h391v-56h-391z" />
    <glyph glyph-name="twosuperior" unicode="&#xb2;" horiz-adv-x="333" 
d="M153 651c38 0 69.166 -9.66797 93.499 -29.001s36.5 -46.333 36.5 -81c0 -10.667 -1.16699 -21 -3.5 -31s-6.83301 -20 -13.5 -30l-18 -26.5c-5.33301 -7.66699 -13.833 -17 -25.5 -28l-28 -26c-7 -6.33301 -18.333 -16 -34 -29s-27.167 -22.833 -34.5 -29.5l-38 -33h214
l-10 -58h-271v41l78 80c26.667 28 45.167 48 55.5 60s20 27.333 29 46s13.5 38 13.5 58c0 22.667 -6.16699 39.834 -18.5 51.501s-29.166 17.5 -50.499 17.5c-30 0 -58 -10 -84 -30l-18 26c36.667 34 79 51 127 51z" />
    <glyph glyph-name="threesuperior" unicode="&#xb3;" horiz-adv-x="321" 
d="M138 605c-31.333 0 -60 -9.33301 -86 -28l-19 30c36.667 29.333 79 44 127 44c36 0 65.167 -8.16699 87.5 -24.5s33.5 -39.5 33.5 -69.5c0 -48 -30.667 -79.667 -92 -95c31.333 -3.33301 56 -14 74 -32s27 -40 27 -66c0 -41.333 -18.167 -74 -54.5 -98
s-80.833 -36 -133.5 -36c-30.667 0 -56 3 -76 9l-10 33c17.333 -4 37.333 -6 60 -6c38 0 69.333 9 94 27s37 42.667 37 74c0 26 -6.33301 44.333 -19 55s-31.667 16 -57 16c-8.66699 0 -19.667 -0.666992 -33 -2v43c6.66699 -0.666992 17 -1 31 -1c49.333 0 74 22 74 66
c0 20 -5.83301 35.167 -17.5 45.5s-27.5 15.5 -47.5 15.5z" />
    <glyph glyph-name="acute" unicode="&#xb4;" horiz-adv-x="392" 
d="M100 566l-20 34l179 153l53 -91z" />
    <glyph glyph-name="mu" unicode="&#xb5;" horiz-adv-x="541" 
d="M48 -199l-4.00098 23.002c8.66699 43.333 13 103.666 13 180.999v157c-1.33301 161.333 -3.33301 269.666 -6 324.999l76 14h22l-1 -131v-201c0 -45.333 6.66699 -75.333 20 -90s32 -22 56 -22c22.667 0 45.834 6 69.501 18s44.167 27.333 61.5 46v368l68 12h23v-379
c0 -25.333 3.16699 -44 9.5 -56s19.833 -18 40.5 -18c6.66699 0 17 1 31 3v-38c-26 -14.667 -53.667 -22 -83 -22c-44 0 -72 27 -84 81c-42.667 -56.667 -92 -85 -148 -85c-32 0 -55.667 9 -71 27l-4 -2c6 -24 9 -62.667 9 -116l1 -81z" />
    <glyph glyph-name="paragraph" unicode="&#xb6;" horiz-adv-x="617" 
d="M507 582l-0.000976562 -707.002h-55v767h-85v-767h-55v432h-77c-72 0 -125.833 14 -161.5 42s-53.5 78.333 -53.5 151c0 70.667 16.333 119.834 49 147.501s88.334 41.5 167.001 41.5h351v-31c-32.667 -0.666992 -54.167 -6.16699 -64.5 -16.5
s-15.5 -30.166 -15.5 -59.499zM194.999 499.998c0 -53.333 5.49902 -90.833 16.499 -112.5s32.5 -32.5 64.5 -32.5h36v287h-36c-33.333 0 -55.166 -9.16699 -65.499 -27.5s-15.5 -56.5 -15.5 -114.5z" />
    <glyph glyph-name="periodcentered" unicode="&#xb7;" horiz-adv-x="291" 
d="M216 278c0 -20.667 -7 -38.334 -21 -53.001s-30.667 -22 -50 -22s-35.833 7.33301 -49.5 22s-20.5 32.334 -20.5 53.001s6.83301 38.167 20.5 52.5s30.167 21.5 49.5 21.5s36 -7.16699 50 -21.5s21 -31.833 21 -52.5z" />
    <glyph glyph-name="cedilla" unicode="&#xb8;" horiz-adv-x="288" 
d="M233 -113c0 -56.667 -33.001 -85 -99.001 -85c-29.333 0 -56.333 8.33301 -81 25l16 32c18.667 -12 39.334 -18 62.001 -18c26.667 0 40 12 40 36c0 20.667 -23.333 31.667 -70 33v21l23 80l37 -6l-13 -44c29.333 -2 50.833 -9.83301 64.5 -23.5s20.5 -30.5 20.5 -50.5z
" />
    <glyph glyph-name="onesuperior" unicode="&#xb9;" horiz-adv-x="314" 
d="M208 644v-322.999c0 -17.333 5.16699 -28.333 15.5 -33s33.5 -7.66699 69.5 -9v-29h-248v29c36.667 1.33301 60 4.16602 70 8.49902s15 15.5 15 33.5v257c-27.333 -13.333 -57.333 -25 -90 -35l-9 28l120 73h57z" />
    <glyph glyph-name="ordmasculine" unicode="&#xba;" horiz-adv-x="397" 
d="M377 532c0 -59.333 -16.667 -106.335 -50 -141.002s-76.333 -52 -129 -52s-95.5 17.5 -128.5 52.5s-49.5 82.833 -49.5 143.5s16.5 108.834 49.5 144.501s75.5 53.5 127.5 53.5c56 0 100 -18.667 132 -56s48 -85.666 48 -144.999zM296 528.998
c0 108.667 -32.333 163 -97 163c-34.667 0 -59.167 -12.5 -73.5 -37.5s-21.5 -61.833 -21.5 -110.5c0 -56.667 7.5 -98.167 22.5 -124.5s39.833 -39.5 74.5 -39.5c63.333 0 95 49.667 95 149z" />
    <glyph glyph-name="guillemotright" unicode="&#xbb;" horiz-adv-x="505" 
d="M241 67l113 177l-113 177l39 36l170 -213l-170 -213zM45 67l113 177l-113 177l39 36l170 -213l-170 -213z" />
    <glyph glyph-name="onequarter" unicode="&#xbc;" horiz-adv-x="908" 
d="M208 644v-322.999c0 -17.333 5.16699 -28.333 15.5 -33s33.5 -7.66699 69.5 -9v-29h-248v29c36.667 1.33301 60 4.16602 70 8.49902s15 15.5 15 33.5v257c-27.333 -13.333 -57.333 -25 -90 -35l-9 28l120 73h57zM714 730.001l-487 -853h-54l487 853h54zM761 -20.999v112
h-192v25l142 278h76l-154 -267h128c0 58.667 8 112 24 160l54 10v-170h52v-36h-52v-101z" />
    <glyph glyph-name="onehalf" unicode="&#xbd;" horiz-adv-x="909" 
d="M208 644v-322.999c0 -17.333 5.16699 -28.333 15.5 -33s33.5 -7.66699 69.5 -9v-29h-248v29c36.667 1.33301 60 4.16602 70 8.49902s15 15.5 15 33.5v257c-27.333 -13.333 -57.333 -25 -90 -35l-9 28l120 73h57zM714 730.001l-487 -853h-54l487 853h54zM742 401.001
c38 0 69.166 -9.66797 93.499 -29.001s36.5 -46.333 36.5 -81c0 -10.667 -1.16699 -21 -3.5 -31s-6.83301 -20 -13.5 -30l-18 -26.5c-5.33301 -7.66699 -13.833 -17 -25.5 -28l-28 -26c-7 -6.33301 -18.333 -16 -34 -29s-27.167 -22.833 -34.5 -29.5l-38 -33h214l-10 -58
h-271v41l78 80c26.667 28 45.167 48 55.5 60s20 27.333 29 46s13.5 38 13.5 58c0 22.667 -6.16699 39.834 -18.5 51.501s-29.166 17.5 -50.499 17.5c-30 0 -58 -10 -84 -30l-18 26c36.667 34 79 51 127 51z" />
    <glyph glyph-name="threequarters" unicode="&#xbe;" horiz-adv-x="915" 
d="M138 605c-31.333 0 -60 -9.33301 -86 -28l-19 30c36.667 29.333 79 44 127 44c36 0 65.167 -8.16699 87.5 -24.5s33.5 -39.5 33.5 -69.5c0 -48 -30.667 -79.667 -92 -95c31.333 -3.33301 56 -14 74 -32s27 -40 27 -66c0 -41.333 -18.167 -74 -54.5 -98
s-80.833 -36 -133.5 -36c-30.667 0 -56 3 -76 9l-10 33c17.333 -4 37.333 -6 60 -6c38 0 69.333 9 94 27s37 42.667 37 74c0 26 -6.33301 44.333 -19 55s-31.667 16 -57 16c-8.66699 0 -19.667 -0.666992 -33 -2v43c6.66699 -0.666992 17 -1 31 -1c49.333 0 74 22 74 66
c0 20 -5.83301 35.167 -17.5 45.5s-27.5 15.5 -47.5 15.5zM721 730l-487 -853h-54l487 853h54zM768 -21v112h-192v25l142 278h76l-154 -267h128c0 58.667 8 112 24 160l54 10v-170h52v-36h-52v-101z" />
    <glyph glyph-name="questiondown" unicode="&#xbf;" horiz-adv-x="446" 
d="M183 450c0 20 7 37.167 21 51.5s30.667 21.5 50 21.5c18.667 0 34.667 -7.16699 48 -21.5s20 -31.5 20 -51.5c0 -18.667 -6.66699 -34.667 -20 -48s-29.333 -20 -48 -20c-19.333 0 -36 6.66699 -50 20s-21 29.333 -21 48zM402 -53l-0.000976562 -89.999
c-42.667 -31.333 -97 -47 -163 -47c-52 0 -93.5 12.333 -124.5 37s-46.5 63.334 -46.5 116.001c0 62.667 33 114.667 99 156c29.333 18.667 49.5 36.167 60.5 52.5s16.5 38.833 16.5 67.5c0 18 -2.66699 36.667 -8 56h41c16 -27.333 24 -54 24 -80
c0 -45.333 -19 -85.333 -57 -120c-2 -2 -8 -7.33301 -18 -16s-16.833 -14.834 -20.5 -18.501s-9.16699 -10 -16.5 -19s-12.5 -17.167 -15.5 -24.5s-6 -16.833 -9 -28.5s-4.5 -23.834 -4.5 -36.501c0 -30 8.33301 -53.5 25 -70.5s38 -25.5 64 -25.5
c52.667 0 82.334 30.333 89.001 91h64z" />
    <glyph glyph-name="Agrave" unicode="&#xc0;" horiz-adv-x="657" 
d="M459 107l-33 108.001h-230l-33 -108c-4 -14 -6 -25.667 -6 -35c0 -14 5.33301 -23.333 16 -28s29.667 -7.66699 57 -9v-35h-214v35c24 2 41.667 8.5 53 19.5s22.333 33.167 33 66.5l184 568h89l182 -566c10 -31.333 20.5 -53.333 31.5 -66s28.5 -20 52.5 -22v-35h-245v35
c24 1.33301 41.333 5.16602 52 11.499s16 16.5 16 30.5c0 8.66699 -1.66699 18.667 -5 30zM257 411.001l-46 -148h201l-45 148c-20.667 67.333 -38 131 -52 191h-4c-26.667 -97.333 -44.667 -161 -54 -191zM443 761.001l-20 -34l-214 70l43 92z" />
    <glyph glyph-name="Aacute" unicode="&#xc1;" horiz-adv-x="657" 
d="M459 107l-33 108.001h-230l-33 -108c-4 -14 -6 -25.667 -6 -35c0 -14 5.33301 -23.333 16 -28s29.667 -7.66699 57 -9v-35h-214v35c24 2 41.667 8.5 53 19.5s22.333 33.167 33 66.5l184 568h89l182 -566c10 -31.333 20.5 -53.333 31.5 -66s28.5 -20 52.5 -22v-35h-245v35
c24 1.33301 41.333 5.16602 52 11.499s16 16.5 16 30.5c0 8.66699 -1.66699 18.667 -5 30zM257 411.001l-46 -148h201l-45 148c-20.667 67.333 -38 131 -52 191h-4c-26.667 -97.333 -44.667 -161 -54 -191zM231 727.001l-20 34l191 128l43 -92z" />
    <glyph glyph-name="Acircumflex" unicode="&#xc2;" horiz-adv-x="657" 
d="M459 107l-33 108.001h-230l-33 -108c-4 -14 -6 -25.667 -6 -35c0 -14 5.33301 -23.333 16 -28s29.667 -7.66699 57 -9v-35h-214v35c24 2 41.667 8.5 53 19.5s22.333 33.167 33 66.5l184 568h89l182 -566c10 -31.333 20.5 -53.333 31.5 -66s28.5 -20 52.5 -22v-35h-245v35
c24 1.33301 41.333 5.16602 52 11.499s16 16.5 16 30.5c0 8.66699 -1.66699 18.667 -5 30zM257 411.001l-46 -148h201l-45 148c-20.667 67.333 -38 131 -52 191h-4c-26.667 -97.333 -44.667 -161 -54 -191zM465 728.001l-137 81l-137 -81l-25 30l162 149l162 -149z" />
    <glyph glyph-name="Atilde" unicode="&#xc3;" horiz-adv-x="657" 
d="M459 107l-33 108.001h-230l-33 -108c-4 -14 -6 -25.667 -6 -35c0 -14 5.33301 -23.333 16 -28s29.667 -7.66699 57 -9v-35h-214v35c24 2 41.667 8.5 53 19.5s22.333 33.167 33 66.5l184 568h89l182 -566c10 -31.333 20.5 -53.333 31.5 -66s28.5 -20 52.5 -22v-35h-245v35
c24 1.33301 41.333 5.16602 52 11.499s16 16.5 16 30.5c0 8.66699 -1.66699 18.667 -5 30zM257 411.001l-46 -148h201l-45 148c-20.667 67.333 -38 131 -52 191h-4c-26.667 -97.333 -44.667 -161 -54 -191zM396 818.001c30 0 54.3311 15 72.998 45l36 -14
c-21.333 -63.333 -57.666 -95 -108.999 -95c-25.333 0 -51.666 7.33301 -78.999 22s-47 22 -59 22c-17.333 0 -31 -3.83301 -41 -11.5s-20 -19.5 -30 -35.5l-34 13c16.667 66.667 51.667 100 105 100c23.333 0 48.5 -7.66699 75.5 -23s47.833 -23 62.5 -23z" />
    <glyph glyph-name="Adieresis" unicode="&#xc4;" horiz-adv-x="657" 
d="M459 107l-33 108.001h-230l-33 -108c-4 -14 -6 -25.667 -6 -35c0 -14 5.33301 -23.333 16 -28s29.667 -7.66699 57 -9v-35h-214v35c24 2 41.667 8.5 53 19.5s22.333 33.167 33 66.5l184 568h89l182 -566c10 -31.333 20.5 -53.333 31.5 -66s28.5 -20 52.5 -22v-35h-245v35
c24 1.33301 41.333 5.16602 52 11.499s16 16.5 16 30.5c0 8.66699 -1.66699 18.667 -5 30zM257 411.001l-46 -148h201l-45 148c-20.667 67.333 -38 131 -52 191h-4c-26.667 -97.333 -44.667 -161 -54 -191zM284 787.001c0 -16.667 -5.66699 -30.834 -17 -42.501
s-25.666 -17.5 -42.999 -17.5s-31.666 5.83301 -42.999 17.5s-17 25.834 -17 42.501s5.66699 30.834 17 42.501s25.666 17.5 42.999 17.5s31.666 -5.83301 42.999 -17.5s17 -25.834 17 -42.501zM493 787.001c0 -16.667 -5.83301 -30.834 -17.5 -42.501
s-25.834 -17.5 -42.501 -17.5s-30.834 5.83301 -42.501 17.5s-17.5 25.834 -17.5 42.501s5.83301 30.834 17.5 42.501s25.834 17.5 42.501 17.5s30.834 -5.83301 42.501 -17.5s17.5 -25.834 17.5 -42.501z" />
    <glyph glyph-name="Aring" unicode="&#xc5;" horiz-adv-x="657" 
d="M459 107l-33 108.001h-230l-33 -108c-4 -14 -6 -25.667 -6 -35c0 -14 5.33301 -23.333 16 -28s29.667 -7.66699 57 -9v-35h-214v35c24 2 41.667 8.5 53 19.5s22.333 33.167 33 66.5l184 568h89l182 -566c10 -31.333 20.5 -53.333 31.5 -66s28.5 -20 52.5 -22v-35h-245v35
c24 1.33301 41.333 5.16602 52 11.499s16 16.5 16 30.5c0 8.66699 -1.66699 18.667 -5 30zM257 411.001l-46 -148h201l-45 148c-20.667 67.333 -38 131 -52 191h-4c-26.667 -97.333 -44.667 -161 -54 -191zM328 719.001c-29.333 0 -53.5 9.66699 -72.5 29
s-28.5 43.666 -28.5 72.999s9.5 53.666 28.5 72.999s43.167 29 72.5 29c30 0 54.5 -9.66699 73.5 -29s28.5 -43.666 28.5 -72.999s-9.5 -53.666 -28.5 -72.999s-43.5 -29 -73.5 -29zM328 888.001c-18 0 -32.667 -6.5 -44 -19.5s-17 -29.167 -17 -48.5
c0 -18.667 5.66699 -34.167 17 -46.5s26 -18.5 44 -18.5c18.667 0 33.667 6.16699 45 18.5s17 27.833 17 46.5c0 19.333 -5.66699 35.5 -17 48.5s-26.333 19.5 -45 19.5z" />
    <glyph glyph-name="AE" unicode="&#xc6;" horiz-adv-x="904" 
d="M109 105l252.998 476.001c7.33301 13.333 11 25 11 35c0 23.333 -24.333 36 -73 38v35h546l10 -150h-42c-11.333 40 -23.166 66.833 -35.499 80.5s-32.5 20.5 -60.5 20.5h-167v-256h93c31.333 0 53 4.83301 65 14.5s19 28.5 21 56.5h41v-190h-41c-2 27.333 -9 46 -21 56
s-33.333 15 -64 15h-94v-287h168c38 0 63.833 7.66699 77.5 23s22.5 46.333 26.5 93h45v-165h-492v35c32.667 0.666992 54.167 6.16699 64.5 16.5s15.5 30.166 15.5 59.499v134h-207l-77 -145c-8.66699 -16 -13 -28 -13 -36c0 -17.333 19 -27 57 -29v-35h-200v35
c24 2 41.833 7.33301 53.5 16s24.834 26.667 39.501 54zM456.998 643.001l-184 -350h183v164c0 47.333 1.66699 109.333 5 186h-4z" />
    <glyph glyph-name="Ccedilla" unicode="&#xc7;" horiz-adv-x="577" 
d="M425 -113c0 -56.667 -33.001 -84.998 -99.001 -84.998c-29.333 0 -56.333 8.33301 -81 25l16 32c18.667 -12 39.334 -18 62.001 -18c26.667 0 40 12 40 36c0 20.667 -23.333 31.667 -70 33v21l17 60c-89.333 7.33301 -156 41.166 -200 101.499s-66 142.5 -66 246.5
c0 113.333 26.833 202 80.5 266s125.5 96 215.5 96c87.333 0 153.333 -15.667 198 -47v-112h-70c-10 40 -24.333 68.667 -43 86s-48 26 -88 26c-60.667 0 -107.167 -24.333 -139.5 -73s-48.5 -128.667 -48.5 -240c0 -114 16.667 -193.333 50 -238s83 -67 149 -67
c39.333 0 69 8.16699 89 24.5s33.667 44.166 41 83.499h65v-105c-46.667 -33.333 -111.667 -50 -195 -50l-8 -28c29.333 -2 50.833 -9.83301 64.5 -23.5s20.5 -30.5 20.5 -50.5z" />
    <glyph glyph-name="Egrave" unicode="&#xc8;" horiz-adv-x="565" 
d="M37 0l-0.000976562 35.002c32.667 0.666992 54.167 6.16699 64.5 16.5s15.5 30.166 15.5 59.499v467c0 29.333 -5.16699 49.166 -15.5 59.499s-31.833 15.833 -64.5 16.5v35h470l10 -150h-42c-11.333 40 -23.166 66.833 -35.499 80.5s-32.5 20.5 -60.5 20.5h-167v-256h93
c31.333 0 53 4.83301 65 14.5s19 28.5 21 56.5h41v-190h-41c-2 27.333 -9 46 -21 56s-33.333 15 -64 15h-94v-287h168c38 0 63.833 7.66699 77.5 23s22.5 46.333 26.5 93h45v-165h-492zM411.999 761.002l-20 -34l-214 70l43 92z" />
    <glyph glyph-name="Eacute" unicode="&#xc9;" horiz-adv-x="565" 
d="M37 0l-0.000976562 35.002c32.667 0.666992 54.167 6.16699 64.5 16.5s15.5 30.166 15.5 59.499v467c0 29.333 -5.16699 49.166 -15.5 59.499s-31.833 15.833 -64.5 16.5v35h470l10 -150h-42c-11.333 40 -23.166 66.833 -35.499 80.5s-32.5 20.5 -60.5 20.5h-167v-256h93
c31.333 0 53 4.83301 65 14.5s19 28.5 21 56.5h41v-190h-41c-2 27.333 -9 46 -21 56s-33.333 15 -64 15h-94v-287h168c38 0 63.833 7.66699 77.5 23s22.5 46.333 26.5 93h45v-165h-492zM199.999 727.002l-20 34l191 128l43 -92z" />
    <glyph glyph-name="Ecircumflex" unicode="&#xca;" horiz-adv-x="565" 
d="M37 0l-0.000976562 35.002c32.667 0.666992 54.167 6.16699 64.5 16.5s15.5 30.166 15.5 59.499v467c0 29.333 -5.16699 49.166 -15.5 59.499s-31.833 15.833 -64.5 16.5v35h470l10 -150h-42c-11.333 40 -23.166 66.833 -35.499 80.5s-32.5 20.5 -60.5 20.5h-167v-256h93
c31.333 0 53 4.83301 65 14.5s19 28.5 21 56.5h41v-190h-41c-2 27.333 -9 46 -21 56s-33.333 15 -64 15h-94v-287h168c38 0 63.833 7.66699 77.5 23s22.5 46.333 26.5 93h45v-165h-492zM433.999 728.002l-137 81l-137 -81l-25 30l162 149l162 -149z" />
    <glyph glyph-name="Edieresis" unicode="&#xcb;" horiz-adv-x="565" 
d="M37 0l-0.000976562 35.002c32.667 0.666992 54.167 6.16699 64.5 16.5s15.5 30.166 15.5 59.499v467c0 29.333 -5.16699 49.166 -15.5 59.499s-31.833 15.833 -64.5 16.5v35h470l10 -150h-42c-11.333 40 -23.166 66.833 -35.499 80.5s-32.5 20.5 -60.5 20.5h-167v-256h93
c31.333 0 53 4.83301 65 14.5s19 28.5 21 56.5h41v-190h-41c-2 27.333 -9 46 -21 56s-33.333 15 -64 15h-94v-287h168c38 0 63.833 7.66699 77.5 23s22.5 46.333 26.5 93h45v-165h-492zM252.999 787.002c0 -16.667 -5.83301 -30.834 -17.5 -42.501
s-25.834 -17.5 -42.501 -17.5s-30.834 5.83301 -42.501 17.5s-17.5 25.834 -17.5 42.501s5.83301 30.834 17.5 42.501s25.834 17.5 42.501 17.5s30.834 -5.83301 42.501 -17.5s17.5 -25.834 17.5 -42.501zM461.999 787.002c0 -16.667 -5.66699 -30.834 -17 -42.501
s-25.666 -17.5 -42.999 -17.5s-31.666 5.83301 -42.999 17.5s-17 25.834 -17 42.501s5.66699 30.834 17 42.501s25.666 17.5 42.999 17.5s31.666 -5.83301 42.999 -17.5s17 -25.834 17 -42.501z" />
    <glyph glyph-name="Igrave" unicode="&#xcc;" horiz-adv-x="329" 
d="M117 111v467c0 29.333 -5.16699 49.166 -15.5 59.499s-31.833 15.833 -64.5 16.5v35h255v-35c-32.667 -0.666992 -54.167 -6.16699 -64.5 -16.5s-15.5 -30.166 -15.5 -59.499v-467c0 -29.333 5.16699 -49.166 15.5 -59.499s31.833 -15.833 64.5 -16.5v-35h-255v35
c32.667 0.666992 54.167 6.16699 64.5 16.5s15.5 30.166 15.5 59.499zM279 761l-20 -34l-214 70l43 92z" />
    <glyph glyph-name="Iacute" unicode="&#xcd;" horiz-adv-x="329" 
d="M117 111v467c0 29.333 -5.16699 49.166 -15.5 59.499s-31.833 15.833 -64.5 16.5v35h255v-35c-32.667 -0.666992 -54.167 -6.16699 -64.5 -16.5s-15.5 -30.166 -15.5 -59.499v-467c0 -29.333 5.16699 -49.166 15.5 -59.499s31.833 -15.833 64.5 -16.5v-35h-255v35
c32.667 0.666992 54.167 6.16699 64.5 16.5s15.5 30.166 15.5 59.499zM67 727l-20 34l191 128l43 -92z" />
    <glyph glyph-name="Icircumflex" unicode="&#xce;" horiz-adv-x="329" 
d="M117 111v467c0 29.333 -5.16699 49.166 -15.5 59.499s-31.833 15.833 -64.5 16.5v35h255v-35c-32.667 -0.666992 -54.167 -6.16699 -64.5 -16.5s-15.5 -30.166 -15.5 -59.499v-467c0 -29.333 5.16699 -49.166 15.5 -59.499s31.833 -15.833 64.5 -16.5v-35h-255v35
c32.667 0.666992 54.167 6.16699 64.5 16.5s15.5 30.166 15.5 59.499zM301 728l-137 81l-137 -81l-25 30l162 149l162 -149z" />
    <glyph glyph-name="Idieresis" unicode="&#xcf;" horiz-adv-x="329" 
d="M117 111v467c0 29.333 -5.16699 49.166 -15.5 59.499s-31.833 15.833 -64.5 16.5v35h255v-35c-32.667 -0.666992 -54.167 -6.16699 -64.5 -16.5s-15.5 -30.166 -15.5 -59.499v-467c0 -29.333 5.16699 -49.166 15.5 -59.499s31.833 -15.833 64.5 -16.5v-35h-255v35
c32.667 0.666992 54.167 6.16699 64.5 16.5s15.5 30.166 15.5 59.499zM120 787c0 -16.667 -5.66699 -30.834 -17 -42.501s-25.666 -17.5 -42.999 -17.5s-31.666 5.83301 -42.999 17.5s-17 25.834 -17 42.501s5.66699 30.834 17 42.501s25.666 17.5 42.999 17.5
s31.666 -5.83301 42.999 -17.5s17 -25.834 17 -42.501zM329 787c0 -16.667 -5.83301 -30.834 -17.5 -42.501s-25.834 -17.5 -42.501 -17.5s-30.834 5.83301 -42.501 17.5s-17.5 25.834 -17.5 42.501s5.83301 30.834 17.5 42.501s25.834 17.5 42.501 17.5
s30.834 -5.83301 42.501 -17.5s17.5 -25.834 17.5 -42.501z" />
    <glyph glyph-name="Eth" unicode="&#xd0;" horiz-adv-x="670" 
d="M33 342v46.0029h84v190c0 29.333 -5.16699 49.166 -15.5 59.499s-31.833 15.833 -64.5 16.5v35h253c106 0 188.5 -28.333 247.5 -85s88.5 -143.334 88.5 -260.001c0 -106.667 -26.5 -190.667 -79.5 -252s-138.5 -92 -256.5 -92h-253v35
c32.667 0.666992 54.167 6.16699 64.5 16.5s15.5 30.166 15.5 59.499v231h-84zM522 332.003c0 111.333 -18.001 190.833 -54.001 238.5s-91.333 71.5 -166 71.5h-87v-254h129v-46h-129v-291h85c78.667 0 135.334 20 170.001 60s52 113.667 52 221z" />
    <glyph glyph-name="Ntilde" unicode="&#xd1;" horiz-adv-x="685" 
d="M516 333l-0.000976562 245.001c0 29.333 -5.16699 49.166 -15.5 59.499s-31.833 15.833 -64.5 16.5v35h219v-35c-30 -0.666992 -49.5 -6.16699 -58.5 -16.5s-13.5 -30.166 -13.5 -59.499v-578h-71l-250 408c-38 62 -66 118.667 -84 170h-6c8 -54 12 -115.333 12 -184
v-283c0 -29.333 5.16699 -49.166 15.5 -59.499s31.833 -15.833 64.5 -16.5v-35h-227v35c32.667 0.666992 54.167 6.16699 64.5 16.5s15.5 30.166 15.5 59.499v467c0 29.333 -5.16699 49.166 -15.5 59.499s-31.833 15.833 -64.5 16.5v35h162l255 -418
c30.667 -50.667 53.334 -99 68.001 -145h6c-8 48 -12 117 -12 207zM413.999 818.001c30 0 54.3311 15 72.998 45l36 -14c-21.333 -63.333 -57.666 -95 -108.999 -95c-25.333 0 -51.666 7.33301 -78.999 22s-47 22 -59 22c-17.333 0 -31 -3.83301 -41 -11.5
s-20 -19.5 -30 -35.5l-34 13c16.667 66.667 51.667 100 105 100c23.333 0 48.5 -7.66699 75.5 -23s47.833 -23 62.5 -23z" />
    <glyph glyph-name="Ograve" unicode="&#xd2;" horiz-adv-x="674" 
d="M340 -11c-95.333 0 -168.5 32.833 -219.5 98.5s-76.5 152.167 -76.5 259.5c0 112 26.167 199 78.5 261s123.166 93 212.499 93c51.333 0 96.333 -9.66699 135 -29s69.334 -46 92.001 -80s39.667 -72.167 51 -114.5s17 -88.166 17 -137.499
c0 -106.667 -25.833 -191.834 -77.5 -255.501s-122.5 -95.5 -212.5 -95.5zM335 654c-65.333 0 -113.167 -24.5 -143.5 -73.5s-45.5 -123.167 -45.5 -222.5c0 -216 64.667 -324 194 -324c124 0 186 99 186 297c0 107.333 -14.833 188 -44.5 242s-78.5 81 -146.5 81z
M451.999 761l-20 -34l-214 70l43 92z" />
    <glyph glyph-name="Oacute" unicode="&#xd3;" horiz-adv-x="674" 
d="M340 -11c-95.333 0 -168.5 32.833 -219.5 98.5s-76.5 152.167 -76.5 259.5c0 112 26.167 199 78.5 261s123.166 93 212.499 93c51.333 0 96.333 -9.66699 135 -29s69.334 -46 92.001 -80s39.667 -72.167 51 -114.5s17 -88.166 17 -137.499
c0 -106.667 -25.833 -191.834 -77.5 -255.501s-122.5 -95.5 -212.5 -95.5zM335 654c-65.333 0 -113.167 -24.5 -143.5 -73.5s-45.5 -123.167 -45.5 -222.5c0 -216 64.667 -324 194 -324c124 0 186 99 186 297c0 107.333 -14.833 188 -44.5 242s-78.5 81 -146.5 81z
M239.999 727l-20 34l191 128l43 -92z" />
    <glyph glyph-name="Ocircumflex" unicode="&#xd4;" horiz-adv-x="674" 
d="M340 -11c-95.333 0 -168.5 32.833 -219.5 98.5s-76.5 152.167 -76.5 259.5c0 112 26.167 199 78.5 261s123.166 93 212.499 93c51.333 0 96.333 -9.66699 135 -29s69.334 -46 92.001 -80s39.667 -72.167 51 -114.5s17 -88.166 17 -137.499
c0 -106.667 -25.833 -191.834 -77.5 -255.501s-122.5 -95.5 -212.5 -95.5zM335 654c-65.333 0 -113.167 -24.5 -143.5 -73.5s-45.5 -123.167 -45.5 -222.5c0 -216 64.667 -324 194 -324c124 0 186 99 186 297c0 107.333 -14.833 188 -44.5 242s-78.5 81 -146.5 81z
M473.999 728l-137 81l-137 -81l-25 30l162 149l162 -149z" />
    <glyph glyph-name="Otilde" unicode="&#xd5;" horiz-adv-x="674" 
d="M340 -11c-95.333 0 -168.5 32.833 -219.5 98.5s-76.5 152.167 -76.5 259.5c0 112 26.167 199 78.5 261s123.166 93 212.499 93c51.333 0 96.333 -9.66699 135 -29s69.334 -46 92.001 -80s39.667 -72.167 51 -114.5s17 -88.166 17 -137.499
c0 -106.667 -25.833 -191.834 -77.5 -255.501s-122.5 -95.5 -212.5 -95.5zM335 654c-65.333 0 -113.167 -24.5 -143.5 -73.5s-45.5 -123.167 -45.5 -222.5c0 -216 64.667 -324 194 -324c124 0 186 99 186 297c0 107.333 -14.833 188 -44.5 242s-78.5 81 -146.5 81z
M404.999 818c30 0 54.3311 15 72.998 45l36 -14c-21.333 -63.333 -57.666 -95 -108.999 -95c-25.333 0 -51.666 7.33301 -78.999 22s-47 22 -59 22c-17.333 0 -31 -3.83301 -41 -11.5s-20 -19.5 -30 -35.5l-34 13c16.667 66.667 51.667 100 105 100
c23.333 0 48.5 -7.66699 75.5 -23s47.833 -23 62.5 -23z" />
    <glyph glyph-name="Odieresis" unicode="&#xd6;" horiz-adv-x="674" 
d="M340 -11c-95.333 0 -168.5 32.833 -219.5 98.5s-76.5 152.167 -76.5 259.5c0 112 26.167 199 78.5 261s123.166 93 212.499 93c51.333 0 96.333 -9.66699 135 -29s69.334 -46 92.001 -80s39.667 -72.167 51 -114.5s17 -88.166 17 -137.499
c0 -106.667 -25.833 -191.834 -77.5 -255.501s-122.5 -95.5 -212.5 -95.5zM335 654c-65.333 0 -113.167 -24.5 -143.5 -73.5s-45.5 -123.167 -45.5 -222.5c0 -216 64.667 -324 194 -324c124 0 186 99 186 297c0 107.333 -14.833 188 -44.5 242s-78.5 81 -146.5 81z
M292.999 787c0 -16.667 -5.83301 -30.834 -17.5 -42.501s-25.834 -17.5 -42.501 -17.5s-30.834 5.83301 -42.501 17.5s-17.5 25.834 -17.5 42.501s5.83301 30.834 17.5 42.501s25.834 17.5 42.501 17.5s30.834 -5.83301 42.501 -17.5s17.5 -25.834 17.5 -42.501z
M501.999 787c0 -16.667 -5.66699 -30.834 -17 -42.501s-25.666 -17.5 -42.999 -17.5s-31.666 5.83301 -42.999 17.5s-17 25.834 -17 42.501s5.66699 30.834 17 42.501s25.666 17.5 42.999 17.5s31.666 -5.83301 42.999 -17.5s17 -25.834 17 -42.501z" />
    <glyph glyph-name="multiply" unicode="&#xd7;" horiz-adv-x="505" 
d="M55 431l37 38l160 -160l160 160l38 -38l-160 -160l160 -159l-38 -38l-160 160l-160 -160l-37 38l159 159z" />
    <glyph glyph-name="Oslash" unicode="&#xd8;" horiz-adv-x="674" 
d="M585 726l-57 -94.998c68 -64 102 -161 102 -291c0 -106.667 -25.833 -191.834 -77.5 -255.501s-122.5 -95.5 -212.5 -95.5c-65.333 0 -120.666 16 -165.999 48l-58 -98l-40 22l62 106c-62.667 63.333 -94 156.666 -94 279.999c0 112 26.167 199 78.5 261
s123.166 93 212.499 93c58.667 0 110 -13.333 154 -40l53 88zM526 331.002c0 101.333 -13 178.333 -39 231l-279 -469c31.333 -39.333 75.333 -59 132 -59c124 0 186 99 186 297zM335 654.002c-65.333 0 -113.166 -24.5 -143.499 -73.5s-45.5 -123.167 -45.5 -222.5
c0 -94.667 11.667 -167.667 35 -219l276 467c-30.667 32 -71.334 48 -122.001 48z" />
    <glyph glyph-name="Ugrave" unicode="&#xd9;" horiz-adv-x="684" 
d="M517 224l0.000976562 354c0 29.333 -5.33301 49.166 -16 59.499s-33.667 15.833 -69 16.5v35h224v-35c-30 -0.666992 -49.5 -6.16699 -58.5 -16.5s-13.5 -30.166 -13.5 -59.499v-354c0 -80.667 -19.667 -140 -59 -178s-97.666 -57 -174.999 -57
c-164.667 0 -247 76 -247 228v361c0 29.333 -4.83301 49.166 -14.5 59.499s-29.834 15.833 -60.501 16.5v35h255v-35c-35.333 -0.666992 -58.333 -6.16699 -69 -16.5s-16 -30.166 -16 -59.499v-339c0 -68.667 12 -117.5 36 -146.5s67.333 -43.5 130 -43.5
c55.333 0 94.666 13.5 117.999 40.5s35 71.833 35 134.5zM471.001 761l-20 -34l-214 70l43 92z" />
    <glyph glyph-name="Uacute" unicode="&#xda;" horiz-adv-x="684" 
d="M517 224l0.000976562 354c0 29.333 -5.33301 49.166 -16 59.499s-33.667 15.833 -69 16.5v35h224v-35c-30 -0.666992 -49.5 -6.16699 -58.5 -16.5s-13.5 -30.166 -13.5 -59.499v-354c0 -80.667 -19.667 -140 -59 -178s-97.666 -57 -174.999 -57
c-164.667 0 -247 76 -247 228v361c0 29.333 -4.83301 49.166 -14.5 59.499s-29.834 15.833 -60.501 16.5v35h255v-35c-35.333 -0.666992 -58.333 -6.16699 -69 -16.5s-16 -30.166 -16 -59.499v-339c0 -68.667 12 -117.5 36 -146.5s67.333 -43.5 130 -43.5
c55.333 0 94.666 13.5 117.999 40.5s35 71.833 35 134.5zM259.001 727l-20 34l191 128l43 -92z" />
    <glyph glyph-name="Ucircumflex" unicode="&#xdb;" horiz-adv-x="684" 
d="M517 224l0.000976562 354c0 29.333 -5.33301 49.166 -16 59.499s-33.667 15.833 -69 16.5v35h224v-35c-30 -0.666992 -49.5 -6.16699 -58.5 -16.5s-13.5 -30.166 -13.5 -59.499v-354c0 -80.667 -19.667 -140 -59 -178s-97.666 -57 -174.999 -57
c-164.667 0 -247 76 -247 228v361c0 29.333 -4.83301 49.166 -14.5 59.499s-29.834 15.833 -60.501 16.5v35h255v-35c-35.333 -0.666992 -58.333 -6.16699 -69 -16.5s-16 -30.166 -16 -59.499v-339c0 -68.667 12 -117.5 36 -146.5s67.333 -43.5 130 -43.5
c55.333 0 94.666 13.5 117.999 40.5s35 71.833 35 134.5zM493.001 728l-137 81l-137 -81l-25 30l162 149l162 -149z" />
    <glyph glyph-name="Udieresis" unicode="&#xdc;" horiz-adv-x="684" 
d="M517 224l0.000976562 354c0 29.333 -5.33301 49.166 -16 59.499s-33.667 15.833 -69 16.5v35h224v-35c-30 -0.666992 -49.5 -6.16699 -58.5 -16.5s-13.5 -30.166 -13.5 -59.499v-354c0 -80.667 -19.667 -140 -59 -178s-97.666 -57 -174.999 -57
c-164.667 0 -247 76 -247 228v361c0 29.333 -4.83301 49.166 -14.5 59.499s-29.834 15.833 -60.501 16.5v35h255v-35c-35.333 -0.666992 -58.333 -6.16699 -69 -16.5s-16 -30.166 -16 -59.499v-339c0 -68.667 12 -117.5 36 -146.5s67.333 -43.5 130 -43.5
c55.333 0 94.666 13.5 117.999 40.5s35 71.833 35 134.5zM312.001 787c0 -16.667 -5.66699 -30.834 -17 -42.501s-25.666 -17.5 -42.999 -17.5s-31.666 5.83301 -42.999 17.5s-17 25.834 -17 42.501s5.66699 30.834 17 42.501s25.666 17.5 42.999 17.5
s31.666 -5.83301 42.999 -17.5s17 -25.834 17 -42.501zM521.001 787c0 -16.667 -5.83301 -30.834 -17.5 -42.501s-25.834 -17.5 -42.501 -17.5s-30.834 5.83301 -42.501 17.5s-17.5 25.834 -17.5 42.501s5.83301 30.834 17.5 42.501s25.834 17.5 42.501 17.5
s30.834 -5.83301 42.501 -17.5s17.5 -25.834 17.5 -42.501z" />
    <glyph glyph-name="Yacute" unicode="&#xdd;" horiz-adv-x="594" 
d="M319 345h3.99902l108 234c8 18 12 32.333 12 43c0 19.333 -19.667 30 -59 32v35h199v-35c-20.667 -2.66699 -37.5 -9.83398 -50.5 -21.501s-28.5 -35.5 -46.5 -71.5l-137 -279v-171c0 -29.333 5.5 -49.166 16.5 -59.499s33.833 -15.833 68.5 -16.5v-35h-265v35
c34.667 0.666992 57.5 6.16699 68.5 16.5s16.5 30.166 16.5 59.499v165l-149 296c-15.333 30.667 -29.666 51.334 -42.999 62.001s-30.333 17.334 -51 20.001v35h238v-35c-35.333 -0.666992 -53 -10.667 -53 -30c0 -10.667 4.66699 -26.334 14 -47.001zM213.999 727l-20 34
l191 128l43 -92z" />
    <glyph glyph-name="Thorn" unicode="&#xde;" horiz-adv-x="577" 
d="M447 357c0 57.333 -10.667 97.001 -32 119.001s-62.333 33 -123 33h-80v-290h98c49.333 0 84.5 10.667 105.5 32s31.5 56.666 31.5 105.999zM212 578.001v-20.999h87c90 0 154.167 -16.5 192.5 -49.5s57.5 -79.833 57.5 -140.5c0 -130 -77.667 -195 -233 -195h-104v-58
c0 -30 5.83301 -50.5 17.5 -61.5s35.167 -16.833 70.5 -17.5v-35h-263v35c32.667 0.666992 54.167 6.16699 64.5 16.5s15.5 30.166 15.5 59.499v467c0 29.333 -5.16699 49.166 -15.5 59.499s-31.833 15.833 -64.5 16.5v35h255v-35
c-32.667 -0.666992 -54.167 -6.16699 -64.5 -16.5s-15.5 -30.166 -15.5 -59.499z" />
    <glyph glyph-name="germandbls" unicode="&#xdf;" horiz-adv-x="585" 
d="M98 491l-0.000976562 46.002c0 61.333 19.5 108.5 58.5 141.5s89.167 49.5 150.5 49.5c54.667 0 99.667 -12.5 135 -37.5s53 -58.5 53 -100.5c0 -18 -2.83301 -34.167 -8.5 -48.5s-15.167 -27.5 -28.5 -39.5s-25.666 -21.833 -36.999 -29.5s-28 -17.5 -50 -29.5
c-20 -11.333 -30 -21 -30 -29c0 -8.66699 8 -17.334 24 -26.001c62 -33.333 109.833 -67.666 143.5 -102.999s50.5 -78.333 50.5 -129c0 -48.667 -16.167 -88.334 -48.5 -119.001s-76.166 -46 -131.499 -46c-57.333 0 -104.666 14.333 -141.999 43l23 44
c40 -24.667 79 -37 117 -37c56 0 84 34.667 84 104c0 42.667 -9.5 76.667 -28.5 102s-50.167 53.666 -93.5 84.999c-25.333 18 -42.333 31.667 -51 41s-13 21 -13 35c0 13.333 4 24.333 12 33s24.333 21 49 37c23.333 14.667 40.166 30.167 50.499 46.5s15.5 36.5 15.5 60.5
c0 34 -8.33301 58.5 -25 73.5s-41.334 22.5 -74.001 22.5c-40.667 0 -69.667 -12.667 -87 -38s-26 -64 -26 -116v-527h-161v34c29.333 2 48.333 7.16699 57 15.5s13 26.5 13 54.5v332h-63v32z" />
    <glyph glyph-name="agrave" unicode="&#xe0;" horiz-adv-x="512" 
d="M420 131c0 -38 4.33301 -62.332 13 -72.999s29 -17.334 61 -20.001v-33c-18.667 -7.33301 -41.667 -11 -69 -11c-32.667 0 -55.334 5.83301 -68.001 17.5s-20.334 29.5 -23.001 53.5c-11.333 -20 -28.666 -38.333 -51.999 -55s-51.666 -25 -84.999 -25
c-48.667 0 -87.667 12.5 -117 37.5s-44 60.167 -44 105.5c0 107.333 87.333 161 262 161c14.667 0 26.334 -0.333008 35.001 -1v44c0 44.667 -6.5 76.5 -19.5 95.5s-36.833 28.5 -71.5 28.5c-66.667 0 -105.334 -30 -116.001 -90h-63v89c62 34 124.333 51 187 51
c116 0 174 -56 174 -168c0 -4.66699 -0.666992 -31.5 -2 -80.5s-2 -91.167 -2 -126.5zM331 240.001c-18.667 1.33301 -30.333 2.00098 -35 2.00098c-57.333 0 -98.833 -8.33301 -124.5 -25s-38.5 -44 -38.5 -82c0 -34.667 6.83301 -58.834 20.5 -72.501
s35.5 -20.5 65.5 -20.5c44.667 0 81 24.333 109 73zM344.001 600.002l-20 -34l-212 96l53 91z" />
    <glyph glyph-name="aacute" unicode="&#xe1;" horiz-adv-x="512" 
d="M420 131c0 -38 4.33301 -62.332 13 -72.999s29 -17.334 61 -20.001v-33c-18.667 -7.33301 -41.667 -11 -69 -11c-32.667 0 -55.334 5.83301 -68.001 17.5s-20.334 29.5 -23.001 53.5c-11.333 -20 -28.666 -38.333 -51.999 -55s-51.666 -25 -84.999 -25
c-48.667 0 -87.667 12.5 -117 37.5s-44 60.167 -44 105.5c0 107.333 87.333 161 262 161c14.667 0 26.334 -0.333008 35.001 -1v44c0 44.667 -6.5 76.5 -19.5 95.5s-36.833 28.5 -71.5 28.5c-66.667 0 -105.334 -30 -116.001 -90h-63v89c62 34 124.333 51 187 51
c116 0 174 -56 174 -168c0 -4.66699 -0.666992 -31.5 -2 -80.5s-2 -91.167 -2 -126.5zM331 240.001c-18.667 1.33301 -30.333 2.00098 -35 2.00098c-57.333 0 -98.833 -8.33301 -124.5 -25s-38.5 -44 -38.5 -82c0 -34.667 6.83301 -58.834 20.5 -72.501
s35.5 -20.5 65.5 -20.5c44.667 0 81 24.333 109 73zM148.001 566.002l-20 34l179 153l53 -91z" />
    <glyph glyph-name="acircumflex" unicode="&#xe2;" horiz-adv-x="512" 
d="M420 131c0 -38 4.33301 -62.332 13 -72.999s29 -17.334 61 -20.001v-33c-18.667 -7.33301 -41.667 -11 -69 -11c-32.667 0 -55.334 5.83301 -68.001 17.5s-20.334 29.5 -23.001 53.5c-11.333 -20 -28.666 -38.333 -51.999 -55s-51.666 -25 -84.999 -25
c-48.667 0 -87.667 12.5 -117 37.5s-44 60.167 -44 105.5c0 107.333 87.333 161 262 161c14.667 0 26.334 -0.333008 35.001 -1v44c0 44.667 -6.5 76.5 -19.5 95.5s-36.833 28.5 -71.5 28.5c-66.667 0 -105.334 -30 -116.001 -90h-63v89c62 34 124.333 51 187 51
c116 0 174 -56 174 -168c0 -4.66699 -0.666992 -31.5 -2 -80.5s-2 -91.167 -2 -126.5zM331 240.001c-18.667 1.33301 -30.333 2.00098 -35 2.00098c-57.333 0 -98.833 -8.33301 -124.5 -25s-38.5 -44 -38.5 -82c0 -34.667 6.83301 -58.834 20.5 -72.501
s35.5 -20.5 65.5 -20.5c44.667 0 81 24.333 109 73zM381.001 564.002l-137 85l-137 -85l-25 30l162 153l162 -153z" />
    <glyph glyph-name="atilde" unicode="&#xe3;" horiz-adv-x="512" 
d="M420 131c0 -38 4.33301 -62.332 13 -72.999s29 -17.334 61 -20.001v-33c-18.667 -7.33301 -41.667 -11 -69 -11c-32.667 0 -55.334 5.83301 -68.001 17.5s-20.334 29.5 -23.001 53.5c-11.333 -20 -28.666 -38.333 -51.999 -55s-51.666 -25 -84.999 -25
c-48.667 0 -87.667 12.5 -117 37.5s-44 60.167 -44 105.5c0 107.333 87.333 161 262 161c14.667 0 26.334 -0.333008 35.001 -1v44c0 44.667 -6.5 76.5 -19.5 95.5s-36.833 28.5 -71.5 28.5c-66.667 0 -105.334 -30 -116.001 -90h-63v89c62 34 124.333 51 187 51
c116 0 174 -56 174 -168c0 -4.66699 -0.666992 -31.5 -2 -80.5s-2 -91.167 -2 -126.5zM331 240.001c-18.667 1.33301 -30.333 2.00098 -35 2.00098c-57.333 0 -98.833 -8.33301 -124.5 -25s-38.5 -44 -38.5 -82c0 -34.667 6.83301 -58.834 20.5 -72.501
s35.5 -20.5 65.5 -20.5c44.667 0 81 24.333 109 73zM299.001 669.002c28.667 0 50.668 14 66.001 42l35 -15c-8.66699 -28.667 -21.5 -52.667 -38.5 -72s-37.833 -29 -62.5 -29c-19.333 0 -42.166 4.83301 -68.499 14.5s-44.833 14.5 -55.5 14.5
c-26.667 0 -48 -14.667 -64 -44l-33 14c6.66699 30.667 18.167 56 34.5 76s37.166 30 62.499 30c19.333 0 41.666 -5.16699 66.999 -15.5s44.333 -15.5 57 -15.5z" />
    <glyph glyph-name="adieresis" unicode="&#xe4;" horiz-adv-x="512" 
d="M420 131c0 -38 4.33301 -62.332 13 -72.999s29 -17.334 61 -20.001v-33c-18.667 -7.33301 -41.667 -11 -69 -11c-32.667 0 -55.334 5.83301 -68.001 17.5s-20.334 29.5 -23.001 53.5c-11.333 -20 -28.666 -38.333 -51.999 -55s-51.666 -25 -84.999 -25
c-48.667 0 -87.667 12.5 -117 37.5s-44 60.167 -44 105.5c0 107.333 87.333 161 262 161c14.667 0 26.334 -0.333008 35.001 -1v44c0 44.667 -6.5 76.5 -19.5 95.5s-36.833 28.5 -71.5 28.5c-66.667 0 -105.334 -30 -116.001 -90h-63v89c62 34 124.333 51 187 51
c116 0 174 -56 174 -168c0 -4.66699 -0.666992 -31.5 -2 -80.5s-2 -91.167 -2 -126.5zM331 240.001c-18.667 1.33301 -30.333 2.00098 -35 2.00098c-57.333 0 -98.833 -8.33301 -124.5 -25s-38.5 -44 -38.5 -82c0 -34.667 6.83301 -58.834 20.5 -72.501
s35.5 -20.5 65.5 -20.5c44.667 0 81 24.333 109 73zM199.001 638.002c0 -17.333 -5.83301 -31.666 -17.5 -42.999s-25.834 -17 -42.501 -17s-30.834 5.66699 -42.501 17s-17.5 25.666 -17.5 42.999s5.83301 31.666 17.5 42.999s25.834 17 42.501 17
s30.834 -5.66699 42.501 -17s17.5 -25.666 17.5 -42.999zM408.001 638.002c0 -17.333 -5.66699 -31.666 -17 -42.999s-25.666 -17 -42.999 -17s-31.666 5.66699 -42.999 17s-17 25.666 -17 42.999s5.66699 31.666 17 42.999s25.666 17 42.999 17s31.666 -5.66699 42.999 -17
s17 -25.666 17 -42.999z" />
    <glyph glyph-name="aring" unicode="&#xe5;" horiz-adv-x="512" 
d="M420 131c0 -38 4.33301 -62.332 13 -72.999s29 -17.334 61 -20.001v-33c-18.667 -7.33301 -41.667 -11 -69 -11c-32.667 0 -55.334 5.83301 -68.001 17.5s-20.334 29.5 -23.001 53.5c-11.333 -20 -28.666 -38.333 -51.999 -55s-51.666 -25 -84.999 -25
c-48.667 0 -87.667 12.5 -117 37.5s-44 60.167 -44 105.5c0 107.333 87.333 161 262 161c14.667 0 26.334 -0.333008 35.001 -1v44c0 44.667 -6.5 76.5 -19.5 95.5s-36.833 28.5 -71.5 28.5c-66.667 0 -105.334 -30 -116.001 -90h-63v89c62 34 124.333 51 187 51
c116 0 174 -56 174 -168c0 -4.66699 -0.666992 -31.5 -2 -80.5s-2 -91.167 -2 -126.5zM331 240.001c-18.667 1.33301 -30.333 2.00098 -35 2.00098c-57.333 0 -98.833 -8.33301 -124.5 -25s-38.5 -44 -38.5 -82c0 -34.667 6.83301 -58.834 20.5 -72.501
s35.5 -20.5 65.5 -20.5c44.667 0 81 24.333 109 73zM243.001 560.002c-29.333 0 -53.5 9.66699 -72.5 29s-28.5 43.666 -28.5 72.999s9.5 53.666 28.5 72.999s43.167 29 72.5 29c30 0 54.5 -9.66699 73.5 -29s28.5 -43.666 28.5 -72.999s-9.5 -53.666 -28.5 -72.999
s-43.5 -29 -73.5 -29zM243.001 729.002c-18 0 -32.667 -6.5 -44 -19.5s-17 -29.167 -17 -48.5c0 -18.667 5.66699 -34.167 17 -46.5s26 -18.5 44 -18.5c18.667 0 33.667 6.16699 45 18.5s17 27.833 17 46.5c0 19.333 -5.66699 35.5 -17 48.5s-26.333 19.5 -45 19.5z" />
    <glyph glyph-name="ae" unicode="&#xe6;" horiz-adv-x="770" 
d="M390 446c39.333 40.667 88.666 61.001 147.999 61.001c63.333 0 112.5 -20.833 147.5 -62.5s52.5 -100.5 52.5 -176.5v-27h-319c0.666992 -70.667 13.5 -120.334 38.5 -149.001s64.5 -43 118.5 -43c46 0 90.333 14 133 42l21 -34c-58.667 -45.333 -118 -68 -178 -68
c-80 0 -140 27.667 -180 83c-37.333 -55.333 -95.666 -83 -174.999 -83c-49.333 0 -88.5 12 -117.5 36s-43.5 58.333 -43.5 103c0 108 87.333 162 262 162h29v46c-0.666992 44 -6.66699 75 -18 93s-33.666 27 -66.999 27c-66.667 0 -105.334 -30 -116.001 -90h-63v89
c62 34 124.333 51 187 51c68 0 114.667 -20 140 -60zM536 459.001c-36 0 -63.5 -12.833 -82.5 -38.5s-30.167 -69.167 -33.5 -130.5h223c0 60.667 -8.33301 104 -25 130s-44 39 -82 39zM219 49.001c51.333 0 93.332 24 125.999 72c-11.333 28 -17.666 68 -18.999 120h-30
c-57.333 0 -98.833 -8.16699 -124.5 -24.5s-38.5 -43.5 -38.5 -81.5c0 -57.333 28.667 -86 86 -86z" />
    <glyph glyph-name="ccedilla" unicode="&#xe7;" horiz-adv-x="463" 
d="M229 -198c-29.333 0 -56.334 8.33203 -81.001 24.999l16 32c18.667 -12 39.334 -18 62.001 -18c26.667 0 40 12 40 36c0 20.667 -23.333 31.667 -70 33v21l18 62c-53.333 9.33301 -96.333 34.833 -129 76.5s-49 97.834 -49 168.501c0 84 21.333 149.167 64 195.5
s97.667 69.5 165 69.5c62 0 112 -13 150 -39v-92h-68c-5.33301 30.667 -14 52.5 -26 65.5s-31.333 19.5 -58 19.5c-85.333 0 -128 -66.333 -128 -199c0 -78 11.167 -133.167 33.5 -165.5s57.5 -48.5 105.5 -48.5c28 0 51 4.16699 69 12.5s39.333 22.5 64 42.5l26 -28
c-48 -54.667 -105.667 -82 -173 -82h-9l-8 -28c29.333 -2 50.833 -9.83301 64.5 -23.5s20.5 -30.5 20.5 -50.5c0 -56.667 -33 -85 -99 -85z" />
    <glyph glyph-name="egrave" unicode="&#xe8;" horiz-adv-x="483" 
d="M289 49c46 0 90.333 14.001 133 42.001l21 -34c-58.667 -45.333 -118 -68 -178 -68c-72 0 -128.167 22.833 -168.5 68.5s-60.5 109.5 -60.5 191.5c0 80 20 143 60 189s91.667 69 155 69s112.5 -20.833 147.5 -62.5s52.5 -100.5 52.5 -176.5v-27h-319
c0.666992 -70.667 13.5 -120.334 38.5 -149.001s64.5 -43 118.5 -43zM249 459.001c-36 0 -63.5 -12.833 -82.5 -38.5s-30.167 -69.167 -33.5 -130.5h223c0 60.667 -8.33301 104 -25 130s-44 39 -82 39zM356 600.001l-20 -34l-212 96l53 91z" />
    <glyph glyph-name="eacute" unicode="&#xe9;" horiz-adv-x="483" 
d="M289 49c46 0 90.333 14.001 133 42.001l21 -34c-58.667 -45.333 -118 -68 -178 -68c-72 0 -128.167 22.833 -168.5 68.5s-60.5 109.5 -60.5 191.5c0 80 20 143 60 189s91.667 69 155 69s112.5 -20.833 147.5 -62.5s52.5 -100.5 52.5 -176.5v-27h-319
c0.666992 -70.667 13.5 -120.334 38.5 -149.001s64.5 -43 118.5 -43zM249 459.001c-36 0 -63.5 -12.833 -82.5 -38.5s-30.167 -69.167 -33.5 -130.5h223c0 60.667 -8.33301 104 -25 130s-44 39 -82 39zM159 566.001l-20 34l179 153l53 -91z" />
    <glyph glyph-name="ecircumflex" unicode="&#xea;" horiz-adv-x="483" 
d="M289 49c46 0 90.333 14.001 133 42.001l21 -34c-58.667 -45.333 -118 -68 -178 -68c-72 0 -128.167 22.833 -168.5 68.5s-60.5 109.5 -60.5 191.5c0 80 20 143 60 189s91.667 69 155 69s112.5 -20.833 147.5 -62.5s52.5 -100.5 52.5 -176.5v-27h-319
c0.666992 -70.667 13.5 -120.334 38.5 -149.001s64.5 -43 118.5 -43zM249 459.001c-36 0 -63.5 -12.833 -82.5 -38.5s-30.167 -69.167 -33.5 -130.5h223c0 60.667 -8.33301 104 -25 130s-44 39 -82 39zM386 564.001l-137 85l-137 -85l-25 30l162 153l162 -153z" />
    <glyph glyph-name="edieresis" unicode="&#xeb;" horiz-adv-x="483" 
d="M289 49c46 0 90.333 14.001 133 42.001l21 -34c-58.667 -45.333 -118 -68 -178 -68c-72 0 -128.167 22.833 -168.5 68.5s-60.5 109.5 -60.5 191.5c0 80 20 143 60 189s91.667 69 155 69s112.5 -20.833 147.5 -62.5s52.5 -100.5 52.5 -176.5v-27h-319
c0.666992 -70.667 13.5 -120.334 38.5 -149.001s64.5 -43 118.5 -43zM249 459.001c-36 0 -63.5 -12.833 -82.5 -38.5s-30.167 -69.167 -33.5 -130.5h223c0 60.667 -8.33301 104 -25 130s-44 39 -82 39zM205 638.001c0 -17.333 -5.83301 -31.666 -17.5 -42.999
s-25.834 -17 -42.501 -17s-30.834 5.66699 -42.501 17s-17.5 25.666 -17.5 42.999s5.83301 31.666 17.5 42.999s25.834 17 42.501 17s30.834 -5.66699 42.501 -17s17.5 -25.666 17.5 -42.999zM414 638.001c0 -17.333 -5.66699 -31.666 -17 -42.999s-25.666 -17 -42.999 -17
s-31.666 5.66699 -42.999 17s-17 25.666 -17 42.999s5.66699 31.666 17 42.999s25.666 17 42.999 17s31.666 -5.66699 42.999 -17s17 -25.666 17 -42.999z" />
    <glyph glyph-name="igrave" unicode="&#xec;" horiz-adv-x="286" 
d="M260 0l-231 -0.000976562v34c29.333 2 48.333 7.16699 57 15.5s13 26.5 13 54.5v245c0 35.333 -4.66699 58 -14 68s-29 15.667 -59 17v30l149 40h15v-400c0 -28.667 3.83301 -47.167 11.5 -55.5s27.167 -13.166 58.5 -14.499v-34zM246 599.999l-20 -34l-212 96l53 91z
" />
    <glyph glyph-name="iacute" unicode="&#xed;" horiz-adv-x="286" 
d="M260 0l-231 -0.000976562v34c29.333 2 48.333 7.16699 57 15.5s13 26.5 13 54.5v245c0 35.333 -4.66699 58 -14 68s-29 15.667 -59 17v30l149 40h15v-400c0 -28.667 3.83301 -47.167 11.5 -55.5s27.167 -13.166 58.5 -14.499v-34zM47 565.999l-20 34l179 153l53 -91z" />
    <glyph glyph-name="icircumflex" unicode="&#xee;" horiz-adv-x="286" 
d="M260 0l-231 -0.000976562v34c29.333 2 48.333 7.16699 57 15.5s13 26.5 13 54.5v245c0 35.333 -4.66699 58 -14 68s-29 15.667 -59 17v30l149 40h15v-400c0 -28.667 3.83301 -47.167 11.5 -55.5s27.167 -13.166 58.5 -14.499v-34zM279 563.999l-137 85l-137 -85l-25 30
l162 153l162 -153z" />
    <glyph glyph-name="idieresis" unicode="&#xef;" horiz-adv-x="286" 
d="M260 0l-231 -0.000976562v34c29.333 2 48.333 7.16699 57 15.5s13 26.5 13 54.5v245c0 35.333 -4.66699 58 -14 68s-29 15.667 -59 17v30l149 40h15v-400c0 -28.667 3.83301 -47.167 11.5 -55.5s27.167 -13.166 58.5 -14.499v-34zM99 637.999
c0 -17.333 -5.83301 -31.666 -17.5 -42.999s-25.834 -17 -42.501 -17s-30.834 5.66699 -42.501 17s-17.5 25.666 -17.5 42.999s5.83301 31.666 17.5 42.999s25.834 17 42.501 17s30.834 -5.66699 42.501 -17s17.5 -25.666 17.5 -42.999zM308 637.999
c0 -17.333 -5.66699 -31.666 -17 -42.999s-25.666 -17 -42.999 -17s-31.666 5.66699 -42.999 17s-17 25.666 -17 42.999s5.66699 31.666 17 42.999s25.666 17 42.999 17s31.666 -5.66699 42.999 -17s17 -25.666 17 -42.999z" />
    <glyph glyph-name="eth" unicode="&#xf0;" horiz-adv-x="535" 
d="M125 534l-17.001 38.999l122 50c-35.333 22.667 -79.666 42 -132.999 58l15 37c72.667 -17.333 134 -40 184 -68l127 51l17 -38l-100 -41c104 -76 156 -195.667 156 -359c0 -87.333 -21.167 -155 -63.5 -203s-97.833 -72 -166.5 -72c-67.333 0 -122.5 23.833 -165.5 71.5
s-64.5 109.834 -64.5 186.501c0 79.333 22.333 142.333 67 189s100.334 70 167.001 70c30 0 59 -8 87 -24c-20.667 44 -49.334 81.333 -86.001 112zM397.999 252.999c0 65.333 -6.33301 121.667 -19 169c-38 22.667 -72.333 34 -103 34c-94.667 0 -142 -69.333 -142 -208
c0 -69.333 10.5 -121.833 31.5 -157.5s55.167 -53.5 102.5 -53.5c86.667 0 130 72 130 216z" />
    <glyph glyph-name="ntilde" unicode="&#xf1;" horiz-adv-x="583" 
d="M492 369l-0.00195312 -265c0 -28 4 -46.167 12 -54.5s25.667 -13.5 53 -15.5v-34h-226v34c30.667 1.33301 50 5.83301 58 13.5s12 24.167 12 49.5v254c0 54.667 -24.333 82 -73 82s-94.667 -21 -138 -63v-273c0 -25.333 4 -41.833 12 -49.5s27.333 -12.167 58 -13.5v-34
h-231v34c29.333 2 48.333 7.16699 57 15.5s13 26.5 13 54.5v245c0 35.333 -4.66699 58 -14 68s-29 15.667 -59 17v30l128 40h15c10.667 -23.333 16.334 -52.333 17.001 -87c54.667 57.333 111.667 86 171 86c40.667 0 73.334 -11.667 98.001 -35s37 -56.333 37 -99z
M351.998 669c28.667 0 50.668 14 66.001 42l35 -15c-8.66699 -28.667 -21.5 -52.667 -38.5 -72s-37.833 -29 -62.5 -29c-19.333 0 -42.166 4.83301 -68.499 14.5s-44.833 14.5 -55.5 14.5c-26.667 0 -48 -14.667 -64 -44l-33 14c6.66699 30.667 18.167 56 34.5 76
s37.166 30 62.499 30c19.333 0 41.666 -5.16699 66.999 -15.5s44.333 -15.5 57 -15.5z" />
    <glyph glyph-name="ograve" unicode="&#xf2;" horiz-adv-x="532" 
d="M496 242c0 -78 -21.332 -139.834 -63.999 -185.501s-98 -68.5 -166 -68.5s-123.333 23.167 -166 69.5s-64 109.5 -64 189.5c0 79.333 21.167 142.333 63.5 189s97.166 70 164.499 70c72 0 128.667 -24.667 170 -74s62 -112.666 62 -189.999zM398.001 237.999
c0 146 -44.667 218.999 -134 218.999c-47.333 0 -80.833 -16.833 -100.5 -50.5s-29.5 -83.5 -29.5 -149.5c0 -76.667 10.333 -132.5 31 -167.5s55 -52.5 103 -52.5c42.667 0 75 17.333 97 52s33 84.334 33 149.001zM368.001 599.998l-20 -34l-212 96l53 91z" />
    <glyph glyph-name="oacute" unicode="&#xf3;" horiz-adv-x="532" 
d="M496 242c0 -78 -21.332 -139.834 -63.999 -185.501s-98 -68.5 -166 -68.5s-123.333 23.167 -166 69.5s-64 109.5 -64 189.5c0 79.333 21.167 142.333 63.5 189s97.166 70 164.499 70c72 0 128.667 -24.667 170 -74s62 -112.666 62 -189.999zM398.001 237.999
c0 146 -44.667 218.999 -134 218.999c-47.333 0 -80.833 -16.833 -100.5 -50.5s-29.5 -83.5 -29.5 -149.5c0 -76.667 10.333 -132.5 31 -167.5s55 -52.5 103 -52.5c42.667 0 75 17.333 97 52s33 84.334 33 149.001zM170.001 565.998l-20 34l179 153l53 -91z" />
    <glyph glyph-name="ocircumflex" unicode="&#xf4;" horiz-adv-x="532" 
d="M496 242c0 -78 -21.332 -139.834 -63.999 -185.501s-98 -68.5 -166 -68.5s-123.333 23.167 -166 69.5s-64 109.5 -64 189.5c0 79.333 21.167 142.333 63.5 189s97.166 70 164.499 70c72 0 128.667 -24.667 170 -74s62 -112.666 62 -189.999zM398.001 237.999
c0 146 -44.667 218.999 -134 218.999c-47.333 0 -80.833 -16.833 -100.5 -50.5s-29.5 -83.5 -29.5 -149.5c0 -76.667 10.333 -132.5 31 -167.5s55 -52.5 103 -52.5c42.667 0 75 17.333 97 52s33 84.334 33 149.001zM402.001 563.998l-137 85l-137 -85l-25 30l162 153
l162 -153z" />
    <glyph glyph-name="otilde" unicode="&#xf5;" horiz-adv-x="532" 
d="M496 242c0 -78 -21.332 -139.834 -63.999 -185.501s-98 -68.5 -166 -68.5s-123.333 23.167 -166 69.5s-64 109.5 -64 189.5c0 79.333 21.167 142.333 63.5 189s97.166 70 164.499 70c72 0 128.667 -24.667 170 -74s62 -112.666 62 -189.999zM398.001 237.999
c0 146 -44.667 218.999 -134 218.999c-47.333 0 -80.833 -16.833 -100.5 -50.5s-29.5 -83.5 -29.5 -149.5c0 -76.667 10.333 -132.5 31 -167.5s55 -52.5 103 -52.5c42.667 0 75 17.333 97 52s33 84.334 33 149.001zM329.001 668.998c28.667 0 50.668 14 66.001 42l35 -15
c-8.66699 -28.667 -21.5 -52.667 -38.5 -72s-37.833 -29 -62.5 -29c-19.333 0 -42.166 4.83301 -68.499 14.5s-44.833 14.5 -55.5 14.5c-26.667 0 -48 -14.667 -64 -44l-33 14c6.66699 30.667 18.167 56 34.5 76s37.166 30 62.499 30c19.333 0 41.666 -5.16699 66.999 -15.5
s44.333 -15.5 57 -15.5z" />
    <glyph glyph-name="odieresis" unicode="&#xf6;" horiz-adv-x="532" 
d="M496 242c0 -78 -21.332 -139.834 -63.999 -185.501s-98 -68.5 -166 -68.5s-123.333 23.167 -166 69.5s-64 109.5 -64 189.5c0 79.333 21.167 142.333 63.5 189s97.166 70 164.499 70c72 0 128.667 -24.667 170 -74s62 -112.666 62 -189.999zM398.001 237.999
c0 146 -44.667 218.999 -134 218.999c-47.333 0 -80.833 -16.833 -100.5 -50.5s-29.5 -83.5 -29.5 -149.5c0 -76.667 10.333 -132.5 31 -167.5s55 -52.5 103 -52.5c42.667 0 75 17.333 97 52s33 84.334 33 149.001zM222.001 637.998c0 -17.333 -5.66699 -31.666 -17 -42.999
s-25.666 -17 -42.999 -17s-31.666 5.66699 -42.999 17s-17 25.666 -17 42.999s5.66699 31.666 17 42.999s25.666 17 42.999 17s31.666 -5.66699 42.999 -17s17 -25.666 17 -42.999zM431.001 637.998c0 -17.333 -5.83301 -31.666 -17.5 -42.999s-25.834 -17 -42.501 -17
s-30.834 5.66699 -42.501 17s-17.5 25.666 -17.5 42.999s5.83301 31.666 17.5 42.999s25.834 17 42.501 17s30.834 -5.66699 42.501 -17s17.5 -25.666 17.5 -42.999z" />
    <glyph glyph-name="divide" unicode="&#xf7;" horiz-adv-x="615" 
d="M372 482c0 -18.667 -6.33301 -34.5 -19 -47.5s-27.667 -19.5 -45 -19.5c-18 0 -33.167 6.16699 -45.5 18.5s-18.5 27.833 -18.5 46.5c0 18 6.16699 33.5 18.5 46.5s27.5 19.5 45.5 19.5c17.333 0 32.333 -6.33301 45 -19s19 -27.667 19 -45zM55 245v53h505v-53h-505z
M372 56c0 -18.667 -6.33301 -34.5 -19 -47.5s-27.667 -19.5 -45 -19.5c-18 0 -33.167 6.16699 -45.5 18.5s-18.5 27.833 -18.5 46.5c0 18 6.16699 33.5 18.5 46.5s27.5 19.5 45.5 19.5c17.333 0 32.333 -6.33301 45 -19s19 -27.667 19 -45z" />
    <glyph glyph-name="oslash" unicode="&#xf8;" horiz-adv-x="532" 
d="M468 539l-52.999 -88c54 -48 81 -117.667 81 -209c0 -78 -21.333 -139.833 -64 -185.5s-98 -68.5 -166 -68.5c-41.333 0 -79.333 9 -114 27l-52 -87l-37 22l54 90c-54 46.667 -81 115.667 -81 207c0 79.333 21.167 142.333 63.5 189s97.166 70 164.499 70
c42.667 0 80.667 -9.33301 114 -28l50 84zM134.001 257c0 -67.333 7.33301 -117.667 22 -151l191 320c-21.333 20.667 -49 31 -83 31c-47.333 0 -80.833 -16.833 -100.5 -50.5s-29.5 -83.5 -29.5 -149.5zM398.001 237.999c0 62.667 -7.99902 111.332 -23.999 145.999
l-191 -318c19.333 -19.333 47.666 -29 84.999 -29c42.667 0 75 17.333 97 52s33 84.334 33 149.001z" />
    <glyph glyph-name="ugrave" unicode="&#xf9;" horiz-adv-x="580" 
d="M481 504l0.000976562 -366c0 -35.333 4.66699 -58 14 -68s29 -15.667 59 -17v-30l-121 -36h-15c-12 29.333 -19.333 59 -22 89c-26.667 -28.667 -52.5 -50.5 -77.5 -65.5s-54.833 -22.5 -89.5 -22.5c-42 0 -75.5 11.167 -100.5 33.5s-37.5 55.5 -37.5 99.5v228
c0 35.333 -4.5 58 -13.5 68s-27.833 15.667 -56.5 17v30l139 40h22v-366c0 -30 6.16699 -51 18.5 -63s31.166 -18 56.499 -18c28 0 51.5 5.16699 70.5 15.5s39.833 26.5 62.5 48.5v228c0 35.333 -4.5 58 -13.5 68s-27.833 15.667 -56.5 17v30l139 40h22zM390.001 600
l-20 -34l-212 96l53 91z" />
    <glyph glyph-name="uacute" unicode="&#xfa;" horiz-adv-x="580" 
d="M481 504l0.000976562 -366c0 -35.333 4.66699 -58 14 -68s29 -15.667 59 -17v-30l-121 -36h-15c-12 29.333 -19.333 59 -22 89c-26.667 -28.667 -52.5 -50.5 -77.5 -65.5s-54.833 -22.5 -89.5 -22.5c-42 0 -75.5 11.167 -100.5 33.5s-37.5 55.5 -37.5 99.5v228
c0 35.333 -4.5 58 -13.5 68s-27.833 15.667 -56.5 17v30l139 40h22v-366c0 -30 6.16699 -51 18.5 -63s31.166 -18 56.499 -18c28 0 51.5 5.16699 70.5 15.5s39.833 26.5 62.5 48.5v228c0 35.333 -4.5 58 -13.5 68s-27.833 15.667 -56.5 17v30l139 40h22zM191.001 566l-20 34
l179 153l53 -91z" />
    <glyph glyph-name="ucircumflex" unicode="&#xfb;" horiz-adv-x="580" 
d="M481 504l0.000976562 -366c0 -35.333 4.66699 -58 14 -68s29 -15.667 59 -17v-30l-121 -36h-15c-12 29.333 -19.333 59 -22 89c-26.667 -28.667 -52.5 -50.5 -77.5 -65.5s-54.833 -22.5 -89.5 -22.5c-42 0 -75.5 11.167 -100.5 33.5s-37.5 55.5 -37.5 99.5v228
c0 35.333 -4.5 58 -13.5 68s-27.833 15.667 -56.5 17v30l139 40h22v-366c0 -30 6.16699 -51 18.5 -63s31.166 -18 56.499 -18c28 0 51.5 5.16699 70.5 15.5s39.833 26.5 62.5 48.5v228c0 35.333 -4.5 58 -13.5 68s-27.833 15.667 -56.5 17v30l139 40h22zM423.001 564
l-137 85l-137 -85l-25 30l162 153l162 -153z" />
    <glyph glyph-name="udieresis" unicode="&#xfc;" horiz-adv-x="580" 
d="M481 504l0.000976562 -366c0 -35.333 4.66699 -58 14 -68s29 -15.667 59 -17v-30l-121 -36h-15c-12 29.333 -19.333 59 -22 89c-26.667 -28.667 -52.5 -50.5 -77.5 -65.5s-54.833 -22.5 -89.5 -22.5c-42 0 -75.5 11.167 -100.5 33.5s-37.5 55.5 -37.5 99.5v228
c0 35.333 -4.5 58 -13.5 68s-27.833 15.667 -56.5 17v30l139 40h22v-366c0 -30 6.16699 -51 18.5 -63s31.166 -18 56.499 -18c28 0 51.5 5.16699 70.5 15.5s39.833 26.5 62.5 48.5v228c0 35.333 -4.5 58 -13.5 68s-27.833 15.667 -56.5 17v30l139 40h22zM243.001 638
c0 -17.333 -5.83301 -31.666 -17.5 -42.999s-25.834 -17 -42.501 -17s-30.834 5.66699 -42.501 17s-17.5 25.666 -17.5 42.999s5.83301 31.666 17.5 42.999s25.834 17 42.501 17s30.834 -5.66699 42.501 -17s17.5 -25.666 17.5 -42.999zM452.001 638
c0 -17.333 -5.66699 -31.666 -17 -42.999s-25.666 -17 -42.999 -17s-31.666 5.66699 -42.999 17s-17 25.666 -17 42.999s5.66699 31.666 17 42.999s25.666 17 42.999 17s31.666 -5.66699 42.999 -17s17 -25.666 17 -42.999z" />
    <glyph glyph-name="yacute" unicode="&#xfd;" horiz-adv-x="505" 
d="M105 -213l-24 69.002c44 11.333 78 26.333 102 45s43 52.334 57 101.001l-36 -5c-14.667 59.333 -32 116.666 -52 171.999l-80 218c-9.33301 25.333 -19 42.666 -29 51.999s-24.667 15.333 -44 18v34h222v-34c-24 -0.666992 -40.667 -3.5 -50 -8.5s-14 -12.5 -14 -22.5
c0 -4.66699 2.33301 -14 7 -28l72 -202c15.333 -43.333 27 -87.333 35 -132h3c6.66699 34.667 16.334 71.667 29.001 111l72 223c2.66699 8.66699 4.66699 16.334 6 23.001c1.33301 12.667 -2.33398 21.667 -11.001 27s-26 8.33301 -52 9v34h188v-34
c-20.667 -2.66699 -35.667 -8.33398 -45 -17.001s-18.666 -26.334 -27.999 -53.001l-140 -403c-21.333 -62 -45.833 -107.833 -73.5 -137.5s-65.834 -49.5 -114.501 -59.5zM175 566.002l-20 34l179 153l53 -91z" />
    <glyph glyph-name="thorn" unicode="&#xfe;" horiz-adv-x="556" 
d="M422 236c0 76 -8.66797 128.833 -26.001 158.5s-46.666 44.5 -87.999 44.5c-48 0 -91.333 -21.333 -130 -64v-271c15.333 -18.667 33.833 -33.334 55.5 -44.001s42.167 -16 61.5 -16c44 0 76.167 13.833 96.5 41.5s30.5 77.834 30.5 150.501zM6.99902 701l144.002 29h15
c8 -22.667 12 -55.667 12 -99v-206c40 52 90.667 78 152 78c56 0 101.667 -20.833 137 -62.5s53 -103.5 53 -185.5c0 -79.333 -17.833 -142.5 -53.5 -189.5s-85.834 -70.5 -150.501 -70.5c-56 0 -102 19 -138 57v-145c0 -27.333 4.66699 -45.333 14 -54
s30.666 -13.667 63.999 -15v-34h-239v34c29.333 2 48.333 7.16699 57 15.5s13 26.5 13 54.5v676c0 35.333 -5.16699 58 -15.5 68s-31.833 15.667 -64.5 17v32z" />
    <glyph glyph-name="ydieresis" unicode="&#xff;" horiz-adv-x="505" 
d="M105 -213l-24 69.002c44 11.333 78 26.333 102 45s43 52.334 57 101.001l-36 -5c-14.667 59.333 -32 116.666 -52 171.999l-80 218c-9.33301 25.333 -19 42.666 -29 51.999s-24.667 15.333 -44 18v34h222v-34c-24 -0.666992 -40.667 -3.5 -50 -8.5s-14 -12.5 -14 -22.5
c0 -4.66699 2.33301 -14 7 -28l72 -202c15.333 -43.333 27 -87.333 35 -132h3c6.66699 34.667 16.334 71.667 29.001 111l72 223c2.66699 8.66699 4.66699 16.334 6 23.001c1.33301 12.667 -2.33398 21.667 -11.001 27s-26 8.33301 -52 9v34h188v-34
c-20.667 -2.66699 -35.667 -8.33398 -45 -17.001s-18.666 -26.334 -27.999 -53.001l-140 -403c-21.333 -62 -45.833 -107.833 -73.5 -137.5s-65.834 -49.5 -114.501 -59.5zM226 638.002c0 -17.333 -5.66699 -31.666 -17 -42.999s-25.666 -17 -42.999 -17
s-31.666 5.66699 -42.999 17s-17 25.666 -17 42.999s5.66699 31.666 17 42.999s25.666 17 42.999 17s31.666 -5.66699 42.999 -17s17 -25.666 17 -42.999zM435 638.002c0 -17.333 -5.83301 -31.666 -17.5 -42.999s-25.834 -17 -42.501 -17s-30.834 5.66699 -42.501 17
s-17.5 25.666 -17.5 42.999s5.83301 31.666 17.5 42.999s25.834 17 42.501 17s30.834 -5.66699 42.501 -17s17.5 -25.666 17.5 -42.999z" />
    <glyph glyph-name="dotlessi" unicode="&#x131;" horiz-adv-x="286" 
d="M260 0l-231 -0.000976562v34c29.333 2 48.333 7.16699 57 15.5s13 26.5 13 54.5v245c0 35.333 -4.66699 58 -14 68s-29 15.667 -59 17v30l149 40h15v-400c0 -28.667 3.83301 -47.167 11.5 -55.5s27.167 -13.166 58.5 -14.499v-34z" />
    <glyph glyph-name="IJ" unicode="&#x132;" horiz-adv-x="668" 
d="M117 111v467c0 29.333 -5.16699 49.166 -15.5 59.499s-31.833 15.833 -64.5 16.5v35h255v-35c-32.667 -0.666992 -54.167 -6.16699 -64.5 -16.5s-15.5 -30.166 -15.5 -59.499v-467c0 -29.333 5.16699 -49.166 15.5 -59.499s31.833 -15.833 64.5 -16.5v-35h-255v35
c32.667 0.666992 54.167 6.16699 64.5 16.5s15.5 30.166 15.5 59.499zM451 100l-0.000976562 478.002c0 29.333 -5.5 49.166 -16.5 59.499s-33.833 15.833 -68.5 16.5v35h265v-35c-34.667 -0.666992 -57.5 -6.16699 -68.5 -16.5s-16.5 -30.166 -16.5 -59.499v-471
c0 -77.333 -13.167 -133.333 -39.5 -168s-76.166 -63.334 -149.499 -86.001l-24 37c51.333 26 83.833 52.667 97.5 80s20.5 70.666 20.5 129.999z" />
    <glyph glyph-name="ij" unicode="&#x133;" horiz-adv-x="525" 
d="M260 0l-231 -0.000976562v34c29.333 2 48.333 7.16699 57 15.5s13 26.5 13 54.5v245c0 35.333 -4.66699 58 -14 68s-29 15.667 -59 17v30l149 40h15v-400c0 -28.667 3.83301 -47.167 11.5 -55.5s27.167 -13.166 58.5 -14.499v-34zM200 643.999
c0 -17.333 -6 -32.166 -18 -44.499s-26.667 -18.5 -44 -18.5s-32 6.16699 -44 18.5s-18 27.166 -18 44.499s6 32.166 18 44.499s26.667 18.5 44 18.5s32 -6.16699 44 -18.5s18 -27.166 18 -44.499zM355 11.999v337c0 35.333 -4.66699 58 -14 68s-29 15.667 -59 17v30l149 40
h15v-493c0 -36 -3 -66 -9 -90s-16.5 -44 -31.5 -60s-29 -28 -42 -36s-32.833 -18.333 -59.5 -31l-29 40c30 14 50.833 34.167 62.5 60.5s17.5 65.5 17.5 117.5zM456 643.999c0 -17.333 -6 -32.166 -18 -44.499s-26.667 -18.5 -44 -18.5s-32 6.16699 -44 18.5
s-18 27.166 -18 44.499s6 32.166 18 44.499s26.667 18.5 44 18.5s32 -6.16699 44 -18.5s18 -27.166 18 -44.499z" />
    <glyph glyph-name="Lslash" unicode="&#x141;" horiz-adv-x="544" 
d="M212 576v-204.998l194 70v-50l-194 -69v-273h144c36 0 61.833 8.5 77.5 25.5s28.5 48.5 38.5 94.5h44l-15 -169h-464v35c32.667 0.666992 54.167 6.16699 64.5 16.5s15.5 30.166 15.5 59.499v177l-78 -28v49l78 28v241c0 29.333 -5.16699 49.166 -15.5 59.499
s-31.833 15.833 -64.5 16.5v35h260v-35c-34.667 -0.666992 -57.5 -6.5 -68.5 -17.5s-16.5 -31.167 -16.5 -60.5z" />
    <glyph glyph-name="lslash" unicode="&#x142;" horiz-adv-x="294" 
d="M21 339l82 39v206c0 35.333 -5.16699 58 -15.5 68s-31.833 15.667 -64.5 17v32l144 29h15c8 -22.667 12 -55.667 12 -99v-210l83 40v-49l-83 -39v-266c0 -30 4.33301 -49.333 13 -58s29 -13.667 61 -15v-34h-239v34c31.333 2 51.5 7.16699 60.5 15.5s13.5 26.5 13.5 54.5
v226l-82 -39v48z" />
    <glyph glyph-name="OE" unicode="&#x152;" horiz-adv-x="926" 
d="M398 51h67v591h-69c-165.333 0 -248 -103.333 -248 -310c0 -105.333 21.333 -178.5 64 -219.5s104.667 -61.5 186 -61.5zM408 689l459.999 -0.000976562l10 -150h-42c-11.333 40 -23.166 66.833 -35.499 80.5s-32.5 20.5 -60.5 20.5h-167v-256h93
c31.333 0 53 4.83301 65 14.5s19 28.5 21 56.5h41v-190h-41c-2 27.333 -9 46 -21 56s-33.333 15 -64 15h-94v-287h168c38 0 63.833 7.66699 77.5 23s22.5 46.333 26.5 93h45v-165h-482c-119.333 0 -209.833 31.333 -271.5 94s-92.5 146 -92.5 250
c0 114.667 33.667 200.834 101 258.501s155 86.5 263 86.5z" />
    <glyph glyph-name="oe" unicode="&#x153;" horiz-adv-x="847" 
d="M653 49c46 0 90.334 13.999 133.001 41.999l21 -34c-58.667 -45.333 -118 -68 -178 -68c-40 0 -76.167 8.33301 -108.5 25s-56.833 39.667 -73.5 69c-20 -30 -45.667 -53.333 -77 -70s-66 -25 -104 -25c-68 0 -123.333 23.167 -166 69.5s-64 109.5 -64 189.5
c0 79.333 21.167 142.333 63.5 189s97.166 70 164.499 70c39.333 0 75 -8.5 107 -25.5s56.667 -40.167 74 -69.5c16.667 30.667 40.167 54.334 70.5 71.001s63.5 25 99.5 25c63.333 0 112.5 -20.833 147.5 -62.5s52.5 -100.5 52.5 -176.5v-27h-319
c0 -70 12.667 -119.5 38 -148.5s65 -43.5 119 -43.5zM398.001 237.999c0 146 -44.667 218.999 -134 218.999c-47.333 0 -80.833 -16.833 -100.5 -50.5s-29.5 -83.5 -29.5 -149.5c0 -76.667 10.333 -132.5 31 -167.5s55 -52.5 103 -52.5c42.667 0 75 17.333 97 52
s33 84.334 33 149.001zM613.001 458.998c-36 0 -63.5 -12.833 -82.5 -38.5s-30.167 -69.167 -33.5 -130.5h223c0 60.667 -8.33301 104 -25 130s-44 39 -82 39z" />
    <glyph glyph-name="Scaron" unicode="&#x160;" horiz-adv-x="538" 
d="M245 -11c-79.333 0 -147.666 18.334 -204.999 55.001v124h69c6.66699 -46.667 20.5 -80.334 41.5 -101.001s57.167 -31 108.5 -31c98 0 147 43.333 147 130c0 40.667 -9.33301 70.167 -28 88.5s-52.334 34.833 -101.001 49.5l-69 21c-52 16 -90.833 38.333 -116.5 67
s-38.5 66.667 -38.5 114c0 58 20 105 60 141s94.333 54 163 54c80 0 143 -17 189 -51v-107h-65c-6.66699 36.667 -20 64.334 -40 83.001s-52.333 28 -97 28c-39.333 0 -70.5 -10.333 -93.5 -31s-34.5 -49.334 -34.5 -86.001c0 -35.333 8.83301 -61.333 26.5 -78
s49.167 -32 94.5 -46l70 -21c111.333 -33.333 167 -97 167 -191c0 -66.667 -21.5 -118.667 -64.5 -156s-104.167 -56 -183.5 -56zM280 826.001l137 81l25 -30l-162 -149l-162 149l25 30z" />
    <glyph glyph-name="scaron" unicode="&#x161;" horiz-adv-x="431" 
d="M202 -12c-65.333 0 -120.331 14.001 -164.998 42.001v97h67c3.33301 -34 13.166 -58 29.499 -72s42.166 -21 77.499 -21c68.667 0 103 29 103 87c0 26 -6.66699 45.167 -20 57.5s-35.333 22.166 -66 29.499l-59 14c-84.667 20 -127 66.333 -127 139
c0 45.333 16.667 80.666 50 105.999s75 38 125 38c53.333 0 103.333 -11.667 150 -35v-90h-64c-10 52.667 -41.333 79 -94 79c-29.333 0 -52 -6.83301 -68 -20.5s-24 -32.5 -24 -56.5c0 -21.333 5.83301 -38.166 17.5 -50.499s32.5 -21.833 62.5 -28.5l59 -14
c47.333 -11.333 82 -27.833 104 -49.5s33 -50.5 33 -86.5c0 -50 -17.167 -90 -51.5 -120s-80.833 -45 -139.5 -45zM214.002 645.001l137 85l25 -30l-162 -153l-162 153l25 30z" />
    <glyph glyph-name="Ydieresis" unicode="&#x178;" horiz-adv-x="594" 
d="M319 345h3.99902l108 234c8 18 12 32.333 12 43c0 19.333 -19.667 30 -59 32v35h199v-35c-20.667 -2.66699 -37.5 -9.83398 -50.5 -21.501s-28.5 -35.5 -46.5 -71.5l-137 -279v-171c0 -29.333 5.5 -49.166 16.5 -59.499s33.833 -15.833 68.5 -16.5v-35h-265v35
c34.667 0.666992 57.5 6.16699 68.5 16.5s16.5 30.166 16.5 59.499v165l-149 296c-15.333 30.667 -29.666 51.334 -42.999 62.001s-30.333 17.334 -51 20.001v35h238v-35c-35.333 -0.666992 -53 -10.667 -53 -30c0 -10.667 4.66699 -26.334 14 -47.001zM266.999 787
c0 -16.667 -5.83301 -30.834 -17.5 -42.501s-25.834 -17.5 -42.501 -17.5s-30.834 5.83301 -42.501 17.5s-17.5 25.834 -17.5 42.501s5.83301 30.834 17.5 42.501s25.834 17.5 42.501 17.5s30.834 -5.83301 42.501 -17.5s17.5 -25.834 17.5 -42.501zM475.999 787
c0 -16.667 -5.66699 -30.834 -17 -42.501s-25.666 -17.5 -42.999 -17.5s-31.666 5.83301 -42.999 17.5s-17 25.834 -17 42.501s5.66699 30.834 17 42.501s25.666 17.5 42.999 17.5s31.666 -5.83301 42.999 -17.5s17 -25.834 17 -42.501z" />
    <glyph glyph-name="Zcaron" unicode="&#x17d;" horiz-adv-x="519" 
d="M497 633l-373.999 -584h197c38 0 66 9 84 27s32 50 42 96h44l-15 -172h-451v56l374 584h-186c-32.667 0 -57.834 -8.83301 -75.501 -26.5s-31.5 -46.5 -41.5 -86.5h-44l14 162h432v-56zM280.001 826l137 81l25 -30l-162 -149l-162 149l25 30z" />
    <glyph glyph-name="zcaron" unicode="&#x17e;" horiz-adv-x="455" 
d="M432 153l-24.001 -153h-368v49l281 393h-122c-33.333 0 -56 -6 -68 -18s-20.667 -37 -26 -75h-43v142h358v-53l-278 -389h111c44.667 0 74.334 6.16699 89.001 18.5s29.667 40.833 45 85.5h45zM246.999 645l137 85l25 -30l-162 -153l-162 153l25 30z" />
    <glyph glyph-name="longs" unicode="&#x17f;" horiz-adv-x="316" 
d="M190 586l-0.00195312 -482c0 -27.333 5.33301 -45.5 16 -54.5s35 -14.167 73 -15.5v-34h-250v34c29.333 2 48.333 7.16699 57 15.5s13 26.5 13 54.5v332h-63v32l63 23v94c0 45.333 14.5 80.833 43.5 106.5s67.5 38.5 115.5 38.5c36.667 0 69.334 -6 98.001 -18v-83h-61
c-5.33301 34.667 -20.666 52 -45.999 52c-39.333 0 -59 -31.667 -59 -95z" />
    <glyph glyph-name="florin" unicode="&#x192;" horiz-adv-x="326" 
d="M37 383l3.00293 34l73 13l7 111c3.33301 52 19.666 91.667 48.999 119s68.333 41 117 41c39.333 0 72.666 -6 99.999 -18l-7 -83h-64c-4.66699 38.667 -18.334 58 -41.001 58c-40.667 0 -63 -29.333 -67 -88l-11 -143h116v-44h-120l-32 -427
c-3.33301 -46 -18.333 -83.333 -45 -112s-62.334 -43 -107.001 -43l-7 26c26 8 44.833 21 56.5 39s18.834 46.333 21.501 85l30 432h-72z" />
    <glyph glyph-name="uni02BB" unicode="&#x2bb;" horiz-adv-x="267" 
d="M59 537c0 39.333 12 74.166 36 104.499s56.667 51.5 98 63.5l21 -29c-54 -20.667 -81 -47.334 -81 -80.001c0 -8 2.33301 -14 7 -18s14 -8.66699 28 -14c27.333 -10 41 -29 41 -57c0 -19.333 -6.83301 -35.666 -20.5 -48.999s-30.5 -20 -50.5 -20
c-23.333 0 -42.333 9.33301 -57 28s-22 42.334 -22 71.001z" />
    <glyph glyph-name="afii57929" unicode="&#x2bc;" horiz-adv-x="267" 
d="M208 605c0 -39.333 -11.999 -74.166 -35.999 -104.499s-56.667 -51.5 -98 -63.5l-21 29c54 20.667 81 47.334 81 80.001c0 8 -2.33301 14 -7 18s-12.334 8 -23.001 12c-30.667 11.333 -46 31 -46 59c0 19.333 6.83301 35.666 20.5 48.999s30.5 20 50.5 20
c23.333 0 42.333 -9.33301 57 -28s22 -42.334 22 -71.001z" />
    <glyph glyph-name="circumflex" unicode="&#x2c6;" horiz-adv-x="484" 
d="M379 564l-137 85l-137 -85l-25 30l162 153l162 -153z" />
    <glyph glyph-name="caron" unicode="&#x2c7;" horiz-adv-x="484" 
d="M242 645l137 85l25 -30l-162 -153l-162 153l25 30z" />
    <glyph glyph-name="breve" unicode="&#x2d8;" horiz-adv-x="461" 
d="M232 567c-33.333 0 -64 13.833 -92 41.5s-48 58.834 -60 93.501l31 22c35.333 -52.667 75 -79 119 -79c43.333 0 83 26.333 119 79l32 -22c-12 -34.667 -31.667 -65.834 -59 -93.501s-57.333 -41.5 -90 -41.5z" />
    <glyph glyph-name="dotaccent" unicode="&#x2d9;" horiz-adv-x="284" 
d="M204 644c0 -17.333 -6 -32.166 -18 -44.499s-26.667 -18.5 -44 -18.5s-32 6.16699 -44 18.5s-18 27.166 -18 44.499s6 32.166 18 44.499s26.667 18.5 44 18.5s32 -6.16699 44 -18.5s18 -27.166 18 -44.499z" />
    <glyph glyph-name="ring" unicode="&#x2da;" horiz-adv-x="363" 
d="M181 560c-29.333 0 -53.5 9.66699 -72.5 29s-28.5 43.666 -28.5 72.999s9.5 53.666 28.5 72.999s43.167 29 72.5 29c30 0 54.5 -9.66699 73.5 -29s28.5 -43.666 28.5 -72.999s-9.5 -53.666 -28.5 -72.999s-43.5 -29 -73.5 -29zM181 729c-18 0 -32.667 -6.5 -44 -19.5
s-17 -29.167 -17 -48.5c0 -18.667 5.66699 -34.167 17 -46.5s26 -18.5 44 -18.5c18.667 0 33.667 6.16699 45 18.5s17 27.833 17 46.5c0 19.333 -5.66699 35.5 -17 48.5s-26.333 19.5 -45 19.5z" />
    <glyph glyph-name="ogonek" unicode="&#x2db;" horiz-adv-x="288" 
d="M224 -144l16 -24c-26 -24.667 -57.667 -37 -95 -37c-30.667 0 -54.667 7.83301 -72 23.5s-26 36.5 -26 62.5c0 57.333 42.333 103.333 127 138l21 -16c-45.333 -26 -68 -62 -68 -108c0 -15.333 4 -27.833 12 -37.5s18.667 -14.5 32 -14.5c18 0 35.667 4.33301 53 13z" />
    <glyph glyph-name="tilde" unicode="&#x2dc;" horiz-adv-x="482" 
d="M301 669c28.667 0 50.668 14 66.001 42l35 -15c-8.66699 -28.667 -21.5 -52.667 -38.5 -72s-37.833 -29 -62.5 -29c-19.333 0 -42.166 4.83301 -68.499 14.5s-44.833 14.5 -55.5 14.5c-26.667 0 -48 -14.667 -64 -44l-33 14c6.66699 30.667 18.167 56 34.5 76
s37.166 30 62.499 30c19.333 0 41.666 -5.16699 66.999 -15.5s44.333 -15.5 57 -15.5z" />
    <glyph glyph-name="hungarumlaut" unicode="&#x2dd;" horiz-adv-x="499" 
d="M235 770l-113 -207l-42 18l70 225zM419 740l-145 -183l-37 26l104 208z" />
    <glyph glyph-name="gravecomb" unicode="&#x300;" 
d="M-163 600l-20 -34l-212 96l53 91z" />
    <glyph glyph-name="acutecomb" unicode="&#x301;" 
d="M-361 566l-20 34l179 153l53 -91z" />
    <glyph glyph-name="uni0302" unicode="&#x302;" 
d="M-129 564l-137 85l-137 -85l-25 30l162 153l162 -153z" />
    <glyph glyph-name="tildecomb" unicode="&#x303;" 
d="M-202 669c28.667 0 50.668 14 66.001 42l35 -15c-8.66699 -28.667 -21.5 -52.667 -38.5 -72s-37.833 -29 -62.5 -29c-19.333 0 -42.166 4.83301 -68.499 14.5s-44.833 14.5 -55.5 14.5c-26.667 0 -48 -14.667 -64 -44l-33 14c6.66699 30.667 18.167 56 34.5 76
s37.166 30 62.499 30c19.333 0 41.666 -5.16699 66.999 -15.5s44.333 -15.5 57 -15.5z" />
    <glyph glyph-name="uni0304" unicode="&#x304;" 
d="M-79 616h-281v57h281v-57z" />
    <glyph glyph-name="uni0306" unicode="&#x306;" 
d="M-228 547c-33.333 0 -64 13.833 -92 41.5s-48 58.834 -60 93.501l31 22c35.333 -52.667 75 -79 119 -79c43.333 0 83 26.333 119 79l32 -22c-12 -34.667 -31.667 -65.834 -59 -93.501s-57.333 -41.5 -90 -41.5z" />
    <glyph glyph-name="uni0307" unicode="&#x307;" 
d="M-85 644c0 -17.333 -6 -32.166 -18 -44.499s-26.667 -18.5 -44 -18.5s-32 6.16699 -44 18.5s-18 27.166 -18 44.499s6 32.166 18 44.499s26.667 18.5 44 18.5s32 -6.16699 44 -18.5s18 -27.166 18 -44.499z" />
    <glyph glyph-name="uni0308" unicode="&#x308;" 
d="M-288 638c0 -17.333 -5.66699 -31.666 -17 -42.999s-25.666 -17 -42.999 -17s-31.666 5.66699 -42.999 17s-17 25.666 -17 42.999s5.66699 31.666 17 42.999s25.666 17 42.999 17s31.666 -5.66699 42.999 -17s17 -25.666 17 -42.999zM-79 638
c0 -17.333 -5.83301 -31.666 -17.5 -42.999s-25.834 -17 -42.501 -17s-30.834 5.66699 -42.501 17s-17.5 25.666 -17.5 42.999s5.83301 31.666 17.5 42.999s25.834 17 42.501 17s30.834 -5.66699 42.501 -17s17.5 -25.666 17.5 -42.999z" />
    <glyph glyph-name="uni030A" unicode="&#x30a;" 
d="M-181 560c-29.333 0 -53.5 9.66699 -72.5 29s-28.5 43.666 -28.5 72.999s9.5 53.666 28.5 72.999s43.167 29 72.5 29c30 0 54.5 -9.66699 73.5 -29s28.5 -43.666 28.5 -72.999s-9.5 -53.666 -28.5 -72.999s-43.5 -29 -73.5 -29zM-181 729c-18 0 -32.667 -6.5 -44 -19.5
s-17 -29.167 -17 -48.5c0 -18.667 5.66699 -34.167 17 -46.5s26 -18.5 44 -18.5c18.667 0 33.667 6.16699 45 18.5s17 27.833 17 46.5c0 19.333 -5.66699 35.5 -17 48.5s-26.333 19.5 -45 19.5z" />
    <glyph glyph-name="uni030B" unicode="&#x30b;" 
d="M-263 779l-113 -207l-42 18l70 225zM-79 749l-145 -183l-37 26l104 208z" />
    <glyph glyph-name="uni030C" unicode="&#x30c;" 
d="M-207 645l137 85l25 -30l-162 -153l-162 153l25 30z" />
    <glyph glyph-name="uni0312" unicode="&#x312;" 
d="M-232 645c0 32 11.001 60.501 33.001 85.501s53.333 41.5 94 49.5l19 -27c-25.333 -8 -42.833 -16.5 -52.5 -25.5s-14.5 -19.833 -14.5 -32.5c0 -10.667 9 -19.334 27 -26.001c20.667 -8.66699 31 -24.667 31 -48c0 -15.333 -6 -28.333 -18 -39s-27.667 -16 -47 -16
c-22.667 0 -40.334 7.16699 -53.001 21.5s-19 33.5 -19 57.5z" />
    <glyph glyph-name="uni0313" unicode="&#x313;" 
d="M-88 715l-62 -188l-44 11l15 192z" />
    <glyph glyph-name="dotbelowcomb" unicode="&#x323;" 
d="M200 -116c0 -17.333 -6 -32.166 -18 -44.499s-26.667 -18.5 -44 -18.5s-32 6.16699 -44 18.5s-18 27.166 -18 44.499s6 32.166 18 44.499s26.667 18.5 44 18.5s32 -6.16699 44 -18.5s18 -27.166 18 -44.499z" />
    <glyph glyph-name="uni0326" unicode="&#x326;" 
d="M218 -141c0 -32 -11.001 -60.501 -33.001 -85.501s-53.333 -41.5 -94 -49.5l-19 27c25.333 8 42.833 16.5 52.5 25.5s14.5 19.833 14.5 32.5c0 10.667 -9 19.334 -27 26.001c-20.667 8.66699 -31 24.667 -31 48c0 15.333 6 28.333 18 39s27.667 16 47 16
c22.667 0 40.334 -7.16699 53.001 -21.5s19 -33.5 19 -57.5z" />
    <glyph glyph-name="uni0327" unicode="&#x327;" 
d="M-54 -113c0 -56.667 -33.001 -85 -99.001 -85c-29.333 0 -56.333 8.33301 -81 25l16 32c18.667 -12 39.334 -18 62.001 -18c26.667 0 40 12 40 36c0 20.667 -23.333 31.667 -70 33v21l23 80l37 -6l-13 -44c29.333 -2 50.833 -9.83301 64.5 -23.5s20.5 -30.5 20.5 -50.5z
" />
    <glyph glyph-name="uni0328" unicode="&#x328;" 
d="M-63 -137l16 -24c-26 -24.667 -57.667 -37 -95 -37c-30.667 0 -54.667 7.83301 -72 23.5s-26 36.5 -26 62.5c0 57.333 42.333 103.333 127 138l21 -16c-45.333 -26 -68 -62 -68 -108c0 -15.333 4 -27.833 12 -37.5s18.667 -14.5 32 -14.5c18 0 35.667 4.33301 53 13z" />
    <glyph glyph-name="uni0335" unicode="&#x335;" 
d="M-79 217h-281v57h281v-57z" />
    <glyph glyph-name="uni0336" unicode="&#x336;" 
d="M-54 220h-705v51h705v-51z" />
    <glyph glyph-name="uni037E" unicode="&#x37e;" horiz-adv-x="327" 
d="M238 31c0 -39.333 -13.165 -75.167 -39.498 -107.5s-60.833 -54.5 -103.5 -66.5l-20 31c28 10.667 49.667 23.5 65 38.5s23 29.833 23 44.5c0 10.667 -7.33301 19.334 -22 26.001c15.333 -6.66699 10.666 -4.33398 -14.001 6.99902c-28 12.667 -42 32 -42 58
c0 19.333 7 35.833 21 49.5s31 20.5 51 20.5c23.333 0 42.666 -9.5 57.999 -28.5s23 -43.167 23 -72.5zM227.002 372.999c0 -20.667 -6.66699 -38 -20 -52s-30.333 -21 -51 -21s-37.667 7 -51 21s-20 31.333 -20 52s6.66699 38 20 52s30.333 21 51 21s37.667 -7 51 -21
s20 -31.333 20 -52z" />
    <glyph glyph-name="uni0394" unicode="&#x394;" horiz-adv-x="573" 
d="M79 54l367.001 -0.000976562l-148 432c-14.667 42 -25.334 80.667 -32.001 116h-4c-4.66699 -25.333 -16 -64.666 -34 -117.999zM555.001 -0.000976562h-543v35l226 654h87l230 -654v-35z" />
    <glyph glyph-name="uni03A9" unicode="&#x3a9;" horiz-adv-x="700" 
d="M350 656c-64 0 -111.333 -24 -142 -72s-46 -114.667 -46 -200c0 -72.667 11.5 -134.5 34.5 -185.5s61.167 -95.833 114.5 -134.5v-64h-260l-13 151h40c8 -34 17.667 -55.167 29 -63.5s36.333 -12.5 75 -12.5h53c-116.667 85.333 -175 188 -175 308
c0 90.667 26.333 166.334 79 227.001s123 91 211 91s158.333 -30.333 211 -91s79 -136.334 79 -227.001c0 -120 -58.333 -222.667 -175 -308h53c38.667 0 63.667 4.16699 75 12.5s21 29.5 29 63.5h40l-13 -151h-260v64c53.333 38.667 91.5 83.5 114.5 134.5
s34.5 112.833 34.5 185.5c0 181.333 -62.667 272 -188 272z" />
    <glyph glyph-name="uni03BC" unicode="&#x3bc;" horiz-adv-x="541" 
d="M48 -199l-4.00098 23.002c8.66699 43.333 13 103.666 13 180.999v157c-1.33301 161.333 -3.33301 269.666 -6 324.999l76 14h22l-1 -131v-201c0 -45.333 6.66699 -75.333 20 -90s32 -22 56 -22c22.667 0 45.834 6 69.501 18s44.167 27.333 61.5 46v368l68 12h23v-379
c0 -25.333 3.16699 -44 9.5 -56s19.833 -18 40.5 -18c6.66699 0 17 1 31 3v-38c-26 -14.667 -53.667 -22 -83 -22c-44 0 -72 27 -84 81c-42.667 -56.667 -92 -85 -148 -85c-32 0 -55.667 9 -71 27l-4 -2c6 -24 9 -62.667 9 -116l1 -81z" />
    <glyph glyph-name="pi" unicode="&#x3c0;" horiz-adv-x="571" 
d="M450 -9c-60 0 -90.002 47.001 -90.002 141.001v82c0 57.333 2 125.666 6 204.999h-168c-2.66699 -68 -4.83398 -119.667 -6.50098 -155s-6 -79.833 -13 -133.5s-16.5 -97.167 -28.5 -130.5h-99l-2 16c24 34.667 43.833 81.5 59.5 140.5s26.834 146.5 33.501 262.5
c-23.333 -2 -42.166 -7.33301 -56.499 -16s-29.5 -22.667 -45.5 -42l-28 22c15.333 41.333 35.833 70.5 61.5 87.5s62.834 25.5 111.501 25.5h225c48.667 0 86 3 112 9h21l-7 -75c-14.667 -5.33301 -42.667 -9 -84 -11v-287c0 -26 3.33301 -46.333 10 -61s19.667 -22 39 -22
c10 0 21.667 1.33301 35 4v-39c-27.333 -15.333 -56 -23 -86 -23z" />
    <glyph glyph-name="uni2007" unicode="&#x2007;" horiz-adv-x="552" 
 />
    <glyph glyph-name="uni2008" unicode="&#x2008;" horiz-adv-x="272" 
 />
    <glyph glyph-name="uni200B" unicode="&#x200b;" horiz-adv-x="0" 
 />
    <glyph glyph-name="endash" unicode="&#x2013;" horiz-adv-x="591" 
d="M536 252h-481v51h481v-51z" />
    <glyph glyph-name="emdash" unicode="&#x2014;" horiz-adv-x="815" 
d="M760 252h-705v51h705v-51z" />
    <glyph glyph-name="quoteleft" unicode="&#x2018;" horiz-adv-x="267" 
d="M59 537c0 39.333 12 74.166 36 104.499s56.667 51.5 98 63.5l21 -29c-54 -20.667 -81 -47.334 -81 -80.001c0 -8 2.33301 -14 7 -18s14 -8.66699 28 -14c27.333 -10 41 -29 41 -57c0 -19.333 -6.83301 -35.666 -20.5 -48.999s-30.5 -20 -50.5 -20
c-23.333 0 -42.333 9.33301 -57 28s-22 42.334 -22 71.001z" />
    <glyph glyph-name="quoteright" unicode="&#x2019;" horiz-adv-x="267" 
d="M208 605c0 -39.333 -11.999 -74.166 -35.999 -104.499s-56.667 -51.5 -98 -63.5l-21 29c54 20.667 81 47.334 81 80.001c0 8 -2.33301 14 -7 18s-12.334 8 -23.001 12c-30.667 11.333 -46 31 -46 59c0 19.333 6.83301 35.666 20.5 48.999s30.5 20 50.5 20
c23.333 0 42.333 -9.33301 57 -28s22 -42.334 22 -71.001z" />
    <glyph glyph-name="quotesinglbase" unicode="&#x201a;" horiz-adv-x="267" 
d="M208 37c0 -39.333 -12.001 -74.166 -36.001 -104.499s-56.667 -51.5 -98 -63.5l-21 29c54 20.667 81 47.334 81 80.001c0 6.66699 -2.16699 12.167 -6.5 16.5s-12.166 8.83301 -23.499 13.5c-30.667 12 -46 31.667 -46 59c0 19.333 6.83301 35.666 20.5 48.999
s30.5 20 50.5 20c23.333 0 42.333 -9.33301 57 -28s22 -42.334 22 -71.001z" />
    <glyph glyph-name="quotedblleft" unicode="&#x201c;" horiz-adv-x="475" 
d="M59 537c0 39.333 12 74.166 36 104.499s56.667 51.5 98 63.5l21 -29c-54 -20.667 -81 -47.334 -81 -80.001c0 -8 2.33301 -14 7 -18s14 -8.66699 28 -14c27.333 -10 41 -29 41 -57c0 -19.333 -6.83301 -35.666 -20.5 -48.999s-30.5 -20 -50.5 -20
c-23.333 0 -42.333 9.33301 -57 28s-22 42.334 -22 71.001zM267 537c0 39.333 12 74.166 36 104.499s56.667 51.5 98 63.5l21 -29c-54 -20.667 -81 -47.334 -81 -80.001c0 -8 2.33301 -14 7 -18s14 -8.66699 28 -14c27.333 -10 41 -29 41 -57
c0 -19.333 -6.83301 -35.666 -20.5 -48.999s-30.5 -20 -50.5 -20c-23.333 0 -42.333 9.33301 -57 28s-22 42.334 -22 71.001z" />
    <glyph glyph-name="quotedblright" unicode="&#x201d;" horiz-adv-x="475" 
d="M416 605c0 -39.333 -11.999 -74.166 -35.999 -104.499s-56.667 -51.5 -98 -63.5l-21 29c54 20.667 81 47.334 81 80.001c0 8 -2.33301 14 -7 18s-12.334 8 -23.001 12c-30.667 11.333 -46 31 -46 59c0 19.333 6.83301 35.666 20.5 48.999s30.5 20 50.5 20
c23.333 0 42.333 -9.33301 57 -28s22 -42.334 22 -71.001zM208.001 605c0 -39.333 -11.999 -74.166 -35.999 -104.499s-56.667 -51.5 -98 -63.5l-21 29c54 20.667 81 47.334 81 80.001c0 8 -2.33301 14 -7 18s-12.334 8 -23.001 12c-30.667 11.333 -46 31 -46 59
c0 19.333 6.83301 35.666 20.5 48.999s30.5 20 50.5 20c23.333 0 42.333 -9.33301 57 -28s22 -42.334 22 -71.001z" />
    <glyph glyph-name="quotedblbase" unicode="&#x201e;" horiz-adv-x="475" 
d="M416 37c0 -39.333 -12.001 -74.166 -36.001 -104.499s-56.667 -51.5 -98 -63.5l-21 29c54 20.667 81 47.334 81 80.001c0 6.66699 -2.16699 12.167 -6.5 16.5s-12.166 8.83301 -23.499 13.5c-30.667 12 -46 31.667 -46 59c0 19.333 6.83301 35.666 20.5 48.999
s30.5 20 50.5 20c23.333 0 42.333 -9.33301 57 -28s22 -42.334 22 -71.001zM207.999 37c0 -39.333 -12.001 -74.166 -36.001 -104.499s-56.667 -51.5 -98 -63.5l-21 29c54 20.667 81 47.334 81 80.001c0 6.66699 -2.16699 12.167 -6.5 16.5s-12.166 8.83301 -23.499 13.5
c-30.667 12 -46 31.667 -46 59c0 19.333 6.83301 35.666 20.5 48.999s30.5 20 50.5 20c23.333 0 42.333 -9.33301 57 -28s22 -42.334 22 -71.001z" />
    <glyph glyph-name="dagger" unicode="&#x2020;" horiz-adv-x="431" 
d="M185 451h-22c-52 0 -89.667 -3.33301 -113 -10h-20v73h20c23.333 -6.66699 61 -10 113 -10h22v52c0 52 -3.33301 89.667 -10 113v20h81v-20c-6.66699 -23.333 -10 -61 -10 -113v-52h22c52 0 89.667 3.33301 113 10h20v-73h-20c-23.333 6.66699 -61 10 -113 10h-22v-248
c0 -86 -4.66699 -153.667 -14 -203h-33c-9.33301 43.333 -14 111 -14 203v248z" />
    <glyph glyph-name="daggerdbl" unicode="&#x2021;" horiz-adv-x="431" 
d="M246 441v-193h22c52 0 89.667 3.33301 113 10h20v-73h-20c-23.333 6.66699 -61 10 -113 10h-22v-62c0 -52 3.33301 -89.667 10 -113v-20h-81v20c6.66699 23.333 10 61 10 113v62h-22c-52 0 -89.667 -3.33301 -113 -10h-20v73h20c23.333 -6.66699 61 -10 113 -10h22v193
h-22c-52 0 -89.667 -3.33301 -113 -10h-20v73h20c23.333 -6.66699 61 -10 113 -10h22v62c0 52 -3.33301 89.667 -10 113v20h81v-20c-6.66699 -23.333 -10 -61 -10 -113v-62h22c52 0 89.667 3.33301 113 10h20v-73h-20c-23.333 6.66699 -61 10 -113 10h-22z" />
    <glyph glyph-name="bullet" unicode="&#x2022;" horiz-adv-x="517" 
d="M432 335c0 -48.667 -17 -90.3301 -51 -124.997s-75 -52 -123 -52s-88.833 17.167 -122.5 51.5s-50.5 76.166 -50.5 125.499s16.833 91.166 50.5 125.499s74.5 51.5 122.5 51.5s89 -17.333 123 -52s51 -76.334 51 -125.001z" />
    <glyph glyph-name="ellipsis" unicode="&#x2026;" horiz-adv-x="768" 
d="M218 63c0 -20.667 -7 -38.667 -21 -54s-30.667 -23 -50 -23c-20 0 -37 7.5 -51 22.5s-21 33.167 -21 54.5c0 20.667 6.83301 38 20.5 52s30.167 21 49.5 21c20 0 37.167 -7 51.5 -21s21.5 -31.333 21.5 -52zM455 63c0 -21.333 -6.99902 -39.5 -20.999 -54.5
s-30.667 -22.5 -50 -22.5c-20 0 -36.833 7.5 -50.5 22.5s-20.5 33.167 -20.5 54.5c0 20.667 6.66699 38 20 52s29.666 21 48.999 21c20.667 0 38 -7 52 -21s21 -31.333 21 -52zM693.001 63c0 -20.667 -7.16797 -38.667 -21.501 -54s-31.166 -23 -50.499 -23
c-20 0 -36.833 7.5 -50.5 22.5s-20.5 33.167 -20.5 54.5c0 20.667 6.83301 38 20.5 52s30.167 21 49.5 21c20 0 37.167 -7 51.5 -21s21.5 -31.333 21.5 -52z" />
    <glyph glyph-name="perthousand" unicode="&#x2030;" horiz-adv-x="1263" 
d="M342 442c0 -61.333 -14.833 -110.167 -44.5 -146.5s-67.167 -54.5 -112.5 -54.5c-44 0 -80.833 18.5 -110.5 55.5s-44.5 86.5 -44.5 148.5c0 61.333 14.833 111 44.5 149s66.167 57 109.5 57c47.333 0 85.5 -19.833 114.5 -59.5s43.5 -89.5 43.5 -149.5zM262 436.999
c0 118 -25.333 177.001 -76 177.001c-26.667 0 -45.667 -13 -57 -39s-17 -66.333 -17 -121c0 -62.667 5.83301 -107.834 17.5 -135.501s30.5 -41.5 56.5 -41.5c50.667 0 76 53.333 76 160zM710 730l-488 -853h-53l487 853h54zM861 192
c0 -61.333 -14.833 -110.167 -44.5 -146.5s-67.167 -54.5 -112.5 -54.5c-44 0 -80.833 18.5 -110.5 55.5s-44.5 86.5 -44.5 148.5c0 61.333 14.833 111 44.5 149s66.167 57 109.5 57c47.333 0 85.5 -19.833 114.5 -59.5s43.5 -89.5 43.5 -149.5zM781 186.999
c0 118 -25.333 177.001 -76 177.001c-26.667 0 -45.667 -13 -57 -39s-17 -66.333 -17 -121c0 -62.667 5.83301 -107.834 17.5 -135.501s30.5 -41.5 56.5 -41.5c50.667 0 76 53.333 76 160zM1233 192c0 -61.333 -14.833 -110.167 -44.5 -146.5s-67.167 -54.5 -112.5 -54.5
c-44 0 -80.833 18.5 -110.5 55.5s-44.5 86.5 -44.5 148.5c0 61.333 14.833 111 44.5 149s66.167 57 109.5 57c47.333 0 85.5 -19.833 114.5 -59.5s43.5 -89.5 43.5 -149.5zM1153 186.999c0 118 -25.333 177.001 -76 177.001c-26.667 0 -45.667 -13 -57 -39
s-17 -66.333 -17 -121c0 -62.667 5.83301 -107.834 17.5 -135.501s30.5 -41.5 56.5 -41.5c50.667 0 76 53.333 76 160z" />
    <glyph glyph-name="guilsinglleft" unicode="&#x2039;" horiz-adv-x="309" 
d="M151 244l113 -177l-39 -36l-170 213l170 213l39 -36z" />
    <glyph glyph-name="guilsinglright" unicode="&#x203a;" horiz-adv-x="309" 
d="M45 67l113 177l-113 177l39 36l170 -213l-170 -213z" />
    <glyph glyph-name="fraction" unicode="&#x2044;" horiz-adv-x="287" 
d="M412 730l-487 -853h-54l487 853h54z" />
    <glyph glyph-name="uni2070" unicode="&#x2070;" horiz-adv-x="387" 
d="M356 442c0 -61.333 -15.499 -110.167 -46.499 -146.5s-70.167 -54.5 -117.5 -54.5c-46 0 -84.333 18.5 -115 55.5s-46 86.5 -46 148.5c0 61.333 15.333 111 46 149s68.667 57 114 57c49.333 0 89.166 -19.833 119.499 -59.5s45.5 -89.5 45.5 -149.5zM272.001 436.999
c0 118 -26.333 177.001 -79 177.001c-27.333 0 -47 -13 -59 -39s-18 -66.333 -18 -121c0 -62.667 6.16699 -107.834 18.5 -135.501s31.833 -41.5 58.5 -41.5c52.667 0 79 53.333 79 160z" />
    <glyph glyph-name="uni2074" unicode="&#x2074;" horiz-adv-x="363" 
d="M202 229v112h-192v25l142 278h76l-154 -267h128c0 58.667 8 112 24 160l54 10v-170h52v-36h-52v-101z" />
    <glyph glyph-name="uni2075" unicode="&#x2075;" horiz-adv-x="320" 
d="M279 373c0 -45.333 -17.167 -80.666 -51.5 -105.999s-77.5 -38 -129.5 -38c-29.333 0 -56 3.66699 -80 11l-8 33c23.333 -5.33301 47.333 -8 72 -8c35.333 0 63.5 8.16699 84.5 24.5s31.5 41.833 31.5 76.5c0 25.333 -6 44.166 -18 56.499s-31.667 18.5 -59 18.5
c-25.333 0 -52 -5 -80 -15l22 218h207l-10 -57h-159l-12 -111c22 4.66699 41.333 7 58 7c42 0 74.5 -9.5 97.5 -28.5s34.5 -46.167 34.5 -81.5z" />
    <glyph glyph-name="uni2076" unicode="&#x2076;" horiz-adv-x="354" 
d="M290 642c-54 -19.333 -95.168 -42.1709 -123.501 -68.5039s-46.5 -63.166 -54.5 -110.499c24.667 20 53.667 30 87 30c38 0 69 -10.667 93 -32s36 -50.666 36 -87.999c0 -38.667 -13.667 -70.5 -41 -95.5s-62 -37.5 -104 -37.5c-44 0 -80.333 14.833 -109 44.5
s-43 69.834 -43 120.501c0 72 23.333 129.833 70 173.5s106.334 74.834 179.001 93.501zM180.999 452.995c-23.333 0 -46.667 -8.66699 -70 -26c-0.666992 -5.33301 -1 -14 -1 -26c0 -83.333 24.333 -125 73 -125c46 0 69 32.333 69 97c0 53.333 -23.667 80 -71 80z" />
    <glyph glyph-name="uni2077" unicode="&#x2077;" horiz-adv-x="318" 
d="M303 644l-9.00098 -39c-79.333 -104 -132.666 -223 -159.999 -357l-87 -16c26 106.667 89 224.667 189 354h-220l10 58h277z" />
    <glyph glyph-name="uni2078" unicode="&#x2078;" horiz-adv-x="348" 
d="M21 347c0 44.667 32.333 78.999 97 102.999c-26 13.333 -45.167 27.333 -57.5 42s-18.5 33.334 -18.5 56.001c0 30 13.167 54.667 39.5 74s57.833 29 94.5 29c40 0 72.167 -8.66699 96.5 -26s36.5 -40 36.5 -68c0 -38 -28.667 -66.667 -86 -86
c70 -28 105 -67.333 105 -118c0 -34 -14.5 -61.333 -43.5 -82s-65.833 -31 -110.5 -31c-48 0 -85.5 10.167 -112.5 30.5s-40.5 45.833 -40.5 76.5zM260 342.999c0 20 -8.33203 36.167 -24.999 48.5s-45.334 27.5 -86.001 45.5c-37.333 -22.667 -56 -51 -56 -85
c0 -50.667 27.667 -76 83 -76c26 0 46.5 6 61.5 18s22.5 28.333 22.5 49zM115.001 560.999c0 -16.667 4.83301 -29.332 14.5 -37.999s30.5 -21 62.5 -37c30 20 45 44.667 45 74c0 17.333 -5.33301 31.166 -16 41.499s-25.667 15.5 -45 15.5
c-18.667 0 -33.5 -5.33301 -44.5 -16s-16.5 -24 -16.5 -40z" />
    <glyph glyph-name="uni2079" unicode="&#x2079;" horiz-adv-x="354" 
d="M46 245c57.333 20.667 102.334 44.6689 135.001 72.002s52.667 64.333 60 111c-24.667 -20 -53.334 -30 -86.001 -30c-38 0 -69 10.667 -93 32s-36 50.666 -36 87.999c0 38.667 13.5 70.5 40.5 95.5s61.833 37.5 104.5 37.5c46.667 0 83.5 -14.5 110.5 -43.5
s40.5 -69.5 40.5 -121.5c0 -72 -23.167 -129.833 -69.5 -173.5s-105.833 -74.834 -178.5 -93.501zM173.001 438.002c24 0 47 8.66699 69 26c0.666992 5.33301 1 14 1 26c0 83.333 -24 125 -72 125c-46 0 -69 -32.333 -69 -97c0 -53.333 23.667 -80 71 -80z" />
    <glyph glyph-name="uni2080" unicode="&#x2080;" horiz-adv-x="387" 
d="M356 35c0 -61.333 -15.499 -110.167 -46.499 -146.5s-70.167 -54.5 -117.5 -54.5c-46 0 -84.333 18.5 -115 55.5s-46 86.5 -46 148.5c0 61.333 15.333 111 46 149s68.667 57 114 57c49.333 0 89.166 -19.833 119.499 -59.5s45.5 -89.5 45.5 -149.5zM272.001 29.999
c0 118 -26.333 177.001 -79 177.001c-27.333 0 -47 -13 -59 -39s-18 -66.333 -18 -121c0 -62.667 6.16699 -107.834 18.5 -135.501s31.833 -41.5 58.5 -41.5c52.667 0 79 53.333 79 160z" />
    <glyph glyph-name="uni2081" unicode="&#x2081;" horiz-adv-x="314" 
d="M208 237v-322.999c0 -17.333 5.16699 -28.333 15.5 -33s33.5 -7.66699 69.5 -9v-29h-248v29c36.667 1.33301 60 4.16602 70 8.49902s15 15.5 15 33.5v257c-27.333 -13.333 -57.333 -25 -90 -35l-9 28l120 73h57z" />
    <glyph glyph-name="uni2082" unicode="&#x2082;" horiz-adv-x="333" 
d="M153 244c38 0 69.166 -9.66797 93.499 -29.001s36.5 -46.333 36.5 -81c0 -10.667 -1.16699 -21 -3.5 -31s-6.83301 -20 -13.5 -30l-18 -26.5c-5.33301 -7.66699 -13.833 -17 -25.5 -28l-28 -26c-7 -6.33301 -18.333 -16 -34 -29s-27.167 -22.833 -34.5 -29.5l-38 -33h214
l-10 -58h-271v41l78 80c26.667 28 45.167 48 55.5 60s20 27.333 29 46s13.5 38 13.5 58c0 22.667 -6.16699 39.834 -18.5 51.501s-29.166 17.5 -50.499 17.5c-30 0 -58 -10 -84 -30l-18 26c36.667 34 79 51 127 51z" />
    <glyph glyph-name="uni2083" unicode="&#x2083;" horiz-adv-x="321" 
d="M138 198c-31.333 0 -60 -9.33301 -86 -28l-19 30c36.667 29.333 79 44 127 44c36 0 65.167 -8.16699 87.5 -24.5s33.5 -39.5 33.5 -69.5c0 -48 -30.667 -79.667 -92 -95c31.333 -3.33301 56 -14 74 -32s27 -40 27 -66c0 -41.333 -18.167 -74 -54.5 -98
s-80.833 -36 -133.5 -36c-30.667 0 -56 3 -76 9l-10 33c17.333 -4 37.333 -6 60 -6c38 0 69.333 9 94 27s37 42.667 37 74c0 26 -6.33301 44.333 -19 55s-31.667 16 -57 16c-8.66699 0 -19.667 -0.666992 -33 -2v43c6.66699 -0.666992 17 -1 31 -1c49.333 0 74 22 74 66
c0 20 -5.83301 35.167 -17.5 45.5s-27.5 15.5 -47.5 15.5z" />
    <glyph glyph-name="uni2084" unicode="&#x2084;" horiz-adv-x="363" 
d="M202 -178v112h-192v25l142 278h76l-154 -267h128c0 58.667 8 112 24 160l54 10v-170h52v-36h-52v-101z" />
    <glyph glyph-name="uni2085" unicode="&#x2085;" horiz-adv-x="320" 
d="M279 -34c0 -45.333 -17.167 -80.666 -51.5 -105.999s-77.5 -38 -129.5 -38c-29.333 0 -56 3.66699 -80 11l-8 33c23.333 -5.33301 47.333 -8 72 -8c35.333 0 63.5 8.16699 84.5 24.5s31.5 41.833 31.5 76.5c0 25.333 -6 44.166 -18 56.499s-31.667 18.5 -59 18.5
c-25.333 0 -52 -5 -80 -15l22 218h207l-10 -57h-159l-12 -111c22 4.66699 41.333 7 58 7c42 0 74.5 -9.5 97.5 -28.5s34.5 -46.167 34.5 -81.5z" />
    <glyph glyph-name="uni2086" unicode="&#x2086;" horiz-adv-x="354" 
d="M290 235c-54 -19.333 -95.168 -42.1709 -123.501 -68.5039s-46.5 -63.166 -54.5 -110.499c24.667 20 53.667 30 87 30c38 0 69 -10.667 93 -32s36 -50.666 36 -87.999c0 -38.667 -13.667 -70.5 -41 -95.5s-62 -37.5 -104 -37.5c-44 0 -80.333 14.833 -109 44.5
s-43 69.834 -43 120.501c0 72 23.333 129.833 70 173.5s106.334 74.834 179.001 93.501zM180.999 45.9951c-23.333 0 -46.667 -8.66699 -70 -26c-0.666992 -5.33301 -1 -14 -1 -26c0 -83.333 24.333 -125 73 -125c46 0 69 32.333 69 97c0 53.333 -23.667 80 -71 80z" />
    <glyph glyph-name="uni2087" unicode="&#x2087;" horiz-adv-x="318" 
d="M303 237l-9.00098 -39c-79.333 -104 -132.666 -223 -159.999 -357l-87 -16c26 106.667 89 224.667 189 354h-220l10 58h277z" />
    <glyph glyph-name="uni2088" unicode="&#x2088;" horiz-adv-x="348" 
d="M21 -60c0 44.667 32.333 78.999 97 102.999c-26 13.333 -45.167 27.333 -57.5 42s-18.5 33.334 -18.5 56.001c0 30 13.167 54.667 39.5 74s57.833 29 94.5 29c40 0 72.167 -8.66699 96.5 -26s36.5 -40 36.5 -68c0 -38 -28.667 -66.667 -86 -86
c70 -28 105 -67.333 105 -118c0 -34 -14.5 -61.333 -43.5 -82s-65.833 -31 -110.5 -31c-48 0 -85.5 10.167 -112.5 30.5s-40.5 45.833 -40.5 76.5zM260 -64.001c0 20 -8.33203 36.167 -24.999 48.5s-45.334 27.5 -86.001 45.5c-37.333 -22.667 -56 -51 -56 -85
c0 -50.667 27.667 -76 83 -76c26 0 46.5 6 61.5 18s22.5 28.333 22.5 49zM115.001 153.999c0 -16.667 4.83301 -29.332 14.5 -37.999s30.5 -21 62.5 -37c30 20 45 44.667 45 74c0 17.333 -5.33301 31.166 -16 41.499s-25.667 15.5 -45 15.5
c-18.667 0 -33.5 -5.33301 -44.5 -16s-16.5 -24 -16.5 -40z" />
    <glyph glyph-name="uni2089" unicode="&#x2089;" horiz-adv-x="354" 
d="M46 -162c57.333 20.667 102.334 44.6689 135.001 72.002s52.667 64.333 60 111c-24.667 -20 -53.334 -30 -86.001 -30c-38 0 -69 10.667 -93 32s-36 50.666 -36 87.999c0 38.667 13.5 70.5 40.5 95.5s61.833 37.5 104.5 37.5c46.667 0 83.5 -14.5 110.5 -43.5
s40.5 -69.5 40.5 -121.5c0 -72 -23.167 -129.833 -69.5 -173.5s-105.833 -74.834 -178.5 -93.501zM173.001 31.002c24 0 47 8.66699 69 26c0.666992 5.33301 1 14 1 26c0 83.333 -24 125 -72 125c-46 0 -69 -32.333 -69 -97c0 -53.333 23.667 -80 71 -80z" />
    <glyph glyph-name="Euro" unicode="&#x20ac;" horiz-adv-x="620" 
d="M484 253h-264.001c7.33301 -80.667 25.5 -137 54.5 -169s70.5 -48 124.5 -48c37.333 0 64.833 8.16699 82.5 24.5s30.167 44.166 37.5 83.499h67v-105c-45.333 -33.333 -107.666 -50 -186.999 -50c-84.667 0 -150.667 22.833 -198 68.5s-77 110.834 -89 195.501h-92v44
h88c-0.666992 8.66699 -1 22.667 -1 42c0 18 0.333008 31.667 1 41h-88v44h93c12.667 88 43.667 156.167 93 204.5s111.333 72.5 186 72.5c84 0 147 -15.667 189 -47v-112h-72c-9.33301 41.333 -22.333 70.333 -39 87s-44 25 -82 25c-50 0 -89 -18 -117 -54
s-45 -94.667 -51 -176h264v-44h-267c0 -41.333 0.333008 -69 1 -83h266v-44z" />
    <glyph glyph-name="uni20B4" unicode="&#x20b4;" horiz-adv-x="577" 
d="M522 198l-286 -0.000976562c-24.667 -20.667 -37 -47 -37 -79c0 -28 9.16699 -49 27.5 -63s42.166 -21 71.499 -21c70.667 0 113.667 33.333 129 100h62v-100c-64 -31.333 -132.333 -47 -205 -47c-64 0 -111.667 11.333 -143 34s-47 53.334 -47 92.001c0 36 12 64 36 84
h-75v36h135l83 52h-218v36h279c17.333 8.66699 30.5 20.834 39.5 36.501s13.5 31.5 13.5 47.5c0 40 -29.667 60 -89 60c-61.333 0 -98.333 -29.333 -111 -88h-61v98c62.667 26 125.334 39 188.001 39c120.667 0 181 -34.667 181 -104c0 -34.667 -19.333 -64.334 -58 -89.001
h85v-36h-151l-82 -52h233v-36z" />
    <glyph glyph-name="afii61352" unicode="&#x2116;" horiz-adv-x="1082" 
d="M516 333l-0.000976562 245.001c0 29.333 -5.16699 49.166 -15.5 59.499s-31.833 15.833 -64.5 16.5v35h219v-35c-30 -0.666992 -49.5 -6.16699 -58.5 -16.5s-13.5 -30.166 -13.5 -59.499v-578h-71l-250 408c-38 62 -66 118.667 -84 170h-6c8 -54 12 -115.333 12 -184
v-283c0 -29.333 5.16699 -49.166 15.5 -59.499s31.833 -15.833 64.5 -16.5v-35h-227v35c32.667 0.666992 54.167 6.16699 64.5 16.5s15.5 30.166 15.5 59.499v467c0 29.333 -5.16699 49.166 -15.5 59.499s-31.833 15.833 -64.5 16.5v35h162l255 -418
c30.667 -50.667 53.334 -99 68.001 -145h6c-8 48 -12 117 -12 207zM1042 254.001v-53h-367v53h367zM860.999 348.001c63.333 0 95 49.667 95 149c0 108.667 -32.333 163 -97 163c-34.667 0 -59.167 -12.5 -73.5 -37.5s-21.5 -61.833 -21.5 -110.5
c0 -56.667 7.5 -98.167 22.5 -124.5s39.833 -39.5 74.5 -39.5zM857.999 307.001c-52.667 0 -95.5 17.498 -128.5 52.498s-49.5 82.833 -49.5 143.5s16.5 108.834 49.5 144.501s75.5 53.5 127.5 53.5c56 0 100 -18.667 132 -56s48 -85.666 48 -144.999
s-16.667 -106.333 -50 -141s-76.333 -52 -129 -52z" />
    <glyph glyph-name="uni2117" unicode="&#x2117;" horiz-adv-x="800" 
d="M400 31c86 0 157.667 28.667 215 86s86 132.666 86 225.999c0 94.667 -28.667 170.667 -86 228s-129 86 -215 86s-157.667 -28.667 -215 -86s-86 -133.333 -86 -228c0 -93.333 28.667 -168.666 86 -225.999s129 -86 215 -86zM246 555h161.998
c59.333 0 102.833 -9 130.5 -27s41.5 -51.667 41.5 -101c0 -50 -13.667 -84.667 -41 -104s-64.666 -29 -111.999 -29h-53v-72c0 -23.333 4.33301 -38.5 13 -45.5s25.667 -10.833 51 -11.5v-29h-192v29c24 0.666992 39 4.5 45 11.5s9 22.167 9 45.5v242
c0 23.333 -3.16699 39 -9.5 47s-21.166 12.333 -44.499 13v31zM501.998 425c0 35.333 -6.83203 59.501 -20.499 72.501s-39.834 19.5 -78.501 19.5h-29v-185h42c32.667 0 55.167 6.66699 67.5 20s18.5 37.666 18.5 72.999zM399.999 -11.999
c-102.667 0 -187.667 32.667 -255 98s-101 151.333 -101 258c0 104.667 34.333 190.334 103 257.001s153 100 253 100s184.333 -33.333 253 -100s103 -152.334 103 -257.001c0 -106.667 -33.667 -192.667 -101 -258s-152.333 -98 -255 -98z" />
    <glyph glyph-name="trademark" unicode="&#x2122;" horiz-adv-x="1039" 
d="M960 689l0.000976562 -35.0039c-20.667 -1.33301 -34.667 -5.16602 -42 -11.499s-11 -16.833 -11 -31.5c0 -6 0.333008 -11.667 1 -17l15 -195c2.66699 -29.333 8.83398 -49.166 18.501 -59.499s25.5 -16.166 47.5 -17.499v-30h-191v30
c21.333 1.33301 36.166 5.5 44.499 12.5s12.5 21.5 12.5 43.5c0 4 -0.333008 10.667 -1 20l-10 128c-0.666992 10 -1 24 -1 42c0 22.667 0.333008 37.667 1 45h-5c-6.66699 -33.333 -14.667 -62.666 -24 -87.999l-83 -233h-52l-76 233c-8 26 -15.667 55.333 -23 88h-6
c0 -31.333 -1 -61 -3 -89l-8 -126c-2 -30.667 0.666992 -50.5 8 -59.5s23.333 -14.167 48 -15.5v-31h-168v31c21.333 1.33301 36.5 6.5 45.5 15.5s14.5 28.5 16.5 58.5l14 198c1.33301 22.667 -1.33398 38 -8.00098 46s-21.667 12.667 -45 14v34h149l74 -225
c10.667 -32 17 -62 19 -90h5c4.66699 32 11.667 61.667 21 89l77 226h140zM198.001 646.996h-19.999c-32.667 0 -54.334 -6.83301 -65.001 -20.5s-18 -41.834 -22 -84.501h-41v147h357l8 -147h-41c-8 42.667 -17.833 70.834 -29.5 84.501s-31.5 20.5 -59.5 20.5h-15v-246
c0 -30 4.5 -50 13.5 -60s29.833 -15.333 62.5 -16v-33h-224v33c32.667 0.666992 53.5 6 62.5 16s13.5 30 13.5 60v246z" />
    <glyph glyph-name="Omega" unicode="&#x2126;" horiz-adv-x="700" 
d="M350 656c-64 0 -111.333 -24 -142 -72s-46 -114.667 -46 -200c0 -72.667 11.5 -134.5 34.5 -185.5s61.167 -95.833 114.5 -134.5v-64h-260l-13 151h40c8 -34 17.667 -55.167 29 -63.5s36.333 -12.5 75 -12.5h53c-116.667 85.333 -175 188 -175 308
c0 90.667 26.333 166.334 79 227.001s123 91 211 91s158.333 -30.333 211 -91s79 -136.334 79 -227.001c0 -120 -58.333 -222.667 -175 -308h53c38.667 0 63.667 4.16699 75 12.5s21 29.5 29 63.5h40l-13 -151h-260v64c53.333 38.667 91.5 83.5 114.5 134.5
s34.5 112.833 34.5 185.5c0 181.333 -62.667 272 -188 272z" />
    <glyph glyph-name="estimated" unicode="&#x212e;" horiz-adv-x="945" 
d="M875 339h-656.999v-218c20 -30 54.833 -53.667 104.5 -71s99.834 -26 150.501 -26c50 0 99.167 8.5 147.5 25.5s85.833 41.167 112.5 72.5h58c-78.667 -91.333 -185 -137 -319 -137c-114.667 0 -210.334 34.167 -287.001 102.5s-115 154.833 -115 259.5
c0 104 39.167 191.333 117.5 262s173.166 106 284.499 106c110 0 204.667 -35.5 284 -106.5s119 -160.833 119 -269.5zM727.001 379l0.000976562 195c-62.667 68 -147.334 102 -254.001 102c-114.667 0 -199.667 -33.667 -255 -101v-196h509z" />
    <glyph glyph-name="uni2150" unicode="&#x2150;" horiz-adv-x="926" 
d="M208 644v-322.999c0 -17.333 5.16699 -28.333 15.5 -33s33.5 -7.66699 69.5 -9v-29h-248v29c36.667 1.33301 60 4.16602 70 8.49902s15 15.5 15 33.5v257c-27.333 -13.333 -57.333 -25 -90 -35l-9 28l120 73h57zM726 730.001l-487 -853h-54l487 853h54zM894 394.001
l-9.00098 -39c-79.333 -104 -132.666 -223 -159.999 -357l-87 -16c26 106.667 89 224.667 189 354h-220l10 58h277z" />
    <glyph glyph-name="uni2151" unicode="&#x2151;" horiz-adv-x="915" 
d="M607 -5c57.333 20.667 102.334 44.6689 135.001 72.002s52.667 64.333 60 111c-24.667 -20 -53.334 -30 -86.001 -30c-38 0 -69 10.667 -93 32s-36 50.666 -36 87.999c0 38.667 13.5 70.5 40.5 95.5s61.833 37.5 104.5 37.5c46.667 0 83.5 -14.5 110.5 -43.5
s40.5 -69.5 40.5 -121.5c0 -72 -23.167 -129.833 -69.5 -173.5s-105.833 -74.834 -178.5 -93.501zM734.001 188.002c24 0 47 8.66699 69 26c0.666992 5.33301 1 14 1 26c0 83.333 -24 125 -72 125c-46 0 -69 -32.333 -69 -97c0 -53.333 23.667 -80 71 -80zM208.001 644.002
v-322.999c0 -17.333 5.16699 -28.333 15.5 -33s33.5 -7.66699 69.5 -9v-29h-248v29c36.667 1.33301 60 4.16602 70 8.49902s15 15.5 15 33.5v257c-27.333 -13.333 -57.333 -25 -90 -35l-9 28l120 73h57zM726.001 730.003l-487 -853h-54l487 853h54z" />
    <glyph glyph-name="uni2152" unicode="&#x2152;" horiz-adv-x="1242" 
d="M208 644v-322.999c0 -17.333 5.16699 -28.333 15.5 -33s33.5 -7.66699 69.5 -9v-29h-248v29c36.667 1.33301 60 4.16602 70 8.49902s15 15.5 15 33.5v257c-27.333 -13.333 -57.333 -25 -90 -35l-9 28l120 73h57zM726 730.001l-487 -853h-54l487 853h54zM749 394.001
v-322.999c0 -17.333 5.16699 -28.333 15.5 -33s33.5 -7.66699 69.5 -9v-29h-248v29c36.667 1.33301 60 4.16602 70 8.49902s15 15.5 15 33.5v257c-27.333 -13.333 -57.333 -25 -90 -35l-9 28l120 73h57zM1211 192.002c0 -61.333 -15.499 -110.167 -46.499 -146.5
s-70.167 -54.5 -117.5 -54.5c-46 0 -84.333 18.5 -115 55.5s-46 86.5 -46 148.5c0 61.333 15.333 111 46 149s68.667 57 114 57c49.333 0 89.166 -19.833 119.499 -59.5s45.5 -89.5 45.5 -149.5zM1127 187.001c0 118 -26.333 177.001 -79 177.001c-27.333 0 -47 -13 -59 -39
s-18 -66.333 -18 -121c0 -62.667 6.16699 -107.834 18.5 -135.501s31.833 -41.5 58.5 -41.5c52.667 0 79 53.333 79 160z" />
    <glyph glyph-name="onethird" unicode="&#x2153;" horiz-adv-x="922" 
d="M726 730l-487 -853h-54l487 853h54zM208 644v-322.999c0 -17.333 5.16699 -28.333 15.5 -33s33.5 -7.66699 69.5 -9v-29h-248v29c36.667 1.33301 60 4.16602 70 8.49902s15 15.5 15 33.5v257c-27.333 -13.333 -57.333 -25 -90 -35l-9 28l120 73h57zM739 355.001
c-31.333 0 -60 -9.33301 -86 -28l-19 30c36.667 29.333 79 44 127 44c36 0 65.167 -8.16699 87.5 -24.5s33.5 -39.5 33.5 -69.5c0 -48 -30.667 -79.667 -92 -95c31.333 -3.33301 56 -14 74 -32s27 -40 27 -66c0 -41.333 -18.167 -74 -54.5 -98s-80.833 -36 -133.5 -36
c-30.667 0 -56 3 -76 9l-10 33c16.667 -4 36.667 -6 60 -6c38 0 69.333 9 94 27s37 42.667 37 74c0 26 -6.33301 44.333 -19 55s-31.667 16 -57 16c-8.66699 0 -19.667 -0.666992 -33 -2v43c6.66699 -0.666992 17 -1 31 -1c49.333 0 74 22 74 66
c0 20 -5.83301 35.167 -17.5 45.5s-27.5 15.5 -47.5 15.5z" />
    <glyph glyph-name="twothirds" unicode="&#x2154;" horiz-adv-x="941" 
d="M153 651c38 0 69.166 -9.66797 93.499 -29.001s36.5 -46.333 36.5 -81c0 -10.667 -1.16699 -21 -3.5 -31s-6.83301 -20 -13.5 -30l-18 -26.5c-5.33301 -7.66699 -13.833 -17 -25.5 -28l-28 -26c-7 -6.33301 -18.333 -16 -34 -29s-27.167 -22.833 -34.5 -29.5l-38 -33h214
l-10 -58h-271v41l78 80c26.667 28 45.167 48 55.5 60s20 27.333 29 46s13.5 38 13.5 58c0 22.667 -6.16699 39.834 -18.5 51.501s-29.166 17.5 -50.499 17.5c-30 0 -58 -10 -84 -30l-18 26c36.667 34 79 51 127 51zM744.999 729.999l-487 -853h-54l487 853h54z
M757.999 354.999c-31.333 0 -60 -9.33301 -86 -28l-19 30c36.667 29.333 79 44 127 44c36 0 65.167 -8.16699 87.5 -24.5s33.5 -39.5 33.5 -69.5c0 -48 -30.667 -79.667 -92 -95c31.333 -3.33301 56 -14 74 -32s27 -40 27 -66c0 -41.333 -18.167 -74 -54.5 -98
s-80.833 -36 -133.5 -36c-30.667 0 -56 3 -76 9l-10 33c17.333 -4 37.333 -6 60 -6c38 0 69.333 9 94 27s37 42.667 37 74c0 26 -6.33301 44.333 -19 55s-31.667 16 -57 16c-8.66699 0 -19.667 -0.666992 -33 -2v43c6.66699 -0.666992 17 -1 31 -1c49.333 0 74 22 74 66
c0 20 -5.83301 35.167 -17.5 45.5s-27.5 15.5 -47.5 15.5z" />
    <glyph glyph-name="uni2155" unicode="&#x2155;" horiz-adv-x="891" 
d="M850 123c0 -45.333 -17.167 -80.666 -51.5 -105.999s-77.5 -38 -129.5 -38c-29.333 0 -56 3.66699 -80 11l-8 33c23.333 -5.33301 47.333 -8 72 -8c35.333 0 63.5 8.16699 84.5 24.5s31.5 41.833 31.5 76.5c0 25.333 -6 44.166 -18 56.499s-31.667 18.5 -59 18.5
c-25.333 0 -52 -5 -80 -15l22 218h207l-10 -57h-159l-12 -111c22 4.66699 41.333 7 58 7c42 0 74.5 -9.5 97.5 -28.5s34.5 -46.167 34.5 -81.5zM726 730l-487 -853h-54l487 853h54zM208 644v-322.999c0 -17.333 5.16699 -28.333 15.5 -33s33.5 -7.66699 69.5 -9v-29h-248v29
c36.667 1.33301 60 4.16602 70 8.49902s15 15.5 15 33.5v257c-27.333 -13.333 -57.333 -25 -90 -35l-9 28l120 73h57z" />
    <glyph glyph-name="uni2156" unicode="&#x2156;" horiz-adv-x="910" 
d="M153 651c38 0 69.166 -9.66797 93.499 -29.001s36.5 -46.333 36.5 -81c0 -10.667 -1.16699 -21 -3.5 -31s-6.83301 -20 -13.5 -30l-18 -26.5c-5.33301 -7.66699 -13.833 -17 -25.5 -28l-28 -26c-7 -6.33301 -18.333 -16 -34 -29s-27.167 -22.833 -34.5 -29.5l-38 -33h214
l-10 -58h-271v41l78 80c26.667 28 45.167 48 55.5 60s20 27.333 29 46s13.5 38 13.5 58c0 22.667 -6.16699 39.834 -18.5 51.501s-29.166 17.5 -50.499 17.5c-30 0 -58 -10 -84 -30l-18 26c36.667 34 79 51 127 51zM744.999 729.999l-487 -853h-54l487 853h54z
M868.999 122.999c0 -45.333 -17.167 -80.666 -51.5 -105.999s-77.5 -38 -129.5 -38c-29.333 0 -56 3.66699 -80 11l-8 33c23.333 -5.33301 47.333 -8 72 -8c35.333 0 63.5 8.16699 84.5 24.5s31.5 41.833 31.5 76.5c0 25.333 -6 44.166 -18 56.499s-31.667 18.5 -59 18.5
c-25.333 0 -52 -5 -80 -15l22 218h207l-10 -57h-159l-12 -111c22 4.66699 41.333 7 58 7c42 0 74.5 -9.5 97.5 -28.5s34.5 -46.167 34.5 -81.5z" />
    <glyph glyph-name="uni2157" unicode="&#x2157;" horiz-adv-x="848" 
d="M138 605c-31.333 0 -60 -9.33301 -86 -28l-19 30c36.667 29.333 79 44 127 44c36 0 65.167 -8.16699 87.5 -24.5s33.5 -39.5 33.5 -69.5c0 -48 -30.667 -79.667 -92 -95c31.333 -3.33301 56 -14 74 -32s27 -40 27 -66c0 -41.333 -18.167 -74 -54.5 -98
s-80.833 -36 -133.5 -36c-30.667 0 -56 3 -76 9l-10 33c17.333 -4 37.333 -6 60 -6c38 0 69.333 9 94 27s37 42.667 37 74c0 26 -6.33301 44.333 -19 55s-31.667 16 -57 16c-8.66699 0 -19.667 -0.666992 -33 -2v43c6.66699 -0.666992 17 -1 31 -1c49.333 0 74 22 74 66
c0 20 -5.83301 35.167 -17.5 45.5s-27.5 15.5 -47.5 15.5zM683 730l-487 -853h-54l487 853h54zM807 123c0 -45.333 -17.167 -80.666 -51.5 -105.999s-77.5 -38 -129.5 -38c-29.333 0 -56 3.66699 -80 11l-8 33c23.333 -5.33301 47.333 -8 72 -8
c35.333 0 63.5 8.16699 84.5 24.5s31.5 41.833 31.5 76.5c0 25.333 -6 44.166 -18 56.499s-31.667 18.5 -59 18.5c-25.333 0 -52 -5 -80 -15l22 218h207l-10 -57h-159l-12 -111c22 4.66699 41.333 7 58 7c42 0 74.5 -9.5 97.5 -28.5s34.5 -46.167 34.5 -81.5z" />
    <glyph glyph-name="uni2158" unicode="&#x2158;" horiz-adv-x="900" 
d="M202 229v112h-192v25l142 278h76l-154 -267h128c0 58.667 8 112 24 160l54 10v-170h52v-36h-52v-101zM735 730l-487 -853h-54l487 853h54zM859 123c0 -45.333 -17.167 -80.666 -51.5 -105.999s-77.5 -38 -129.5 -38c-29.333 0 -56 3.66699 -80 11l-8 33
c23.333 -5.33301 47.333 -8 72 -8c35.333 0 63.5 8.16699 84.5 24.5s31.5 41.833 31.5 76.5c0 25.333 -6 44.166 -18 56.499s-31.667 18.5 -59 18.5c-25.333 0 -52 -5 -80 -15l22 218h207l-10 -57h-159l-12 -111c22 4.66699 41.333 7 58 7c42 0 74.5 -9.5 97.5 -28.5
s34.5 -46.167 34.5 -81.5z" />
    <glyph glyph-name="uni2159" unicode="&#x2159;" horiz-adv-x="895" 
d="M831 392c-54 -19.333 -95.168 -42.1709 -123.501 -68.5039s-46.5 -63.166 -54.5 -110.499c24.667 20 53.667 30 87 30c38 0 69 -10.667 93 -32s36 -50.666 36 -87.999c0 -38.667 -13.667 -70.5 -41 -95.5s-62 -37.5 -104 -37.5c-44 0 -80.333 14.833 -109 44.5
s-43 69.834 -43 120.501c0 72 23.333 129.833 70 173.5s106.334 74.834 179.001 93.501zM721.999 202.995c-23.333 0 -46.667 -8.66699 -70 -26c-0.666992 -5.33301 -1 -14 -1 -26c0 -83.333 24.333 -125 73 -125c46 0 69 32.333 69 97c0 53.333 -23.667 80 -71 80z
M725.998 729.995l-487 -853h-54l487 853h54zM207.998 643.995v-322.999c0 -17.333 5.16699 -28.333 15.5 -33s33.5 -7.66699 69.5 -9v-29h-248v29c36.667 1.33301 60 4.16602 70 8.49902s15 15.5 15 33.5v257c-27.333 -13.333 -57.333 -25 -90 -35l-9 28l120 73h57z" />
    <glyph glyph-name="uni215A" unicode="&#x215a;" horiz-adv-x="841" 
d="M279 373c0 -45.333 -17.167 -80.666 -51.5 -105.999s-77.5 -38 -129.5 -38c-29.333 0 -56 3.66699 -80 11l-8 33c23.333 -5.33301 47.333 -8 72 -8c35.333 0 63.5 8.16699 84.5 24.5s31.5 41.833 31.5 76.5c0 25.333 -6 44.166 -18 56.499s-31.667 18.5 -59 18.5
c-25.333 0 -52 -5 -80 -15l22 218h207l-10 -57h-159l-12 -111c22 4.66699 41.333 7 58 7c42 0 74.5 -9.5 97.5 -28.5s34.5 -46.167 34.5 -81.5zM672 730l-487 -853h-54l487 853h54zM777 392c-54 -19.333 -95.168 -42.1709 -123.501 -68.5039s-46.5 -63.166 -54.5 -110.499
c24.667 20 53.667 30 87 30c38 0 69 -10.667 93 -32s36 -50.666 36 -87.999c0 -38.667 -13.667 -70.5 -41 -95.5s-62 -37.5 -104 -37.5c-44 0 -80.333 14.833 -109 44.5s-43 69.834 -43 120.501c0 72 23.333 129.833 70 173.5s106.334 74.834 179.001 93.501z
M667.999 202.995c-23.333 0 -46.667 -8.66699 -70 -26c-0.666992 -5.33301 -1 -14 -1 -26c0 -83.333 24.333 -125 73 -125c46 0 69 32.333 69 97c0 53.333 -23.667 80 -71 80z" />
    <glyph glyph-name="oneeighth" unicode="&#x215b;" horiz-adv-x="949" 
d="M726 730l-487 -853h-54l487 853h54zM208 644v-322.999c0 -17.333 5.16699 -28.333 15.5 -33s33.5 -7.66699 69.5 -9v-29h-248v29c36.667 1.33301 60 4.16602 70 8.49902s15 15.5 15 33.5v257c-27.333 -13.333 -57.333 -25 -90 -35l-9 28l120 73h57zM622 97.001
c0 44.667 32.333 78.999 97 102.999c-26 13.333 -45.167 27.333 -57.5 42s-18.5 33.334 -18.5 56.001c0 30 13.167 54.667 39.5 74s57.833 29 94.5 29c40 0 72.167 -8.66699 96.5 -26s36.5 -40 36.5 -68c0 -38 -28.667 -66.667 -86 -86c70 -28 105 -67.333 105 -118
c0 -34 -14.5 -61.333 -43.5 -82s-65.833 -31 -110.5 -31c-48 0 -85.5 10.167 -112.5 30.5s-40.5 45.833 -40.5 76.5zM861 93c0 20 -8.33203 36.167 -24.999 48.5s-45.334 27.5 -86.001 45.5c-37.333 -22.667 -56 -51 -56 -85c0 -50.667 27.667 -76 83 -76
c26 0 46.5 6 61.5 18s22.5 28.333 22.5 49zM716.001 311c0 -16.667 4.83301 -29.332 14.5 -37.999s30.5 -21 62.5 -37c30 20 45 44.667 45 74c0 17.333 -5.33301 31.166 -16 41.499s-25.667 15.5 -45 15.5c-18.667 0 -33.5 -5.33301 -44.5 -16s-16.5 -24 -16.5 -40z" />
    <glyph glyph-name="threeeighths" unicode="&#x215c;" horiz-adv-x="956" 
d="M138 605c-31.333 0 -60 -9.33301 -86 -28l-19 30c36.667 29.333 79 44 127 44c36 0 65.167 -8.16699 87.5 -24.5s33.5 -39.5 33.5 -69.5c0 -48 -30.667 -79.667 -92 -95c31.333 -3.33301 56 -14 74 -32s27 -40 27 -66c0 -41.333 -18.167 -74 -54.5 -98
s-80.833 -36 -133.5 -36c-30.667 0 -56 3 -76 9l-10 33c17.333 -4 37.333 -6 60 -6c38 0 69.333 9 94 27s37 42.667 37 74c0 26 -6.33301 44.333 -19 55s-31.667 16 -57 16c-8.66699 0 -19.667 -0.666992 -33 -2v43c6.66699 -0.666992 17 -1 31 -1c49.333 0 74 22 74 66
c0 20 -5.83301 35.167 -17.5 45.5s-27.5 15.5 -47.5 15.5zM629 97c0 44.667 32.333 78.999 97 102.999c-26 13.333 -45.167 27.333 -57.5 42s-18.5 33.334 -18.5 56.001c0 30 13.167 54.667 39.5 74s57.833 29 94.5 29c40 0 72.167 -8.66699 96.5 -26s36.5 -40 36.5 -68
c0 -38 -28.667 -66.667 -86 -86c70 -28 105 -67.333 105 -118c0 -34 -14.5 -61.333 -43.5 -82s-65.833 -31 -110.5 -31c-48 0 -85.5 10.167 -112.5 30.5s-40.5 45.833 -40.5 76.5zM868 92.999c0 20 -8.33203 36.167 -24.999 48.5s-45.334 27.5 -86.001 45.5
c-37.333 -22.667 -56 -51 -56 -85c0 -50.667 27.667 -76 83 -76c26 0 46.5 6 61.5 18s22.5 28.333 22.5 49zM723.001 310.999c0 -16.667 4.83301 -29.332 14.5 -37.999s30.5 -21 62.5 -37c30 20 45 44.667 45 74c0 17.333 -5.33301 31.166 -16 41.499s-25.667 15.5 -45 15.5
c-18.667 0 -33.5 -5.33301 -44.5 -16s-16.5 -24 -16.5 -40zM733.001 730.001l-487 -853h-54l487 853h54z" />
    <glyph glyph-name="fiveeighths" unicode="&#x215d;" horiz-adv-x="955" 
d="M628 97c0 44.667 32.333 78.999 97 102.999c-26 13.333 -45.167 27.333 -57.5 42s-18.5 33.334 -18.5 56.001c0 30 13.167 54.667 39.5 74s57.833 29 94.5 29c40 0 72.167 -8.66699 96.5 -26s36.5 -40 36.5 -68c0 -38 -28.667 -66.667 -86 -86
c70 -28 105 -67.333 105 -118c0 -34 -14.5 -61.333 -43.5 -82s-65.833 -31 -110.5 -31c-48 0 -85.5 10.167 -112.5 30.5s-40.5 45.833 -40.5 76.5zM867 92.999c0 20 -8.33203 36.167 -24.999 48.5s-45.334 27.5 -86.001 45.5c-37.333 -22.667 -56 -51 -56 -85
c0 -50.667 27.667 -76 83 -76c26 0 46.5 6 61.5 18s22.5 28.333 22.5 49zM722.001 310.999c0 -16.667 4.83301 -29.332 14.5 -37.999s30.5 -21 62.5 -37c30 20 45 44.667 45 74c0 17.333 -5.33301 31.166 -16 41.499s-25.667 15.5 -45 15.5
c-18.667 0 -33.5 -5.33301 -44.5 -16s-16.5 -24 -16.5 -40zM732.001 730.001l-487 -853h-54l487 853h54zM279.001 373.001c0 -45.333 -17.167 -80.666 -51.5 -105.999s-77.5 -38 -129.5 -38c-29.333 0 -56 3.66699 -80 11l-8 33c23.333 -5.33301 47.333 -8 72 -8
c35.333 0 63.5 8.16699 84.5 24.5s31.5 41.833 31.5 76.5c0 25.333 -6 44.166 -18 56.499s-31.667 18.5 -59 18.5c-25.333 0 -52 -5 -80 -15l22 218h207l-10 -57h-159l-12 -111c22 4.66699 41.333 7 58 7c42 0 74.5 -9.5 97.5 -28.5s34.5 -46.167 34.5 -81.5z" />
    <glyph glyph-name="seveneighths" unicode="&#x215e;" horiz-adv-x="885" 
d="M558 97c0 44.667 32.333 78.999 97 102.999c-26 13.333 -45.167 27.333 -57.5 42s-18.5 33.334 -18.5 56.001c0 30 13.167 54.667 39.5 74s57.833 29 94.5 29c40 0 72.167 -8.66699 96.5 -26s36.5 -40 36.5 -68c0 -38 -28.667 -66.667 -86 -86
c70 -28 105 -67.333 105 -118c0 -34 -14.5 -61.333 -43.5 -82s-65.833 -31 -110.5 -31c-48 0 -85.5 10.167 -112.5 30.5s-40.5 45.833 -40.5 76.5zM797 92.999c0 20 -8.33203 36.167 -24.999 48.5s-45.334 27.5 -86.001 45.5c-37.333 -22.667 -56 -51 -56 -85
c0 -50.667 27.667 -76 83 -76c26 0 46.5 6 61.5 18s22.5 28.333 22.5 49zM652.001 310.999c0 -16.667 4.83301 -29.332 14.5 -37.999s30.5 -21 62.5 -37c30 20 45 44.667 45 74c0 17.333 -5.33301 31.166 -16 41.499s-25.667 15.5 -45 15.5
c-18.667 0 -33.5 -5.33301 -44.5 -16s-16.5 -24 -16.5 -40zM662.001 730.001l-487 -853h-54l487 853h54zM303.001 644.001l-9.00098 -39c-79.333 -104 -132.666 -223 -159.999 -357l-87 -16c26 106.667 89 224.667 189 354h-220l10 58h277z" />
    <glyph glyph-name="uni215F" unicode="&#x215f;" horiz-adv-x="601" 
d="M208 644v-322.999c0 -17.333 5.16699 -28.333 15.5 -33s33.5 -7.66699 69.5 -9v-29h-248v29c36.667 1.33301 60 4.16602 70 8.49902s15 15.5 15 33.5v257c-27.333 -13.333 -57.333 -25 -90 -35l-9 28l120 73h57zM726 730.001l-487 -853h-54l487 853h54z" />
    <glyph glyph-name="uni2189" unicode="&#x2189;" horiz-adv-x="875" 
d="M356 442c0 -61.333 -15.499 -110.167 -46.499 -146.5s-70.167 -54.5 -117.5 -54.5c-46 0 -84.333 18.5 -115 55.5s-46 86.5 -46 148.5c0 61.333 15.333 111 46 149s68.667 57 114 57c49.333 0 89.166 -19.833 119.499 -59.5s45.5 -89.5 45.5 -149.5zM272.001 436.999
c0 118 -26.333 177.001 -79 177.001c-27.333 0 -47 -13 -59 -39s-18 -66.333 -18 -121c0 -62.667 6.16699 -107.834 18.5 -135.501s31.833 -41.5 58.5 -41.5c52.667 0 79 53.333 79 160zM692.001 355c-31.333 0 -60 -9.33301 -86 -28l-19 30c36.667 29.333 79 44 127 44
c36 0 65.167 -8.16699 87.5 -24.5s33.5 -39.5 33.5 -69.5c0 -48 -30.667 -79.667 -92 -95c31.333 -3.33301 56 -14 74 -32s27 -40 27 -66c0 -41.333 -18.167 -74 -54.5 -98s-80.833 -36 -133.5 -36c-30.667 0 -56 3 -76 9l-10 33c17.333 -4 37.333 -6 60 -6
c38 0 69.333 9 94 27s37 42.667 37 74c0 26 -6.33301 44.333 -19 55s-31.667 16 -57 16c-8.66699 0 -19.667 -0.666992 -33 -2v43c6.66699 -0.666992 17 -1 31 -1c49.333 0 74 22 74 66c0 20 -5.83301 35.167 -17.5 45.5s-27.5 15.5 -47.5 15.5zM719.001 730l-487 -853h-54
l487 853h54z" />
    <glyph glyph-name="arrowleft" unicode="&#x2190;" horiz-adv-x="1011" 
d="M130 263c0 -12.667 -4.33301 -23.334 -13 -32.001s-19.334 -13 -32.001 -13s-23.334 4.33301 -32.001 13s-13 19.334 -13 32.001s4.33301 23.334 13 32.001s19.334 13 32.001 13s23.334 -4.33301 32.001 -13s13 -19.334 13 -32.001zM212 138
c0 -12.667 -4.33301 -23.334 -13 -32.001s-19.334 -13 -32.001 -13s-23.334 4.33301 -32.001 13s-13 19.334 -13 32.001s4.33301 23.334 13 32.001s19.334 13 32.001 13s23.334 -4.33301 32.001 -13s13 -19.334 13 -32.001zM212 388c0 -12.667 -4.33301 -23.334 -13 -32.001
s-19.334 -13 -32.001 -13s-23.334 4.33301 -32.001 13s-13 19.334 -13 32.001s4.33301 23.334 13 32.001s19.334 13 32.001 13s23.334 -4.33301 32.001 -13s13 -19.334 13 -32.001zM294 13c0 -12.667 -4.33301 -23.334 -13 -32.001s-19.334 -13 -32.001 -13
s-23.334 4.33301 -32.001 13s-13 19.334 -13 32.001s4.33301 23.334 13 32.001s19.334 13 32.001 13s23.334 -4.33301 32.001 -13s13 -19.334 13 -32.001zM298 263c0 -12.667 -4.33301 -23.334 -13 -32.001s-19.334 -13 -32.001 -13s-23.334 4.33301 -32.001 13
s-13 19.334 -13 32.001s4.33301 23.334 13 32.001s19.334 13 32.001 13s23.334 -4.33301 32.001 -13s13 -19.334 13 -32.001zM294 513c0 -12.667 -4.33301 -23.334 -13 -32.001s-19.334 -13 -32.001 -13s-23.334 4.33301 -32.001 13s-13 19.334 -13 32.001
s4.33301 23.334 13 32.001s19.334 13 32.001 13s23.334 -4.33301 32.001 -13s13 -19.334 13 -32.001zM376 -112c0 -12.667 -4.33301 -23.334 -13 -32.001s-19.334 -13 -32.001 -13s-23.334 4.33301 -32.001 13s-13 19.334 -13 32.001s4.33301 23.334 13 32.001
s19.334 13 32.001 13s23.334 -4.33301 32.001 -13s13 -19.334 13 -32.001zM376 638c0 -12.667 -4.33301 -23.334 -13 -32.001s-19.334 -13 -32.001 -13s-23.334 4.33301 -32.001 13s-13 19.334 -13 32.001s4.33301 23.334 13 32.001s19.334 13 32.001 13
s23.334 -4.33301 32.001 -13s13 -19.334 13 -32.001zM466 263c0 -12.667 -4.33301 -23.334 -13 -32.001s-19.334 -13 -32.001 -13s-23.334 4.33301 -32.001 13s-13 19.334 -13 32.001s4.33301 23.334 13 32.001s19.334 13 32.001 13s23.334 -4.33301 32.001 -13
s13 -19.334 13 -32.001zM634 263c0 -12.667 -4.33301 -23.334 -13 -32.001s-19.334 -13 -32.001 -13s-23.334 4.33301 -32.001 13s-13 19.334 -13 32.001s4.33301 23.334 13 32.001s19.334 13 32.001 13s23.334 -4.33301 32.001 -13s13 -19.334 13 -32.001zM802 263
c0 -12.667 -4.33301 -23.334 -13 -32.001s-19.334 -13 -32.001 -13s-23.334 4.33301 -32.001 13s-13 19.334 -13 32.001s4.33301 23.334 13 32.001s19.334 13 32.001 13s23.334 -4.33301 32.001 -13s13 -19.334 13 -32.001zM970 263c0 -12.667 -4.33301 -23.334 -13 -32.001
s-19.334 -13 -32.001 -13s-23.334 4.33301 -32.001 13s-13 19.334 -13 32.001s4.33301 23.334 13 32.001s19.334 13 32.001 13s23.334 -4.33301 32.001 -13s13 -19.334 13 -32.001z" />
    <glyph glyph-name="arrowup" unicode="&#x2191;" horiz-adv-x="1011" 
d="M505 -94c-12.667 0 -23.334 4.33301 -32.001 13s-13 19.334 -13 32.001s4.33301 23.334 13 32.001s19.334 13 32.001 13s23.334 -4.33301 32.001 -13s13 -19.334 13 -32.001s-4.33301 -23.334 -13 -32.001s-19.334 -13 -32.001 -13zM505 74
c-12.667 0 -23.334 4.33301 -32.001 13s-13 19.334 -13 32.001s4.33301 23.334 13 32.001s19.334 13 32.001 13s23.334 -4.33301 32.001 -13s13 -19.334 13 -32.001s-4.33301 -23.334 -13 -32.001s-19.334 -13 -32.001 -13zM505 242c-12.667 0 -23.334 4.33301 -32.001 13
s-13 19.334 -13 32.001s4.33301 23.334 13 32.001s19.334 13 32.001 13s23.334 -4.33301 32.001 -13s13 -19.334 13 -32.001s-4.33301 -23.334 -13 -32.001s-19.334 -13 -32.001 -13zM505 410c-12.667 0 -23.334 4.33301 -32.001 13s-13 19.334 -13 32.001
s4.33301 23.334 13 32.001s19.334 13 32.001 13s23.334 -4.33301 32.001 -13s13 -19.334 13 -32.001s-4.33301 -23.334 -13 -32.001s-19.334 -13 -32.001 -13zM505 578c-12.667 0 -23.334 4.33301 -32.001 13s-13 19.334 -13 32.001s4.33301 23.334 13 32.001
s19.334 13 32.001 13s23.334 -4.33301 32.001 -13s13 -19.334 13 -32.001s-4.33301 -23.334 -13 -32.001s-19.334 -13 -32.001 -13zM505 746c-12.667 0 -23.334 4.33301 -32.001 13s-13 19.334 -13 32.001s4.33301 23.334 13 32.001s19.334 13 32.001 13
s23.334 -4.33301 32.001 -13s13 -19.334 13 -32.001s-4.33301 -23.334 -13 -32.001s-19.334 -13 -32.001 -13zM380 664c-12.667 0 -23.334 4.33301 -32.001 13s-13 19.334 -13 32.001s4.33301 23.334 13 32.001s19.334 13 32.001 13s23.334 -4.33301 32.001 -13
s13 -19.334 13 -32.001s-4.33301 -23.334 -13 -32.001s-19.334 -13 -32.001 -13zM255 582c-12.667 0 -23.334 4.33301 -32.001 13s-13 19.334 -13 32.001s4.33301 23.334 13 32.001s19.334 13 32.001 13s23.334 -4.33301 32.001 -13s13 -19.334 13 -32.001
s-4.33301 -23.334 -13 -32.001s-19.334 -13 -32.001 -13zM130 500c-12.667 0 -23.334 4.33301 -32.001 13s-13 19.334 -13 32.001s4.33301 23.334 13 32.001s19.334 13 32.001 13s23.334 -4.33301 32.001 -13s13 -19.334 13 -32.001s-4.33301 -23.334 -13 -32.001
s-19.334 -13 -32.001 -13zM630 664c-12.667 0 -23.334 4.33301 -32.001 13s-13 19.334 -13 32.001s4.33301 23.334 13 32.001s19.334 13 32.001 13s23.334 -4.33301 32.001 -13s13 -19.334 13 -32.001s-4.33301 -23.334 -13 -32.001s-19.334 -13 -32.001 -13zM755 582
c-12.667 0 -23.334 4.33301 -32.001 13s-13 19.334 -13 32.001s4.33301 23.334 13 32.001s19.334 13 32.001 13s23.334 -4.33301 32.001 -13s13 -19.334 13 -32.001s-4.33301 -23.334 -13 -32.001s-19.334 -13 -32.001 -13zM880 500c-12.667 0 -23.334 4.33301 -32.001 13
s-13 19.334 -13 32.001s4.33301 23.334 13 32.001s19.334 13 32.001 13s23.334 -4.33301 32.001 -13s13 -19.334 13 -32.001s-4.33301 -23.334 -13 -32.001s-19.334 -13 -32.001 -13z" />
    <glyph glyph-name="arrowright" unicode="&#x2192;" horiz-adv-x="1011" 
d="M40 263c0 12.667 4.33301 23.334 13 32.001s19.334 13 32.001 13s23.334 -4.33301 32.001 -13s13 -19.334 13 -32.001s-4.33301 -23.334 -13 -32.001s-19.334 -13 -32.001 -13s-23.334 4.33301 -32.001 13s-13 19.334 -13 32.001zM208 263
c0 12.667 4.33301 23.334 13 32.001s19.334 13 32.001 13s23.334 -4.33301 32.001 -13s13 -19.334 13 -32.001s-4.33301 -23.334 -13 -32.001s-19.334 -13 -32.001 -13s-23.334 4.33301 -32.001 13s-13 19.334 -13 32.001zM376 263c0 12.667 4.33301 23.334 13 32.001
s19.334 13 32.001 13s23.334 -4.33301 32.001 -13s13 -19.334 13 -32.001s-4.33301 -23.334 -13 -32.001s-19.334 -13 -32.001 -13s-23.334 4.33301 -32.001 13s-13 19.334 -13 32.001zM544 263c0 12.667 4.33301 23.334 13 32.001s19.334 13 32.001 13
s23.334 -4.33301 32.001 -13s13 -19.334 13 -32.001s-4.33301 -23.334 -13 -32.001s-19.334 -13 -32.001 -13s-23.334 4.33301 -32.001 13s-13 19.334 -13 32.001zM634 -112c0 12.667 4.33301 23.334 13 32.001s19.334 13 32.001 13s23.334 -4.33301 32.001 -13
s13 -19.334 13 -32.001s-4.33301 -23.334 -13 -32.001s-19.334 -13 -32.001 -13s-23.334 4.33301 -32.001 13s-13 19.334 -13 32.001zM634 638c0 12.667 4.33301 23.334 13 32.001s19.334 13 32.001 13s23.334 -4.33301 32.001 -13s13 -19.334 13 -32.001
s-4.33301 -23.334 -13 -32.001s-19.334 -13 -32.001 -13s-23.334 4.33301 -32.001 13s-13 19.334 -13 32.001zM716 13c0 12.667 4.33301 23.334 13 32.001s19.334 13 32.001 13s23.334 -4.33301 32.001 -13s13 -19.334 13 -32.001s-4.33301 -23.334 -13 -32.001
s-19.334 -13 -32.001 -13s-23.334 4.33301 -32.001 13s-13 19.334 -13 32.001zM712 263c0 12.667 4.33301 23.334 13 32.001s19.334 13 32.001 13s23.334 -4.33301 32.001 -13s13 -19.334 13 -32.001s-4.33301 -23.334 -13 -32.001s-19.334 -13 -32.001 -13
s-23.334 4.33301 -32.001 13s-13 19.334 -13 32.001zM716 513c0 12.667 4.33301 23.334 13 32.001s19.334 13 32.001 13s23.334 -4.33301 32.001 -13s13 -19.334 13 -32.001s-4.33301 -23.334 -13 -32.001s-19.334 -13 -32.001 -13s-23.334 4.33301 -32.001 13
s-13 19.334 -13 32.001zM798 138c0 12.667 4.33301 23.334 13 32.001s19.334 13 32.001 13s23.334 -4.33301 32.001 -13s13 -19.334 13 -32.001s-4.33301 -23.334 -13 -32.001s-19.334 -13 -32.001 -13s-23.334 4.33301 -32.001 13s-13 19.334 -13 32.001zM798 388
c0 12.667 4.33301 23.334 13 32.001s19.334 13 32.001 13s23.334 -4.33301 32.001 -13s13 -19.334 13 -32.001s-4.33301 -23.334 -13 -32.001s-19.334 -13 -32.001 -13s-23.334 4.33301 -32.001 13s-13 19.334 -13 32.001zM880 263c0 12.667 4.33301 23.334 13 32.001
s19.334 13 32.001 13s23.334 -4.33301 32.001 -13s13 -19.334 13 -32.001s-4.33301 -23.334 -13 -32.001s-19.334 -13 -32.001 -13s-23.334 4.33301 -32.001 13s-13 19.334 -13 32.001z" />
    <glyph glyph-name="arrowdown" unicode="&#x2193;" horiz-adv-x="1011" 
d="M505 836c12.667 0 23.334 -4.33301 32.001 -13s13 -19.334 13 -32.001s-4.33301 -23.334 -13 -32.001s-19.334 -13 -32.001 -13s-23.334 4.33301 -32.001 13s-13 19.334 -13 32.001s4.33301 23.334 13 32.001s19.334 13 32.001 13zM505 668
c12.667 0 23.334 -4.33301 32.001 -13s13 -19.334 13 -32.001s-4.33301 -23.334 -13 -32.001s-19.334 -13 -32.001 -13s-23.334 4.33301 -32.001 13s-13 19.334 -13 32.001s4.33301 23.334 13 32.001s19.334 13 32.001 13zM505 500c12.667 0 23.334 -4.33301 32.001 -13
s13 -19.334 13 -32.001s-4.33301 -23.334 -13 -32.001s-19.334 -13 -32.001 -13s-23.334 4.33301 -32.001 13s-13 19.334 -13 32.001s4.33301 23.334 13 32.001s19.334 13 32.001 13zM505 332c12.667 0 23.334 -4.33301 32.001 -13s13 -19.334 13 -32.001
s-4.33301 -23.334 -13 -32.001s-19.334 -13 -32.001 -13s-23.334 4.33301 -32.001 13s-13 19.334 -13 32.001s4.33301 23.334 13 32.001s19.334 13 32.001 13zM505 164c12.667 0 23.334 -4.33301 32.001 -13s13 -19.334 13 -32.001s-4.33301 -23.334 -13 -32.001
s-19.334 -13 -32.001 -13s-23.334 4.33301 -32.001 13s-13 19.334 -13 32.001s4.33301 23.334 13 32.001s19.334 13 32.001 13zM505 -4c12.667 0 23.334 -4.33301 32.001 -13s13 -19.334 13 -32.001s-4.33301 -23.334 -13 -32.001s-19.334 -13 -32.001 -13
s-23.334 4.33301 -32.001 13s-13 19.334 -13 32.001s4.33301 23.334 13 32.001s19.334 13 32.001 13zM630 78c12.667 0 23.334 -4.33301 32.001 -13s13 -19.334 13 -32.001s-4.33301 -23.334 -13 -32.001s-19.334 -13 -32.001 -13s-23.334 4.33301 -32.001 13
s-13 19.334 -13 32.001s4.33301 23.334 13 32.001s19.334 13 32.001 13zM755 160c12.667 0 23.334 -4.33301 32.001 -13s13 -19.334 13 -32.001s-4.33301 -23.334 -13 -32.001s-19.334 -13 -32.001 -13s-23.334 4.33301 -32.001 13s-13 19.334 -13 32.001
s4.33301 23.334 13 32.001s19.334 13 32.001 13zM880 242c12.667 0 23.334 -4.33301 32.001 -13s13 -19.334 13 -32.001s-4.33301 -23.334 -13 -32.001s-19.334 -13 -32.001 -13s-23.334 4.33301 -32.001 13s-13 19.334 -13 32.001s4.33301 23.334 13 32.001
s19.334 13 32.001 13zM380 78c12.667 0 23.334 -4.33301 32.001 -13s13 -19.334 13 -32.001s-4.33301 -23.334 -13 -32.001s-19.334 -13 -32.001 -13s-23.334 4.33301 -32.001 13s-13 19.334 -13 32.001s4.33301 23.334 13 32.001s19.334 13 32.001 13zM255 160
c12.667 0 23.334 -4.33301 32.001 -13s13 -19.334 13 -32.001s-4.33301 -23.334 -13 -32.001s-19.334 -13 -32.001 -13s-23.334 4.33301 -32.001 13s-13 19.334 -13 32.001s4.33301 23.334 13 32.001s19.334 13 32.001 13zM130 242c12.667 0 23.334 -4.33301 32.001 -13
s13 -19.334 13 -32.001s-4.33301 -23.334 -13 -32.001s-19.334 -13 -32.001 -13s-23.334 4.33301 -32.001 13s-13 19.334 -13 32.001s4.33301 23.334 13 32.001s19.334 13 32.001 13z" />
    <glyph glyph-name="arrowboth" unicode="&#x2194;" horiz-adv-x="1346" 
d="M1048 263c0 12.667 4.33301 23.334 13 32.001s19.334 13 32.001 13s23.334 -4.33301 32.001 -13s13 -19.334 13 -32.001s-4.33301 -23.334 -13 -32.001s-19.334 -13 -32.001 -13s-23.334 4.33301 -32.001 13s-13 19.334 -13 32.001zM1216 263
c0 12.667 4.33301 23.334 13 32.001s19.334 13 32.001 13s23.334 -4.33301 32.001 -13s13 -19.334 13 -32.001s-4.33301 -23.334 -13 -32.001s-19.334 -13 -32.001 -13s-23.334 4.33301 -32.001 13s-13 19.334 -13 32.001zM1134 138c0 12.667 4.33301 23.334 13 32.001
s19.334 13 32.001 13s23.334 -4.33301 32.001 -13s13 -19.334 13 -32.001s-4.33301 -23.334 -13 -32.001s-19.334 -13 -32.001 -13s-23.334 4.33301 -32.001 13s-13 19.334 -13 32.001zM1052 13c0 12.667 4.33301 23.334 13 32.001s19.334 13 32.001 13
s23.334 -4.33301 32.001 -13s13 -19.334 13 -32.001s-4.33301 -23.334 -13 -32.001s-19.334 -13 -32.001 -13s-23.334 4.33301 -32.001 13s-13 19.334 -13 32.001zM970 -112c0 12.667 4.33301 23.334 13 32.001s19.334 13 32.001 13s23.334 -4.33301 32.001 -13
s13 -19.334 13 -32.001s-4.33301 -23.334 -13 -32.001s-19.334 -13 -32.001 -13s-23.334 4.33301 -32.001 13s-13 19.334 -13 32.001zM1134 388c0 12.667 4.33301 23.334 13 32.001s19.334 13 32.001 13s23.334 -4.33301 32.001 -13s13 -19.334 13 -32.001
s-4.33301 -23.334 -13 -32.001s-19.334 -13 -32.001 -13s-23.334 4.33301 -32.001 13s-13 19.334 -13 32.001zM1052 513c0 12.667 4.33301 23.334 13 32.001s19.334 13 32.001 13s23.334 -4.33301 32.001 -13s13 -19.334 13 -32.001s-4.33301 -23.334 -13 -32.001
s-19.334 -13 -32.001 -13s-23.334 4.33301 -32.001 13s-13 19.334 -13 32.001zM970 638c0 12.667 4.33301 23.334 13 32.001s19.334 13 32.001 13s23.334 -4.33301 32.001 -13s13 -19.334 13 -32.001s-4.33301 -23.334 -13 -32.001s-19.334 -13 -32.001 -13
s-23.334 4.33301 -32.001 13s-13 19.334 -13 32.001zM970 263c0 -12.667 -4.33301 -23.334 -13 -32.001s-19.334 -13 -32.001 -13s-23.334 4.33301 -32.001 13s-13 19.334 -13 32.001s4.33301 23.334 13 32.001s19.334 13 32.001 13s23.334 -4.33301 32.001 -13
s13 -19.334 13 -32.001zM802 263c0 -12.667 -4.33301 -23.334 -13 -32.001s-19.334 -13 -32.001 -13s-23.334 4.33301 -32.001 13s-13 19.334 -13 32.001s4.33301 23.334 13 32.001s19.334 13 32.001 13s23.334 -4.33301 32.001 -13s13 -19.334 13 -32.001zM634 263
c0 -12.667 -4.33301 -23.334 -13 -32.001s-19.334 -13 -32.001 -13s-23.334 4.33301 -32.001 13s-13 19.334 -13 32.001s4.33301 23.334 13 32.001s19.334 13 32.001 13s23.334 -4.33301 32.001 -13s13 -19.334 13 -32.001zM466 263c0 -12.667 -4.33301 -23.334 -13 -32.001
s-19.334 -13 -32.001 -13s-23.334 4.33301 -32.001 13s-13 19.334 -13 32.001s4.33301 23.334 13 32.001s19.334 13 32.001 13s23.334 -4.33301 32.001 -13s13 -19.334 13 -32.001zM298 263c0 -12.667 -4.33301 -23.334 -13 -32.001s-19.334 -13 -32.001 -13
s-23.334 4.33301 -32.001 13s-13 19.334 -13 32.001s4.33301 23.334 13 32.001s19.334 13 32.001 13s23.334 -4.33301 32.001 -13s13 -19.334 13 -32.001zM130 263c0 -12.667 -4.33301 -23.334 -13 -32.001s-19.334 -13 -32.001 -13s-23.334 4.33301 -32.001 13
s-13 19.334 -13 32.001s4.33301 23.334 13 32.001s19.334 13 32.001 13s23.334 -4.33301 32.001 -13s13 -19.334 13 -32.001zM212 138c0 -12.667 -4.33301 -23.334 -13 -32.001s-19.334 -13 -32.001 -13s-23.334 4.33301 -32.001 13s-13 19.334 -13 32.001
s4.33301 23.334 13 32.001s19.334 13 32.001 13s23.334 -4.33301 32.001 -13s13 -19.334 13 -32.001zM294 13c0 -12.667 -4.33301 -23.334 -13 -32.001s-19.334 -13 -32.001 -13s-23.334 4.33301 -32.001 13s-13 19.334 -13 32.001s4.33301 23.334 13 32.001
s19.334 13 32.001 13s23.334 -4.33301 32.001 -13s13 -19.334 13 -32.001zM376 -112c0 -12.667 -4.33301 -23.334 -13 -32.001s-19.334 -13 -32.001 -13s-23.334 4.33301 -32.001 13s-13 19.334 -13 32.001s4.33301 23.334 13 32.001s19.334 13 32.001 13
s23.334 -4.33301 32.001 -13s13 -19.334 13 -32.001zM212 388c0 -12.667 -4.33301 -23.334 -13 -32.001s-19.334 -13 -32.001 -13s-23.334 4.33301 -32.001 13s-13 19.334 -13 32.001s4.33301 23.334 13 32.001s19.334 13 32.001 13s23.334 -4.33301 32.001 -13
s13 -19.334 13 -32.001zM294 513c0 -12.667 -4.33301 -23.334 -13 -32.001s-19.334 -13 -32.001 -13s-23.334 4.33301 -32.001 13s-13 19.334 -13 32.001s4.33301 23.334 13 32.001s19.334 13 32.001 13s23.334 -4.33301 32.001 -13s13 -19.334 13 -32.001zM376 638
c0 -12.667 -4.33301 -23.334 -13 -32.001s-19.334 -13 -32.001 -13s-23.334 4.33301 -32.001 13s-13 19.334 -13 32.001s4.33301 23.334 13 32.001s19.334 13 32.001 13s23.334 -4.33301 32.001 -13s13 -19.334 13 -32.001z" />
    <glyph glyph-name="arrowupdn" unicode="&#x2195;" horiz-adv-x="1011" 
d="M505 -4c12.667 0 23.334 -4.33301 32.001 -13s13 -19.334 13 -32.001s-4.33301 -23.334 -13 -32.001s-19.334 -13 -32.001 -13s-23.334 4.33301 -32.001 13s-13 19.334 -13 32.001s4.33301 23.334 13 32.001s19.334 13 32.001 13zM505 -172
c12.667 0 23.334 -4.33301 32.001 -13s13 -19.334 13 -32.001s-4.33301 -23.334 -13 -32.001s-19.334 -13 -32.001 -13s-23.334 4.33301 -32.001 13s-13 19.334 -13 32.001s4.33301 23.334 13 32.001s19.334 13 32.001 13zM630 -90c12.667 0 23.334 -4.33301 32.001 -13
s13 -19.334 13 -32.001s-4.33301 -23.334 -13 -32.001s-19.334 -13 -32.001 -13s-23.334 4.33301 -32.001 13s-13 19.334 -13 32.001s4.33301 23.334 13 32.001s19.334 13 32.001 13zM755 -8c12.667 0 23.334 -4.33301 32.001 -13s13 -19.334 13 -32.001
s-4.33301 -23.334 -13 -32.001s-19.334 -13 -32.001 -13s-23.334 4.33301 -32.001 13s-13 19.334 -13 32.001s4.33301 23.334 13 32.001s19.334 13 32.001 13zM880 74c12.667 0 23.334 -4.33301 32.001 -13s13 -19.334 13 -32.001s-4.33301 -23.334 -13 -32.001
s-19.334 -13 -32.001 -13s-23.334 4.33301 -32.001 13s-13 19.334 -13 32.001s4.33301 23.334 13 32.001s19.334 13 32.001 13zM380 -90c12.667 0 23.334 -4.33301 32.001 -13s13 -19.334 13 -32.001s-4.33301 -23.334 -13 -32.001s-19.334 -13 -32.001 -13
s-23.334 4.33301 -32.001 13s-13 19.334 -13 32.001s4.33301 23.334 13 32.001s19.334 13 32.001 13zM255 -8c12.667 0 23.334 -4.33301 32.001 -13s13 -19.334 13 -32.001s-4.33301 -23.334 -13 -32.001s-19.334 -13 -32.001 -13s-23.334 4.33301 -32.001 13
s-13 19.334 -13 32.001s4.33301 23.334 13 32.001s19.334 13 32.001 13zM130 74c12.667 0 23.334 -4.33301 32.001 -13s13 -19.334 13 -32.001s-4.33301 -23.334 -13 -32.001s-19.334 -13 -32.001 -13s-23.334 4.33301 -32.001 13s-13 19.334 -13 32.001
s4.33301 23.334 13 32.001s19.334 13 32.001 13zM505 74c-12.667 0 -23.334 4.33301 -32.001 13s-13 19.334 -13 32.001s4.33301 23.334 13 32.001s19.334 13 32.001 13s23.334 -4.33301 32.001 -13s13 -19.334 13 -32.001s-4.33301 -23.334 -13 -32.001
s-19.334 -13 -32.001 -13zM505 242c-12.667 0 -23.334 4.33301 -32.001 13s-13 19.334 -13 32.001s4.33301 23.334 13 32.001s19.334 13 32.001 13s23.334 -4.33301 32.001 -13s13 -19.334 13 -32.001s-4.33301 -23.334 -13 -32.001s-19.334 -13 -32.001 -13zM505 410
c-12.667 0 -23.334 4.33301 -32.001 13s-13 19.334 -13 32.001s4.33301 23.334 13 32.001s19.334 13 32.001 13s23.334 -4.33301 32.001 -13s13 -19.334 13 -32.001s-4.33301 -23.334 -13 -32.001s-19.334 -13 -32.001 -13zM505 578c-12.667 0 -23.334 4.33301 -32.001 13
s-13 19.334 -13 32.001s4.33301 23.334 13 32.001s19.334 13 32.001 13s23.334 -4.33301 32.001 -13s13 -19.334 13 -32.001s-4.33301 -23.334 -13 -32.001s-19.334 -13 -32.001 -13zM505 746c-12.667 0 -23.334 4.33301 -32.001 13s-13 19.334 -13 32.001
s4.33301 23.334 13 32.001s19.334 13 32.001 13s23.334 -4.33301 32.001 -13s13 -19.334 13 -32.001s-4.33301 -23.334 -13 -32.001s-19.334 -13 -32.001 -13zM630 664c-12.667 0 -23.334 4.33301 -32.001 13s-13 19.334 -13 32.001s4.33301 23.334 13 32.001
s19.334 13 32.001 13s23.334 -4.33301 32.001 -13s13 -19.334 13 -32.001s-4.33301 -23.334 -13 -32.001s-19.334 -13 -32.001 -13zM755 582c-12.667 0 -23.334 4.33301 -32.001 13s-13 19.334 -13 32.001s4.33301 23.334 13 32.001s19.334 13 32.001 13
s23.334 -4.33301 32.001 -13s13 -19.334 13 -32.001s-4.33301 -23.334 -13 -32.001s-19.334 -13 -32.001 -13zM880 500c-12.667 0 -23.334 4.33301 -32.001 13s-13 19.334 -13 32.001s4.33301 23.334 13 32.001s19.334 13 32.001 13s23.334 -4.33301 32.001 -13
s13 -19.334 13 -32.001s-4.33301 -23.334 -13 -32.001s-19.334 -13 -32.001 -13zM380 664c-12.667 0 -23.334 4.33301 -32.001 13s-13 19.334 -13 32.001s4.33301 23.334 13 32.001s19.334 13 32.001 13s23.334 -4.33301 32.001 -13s13 -19.334 13 -32.001
s-4.33301 -23.334 -13 -32.001s-19.334 -13 -32.001 -13zM255 582c-12.667 0 -23.334 4.33301 -32.001 13s-13 19.334 -13 32.001s4.33301 23.334 13 32.001s19.334 13 32.001 13s23.334 -4.33301 32.001 -13s13 -19.334 13 -32.001s-4.33301 -23.334 -13 -32.001
s-19.334 -13 -32.001 -13zM130 500c-12.667 0 -23.334 4.33301 -32.001 13s-13 19.334 -13 32.001s4.33301 23.334 13 32.001s19.334 13 32.001 13s23.334 -4.33301 32.001 -13s13 -19.334 13 -32.001s-4.33301 -23.334 -13 -32.001s-19.334 -13 -32.001 -13z" />
    <glyph glyph-name="uni2196" unicode="&#x2196;" horiz-adv-x="1011" 
d="M848 0c12.667 0 23.334 -4.33301 32.001 -13s13 -19.334 13 -32.001s-4.33301 -23.334 -13 -32.001s-19.334 -13 -32.001 -13s-23.334 4.33301 -32.001 13s-13 19.334 -13 32.001s4.33301 23.334 13 32.001s19.334 13 32.001 13zM729 119
c12.667 0 23.334 -4.33301 32.001 -13s13 -19.334 13 -32.001s-4.33301 -23.334 -13 -32.001s-19.334 -13 -32.001 -13s-23.334 4.33301 -32.001 13s-13 19.334 -13 32.001s4.33301 23.334 13 32.001s19.334 13 32.001 13zM610 238c12.667 0 23.334 -4.33301 32.001 -13
s13 -19.334 13 -32.001s-4.33301 -23.334 -13 -32.001s-19.334 -13 -32.001 -13s-23.334 4.33301 -32.001 13s-13 19.334 -13 32.001s4.33301 23.334 13 32.001s19.334 13 32.001 13zM492 357c12.667 0 23.334 -4.33301 32.001 -13s13 -19.334 13 -32.001
s-4.33301 -23.334 -13 -32.001s-19.334 -13 -32.001 -13s-23.334 4.33301 -32.001 13s-13 19.334 -13 32.001s4.33301 23.334 13 32.001s19.334 13 32.001 13zM373 475c12.667 0 23.334 -4.33301 32.001 -13s13 -19.334 13 -32.001s-4.33301 -23.334 -13 -32.001
s-19.334 -13 -32.001 -13s-23.334 4.33301 -32.001 13s-13 19.334 -13 32.001s4.33301 23.334 13 32.001s19.334 13 32.001 13zM254 594c12.667 0 23.334 -4.33301 32.001 -13s13 -19.334 13 -32.001s-4.33301 -23.334 -13 -32.001s-19.334 -13 -32.001 -13
s-23.334 4.33301 -32.001 13s-13 19.334 -13 32.001s4.33301 23.334 13 32.001s19.334 13 32.001 13zM223 447c12.667 0 23.334 -4.33301 32.001 -13s13 -19.334 13 -32.001s-4.33301 -23.334 -13 -32.001s-19.334 -13 -32.001 -13s-23.334 4.33301 -32.001 13
s-13 19.334 -13 32.001s4.33301 23.334 13 32.001s19.334 13 32.001 13zM194 301c12.667 0 23.334 -4.33301 32.001 -13s13 -19.334 13 -32.001s-4.33301 -23.334 -13 -32.001s-19.334 -13 -32.001 -13s-23.334 4.33301 -32.001 13s-13 19.334 -13 32.001
s4.33301 23.334 13 32.001s19.334 13 32.001 13zM163 155c12.667 0 23.334 -4.33301 32.001 -13s13 -19.334 13 -32.001s-4.33301 -23.334 -13 -32.001s-19.334 -13 -32.001 -13s-23.334 4.33301 -32.001 13s-13 19.334 -13 32.001s4.33301 23.334 13 32.001
s19.334 13 32.001 13zM400 625c12.667 0 23.334 -4.33301 32.001 -13s13 -19.334 13 -32.001s-4.33301 -23.334 -13 -32.001s-19.334 -13 -32.001 -13s-23.334 4.33301 -32.001 13s-13 19.334 -13 32.001s4.33301 23.334 13 32.001s19.334 13 32.001 13zM546 655
c12.667 0 23.334 -4.33301 32.001 -13s13 -19.334 13 -32.001s-4.33301 -23.334 -13 -32.001s-19.334 -13 -32.001 -13s-23.334 4.33301 -32.001 13s-13 19.334 -13 32.001s4.33301 23.334 13 32.001s19.334 13 32.001 13zM694 685c12.667 0 23.334 -4.33301 32.001 -13
s13 -19.334 13 -32.001s-4.33301 -23.334 -13 -32.001s-19.334 -13 -32.001 -13s-23.334 4.33301 -32.001 13s-13 19.334 -13 32.001s4.33301 23.334 13 32.001s19.334 13 32.001 13z" />
    <glyph glyph-name="uni2197" unicode="&#x2197;" horiz-adv-x="1011" 
d="M163 0c12.667 0 23.334 -4.33301 32.001 -13s13 -19.334 13 -32.001s-4.33301 -23.334 -13 -32.001s-19.334 -13 -32.001 -13s-23.334 4.33301 -32.001 13s-13 19.334 -13 32.001s4.33301 23.334 13 32.001s19.334 13 32.001 13zM282 119
c12.667 0 23.334 -4.33301 32.001 -13s13 -19.334 13 -32.001s-4.33301 -23.334 -13 -32.001s-19.334 -13 -32.001 -13s-23.334 4.33301 -32.001 13s-13 19.334 -13 32.001s4.33301 23.334 13 32.001s19.334 13 32.001 13zM401 238c12.667 0 23.334 -4.33301 32.001 -13
s13 -19.334 13 -32.001s-4.33301 -23.334 -13 -32.001s-19.334 -13 -32.001 -13s-23.334 4.33301 -32.001 13s-13 19.334 -13 32.001s4.33301 23.334 13 32.001s19.334 13 32.001 13zM519 357c12.667 0 23.334 -4.33301 32.001 -13s13 -19.334 13 -32.001
s-4.33301 -23.334 -13 -32.001s-19.334 -13 -32.001 -13s-23.334 4.33301 -32.001 13s-13 19.334 -13 32.001s4.33301 23.334 13 32.001s19.334 13 32.001 13zM638 475c12.667 0 23.334 -4.33301 32.001 -13s13 -19.334 13 -32.001s-4.33301 -23.334 -13 -32.001
s-19.334 -13 -32.001 -13s-23.334 4.33301 -32.001 13s-13 19.334 -13 32.001s4.33301 23.334 13 32.001s19.334 13 32.001 13zM757 594c12.667 0 23.334 -4.33301 32.001 -13s13 -19.334 13 -32.001s-4.33301 -23.334 -13 -32.001s-19.334 -13 -32.001 -13
s-23.334 4.33301 -32.001 13s-13 19.334 -13 32.001s4.33301 23.334 13 32.001s19.334 13 32.001 13zM788 447c12.667 0 23.334 -4.33301 32.001 -13s13 -19.334 13 -32.001s-4.33301 -23.334 -13 -32.001s-19.334 -13 -32.001 -13s-23.334 4.33301 -32.001 13
s-13 19.334 -13 32.001s4.33301 23.334 13 32.001s19.334 13 32.001 13zM817 301c12.667 0 23.334 -4.33301 32.001 -13s13 -19.334 13 -32.001s-4.33301 -23.334 -13 -32.001s-19.334 -13 -32.001 -13s-23.334 4.33301 -32.001 13s-13 19.334 -13 32.001
s4.33301 23.334 13 32.001s19.334 13 32.001 13zM848 155c12.667 0 23.334 -4.33301 32.001 -13s13 -19.334 13 -32.001s-4.33301 -23.334 -13 -32.001s-19.334 -13 -32.001 -13s-23.334 4.33301 -32.001 13s-13 19.334 -13 32.001s4.33301 23.334 13 32.001
s19.334 13 32.001 13zM611 625c12.667 0 23.334 -4.33301 32.001 -13s13 -19.334 13 -32.001s-4.33301 -23.334 -13 -32.001s-19.334 -13 -32.001 -13s-23.334 4.33301 -32.001 13s-13 19.334 -13 32.001s4.33301 23.334 13 32.001s19.334 13 32.001 13zM465 655
c12.667 0 23.334 -4.33301 32.001 -13s13 -19.334 13 -32.001s-4.33301 -23.334 -13 -32.001s-19.334 -13 -32.001 -13s-23.334 4.33301 -32.001 13s-13 19.334 -13 32.001s4.33301 23.334 13 32.001s19.334 13 32.001 13zM317 685c12.667 0 23.334 -4.33301 32.001 -13
s13 -19.334 13 -32.001s-4.33301 -23.334 -13 -32.001s-19.334 -13 -32.001 -13s-23.334 4.33301 -32.001 13s-13 19.334 -13 32.001s4.33301 23.334 13 32.001s19.334 13 32.001 13z" />
    </font>
</defs>
</svg>
