<?xml version="1.0" encoding="iso-8859-1"?>
<!-- Generator: Adobe Illustrator 16.0.4, SVG Export Plug-In . SVG Version: 6.00 Build 0)  -->
<!DOCTYPE svg PUBLIC "-//W3C//DTD SVG 1.1//EN" "http://www.w3.org/Graphics/SVG/1.1/DTD/svg11.dtd">
<svg version="1.1" id="Layer_1" xmlns="http://www.w3.org/2000/svg" xmlns:xlink="http://www.w3.org/1999/xlink" x="0px" y="0px"
	 width="612.817px" height="112.747px" viewBox="0 0 612.817 112.747" style="enable-background:new 0 0 612.817 112.747;"
	 xml:space="preserve">
<g>
	<path style="fill:#6AD1DD;" d="M27.99,56.923c8.884,0,14.781-2.83,19.97-7.391c0.865-0.787,1.572-1.966,1.572-3.459
		c0-2.438-2.123-4.481-4.56-4.481c-1.179,0-2.202,0.472-2.909,1.1c-4.01,3.381-7.941,5.269-13.759,5.269
		c-10.535,0-18.162-8.727-18.162-19.499v-0.157c0-10.771,7.706-19.42,18.162-19.42c5.268,0,9.356,1.887,13.13,4.954
		c0.629,0.472,1.573,0.943,2.909,0.943c2.673,0,4.796-2.044,4.796-4.717c0-1.73-0.865-3.066-1.887-3.853
		C42.457,2.516,36.875,0,28.383,0C11.715,0,0,12.815,0,28.461v0.157C0,44.422,11.951,56.923,27.99,56.923z"/>
	<path style="fill:#6AD1DD;" d="M75.793,56.766c11.558,0,19.656-6.133,19.656-16.432v-0.158c0-9.12-5.976-13.287-17.611-16.117
		c-10.614-2.517-13.13-4.403-13.13-8.649v-0.157c0-3.617,3.302-6.526,8.963-6.526c4.324,0,8.412,1.415,12.658,4.167
		c0.786,0.471,1.573,0.708,2.516,0.708c2.516,0,4.56-1.966,4.56-4.482c0-1.887-1.021-3.224-2.123-3.853
		c-4.953-3.302-10.536-5.11-17.454-5.11c-10.929,0-18.791,6.526-18.791,15.96v0.157c0,10.142,6.604,13.602,18.319,16.433
		c10.221,2.358,12.422,4.481,12.422,8.412v0.157c0,4.089-3.773,6.919-9.749,6.919s-10.85-2.045-15.41-5.662
		c-0.629-0.471-1.494-0.864-2.83-0.864c-2.516,0-4.56,1.965-4.56,4.481c0,1.572,0.786,2.91,1.886,3.695
		C61.248,54.407,68.324,56.766,75.793,56.766z"/>
	<path style="fill:#6AD1DD;" d="M121.396,56.766c11.557,0,19.655-6.133,19.655-16.432v-0.158c0-9.12-5.976-13.287-17.611-16.117
		c-10.614-2.517-13.13-4.403-13.13-8.649v-0.157c0-3.617,3.302-6.526,8.963-6.526c4.324,0,8.413,1.415,12.658,4.167
		c0.787,0.471,1.572,0.708,2.516,0.708c2.516,0,4.56-1.966,4.56-4.482c0-1.887-1.021-3.224-2.123-3.853
		c-4.953-3.302-10.536-5.11-17.455-5.11c-10.928,0-18.791,6.526-18.791,15.96v0.157c0,10.142,6.604,13.602,18.319,16.433
		c10.221,2.358,12.422,4.481,12.422,8.412v0.157c0,4.089-3.773,6.919-9.749,6.919s-10.85-2.045-15.41-5.662
		c-0.629-0.471-1.494-0.864-2.83-0.864c-2.516,0-4.56,1.965-4.56,4.481c0,1.572,0.786,2.91,1.887,3.695
		C106.85,54.407,113.927,56.766,121.396,56.766z"/>
	<path style="fill:#6AD1DD;" d="M150.094,36.56h14.781c2.516,0,4.639-2.123,4.639-4.639c0-2.594-2.123-4.717-4.639-4.717h-14.781
		c-2.516,0-4.639,2.123-4.639,4.717C145.455,34.437,147.578,36.56,150.094,36.56z"/>
	<path style="fill:#6AD1DD;" d="M183.116,51.576c0,2.674,2.201,4.796,4.875,4.796c2.673,0,4.874-2.122,4.874-4.796V9.907h13.444
		c2.438,0,4.403-2.044,4.403-4.481c0-2.438-1.966-4.481-4.403-4.481h-36.56c-2.516,0-4.481,2.044-4.481,4.481
		c0,2.437,1.965,4.481,4.481,4.481h13.366V51.576z"/>
	<path style="fill:#6AD1DD;" d="M216.609,51.576c0,2.674,2.123,4.796,4.874,4.796c2.674,0,4.797-2.122,4.797-4.796v-14.78h12.187
		l13.365,17.061c1.102,1.495,2.517,2.516,4.718,2.516c2.359,0,4.639-1.808,4.639-4.481c0-1.494-0.629-2.516-1.572-3.695
		l-10.535-13.288c7.391-2.28,12.501-7.626,12.501-16.432v-0.157c0-4.796-1.651-8.885-4.56-11.873
		c-3.538-3.459-8.963-5.503-15.883-5.503h-19.656c-2.751,0-4.874,2.123-4.874,4.874V51.576z M226.28,28.226V9.749h14.073
		c7.155,0,11.4,3.224,11.4,9.121v0.157c0,5.582-4.402,9.199-11.322,9.199H226.28z"/>
	<path style="fill:#6AD1DD;" d="M270.073,51.576c0,2.674,2.123,4.796,4.875,4.796c2.673,0,4.796-2.122,4.796-4.796V5.347
		c0-2.674-2.123-4.796-4.796-4.796c-2.752,0-4.875,2.123-4.875,4.796V51.576z"/>
	<path style="fill:#6AD1DD;" d="M316.067,56.923c8.885,0,14.781-2.83,19.971-7.391c0.865-0.787,1.572-1.966,1.572-3.459
		c0-2.438-2.123-4.481-4.56-4.481c-1.18,0-2.202,0.472-2.91,1.1c-4.01,3.381-7.94,5.269-13.759,5.269
		c-10.535,0-18.162-8.727-18.162-19.499v-0.157c0-10.771,7.705-19.42,18.162-19.42c5.269,0,9.356,1.887,13.13,4.954
		c0.629,0.472,1.572,0.943,2.909,0.943c2.673,0,4.796-2.044,4.796-4.717c0-1.73-0.865-3.066-1.887-3.853
		C330.534,2.516,324.952,0,316.459,0c-16.668,0-28.382,12.815-28.382,28.461v0.157C288.078,44.422,300.028,56.923,316.067,56.923z"
		/>
	<path style="fill:#6AD1DD;" d="M344.607,51.576c0,2.674,2.123,4.796,4.875,4.796c2.673,0,4.796-2.122,4.796-4.796v-11.4
		l8.963-8.647l17.69,22.565c1.022,1.336,2.202,2.279,4.088,2.279c2.752,0,4.875-2.044,4.875-4.717c0-1.495-0.55-2.438-1.337-3.459
		l-18.555-23.037l17.14-16.511c1.102-1.022,1.729-2.123,1.729-3.617c0-2.359-1.808-4.481-4.48-4.481c-1.73,0-2.91,0.629-4.011,1.809
		l-26.103,26.26V5.347c0-2.674-2.123-4.796-4.796-4.796c-2.752,0-4.875,2.123-4.875,4.796V51.576z"/>
	<path style="fill:#6AD1DD;" d="M415.447,56.766c11.559,0,19.656-6.133,19.656-16.432v-0.158c0-9.12-5.975-13.287-17.611-16.117
		c-10.613-2.517-13.131-4.403-13.131-8.649v-0.157c0-3.617,3.303-6.526,8.963-6.526c4.326,0,8.414,1.415,12.658,4.167
		c0.787,0.471,1.574,0.708,2.518,0.708c2.516,0,4.561-1.966,4.561-4.482c0-1.887-1.023-3.224-2.123-3.853
		c-4.955-3.302-10.535-5.11-17.455-5.11c-10.928,0-18.791,6.526-18.791,15.96v0.157c0,10.142,6.605,13.602,18.32,16.433
		c10.221,2.358,12.422,4.481,12.422,8.412v0.157c0,4.089-3.773,6.919-9.75,6.919c-5.975,0-10.85-2.045-15.41-5.662
		c-0.629-0.471-1.493-0.864-2.83-0.864c-2.516,0-4.561,1.965-4.561,4.481c0,1.572,0.786,2.91,1.888,3.695
		C400.904,54.407,407.979,56.766,415.447,56.766z"/>
</g>
<g>
	<path style="fill:#6AD1DD;" d="M0,103.165c0,1.426,1.077,2.541,2.455,2.541c1.12,0,2.024-0.624,2.455-1.738l2.541-6.018h14.642
		l2.455,5.839c0.473,1.158,1.334,1.917,2.583,1.917c1.421,0,2.498-1.159,2.498-2.629c0-0.357-0.086-0.758-0.301-1.159L18.13,76.066
		c-0.603-1.381-1.636-2.229-3.144-2.229h-0.259c-1.507,0-2.583,0.848-3.187,2.229L0.345,101.917C0.129,102.362,0,102.763,0,103.165z
		 M9.474,93.091l5.297-12.613l5.297,12.613H9.474z"/>
	<path style="fill:#6AD1DD;" d="M59.615,103.654c0.517,1.427,1.464,2.273,2.756,2.273h0.518c1.292,0,2.282-0.847,2.756-2.273
		l6.718-20.368l6.718,20.368c0.473,1.427,1.421,2.273,2.713,2.273h0.517c1.292,0,2.282-0.891,2.756-2.273l8.914-25.85
		c0.13-0.312,0.259-0.759,0.259-1.115c0-1.47-1.206-2.629-2.627-2.629c-1.292,0-2.196,0.847-2.584,1.961l-6.933,21.483
		l-6.804-21.349c-0.388-1.292-1.334-2.184-2.67-2.184h-0.388c-1.334,0-2.239,0.891-2.67,2.184l-6.804,21.349l-6.933-21.438
		c-0.344-1.159-1.334-2.005-2.626-2.005c-1.464,0-2.713,1.159-2.713,2.674c0,0.357,0.086,0.758,0.215,1.07L59.615,103.654z"/>
	<path style="fill:#6AD1DD;" d="M103.128,92.067c0.473-3.655,2.713-6.195,5.899-6.195c3.445,0,5.426,2.718,5.771,6.195H103.128z
		 M117.812,102.896c0.388-0.4,0.689-0.979,0.689-1.648c0-1.248-0.904-2.185-2.067-2.185c-0.603,0-0.947,0.178-1.334,0.49
		c-1.464,1.248-3.187,2.05-5.383,2.05c-3.359,0-5.986-2.139-6.546-5.972h14.254c1.335,0,2.455-1.07,2.455-2.586
		c0-5.437-3.574-11.587-10.809-11.587c-6.502,0-11.11,5.526-11.11,12.256v0.09c0,7.264,5.082,12.211,11.67,12.211
		C113.161,106.017,115.745,104.813,117.812,102.896z"/>
	<path style="fill:#6AD1DD;" d="M127.357,103.03c0,1.471,1.163,2.675,2.583,2.675c1.464,0,2.627-1.204,2.627-2.675v-1.204
		c1.593,2.185,3.962,4.146,7.751,4.146c5.383,0,10.551-4.413,10.551-12.212v-0.089c0-7.844-5.211-12.211-10.551-12.211
		c-3.704,0-6.072,1.961-7.751,4.412V75.397c0-1.516-1.163-2.675-2.627-2.675c-1.464,0-2.583,1.159-2.583,2.675V103.03z
		 M139.07,101.293c-3.531,0-6.632-3.031-6.632-7.533v-0.089c0-4.501,3.101-7.532,6.632-7.532c3.532,0,6.503,2.986,6.503,7.532v0.089
		C145.573,98.396,142.644,101.293,139.07,101.293z"/>
	<path style="fill:#6AD1DD;" d="M174.055,102.719c0,1.561,1.163,2.763,2.67,2.763h8.57c9.474,0,16.02-6.819,16.02-15.599v-0.089
		c0-8.78-6.545-15.51-16.02-15.51h-8.57c-1.507,0-2.67,1.204-2.67,2.763V102.719z M179.352,100.49V79.275h5.943
		c6.33,0,10.464,4.501,10.464,10.607v0.089c0,6.106-4.134,10.519-10.464,10.519H179.352z"/>
	<path style="fill:#6AD1DD;" d="M213.181,92.067c0.474-3.655,2.713-6.195,5.899-6.195c3.445,0,5.427,2.718,5.771,6.195H213.181z
		 M227.865,102.896c0.387-0.4,0.689-0.979,0.689-1.648c0-1.248-0.905-2.185-2.067-2.185c-0.603,0-0.947,0.178-1.335,0.49
		c-1.464,1.248-3.187,2.05-5.383,2.05c-3.359,0-5.986-2.139-6.546-5.972h14.255c1.334,0,2.453-1.07,2.453-2.586
		c0-5.437-3.573-11.587-10.809-11.587c-6.502,0-11.11,5.526-11.11,12.256v0.09c0,7.264,5.082,12.211,11.671,12.211
		C223.215,106.017,225.798,104.813,227.865,102.896z"/>
	<path style="fill:#6AD1DD;" d="M245.204,105.928c4.737,0,8.44-2.452,8.44-7.399V98.44c0-4.234-3.746-5.793-7.062-6.864
		c-2.669-0.891-5.124-1.605-5.124-3.342v-0.09c0-1.337,1.162-2.317,3.187-2.317c1.593,0,3.488,0.624,5.34,1.604
		c0.344,0.179,0.604,0.268,1.033,0.268c1.206,0,2.153-0.937,2.153-2.185c0-0.936-0.516-1.649-1.249-2.05
		c-2.196-1.204-4.736-1.917-7.148-1.917c-4.522,0-8.096,2.718-8.096,7.175v0.09c0,4.501,3.747,5.927,7.106,6.908
		c2.669,0.846,5.08,1.47,5.08,3.298v0.089c0,1.561-1.292,2.541-3.53,2.541c-2.067,0-4.35-0.758-6.547-2.273
		c-0.301-0.178-0.688-0.312-1.118-0.312c-1.206,0-2.111,0.981-2.111,2.185c0,0.891,0.432,1.559,0.991,1.872
		C239.175,104.992,242.319,105.928,245.204,105.928z"/>
	<path style="fill:#6AD1DD;" d="M261.039,75.888c0,1.604,1.291,2.674,2.971,2.674s2.971-1.07,2.971-2.674V75.62
		c0-1.604-1.291-2.629-2.971-2.629s-2.971,1.025-2.971,2.629V75.888z M261.426,103.03c0,1.516,1.164,2.675,2.584,2.675
		c1.465,0,2.627-1.159,2.627-2.675V84.4c0-1.515-1.162-2.718-2.627-2.718s-2.584,1.204-2.584,2.718V103.03z"/>
	<path style="fill:#6AD1DD;" d="M285.707,112.702c4.09,0,7.277-1.025,9.345-3.164c1.894-1.961,2.885-4.903,2.885-8.869V84.4
		c0-1.515-1.163-2.718-2.627-2.718c-1.421,0-2.584,1.204-2.584,2.674v1.115c-1.766-2.184-4.134-4.011-7.967-4.011
		c-5.297,0-10.335,4.1-10.335,11.052v0.09c0,6.908,4.995,11.008,10.335,11.008c3.746,0,6.115-1.783,8.011-4.324v1.828
		c0,4.725-2.542,7.221-7.192,7.221c-2.627,0-4.909-0.668-6.977-1.872c-0.258-0.133-0.56-0.222-0.946-0.222
		c-1.207,0-2.197,1.024-2.197,2.228c0,1.026,0.56,1.783,1.464,2.14C279.677,111.989,282.52,112.702,285.707,112.702z M286.137,99.02
		c-3.574,0-6.46-2.629-6.46-6.462v-0.09c0-3.877,2.843-6.462,6.46-6.462s6.675,2.629,6.675,6.462v0.09
		C292.812,96.39,289.754,99.02,286.137,99.02z"/>
	<path style="fill:#6AD1DD;" d="M306.618,103.03c0,1.516,1.163,2.675,2.583,2.675c1.465,0,2.628-1.159,2.628-2.675V92.2
		c0-3.655,2.109-5.838,5.125-5.838c3.1,0,4.866,2.094,4.866,5.749v10.919c0,1.516,1.162,2.675,2.626,2.675
		c1.465,0,2.583-1.159,2.583-2.675V90.462c0-5.438-2.971-9.002-8.096-9.002c-3.53,0-5.642,1.917-7.104,4.1V84.4
		c0-1.515-1.163-2.718-2.628-2.718c-1.463,0-2.583,1.204-2.583,2.718V103.03z"/>
	<path style="fill:#6AD1DD;" d="M365.117,106.017c4.866,0,8.096-1.604,10.938-4.19c0.475-0.445,0.862-1.113,0.862-1.961
		c0-1.381-1.163-2.54-2.498-2.54c-0.646,0-1.206,0.268-1.594,0.624c-2.195,1.917-4.349,2.987-7.535,2.987
		c-5.771,0-9.948-4.947-9.948-11.054v-0.089c0-6.106,4.22-11.009,9.948-11.009c2.885,0,5.124,1.07,7.191,2.809
		c0.344,0.267,0.861,0.535,1.593,0.535c1.465,0,2.627-1.159,2.627-2.675c0-0.979-0.474-1.737-1.033-2.183
		c-2.627-2.096-5.685-3.521-10.336-3.521c-9.129,0-15.546,7.265-15.546,16.134v0.089
		C349.786,98.931,356.332,106.017,365.117,106.017z"/>
	<path style="fill:#6AD1DD;" d="M394.813,106.017c7.019,0,12.187-5.571,12.187-12.257v-0.089c0-6.73-5.124-12.211-12.102-12.211
		c-6.976,0-12.143,5.571-12.143,12.3v0.09C382.756,100.534,387.88,106.017,394.813,106.017z M394.898,101.293
		c-4.047,0-6.933-3.433-6.933-7.533v-0.089c0-4.1,2.67-7.488,6.848-7.488c4.091,0,6.976,3.432,6.976,7.577v0.09
		C401.789,97.905,399.12,101.293,394.898,101.293z"/>
	<path style="fill:#6AD1DD;" d="M414.434,103.03c0,1.516,1.163,2.675,2.583,2.675c1.465,0,2.628-1.159,2.628-2.675V92.2
		c0-3.61,1.98-5.838,4.865-5.838c2.886,0,4.608,2.05,4.608,5.705v10.963c0,1.516,1.163,2.675,2.627,2.675
		c1.422,0,2.584-1.159,2.584-2.675V92.2c0-3.788,2.024-5.838,4.866-5.838c2.929,0,4.607,2.005,4.607,5.749v10.919
		c0,1.516,1.162,2.675,2.627,2.675c1.464,0,2.584-1.159,2.584-2.675V90.462c0-5.749-3.014-9.002-7.967-9.002
		c-3.444,0-5.857,1.648-7.666,4.144c-1.205-2.496-3.531-4.144-6.803-4.144c-3.488,0-5.47,1.961-6.934,4.055V84.4
		c0-1.515-1.163-2.718-2.628-2.718c-1.464,0-2.583,1.204-2.583,2.718V103.03z"/>
	<path style="fill:#6AD1DD;" d="M457.474,103.03c0,1.516,1.163,2.675,2.584,2.675c1.465,0,2.627-1.159,2.627-2.675V92.2
		c0-3.61,1.98-5.838,4.866-5.838c2.885,0,4.607,2.05,4.607,5.705v10.963c0,1.516,1.163,2.675,2.628,2.675
		c1.421,0,2.583-1.159,2.583-2.675V92.2c0-3.788,2.024-5.838,4.866-5.838c2.929,0,4.608,2.005,4.608,5.749v10.919
		c0,1.516,1.162,2.675,2.627,2.675c1.464,0,2.584-1.159,2.584-2.675V90.462c0-5.749-3.016-9.002-7.967-9.002
		c-3.445,0-5.857,1.648-7.666,4.144c-1.206-2.496-3.531-4.144-6.804-4.144c-3.488,0-5.47,1.961-6.934,4.055V84.4
		c0-1.515-1.162-2.718-2.627-2.718c-1.464,0-2.584,1.204-2.584,2.718V103.03z"/>
	<path style="fill:#6AD1DD;" d="M520.711,84.4c0-1.515-1.205-2.718-2.627-2.718c-1.464,0-2.627,1.204-2.627,2.718v10.831
		c0,3.655-2.109,5.794-5.124,5.794c-3.101,0-4.866-2.05-4.866-5.705V84.4c0-1.515-1.163-2.718-2.627-2.718
		c-1.422,0-2.584,1.204-2.584,2.718v12.525c0,5.481,2.971,9.047,8.097,9.047c3.531,0,5.641-1.917,7.104-4.146v1.204
		c0,1.516,1.206,2.675,2.627,2.675c1.464,0,2.627-1.204,2.627-2.675V84.4z"/>
	<path style="fill:#6AD1DD;" d="M529.352,103.03c0,1.516,1.162,2.675,2.584,2.675c1.463,0,2.627-1.159,2.627-2.675V92.2
		c0-3.655,2.109-5.838,5.124-5.838c3.101,0,4.866,2.094,4.866,5.749v10.919c0,1.516,1.163,2.675,2.627,2.675
		c1.465,0,2.584-1.159,2.584-2.675V90.462c0-5.438-2.972-9.002-8.097-9.002c-3.531,0-5.642,1.917-7.104,4.1V84.4
		c0-1.515-1.164-2.718-2.627-2.718c-1.464,0-2.584,1.204-2.584,2.718V103.03z"/>
	<path style="fill:#6AD1DD;" d="M558.102,75.888c0,1.604,1.293,2.674,2.972,2.674c1.68,0,2.971-1.07,2.971-2.674V75.62
		c0-1.604-1.291-2.629-2.971-2.629c-1.679,0-2.972,1.025-2.972,2.629V75.888z M558.49,103.03c0,1.516,1.162,2.675,2.583,2.675
		c1.464,0,2.628-1.159,2.628-2.675V84.4c0-1.515-1.164-2.718-2.628-2.718c-1.465,0-2.583,1.204-2.583,2.718V103.03z"/>
	<path style="fill:#6AD1DD;" d="M580.272,105.883c1.378,0,2.454-0.223,3.573-0.624c0.732-0.312,1.378-1.115,1.378-2.095
		c0-1.248-1.033-2.229-2.195-2.229c-0.173,0-0.689,0.133-1.293,0.133c-1.765,0-2.798-0.847-2.798-2.941V86.584h4.091
		c1.249,0,2.282-1.025,2.282-2.318s-1.033-2.318-2.282-2.318h-4.091v-4.011c0-1.47-1.164-2.674-2.584-2.674
		c-1.465,0-2.627,1.204-2.627,2.674v4.011h-0.862c-1.248,0-2.238,1.025-2.238,2.318s0.99,2.318,2.238,2.318h0.862v12.391
		C573.727,104.145,576.439,105.883,580.272,105.883z"/>
	<path style="fill:#6AD1DD;" d="M596.625,112.747c3.661,0,5.728-1.783,7.666-6.597l8.311-20.635
		c0.087-0.267,0.216-0.847,0.216-1.292c0-1.426-1.12-2.541-2.498-2.541c-1.335,0-2.066,0.936-2.498,2.05l-5.684,15.644
		l-6.115-15.644c-0.474-1.248-1.206-2.05-2.541-2.05c-1.464,0-2.584,1.115-2.584,2.629c0,0.357,0.129,0.892,0.302,1.292l8.44,19.522
		l-0.173,0.491c-0.86,1.827-1.679,2.496-3.229,2.496c-0.732,0-1.206-0.134-1.809-0.312c-0.258-0.089-0.517-0.178-0.947-0.178
		c-1.119,0-2.11,0.891-2.11,2.229c0,1.292,0.862,1.961,1.638,2.228C594.085,112.524,595.162,112.747,596.625,112.747z"/>
</g>
</svg>
