<?xml version="1.0" encoding="iso-8859-1"?>
<!-- Generator: Adobe Illustrator 16.0.4, SVG Export Plug-In . SVG Version: 6.00 Build 0)  -->
<!DOCTYPE svg PUBLIC "-//W3C//DTD SVG 1.1//EN" "http://www.w3.org/Graphics/SVG/1.1/DTD/svg11.dtd">
<svg version="1.1" id="Layer_1" xmlns="http://www.w3.org/2000/svg" xmlns:xlink="http://www.w3.org/1999/xlink" x="0px" y="0px"
	 width="13px" height="27px" viewBox="0 0 13 27" style="enable-background:new 0 0 13 27;" xml:space="preserve">
<path style="fill-rule:evenodd;clip-rule:evenodd;fill:#FDFEFE;" d="M2.945,5.444C2.945,6.111,3,9,3,9H0v4h3v14h5V13h4
	c0,0,0.833-1.666,1-4c-0.48,0-5,0-5,0s0-2.546,0-3c0-0.455,1.408-2,2-2c0.591,0,1.845,0,3,0c0-0.606,0-2.066,0-4
	c-1.542,0-3.297,0-4.07,0C3.164,0,2.945,4.779,2.945,5.444z"/>
</svg>
