<?xml version="1.0" encoding="iso-8859-1"?>
<!-- Generator: Adobe Illustrator 16.0.4, SVG Export Plug-In . SVG Version: 6.00 Build 0)  -->
<!DOCTYPE svg PUBLIC "-//W3C//DTD SVG 1.1//EN" "http://www.w3.org/Graphics/SVG/1.1/DTD/svg11.dtd">
<svg version="1.1" id="Layer_1" xmlns="http://www.w3.org/2000/svg" xmlns:xlink="http://www.w3.org/1999/xlink" x="0px" y="0px"
	 width="25.01px" height="25.002px" viewBox="0 0 25.01 25.002" style="enable-background:new 0 0 25.01 25.002;"
	 xml:space="preserve">
<path style="fill-rule:evenodd;clip-rule:evenodd;fill:#DB5237;" d="M24.749,9.464c-0.241-0.286-0.498-0.381-0.705-0.442
	c-0.213-0.057-0.407-0.072-0.611-0.073l-7.028-0.004c-0.066,0.003-0.217-0.04-0.341-0.138c-0.128-0.094-0.21-0.227-0.224-0.29
	l-2.036-7.298c-0.067-0.229-0.141-0.437-0.294-0.663C13.371,0.352,13.062,0.013,12.504,0c-0.556,0.012-0.866,0.351-1.005,0.556
	c-0.153,0.228-0.228,0.437-0.293,0.666L9.17,8.516C9.156,8.58,9.073,8.713,8.946,8.807c-0.124,0.098-0.275,0.141-0.34,0.138
	L1.577,8.949C1.305,8.953,1.053,8.97,0.746,9.099C0.595,9.167,0.42,9.271,0.262,9.462C0.103,9.649-0.005,9.939,0,10.198
	c0.008,0.415,0.184,0.669,0.328,0.844c0.152,0.178,0.312,0.303,0.491,0.422l5.664,3.723c0.101,0.043,0.279,0.357,0.263,0.565
	c0,0.052-0.006,0.095-0.016,0.126l-2.202,7.197c-0.062,0.208-0.108,0.408-0.11,0.654c0.003,0.206,0.028,0.474,0.236,0.775
	c0.202,0.309,0.649,0.503,0.955,0.485c0.579-0.032,0.82-0.26,1.107-0.476l5.538-4.704c0.045-0.042,0.161-0.091,0.291-0.091
	c0.126-0.001,0.234,0.044,0.28,0.084l5.838,4.742c0.288,0.21,0.526,0.426,1.092,0.456c0.013,0.001,0.027,0.001,0.041,0.001
	c0.291,0,0.699-0.176,0.899-0.469c0.214-0.298,0.24-0.571,0.242-0.773c-0.002-0.263-0.055-0.476-0.129-0.699l-2.475-7.243
	c-0.011-0.031-0.019-0.074-0.019-0.129c-0.014-0.196,0.146-0.475,0.239-0.514l5.636-3.709c0.179-0.119,0.34-0.245,0.492-0.423
	c0.143-0.176,0.319-0.429,0.327-0.844C25.015,9.939,24.907,9.65,24.749,9.464z"/>
</svg>
