<?xml version="1.0" encoding="iso-8859-1"?>
<!-- Generator: Adobe Illustrator 16.0.4, SVG Export Plug-In . SVG Version: 6.00 Build 0)  -->
<!DOCTYPE svg PUBLIC "-//W3C//DTD SVG 1.1//EN" "http://www.w3.org/Graphics/SVG/1.1/DTD/svg11.dtd">
<svg version="1.1" id="Layer_1" xmlns="http://www.w3.org/2000/svg" xmlns:xlink="http://www.w3.org/1999/xlink" x="0px" y="0px"
	 width="143.783px" height="18.469px" viewBox="0 0 143.783 18.469" style="enable-background:new 0 0 143.783 18.469;"
	 xml:space="preserve">
<g>
	<g>
		<path style="fill:#5E5E5E;" d="M0,18.234h1.992V10.91h7.102v-1.77H1.992v-6.27h7.559v-1.77H0V18.234z M16.708,5.156
			c-1.859,0-3.312,0.584-4.359,1.752s-1.57,2.799-1.57,4.893c0,1.352,0.242,2.531,0.727,3.539s1.172,1.781,2.062,2.32
			s1.91,0.809,3.059,0.809c1.859,0,3.316-0.588,4.371-1.764s1.582-2.811,1.582-4.904c0-2.039-0.529-3.656-1.588-4.852
			S18.505,5.156,16.708,5.156z M19.574,15.557c-0.66,0.855-1.627,1.283-2.9,1.283s-2.238-0.43-2.895-1.289s-0.984-2.109-0.984-3.75
			c0-1.656,0.324-2.902,0.973-3.738s1.609-1.254,2.883-1.254c1.289,0,2.264,0.424,2.924,1.271s0.99,2.088,0.99,3.721
			C20.564,13.449,20.234,14.701,19.574,15.557z M34.05,12.141c0,1.664-0.311,2.863-0.932,3.598s-1.604,1.102-2.947,1.102
			c-1.016,0-1.762-0.258-2.238-0.773s-0.715-1.297-0.715-2.344V5.391h-1.969v8.402c0,1.633,0.389,2.82,1.166,3.562
			s1.947,1.113,3.51,1.113c0.906,0,1.713-0.168,2.42-0.504s1.26-0.82,1.658-1.453h0.105l0.281,1.723h1.605V5.391H34.05V12.141z
			 M45.591,5.156c-0.883,0-1.684,0.174-2.402,0.521c-0.719,0.348-1.277,0.838-1.676,1.471h-0.094l-0.316-1.758h-1.582v12.844h1.945
			v-6.738c0-1.672,0.312-2.871,0.938-3.598c0.625-0.727,1.609-1.09,2.953-1.09c1.015,0,1.761,0.258,2.238,0.773
			c0.476,0.516,0.715,1.297,0.715,2.344v8.309h1.945V9.855c0-1.641-0.391-2.834-1.172-3.58C48.301,5.529,47.138,5.156,45.591,5.156z
			 M62.288,5.227l0.047,0.902l0.082,0.926h-0.152c-0.93-1.266-2.266-1.898-4.008-1.898c-1.672,0-2.977,0.586-3.914,1.758
			s-1.406,2.816-1.406,4.934s0.467,3.75,1.4,4.898s2.24,1.723,3.92,1.723c1.789,0,3.133-0.652,4.031-1.957h0.105l0.258,1.723h1.582
			V0h-1.945V5.227z M62.288,12.258c0,1.609-0.299,2.775-0.896,3.498s-1.561,1.084-2.889,1.084c-1.164,0-2.047-0.418-2.648-1.254
			s-0.902-2.074-0.902-3.715c0-1.617,0.303-2.869,0.908-3.756s1.479-1.33,2.619-1.33c1.328,0,2.295,0.389,2.9,1.166
			c0.605,0.777,0.908,2.076,0.908,3.896V12.258z M72.586,5.18c-0.758,0-1.514,0.098-2.268,0.293s-1.447,0.465-2.08,0.809
			l0.598,1.488c1.352-0.656,2.562-0.984,3.633-0.984c0.953,0,1.646,0.24,2.08,0.721s0.65,1.225,0.65,2.232v0.797l-2.18,0.07
			c-4.148,0.125-6.223,1.484-6.223,4.078c0,1.211,0.361,2.145,1.084,2.801s1.721,0.984,2.994,0.984c0.953,0,1.748-0.143,2.385-0.428
			s1.275-0.83,1.916-1.635h0.094l0.387,1.828h1.441V9.469c0-1.5-0.369-2.59-1.107-3.27S74.117,5.18,72.586,5.18z M75.152,13.078
			c0,1.195-0.346,2.125-1.037,2.789s-1.643,0.996-2.854,0.996c-0.766,0-1.361-0.184-1.787-0.551s-0.639-0.902-0.639-1.605
			c0-0.898,0.342-1.561,1.025-1.986S71.66,12.055,73.207,12l1.945-0.082V13.078z M84.654,16.863c-0.641,0-1.145-0.207-1.512-0.621
			s-0.551-1.008-0.551-1.781V6.902h3.727V5.391h-3.727V2.414h-1.125l-0.82,2.742l-1.84,0.809v0.938h1.84v7.641
			c0,2.617,1.242,3.926,3.727,3.926c0.328,0,0.697-0.033,1.107-0.1s0.721-0.15,0.932-0.252v-1.488
			c-0.188,0.055-0.441,0.107-0.762,0.158S84.998,16.863,84.654,16.863z M88.378,18.234h1.945V5.391h-1.945V18.234z M89.362,0.621
			c-0.328,0-0.602,0.104-0.82,0.311s-0.328,0.533-0.328,0.979c0,0.438,0.109,0.764,0.328,0.979s0.492,0.322,0.82,0.322
			c0.312,0,0.582-0.107,0.809-0.322s0.34-0.541,0.34-0.979s-0.113-0.762-0.34-0.973S89.675,0.621,89.362,0.621z M99.063,5.156
			c-1.86,0-3.313,0.584-4.359,1.752c-1.048,1.168-1.57,2.799-1.57,4.893c0,1.352,0.241,2.531,0.727,3.539
			c0.484,1.008,1.172,1.781,2.062,2.32s1.91,0.809,3.059,0.809c1.858,0,3.316-0.588,4.371-1.764s1.582-2.811,1.582-4.904
			c0-2.039-0.53-3.656-1.588-4.852C102.287,5.754,100.86,5.156,99.063,5.156z M101.929,15.557c-0.661,0.855-1.628,1.283-2.9,1.283
			c-1.274,0-2.238-0.43-2.895-1.289s-0.984-2.109-0.984-3.75c0-1.656,0.323-2.902,0.973-3.738c0.647-0.836,1.609-1.254,2.883-1.254
			c1.289,0,2.263,0.424,2.924,1.271c0.659,0.848,0.99,2.088,0.99,3.721C102.919,13.449,102.588,14.701,101.929,15.557z
			 M113.814,5.156c-0.883,0-1.684,0.174-2.402,0.521s-1.277,0.838-1.676,1.471h-0.094l-0.316-1.758h-1.582v12.844h1.945v-6.738
			c0-1.672,0.312-2.871,0.938-3.598s1.609-1.09,2.953-1.09c1.016,0,1.762,0.258,2.238,0.773s0.715,1.297,0.715,2.344v8.309h1.945
			V9.855c0-1.641-0.391-2.834-1.172-3.58S115.361,5.156,113.814,5.156z M126.636,14.637h1.916v2.637
			c-0.566,0.137-1.146,0.205-1.74,0.205c-1.094,0-1.923-0.299-2.487-0.896s-0.847-1.475-0.847-2.631
			c0-1.102,0.293-1.963,0.879-2.584s1.4-0.932,2.443-0.932c0.715,0,1.459,0.164,2.232,0.492l0.387-0.879
			c-0.789-0.336-1.641-0.504-2.555-0.504c-0.902,0-1.689,0.177-2.361,0.53s-1.187,0.865-1.544,1.535s-0.536,1.45-0.536,2.341
			c0,1.391,0.361,2.472,1.084,3.243s1.732,1.157,3.029,1.157c0.617,0,1.16-0.037,1.629-0.111s0.93-0.184,1.383-0.328v-4.166h-2.912
			V14.637z M132.98,12.035c-0.336,0.227-0.623,0.549-0.861,0.967h-0.047l-0.111-1.189h-0.803v6.422h0.973v-3.445
			c0-0.629,0.185-1.154,0.554-1.576s0.813-0.633,1.333-0.633c0.203,0,0.438,0.029,0.703,0.088l0.135-0.902
			c-0.227-0.047-0.482-0.07-0.768-0.07C133.686,11.695,133.316,11.809,132.98,12.035z M135.757,18.234h0.973v-6.422h-0.973V18.234z
			 M136.249,9.428c-0.164,0-0.301,0.052-0.41,0.155s-0.164,0.267-0.164,0.489c0,0.219,0.055,0.382,0.164,0.489
			s0.246,0.161,0.41,0.161c0.155,0,0.291-0.054,0.404-0.161s0.17-0.271,0.17-0.489s-0.057-0.381-0.17-0.486
			S136.404,9.428,136.249,9.428z M142.811,9.117v2.613l0.023,0.451l0.041,0.463h-0.076c-0.465-0.633-1.133-0.949-2.004-0.949
			c-0.836,0-1.488,0.293-1.957,0.879s-0.703,1.408-0.703,2.467s0.232,1.875,0.699,2.449s1.121,0.861,1.961,0.861
			c0.895,0,1.566-0.326,2.016-0.979h0.053l0.129,0.861h0.791V9.117H142.811z M142.811,15.246c0,0.805-0.15,1.388-0.449,1.749
			s-0.779,0.542-1.443,0.542c-0.582,0-1.023-0.209-1.324-0.627s-0.451-1.037-0.451-1.857c0-0.809,0.15-1.435,0.453-1.878
			s0.74-0.665,1.311-0.665c0.664,0,1.146,0.194,1.449,0.583s0.455,1.038,0.455,1.948V15.246z"/>
	</g>
</g>
</svg>
