<?xml version="1.0" encoding="iso-8859-1"?>
<!-- Generator: Adobe Illustrator 16.0.4, SVG Export Plug-In . SVG Version: 6.00 Build 0)  -->
<!DOCTYPE svg PUBLIC "-//W3C//DTD SVG 1.1//EN" "http://www.w3.org/Graphics/SVG/1.1/DTD/svg11.dtd">
<svg version="1.1" id="Layer_1" xmlns="http://www.w3.org/2000/svg" xmlns:xlink="http://www.w3.org/1999/xlink" x="0px" y="0px"
	 width="25px" height="25px" viewBox="0 0 25 25" style="enable-background:new 0 0 25 25;" xml:space="preserve">
<path style="fill-rule:evenodd;clip-rule:evenodd;fill:#1FB190;" d="M23,25h-3c-0.986,0-2-0.138-2-1L17.857,4.318
	C17.857,3.456,19.014,3,20,3h3c0.986,0,2,0.456,2,1.318V24C25,24.862,23.986,25,23,25z M20,20h3v-1h-3V20z M23,6h-3v11h3V6z M14,25
	h-3c-0.986,0-2-0.138-2-1L8.929,6.245C8.929,5.383,10.014,5,11,5h3c0.986,0,2,0.138,2,1v18C16,24.862,14.986,25,14,25z M11,20h3v-1
	h-3V20z M14,8h-3v6h3V8z M5,25H2c-1.009,0-2-0.135-2-1V1c0-0.865,0.991-1,2-1h3c1.009,0,2,0.135,2,1v23C7,24.865,6.009,25,5,25z
	 M2,20h3v-1H2V20z M5,3H2v8h3V3z"/>
</svg>
