<?xml version="1.0" encoding="utf-8"?>
<!-- Generator: Adobe Illustrator 16.0.4, SVG Export Plug-In . SVG Version: 6.00 Build 0)  -->
<!DOCTYPE svg PUBLIC "-//W3C//DTD SVG 1.1//EN" "http://www.w3.org/Graphics/SVG/1.1/DTD/svg11.dtd">
<svg version="1.1" id="Layer_1" xmlns="http://www.w3.org/2000/svg" xmlns:xlink="http://www.w3.org/1999/xlink" x="0px" y="0px"
	 width="457.301px" height="189.09px" viewBox="0 0 457.301 189.09" enable-background="new 0 0 457.301 189.09"
	 xml:space="preserve">
<path fill="#FF664A" d="M311.103,63.132c19.603,0,27.747,10.628,27.057,23.743c-0.414,15.737-15.887,25.255-30.382,25.262
	c-8.962,0.004-12.5-3.625-13.406-6.387c-0.517-1.578-2.281-1.051-2.32,0.314c-0.225,8.087,4.28,17.945,18.222,17.945
	c10.63,0,19.189-6.074,19.189-6.074c2.899,2.9,4.003,6.074,3.865,9.664c-0.552,7.592-10.629,14.22-26.919,14.22
	c-25.815,0-35.478-17.81-34.373-36.722C273.417,80.525,288.739,63.132,311.103,63.132 M302.82,98.195
	c8.007,0,15.323-3.037,15.461-10.354c0.139-4.555-3.175-7.73-8.835-7.73c-9.249,0-14.356,7.454-15.599,13.805
	c-0.138,1.104-0.414,2.622-0.414,2.622C294.123,96.814,297.299,98.195,302.82,98.195"/>
<path fill="#FF664A" d="M380.125,63.132c19.603,0,27.747,10.628,27.057,23.743c-0.414,15.737-15.887,25.255-30.382,25.262
	c-8.962,0.004-12.5-3.625-13.406-6.387c-0.517-1.578-2.281-1.051-2.32,0.314c-0.225,8.087,4.28,17.945,18.222,17.945
	c10.63,0,19.189-6.074,19.189-6.074c2.899,2.9,4.003,6.074,3.865,9.664c-0.552,7.592-10.629,14.22-26.919,14.22
	c-25.815,0-35.478-17.81-34.373-36.722C342.439,80.525,357.761,63.132,380.125,63.132 M371.842,98.195
	c8.007,0,15.323-3.037,15.461-10.354c0.139-4.555-3.175-7.73-8.835-7.73c-9.249,0-14.356,7.454-15.599,13.805
	c-0.138,1.104-0.414,2.622-0.414,2.622C363.146,96.814,366.321,98.195,371.842,98.195"/>
<path fill="#FF664A" d="M418.625,82.043c-9.763,0-8.841-5.309-8.912-8.364c-0.075-3.168,3.156-7.233,6.247-7.826
	c8.943-1.717,9.236-8.935,10.478-12.938c0.828-2.485,2.07-3.451,4.417-3.451h6.902c2.9,0,4.97,1.933,4.418,5.66
	c-0.414,3.589-0.967,7.04-1.381,9.387c2.9,0.137,2.172,0,6.867,0c6.963,0,9.659,3.667,9.64,9.333c-0.011,3.2-3.15,8.06-9.939,8.06
	h-8.776c-1.657,11.182-3.727,25.953-4.694,34.374c-0.552,5.798,2.014,7.135,6.017,7.135c2.9,0.138,7.271-2.153,8.823-3.401
	c6.106,7.167,4.524,21.806-15.226,21.806c-14.356,0-21.276-11.008-19.62-25.227C414.853,108.86,418.625,82.043,418.625,82.043"/>
<path fill="#FF664A" d="M266.317,46.565h-0.337h-5.662h-16.679c-2.761,0-10.935,0.801-11.496,9.217c-0.5,7.5,3.3,10.979,11.8,10.98
	c4.369,0,8.962-3.19,10.986-4.347c2.333-1.333,3.648,0.452,2.002,1.87c-3.069,2.643-5.903,5.643-7.643,15.131l-4.604,28.166
	c-1.38,9.525-5.521,14.081-12.423,14.081c-6.212,0-10.581-3.485-14.248-8.318c-7.333,2.333-11.166,12.5-5.806,19.251
	c2.439,3.073,7.491,9.222,20.33,9.222c13.31,0,28.476-6.474,32.226-32.165c1.833-12.557,6.938-45.418,7.766-51.216
	C273.219,53.192,274.046,46.565,266.317,46.565"/>
<g>
	<defs>
		<path id="SVGID_1_" d="M120.381,89.031c-0.218,1.921-0.596,3.791-1.111,5.603c-0.223,12.665-10.185,22.95-22.72,23.682
			c-2.24,0.74-4.577,1.265-6.992,1.539l-13.857,13.856l40.717,40.718l12.911-12.909c0.996-17.778,15.234-32.016,33.011-33.012
			l10.833-10.834l-40.717-40.717L120.381,89.031z"/>
	</defs>
	<clipPath id="SVGID_2_">
		<use xlink:href="#SVGID_1_"  overflow="visible"/>
	</clipPath>
	
		<linearGradient id="SVGID_3_" gradientUnits="userSpaceOnUse" x1="-86.3721" y1="514.9941" x2="-85.3721" y2="514.9941" gradientTransform="matrix(-29 33.5 33.5 29 -19618.166 -11932.3945)">
		<stop  offset="0" style="stop-color:#09E09C"/>
		<stop  offset="1" style="stop-color:#00BFFF"/>
	</linearGradient>
	<polygon clip-path="url(#SVGID_2_)" fill="url(#SVGID_3_)" points="221.407,118.713 131.419,222.663 27.468,132.676 
		117.456,28.725 	"/>
</g>
<g>
	<defs>
		<path id="SVGID_4_" d="M17.717,116.447l12.074,12.074c16.162,1.84,28.983,14.662,30.824,30.822l13.857,13.859l40.718-40.718
			l-12.911-12.912c-2.539-0.142-5.002-0.563-7.368-1.217C82.155,118.247,71.76,108.253,71.01,95.66
			c-0.961-2.886-1.565-5.934-1.742-9.098L58.435,75.729L17.717,116.447z"/>
	</defs>
	<clipPath id="SVGID_5_">
		<use xlink:href="#SVGID_4_"  overflow="visible"/>
	</clipPath>
	
		<linearGradient id="SVGID_6_" gradientUnits="userSpaceOnUse" x1="-86.373" y1="514.9932" x2="-85.373" y2="514.9932" gradientTransform="matrix(29.5 31 31 -29.5 -13364.8281 17979.0547)">
		<stop  offset="0" style="stop-color:#FFC800"/>
		<stop  offset="1" style="stop-color:#00BFFF"/>
	</linearGradient>
	<polygon clip-path="url(#SVGID_5_)" fill="url(#SVGID_6_)" points="68.869,27.053 163.868,126.882 64.039,221.88 -30.959,122.051 	
		"/>
</g>
<g>
	<defs>
		<path id="SVGID_7_" d="M60.933,27.618c-0.996,17.776-15.234,32.014-33.011,33.011L17.087,71.462l40.718,40.718l12.075-12.075
			c0.215-1.893,0.587-3.74,1.092-5.529c-0.002-0.125-0.01-0.248-0.01-0.374c0-13.342,10.816-24.158,24.159-24.158
			c0.392,0,0.782,0.011,1.17,0.029c1.438-0.354,2.911-0.621,4.413-0.792l13.857-13.857L73.843,14.706L60.933,27.618z"/>
	</defs>
	<clipPath id="SVGID_8_">
		<use xlink:href="#SVGID_7_"  overflow="visible"/>
	</clipPath>
	
		<linearGradient id="SVGID_9_" gradientUnits="userSpaceOnUse" x1="-86.3716" y1="514.9941" x2="-85.3716" y2="514.9941" gradientTransform="matrix(29 -29.5 -29.5 -29 17747.8184 12465.6191)">
		<stop  offset="0" style="stop-color:#FFC800"/>
		<stop  offset="1" style="stop-color:#FF664A"/>
	</linearGradient>
	<polygon clip-path="url(#SVGID_8_)" fill="url(#SVGID_9_)" points="-31.643,64.276 64.991,-34.023 163.292,62.61 66.658,160.91 	
		"/>
</g>
<g>
	<defs>
		<path id="SVGID_10_" d="M74.374,56.662l12.912,12.91c1.7,0.096,3.367,0.314,4.996,0.644c0.932-0.109,1.879-0.172,2.84-0.172
			c13.343,0,24.16,10.816,24.16,24.158c0,0.522-0.023,1.039-0.055,1.553c0.569,2.2,0.938,4.483,1.07,6.829l10.833,10.833
			L171.848,72.7l-12.075-12.075c-16.162-1.839-28.984-14.662-30.824-30.824l-13.857-13.857L74.374,56.662z"/>
	</defs>
	<clipPath id="SVGID_11_">
		<use xlink:href="#SVGID_10_"  overflow="visible"/>
	</clipPath>
	
		<linearGradient id="SVGID_12_" gradientUnits="userSpaceOnUse" x1="-86.3735" y1="514.9922" x2="-85.3735" y2="514.9922" gradientTransform="matrix(-34.5 -33.5 -33.5 34.5 14414.0117 -20578.0625)">
		<stop  offset="0" style="stop-color:#09E09C"/>
		<stop  offset="1" style="stop-color:#FF664A"/>
	</linearGradient>
	<polygon clip-path="url(#SVGID_11_)" fill="url(#SVGID_12_)" points="124.543,162.133 25.658,66.114 121.677,-32.771 
		220.563,63.248 	"/>
</g>
<path fill="#FFC800" d="M35.065,129.269C15.699,129.269,0,113.569,0,94.203c0-19.367,15.699-35.066,35.065-35.066
	c19.366,0,35.065,15.699,35.065,35.066C70.13,113.569,54.431,129.269,35.065,129.269"/>
<path fill="#FF664A" d="M94.203,70.131c-19.366,0-35.065-15.699-35.065-35.065C59.137,15.699,74.836,0,94.203,0
	c19.366,0,35.065,15.699,35.065,35.066C129.268,54.432,113.568,70.131,94.203,70.131"/>
<path fill="#00BFFF" d="M95.122,189.09c-19.366,0-35.065-15.699-35.065-35.065c0-19.367,15.699-35.066,35.065-35.066
	c19.366,0,35.065,15.699,35.065,35.066C130.187,173.391,114.488,189.09,95.122,189.09"/>
<path fill="#09E09C" d="M154.752,130.445c-19.366,0-35.065-15.699-35.065-35.065c0-19.367,15.699-35.066,35.065-35.066
	c19.366,0,35.065,15.699,35.065,35.066C189.817,114.746,174.118,130.445,154.752,130.445"/>
</svg>
