<?xml version="1.0" encoding="utf-8" standalone="no"?>
<svg version="1.1" xmlns="http://www.w3.org/2000/svg" viewBox="0 0 116.117 33.836">
    <polygon fill="#28BA00" points="29.268,0 9.758,0 0,16.913 9.754,33.821 29.268,33.836 39.023,16.918      "/>
    <polygon fill="#FFFFFF" points="27.987,24 22.987,24 22.987,17.976 24.025,16.626 24.031,16.573 19.532,19.497 15.017,16.574
        15.016,16.63 15.987,17.976 15.987,24 10.987,24 10.987,10 14.023,10 19.562,13.999 25.1,10 27.987,10      "/>
    <path fill="#001B36" d="M45.316,12.667h3.03l0.232,0.726c0.464-0.634,1.345-0.989,2.365-0.989c1.222,0,2.011,0.387,2.427,1.099
        c0.526-0.651,1.438-1.099,2.551-1.099c2.196,0,2.922,1.191,2.922,3.634v5.348H55.24v-5.339c0-0.471-0.216-0.705-0.649-0.705
        c-0.34,0-0.712,0.225-0.712,0.705v5.339h-3.602v-5.339c0-0.391-0.216-0.705-0.649-0.705c-0.484,0-0.712,0.24-0.712,0.705v5.339
        h-3.601V12.667z"/>
    <path fill="#001B36" d="M59.367,17.028c0-3.34,2.165-4.624,4.885-4.624c2.736,0,4.669,1.284,4.669,4.624
        c0,3.354-2.195,4.622-4.901,4.622C61.285,21.65,59.367,20.383,59.367,17.028z M65.339,17.028c0-1.179-0.333-1.807-1.195-1.807
        c-0.862,0-1.177,0.628-1.177,1.807c0,1.192,0.315,1.807,1.177,1.807C65.006,18.835,65.339,18.221,65.339,17.028z"/>
    <path fill="#001B36" d="M73.649,16.978c0-3.338,2.166-4.623,4.886-4.623c2.736,0,4.668,1.285,4.668,4.623
        c0,3.356-2.195,4.624-4.9,4.624C75.567,21.601,73.649,20.334,73.649,16.978z M79.619,16.978c0-1.176-0.332-1.807-1.194-1.807
        c-0.862,0-1.177,0.631-1.177,1.807c0,1.194,0.315,1.808,1.177,1.808C79.288,18.785,79.619,18.172,79.619,16.978z"/>
    <path fill="#001B36" d="M67.994,24.104v-2.551c0.247,0.17,0.556,0.263,0.865,0.263c0.402,0,0.634-0.169,0.634-0.618v-8.53h3.602
        v8.515c0,2.211-1.206,3.308-3.401,3.308C68.921,24.491,68.225,24.259,67.994,24.104z M69.478,10.558
        c0-0.923,0.766-1.52,1.792-1.52c1.042,0,1.825,0.597,1.825,1.52c0,0.94-0.783,1.507-1.825,1.507
        C70.243,12.065,69.478,11.498,69.478,10.558z"/>
    <path fill="#001B36" d="M84.364,18.496v-3.092h-0.959v-1.64l2.911-3.077h1.649v1.979h1.824v2.737h-1.824v2.628
        c0,0.495,0.201,0.741,0.634,0.741c0.526,0,0.851-0.201,1.098-0.494v2.705c-0.371,0.34-1.005,0.665-2.334,0.665
        C85.167,21.65,84.364,20.351,84.364,18.496z"/>
    <path fill="#001B36" d="M90.006,17.028c0-3.294,2.18-4.624,4.577-4.624c2.35,0,4.328,0.903,4.328,4.36
        c0,0.279-0.083,1.011-0.113,1.113c-1.175,0-5.081,0-5.081,0c0.076,0.495,0.463,0.851,2.071,0.851c1.299,0,1.82-0.13,2.362-0.394
        v2.675c-0.496,0.34-1.341,0.641-3.15,0.641C91.614,21.65,90.006,20.15,90.006,17.028z M95.933,15.961v-0.062
        c0-0.525-0.411-1.103-1.198-1.103c-0.818,0-1.158,0.638-1.174,1.165H95.933z"/>
    <path fill="#001B36" d="M99.249,17.028c0-3.218,1.978-4.624,4.531-4.624c1.452,0,2.38,0.372,2.798,0.681v2.938
        c-0.618-0.402-1.19-0.573-1.994-0.573c-1.145,0-1.64,0.511-1.64,1.593c0,1.068,0.51,1.561,1.64,1.561
        c0.804,0,1.392-0.201,2.01-0.587v2.892c-0.417,0.34-1.407,0.742-2.768,0.742C101.089,21.65,99.249,20.273,99.249,17.028z"/>
    <path fill="#001B36" d="M107.273,9.545h3.602v3.586c0.464-0.448,1.19-0.728,2.195-0.728c2.211,0,3.046,1.191,3.046,3.634v5.348
        h-3.603v-5.308c0-0.318-0.278-0.736-0.818-0.736c-0.388,0-0.82,0.269-0.82,0.736v5.308h-3.602V9.545z"/>
</svg>
