<?xml version="1.0" encoding="iso-8859-1"?>
<!-- Generator: Adobe Illustrator 16.0.4, SVG Export Plug-In . SVG Version: 6.00 Build 0)  -->
<!DOCTYPE svg PUBLIC "-//W3C//DTD SVG 1.1//EN" "http://www.w3.org/Graphics/SVG/1.1/DTD/svg11.dtd">
<svg version="1.1" id="Layer_1" xmlns="http://www.w3.org/2000/svg" xmlns:xlink="http://www.w3.org/1999/xlink" x="0px" y="0px"
	 width="561.664px" height="148.633px" viewBox="0 0 561.664 148.633" style="enable-background:new 0 0 561.664 148.633;"
	 xml:space="preserve">
<g>
	<path style="fill:#FC6E51;" d="M206.038,59.375c-2.67-1.407-6.792-2.768-12.366-4.083s-9.083-2.58-10.528-3.793
		c-1.136-0.954-1.703-2.103-1.703-3.445c0-1.471,0.606-2.645,1.819-3.522c1.883-1.368,4.49-2.051,7.818-2.051
		c3.225,0,5.644,0.639,7.257,1.916c1.612,1.277,2.664,3.374,3.154,6.29l11.457-0.503c-0.181-5.212-2.071-9.379-5.67-12.502
		c-3.6-3.122-8.96-4.683-16.082-4.683c-4.361,0-8.083,0.658-11.167,1.974c-3.084,1.316-5.445,3.232-7.083,5.748
		c-1.639,2.516-2.458,5.219-2.458,8.109c0,4.49,1.742,8.296,5.225,11.418c2.478,2.22,6.786,4.09,12.928,5.612
		c4.773,1.187,7.831,2.013,9.173,2.477c1.96,0.697,3.334,1.516,4.122,2.458c0.787,0.942,1.181,2.084,1.181,3.425
		c0,2.09-0.936,3.916-2.806,5.477c-1.871,1.563-4.652,2.342-8.341,2.342c-3.483,0-6.251-0.875-8.302-2.632
		c-2.051-1.755-3.413-4.503-4.083-8.244l-11.147,1.083c0.748,6.348,3.044,11.181,6.89,14.496c3.844,3.315,9.353,4.974,16.527,4.974
		c4.928,0,9.044-0.69,12.347-2.071c3.303-1.379,5.857-3.488,7.664-6.328c1.806-2.838,2.709-5.883,2.709-9.134
		c0-3.586-0.755-6.6-2.264-9.038C210.798,62.704,208.708,60.782,206.038,59.375z M366.076,59.375
		c-2.67-1.407-6.792-2.768-12.366-4.083c-5.573-1.316-9.083-2.58-10.527-3.793c-1.137-0.954-1.703-2.103-1.703-3.445
		c0-1.471,0.605-2.645,1.819-3.522c1.883-1.368,4.489-2.051,7.818-2.051c3.225,0,5.644,0.639,7.257,1.916
		c1.612,1.277,2.664,3.374,3.154,6.29l11.457-0.503c-0.182-5.212-2.07-9.379-5.67-12.502c-3.6-3.122-8.961-4.683-16.082-4.683
		c-4.362,0-8.084,0.658-11.167,1.974c-3.084,1.316-5.445,3.232-7.083,5.748c-1.64,2.516-2.458,5.219-2.458,8.109
		c0,4.49,1.742,8.296,5.226,11.418c2.478,2.22,6.785,4.09,12.928,5.612c4.772,1.187,7.83,2.013,9.173,2.477
		c1.961,0.697,3.335,1.516,4.122,2.458c0.786,0.942,1.181,2.084,1.181,3.425c0,2.09-0.937,3.916-2.806,5.477
		c-1.872,1.563-4.652,2.342-8.342,2.342c-3.483,0-6.251-0.875-8.302-2.632c-2.052-1.755-3.413-4.503-4.084-8.244l-11.146,1.083
		c0.747,6.348,3.044,11.181,6.89,14.496c3.844,3.315,9.353,4.974,16.526,4.974c4.928,0,9.044-0.69,12.348-2.071
		c3.302-1.379,5.856-3.488,7.663-6.328c1.806-2.838,2.71-5.883,2.71-9.134c0-3.586-0.755-6.6-2.265-9.038
		C370.838,62.704,368.747,60.782,366.076,59.375z M430.688,90.567h11.992V33.823h-11.992V90.567z M484.325,71.716l-24.109-37.893
		h-11.572v56.742h11.05V53.563l23.748,37.002h11.934V33.823h-11.05V71.716z M412.874,56.156h-22.908V33.823h-11.691v56.744h11.691
		V65.755h22.908v24.812h11.691V33.823h-11.691V56.156z M298.866,33.823l-20.884,56.742h11.485l4.425-12.889h21.434l4.682,12.889
		h11.776l-21.469-56.742H298.866z M297.22,68.116l7.242-21.056l7.389,21.056H297.22z M247.323,72.999l-12.274-39.175h-18.215v57.431
		h11.826V51.871l12.471,39.383h12.256L265.9,51.871v39.383h11.826V33.823h-18.257L247.323,72.999z M528.13,67.181l0.241,0.199
		l7.435,7.435l6.146-0.689c-3.222,3.502-7.829,5.708-12.953,5.708c-9.723,0-17.636-7.914-17.636-17.639s7.913-17.638,17.636-17.638
		c6.245,0,11.729,3.272,14.865,8.182l10.35-3.546c-4.716-9.126-14.232-15.369-25.214-15.369c-15.668,0-28.371,12.702-28.371,28.371
		s12.703,28.373,28.371,28.373c7.791,0,14.846-3.142,19.972-8.227l-0.202,5.438l7.107,7.107l5.788-33.054L528.13,67.181z"/>
	<path style="fill:#FC6E51;" d="M298.319,126.083h9.713v6.118c-1.063,0.927-2.5,1.726-4.306,2.398
		c-1.807,0.672-3.573,1.009-5.297,1.009c-3.613,0-6.549-1.096-8.805-3.287c-2.257-2.19-3.385-5.484-3.385-9.881
		c0-2.886,0.526-5.331,1.582-7.336c1.055-2.004,2.449-3.48,4.183-4.43c1.733-0.95,3.802-1.425,6.205-1.425
		c1.65,0,3.136,0.262,4.457,0.784c1.32,0.523,2.384,1.244,3.192,2.163c0.806,0.919,1.477,2.305,2.009,4.157l3.935-1.075
		c-0.588-2.346-1.468-4.191-2.642-5.536c-1.175-1.345-2.67-2.384-4.485-3.116c-1.815-0.73-3.935-1.098-6.356-1.098
		c-3.283,0-6.127,0.632-8.529,1.896c-2.404,1.264-4.348,3.226-5.834,5.888c-1.485,2.661-2.229,5.786-2.229,9.374
		c0,3.544,0.739,6.579,2.217,9.105c1.476,2.527,3.479,4.449,6.012,5.765c2.531,1.315,5.411,1.974,8.64,1.974
		c2.421,0,4.778-0.43,7.071-1.289c0.799-0.299,1.586-0.668,2.366-1.07v2.008h4.277v-4.77c0.005-0.004,0.011-0.008,0.016-0.012
		v-12.215l-14.006,0.022V126.083z M193.394,128.974c-0.79,2.301-1.377,4.057-1.763,5.267l-1.57-4.863l-7.851-23.265h-6.578v32.857
		h4.21v-27.953l9.589,27.953h3.932l9.646-27.479v27.479h4.209v-32.857h-5.89L193.394,128.974z M243.168,106.112l-11.923,32.857
		h4.314l3.36-9.951h13.007l3.596,9.951h4.681l-12.661-32.857H243.168z M240.116,125.477l3.439-9.638
		c0.729-2.076,1.294-4.168,1.694-6.275c0.462,1.749,1.191,4.02,2.185,6.813l3.213,9.1H240.116z M346.957,106.112l-11.924,32.857
		h4.314l3.359-9.951h13.007l3.597,9.951h4.681l-12.66-32.857H346.957z M343.903,125.477l3.439-9.638
		c0.73-2.076,1.295-4.168,1.693-6.275c0.463,1.749,1.191,4.02,2.186,6.813l3.214,9.1H343.903z M488.079,131.961l-16.254-25.849
		h-4.191v32.857h3.935v-25.854l16.228,25.854h4.192v-32.857h-3.909V131.961z M524.167,135.092v-11.184h17.102v-3.877h-17.102V109.99
		h18.259v-3.878h-22.349v32.857h23.068v-3.878H524.167z M435.456,138.97h4.089v-32.857h-4.089V138.97z M392.925,132.783
		l17.333-22.793v-3.878h-22.143v3.878h17.256c-1.045,1.135-2.115,2.435-3.211,3.899l-15.819,21.046v4.034h24.432v-3.878h-19.726
		L392.925,132.783z"/>
	<path style="fill:#FC6E51;" d="M65.966,84.7c-19.746-7.46-36.332-20.781-37.433-38.121c-0.702-11.061,2.083-20.725,9.28-28.86
		L8.436,24.744c-5.903,1.411-9.544,7.341-8.132,13.244l24.44,102.209c1.412,5.902,7.341,9.544,13.244,8.132l12.579-3.008
		c-4.883-1.618-13.323-4.699-21.413-9.014l11.727-26.603c0,0,13.802,12.29,33.619,12.29S103.124,98.737,65.966,84.7z
		 M148.329,110.644L123.889,8.436c-1.411-5.903-7.341-9.544-13.244-8.132L89.593,5.337c5.366,0.846,15.997,3.171,27.706,9.314
		l-9.167,25.405c0,0-7.629-8.521-28.086-9.558c-19.446-0.985-30.264,20.053,7.665,32.457c29.038,9.496,38.327,27.799,37.845,44.727
		c-0.251,8.802-3.33,15.96-6.898,21.356l21.54-5.149C146.1,122.479,149.741,116.548,148.329,110.644z"/>
</g>
</svg>
